<?xml version="1.0" encoding="UTF-8" standalone="no"?>
<!DOCTYPE svg  PUBLIC '-//W3C//DTD SVG 1.1//EN'  'http://www.w3.org/Graphics/SVG/1.1/DTD/svg11.dtd'>
<svg xmlns="http://www.w3.org/2000/svg">
<defs>
<font id="ElektraLightPro-Regular" horiz-adv-x="622">
<font-face underline-position="-100" font-weight="400" descent="-200" panose-1="2 0 5 3 3 0 0 2 0 4" units-per-em="1000" unicode-range="U+0020-FB04" bbox="-208 -314 1343 876" x-height="505" underline-thickness="50" font-family="ElektraLightPro" ascent="800" cap-height="697"/>
<missing-glyph d="M50 602v-507l170 254zM80 50h340l-170 254zM280 349l170 -254v507zM250 394l170 253h-340zM0 0v697h500v-697h-500z" horiz-adv-x="500"/>
<glyph glyph-name="ff" horiz-adv-x="667" unicode="ff" d="M167 544v-39h247v47q0 53 14 87q-60 20 -123 20q-69 0 -103.5 -23t-34.5 -92zM479 552v-47h180v-60h-180v-445h-65v445h-247v-445h-65v445h-89v60h89v39q0 43 11.5 75t29.5 51t45.5 30t55 15t61.5 4q83 0 159 -29q36 29 114 29q61 0 114 -16l-17 -57q-41 13 -97 13 q-21 0 -36 -3t-31 -13t-24 -33t-8 -58z"/>
<glyph glyph-name="fi" horiz-adv-x="554" unicode="fi" d="M479 505v-505h-65v445h-247v-445h-65v445h-89v60h89v39q0 43 11.5 75t29.5 51t45.5 30t55 15t61.5 4q93 0 171 -34l-20 -56q-74 30 -151 30q-69 0 -103.5 -23t-34.5 -92v-39h312z"/>
<glyph glyph-name="fl" horiz-adv-x="559" unicode="fl" d="M479 685v-555q0 -36 10 -58.5t38 -50.5l-51 -42q-33 33 -47.5 64t-14.5 83v518q-51 15 -109 15q-69 0 -103.5 -23t-34.5 -92v-39h180v-60h-180v-445h-65v445h-89v60h89v39q0 43 11.5 75t29.5 51t45.5 30t55 15t61.5 4q91 0 174 -34z"/>
<glyph glyph-name="ffi" horiz-adv-x="866" unicode="ffi" d="M167 544v-39h247v39q0 53 18 92q-58 23 -127 23t-103.5 -23t-34.5 -92zM791 505v-505h-65v445h-247v-445h-65v445h-247v-445h-65v445h-89v60h89v39q0 43 11.5 75t29.5 51t45.5 30t55 15t61.5 4q95 0 170 -33q48 33 142 33q93 0 171 -34l-20 -56q-74 30 -151 30 q-69 0 -103.5 -23t-34.5 -92v-39h312z"/>
<glyph glyph-name="ffl" horiz-adv-x="872" unicode="ffl" d="M414 544q0 55 19 93q-63 22 -128 22q-69 0 -103.5 -23t-34.5 -92v-39h247v39zM791 685v-555q0 -36 10 -58.5t38 -50.5l-51 -42q-33 33 -47.5 64t-14.5 83v518q-51 15 -109 15q-69 0 -103.5 -23t-34.5 -92v-39h180v-60h-180v-445h-65v445h-247v-445h-65v445h-89v60h89v39 q0 43 11.5 75t29.5 51t45.5 30t55 15t61.5 4q91 0 169 -33q48 33 143 33q91 0 174 -34z"/>
<glyph glyph-name="Th" horiz-adv-x="1035" unicode="Th" d="M622 697v-219q20 16 61 28.5t86 12.5q105 0 148 -49.5t43 -184.5v-285h-65v272q0 113 -27.5 149t-105.5 36q-57 0 -98.5 -19t-41.5 -52v-386h-65v637h-236v-637h-73v637h-242v60h616z"/>
<glyph glyph-name="ffk" horiz-adv-x="1128" unicode="ffk" d="M414 544q0 55 19 93q-63 22 -128 22q-69 0 -103.5 -23t-34.5 -92v-39h247v39zM1130 0h-84q-203 249 -255 267q58 39 237 238h84q-171 -189 -231 -229q49 -25 249 -276zM791 267v-267h-65v644q-51 15 -109 15q-69 0 -103.5 -23t-34.5 -92v-39h180v-60h-180v-445h-65v445 h-247v-445h-65v445h-89v60h89v39q0 43 11.5 75t29.5 51t45.5 30t55 15t61.5 4q91 0 169 -33q48 33 143 33q91 0 174 -34v-418z"/>
<glyph glyph-name="fk" horiz-adv-x="816" unicode="fk" d="M818 0h-84q-203 249 -255 267q58 39 237 238h84q-171 -189 -231 -229q49 -25 249 -276zM479 0h-65v644q-51 15 -109 15q-69 0 -103.5 -23t-34.5 -92v-39h180v-60h-180v-445h-65v445h-89v60h89v39q0 43 11.5 75t29.5 51t45.5 30t55 15t61.5 4q91 0 174 -34v-418v-267z"/>
<glyph glyph-name="fj" horiz-adv-x="554" unicode="fj" d="M479 505v-533q0 -103 -42.5 -139t-122.5 -36v60q54 0 77 22t23 93v473h-247v-445h-65v445h-89v60h89v39q0 43 11.5 75t29.5 51t45.5 30t55 15t61.5 4q93 0 171 -34l-20 -56q-74 30 -151 30q-69 0 -103.5 -23t-34.5 -92v-39h312z"/>
<glyph glyph-name=".notdef" d="M50 602v-507l170 254zM80 50h340l-170 254zM280 349l170 -254v507zM250 394l170 253h-340zM0 0v697h500v-697h-500z" horiz-adv-x="500"/>
<glyph glyph-name=".null" horiz-adv-x="0"/>
<glyph glyph-name="nonmarkingreturn" horiz-adv-x="333"/>
<glyph glyph-name="space" horiz-adv-x="286" unicode=" "/>
<glyph glyph-name="exclam" horiz-adv-x="331" unicode="!" d="M165 103q31 0 42 -9t11 -40q0 -33 -11 -43.5t-42 -10.5q-30 0 -41 10.5t-11 43.5q0 31 11 40t41 9zM118 697h94l-22 -499h-50z"/>
<glyph glyph-name="quotedbl" horiz-adv-x="305" unicode='&quot;' d="M186 697h74l-19 -230h-46zM45 697h77l-19 -230h-47z"/>
<glyph glyph-name="numbersign" horiz-adv-x="659" unicode="#" d="M248 455l-12 -194h165l12 194h-165zM43 455l4 55h141l11 187h64l-11 -187h165l11 187h64l-11 -187h148l-4 -55h-148l-12 -194h151l-4 -54h-150l-13 -207h-64l13 207h-165l-13 -207h-64l13 207h-139l4 54h138l12 194h-141z"/>
<glyph glyph-name="dollar" horiz-adv-x="624" unicode="$" d="M154 495q0 -52 28 -76t101 -32v232q-129 -16 -129 -124zM474 194q0 54 -28.5 82.5t-102.5 39.5v-245q64 8 97.5 36.5t33.5 86.5zM283 825h60v-141q108 0 182 -21l-21 -65q-45 24 -161 24v-241q106 -13 155 -57.5t49 -128.5q0 -166 -204 -187v-145h-60v142q-118 0 -189 21 l22 65q62 -24 167 -24v256q-107 10 -154.5 49t-47.5 122q0 167 202 186v145z"/>
<glyph glyph-name="percent" horiz-adv-x="862" unicode="%" d="M658 370q-51 0 -72 -33t-21 -131q0 -94 21.5 -131t71.5 -37q52 0 72.5 36.5t20.5 131.5q0 99 -20 131.5t-73 32.5zM658 -14q-79 0 -116.5 49t-37.5 173q0 122 37 168.5t117 46.5t117 -46t37 -169q0 -124 -37.5 -173t-116.5 -49zM204 661q-51 0 -72 -33t-21 -131 q0 -94 21.5 -131t71.5 -37q52 0 72.5 36.5t20.5 131.5q0 99 -20 131.5t-73 32.5zM204 277q-79 0 -116.5 49t-37.5 173q0 122 37 168.5t117 46.5t117 -46t37 -169q0 -124 -37.5 -173t-116.5 -49zM591 697h71l-394 -697h-71z"/>
<glyph glyph-name="ampersand" horiz-adv-x="758" unicode="&amp;" d="M323 403q155 0 155 131q0 64 -33.5 91.5t-113.5 27.5t-112.5 -27t-32.5 -91q0 -70 31.5 -101t105.5 -31zM311 47q85 0 132.5 22.5t105.5 86.5q-65 96 -117.5 142t-110.5 46q-94 0 -137.5 -34.5t-43.5 -115.5t37 -114t134 -33zM717 401q0 -129 -88 -244q24 -34 100 -157 h-81q-20 37 -64 104q-69 -67 -124 -92.5t-149 -25.5q-128 0 -188 43.5t-60 155.5q0 78 43.5 130t136.5 56q-36 3 -61.5 14t-39 25t-20.5 37.5t-8.5 42.5t-1.5 49q0 175 219 175q114 0 167 -42.5t53 -127.5q0 -73 -31 -118t-117 -53q41 -5 83 -40t105 -124q59 89 59 192h67z "/>
<glyph glyph-name="quotesingle" horiz-adv-x="167" unicode="&apos;" d="M45 697h77l-19 -230h-47z"/>
<glyph glyph-name="parenleft" horiz-adv-x="255" unicode="(" d="M68 249q0 405 200 507l32 -53q-69 -25 -115 -136.5t-46 -317.5t46 -317.5t115 -136.5l-32 -53q-200 102 -200 507z"/>
<glyph glyph-name="parenright" horiz-adv-x="255" unicode=")" d="M187 249q0 -405 -200 -507l-32 53q69 25 115 136.5t46 317.5t-46 317.5t-115 136.5l32 53q200 -102 200 -507z"/>
<glyph glyph-name="asterisk" horiz-adv-x="420" unicode="*" d="M30 518v54h133l-66 116l47 26l65 -115l67 115l48 -27l-67 -115h133v-54h-134l67 -116l-47 -26l-66 114l-66 -114l-48 27l66 115h-132z"/>
<glyph glyph-name="plus" d="M71 328v60h208v210h62v-210h209v-60h-209v-209h-62v209h-208z" unicode="+"/>
<glyph glyph-name="comma" horiz-adv-x="256" unicode="," d="M192 98l-109 -257h-60l78 257h91z"/>
<glyph glyph-name="hyphen" horiz-adv-x="277" unicode="-" d="M33 245v60h211v-60h-211z"/>
<glyph glyph-name="hyphen" horiz-adv-x="277" unicode="­" d="M33 245v60h211v-60h-211z"/>
<glyph glyph-name="period" horiz-adv-x="256" unicode="." d="M127 103q32 0 42.5 -9t10.5 -40q0 -34 -10.5 -44t-42.5 -10q-30 0 -40.5 10.5t-10.5 43.5q0 31 10.5 40t40.5 9z"/>
<glyph glyph-name="slash" horiz-adv-x="427" unicode="/" d="M397 697h76l-357 -697h-74z"/>
<glyph glyph-name="zero" d="M310 656q-67 0 -101.5 -21t-53 -85.5t-18.5 -191.5q0 -121 18 -188.5t54.5 -94.5t100.5 -27q97 0 136 65.5t39 244.5q0 96 -9 154.5t-31.5 90.5t-53 42.5t-81.5 10.5zM311 -14q-86 0 -138.5 33t-80.5 115.5t-28 223.5q0 139 28 218t80 108.5t139 29.5q88 0 139.5 -29.5 t79.5 -108.5t28 -218q0 -208 -58.5 -290t-188.5 -82z" unicode="0"/>
<glyph glyph-name="one" d="M372 0h-72v621l-156 -75l-24 54l252 122v-722z" unicode="1"/>
<glyph glyph-name="two" d="M534 60v-60h-472v56q150 119 225 182.5t118.5 116t52 82t8.5 80.5q0 75 -40.5 103.5t-135.5 28.5q-45 0 -97.5 -7.5t-76.5 -19.5l-18 65q110 27 193 27q130 0 190 -45t60 -150q0 -55 -12.5 -95t-54.5 -93t-116.5 -115t-202.5 -156h379z" unicode="2"/>
<glyph glyph-name="three" d="M386 375q91 -4 126.5 -53t35.5 -130q0 -114 -64.5 -160t-208.5 -46q-97 0 -213 29l17 56q79 -24 196 -24q114 0 155 32.5t41 114.5q0 83 -41.5 116.5t-142.5 33.5h-80v59h80q91 0 132 31t41 101q0 65 -38 91.5t-142 26.5q-112 0 -192 -26l-18 60q126 27 210 27 q138 0 196 -41.5t58 -128.5q0 -72 -31.5 -116.5t-116.5 -52.5z" unicode="3"/>
<glyph glyph-name="four" horiz-adv-x="615" unicode="4" d="M460 697v-434h99v-59h-99v-204h-71v204h-353v15q56 103 143.5 240t165.5 238h115zM389 263v389q-64 -78 -137.5 -193t-118.5 -196h256z"/>
<glyph glyph-name="five" d="M181 637v-225q51 6 113 6q140 0 197 -49.5t57 -164.5q0 -122 -63 -170t-208 -48q-81 0 -199 29l18 56q78 -24 181 -24q114 0 154 33t40 115q0 92 -36.5 127t-140.5 35q-105 0 -183 -19v359h394v-60h-324z" unicode="5"/>
<glyph glyph-name="six" d="M325 47q103 0 138 32.5t35 115.5q0 92 -37 127t-141 35q-101 0 -181 -18q1 -90 12 -147.5t36 -89t57 -43.5t81 -12zM530 621q-69 28 -156 28q-63 0 -101.5 -9t-70 -35t-46 -75.5t-17.5 -128.5q85 17 181 17q140 0 197.5 -49.5t57.5 -164.5q0 -122 -58 -170t-192 -48 q-98 0 -153 32.5t-81.5 112t-26.5 222.5q0 106 19 176.5t60 111t95.5 57t134.5 16.5q88 0 180 -29z" unicode="6"/>
<glyph glyph-name="seven" d="M584 697v-26q-80 -129 -168 -320.5t-144 -350.5h-82q62 171 145 348.5t153 288.5h-397v60h493z" unicode="7"/>
<glyph glyph-name="eight" d="M311 -14q-126 0 -187 47t-61 159q0 81 35.5 130t127.5 53q-85 8 -114.5 51.5t-29.5 117.5q0 86 54 128t175 42t175.5 -42t54.5 -128q0 -74 -29.5 -117.5t-114.5 -51.5q91 -4 126.5 -53t35.5 -130q0 -113 -60.5 -159.5t-187.5 -46.5zM311 403q82 0 118.5 31t36.5 101 q0 64 -34.5 91t-120.5 27t-120.5 -27t-34.5 -91q0 -70 36.5 -101t118.5 -31zM311 47q97 0 134.5 33t37.5 114q0 82 -40 116t-132 34t-131.5 -34t-39.5 -116q0 -81 37 -114t134 -33z" unicode="8"/>
<glyph glyph-name="nine" d="M489 459q0 53 -7 89t-19.5 57t-36.5 32t-49.5 14t-67.5 3q-102 0 -137.5 -38.5t-35.5 -124.5q0 -89 35.5 -118t142.5 -29q92 0 160 13q15 48 15 102zM314 282q-143 0 -199 44t-56 157q0 123 59 177t191 54q146 0 200 -49.5t54 -193.5q0 -75 -23.5 -144.5t-67 -129.5 t-85 -103.5t-98.5 -93.5h-100q197 164 260 292q-80 -10 -135 -10z" unicode="9"/>
<glyph glyph-name="colon" horiz-adv-x="256" unicode=":" d="M127 505q32 0 42.5 -9t10.5 -40q0 -34 -10.5 -44t-42.5 -10q-30 0 -40.5 10t-10.5 44q0 31 10.5 40t40.5 9zM127 103q32 0 42.5 -9t10.5 -40q0 -34 -10.5 -44t-42.5 -10q-30 0 -40.5 10.5t-10.5 43.5q0 31 10.5 40t40.5 9z"/>
<glyph glyph-name="semicolon" horiz-adv-x="256" unicode=";" d="M127 505q32 0 42.5 -9t10.5 -40q0 -34 -10.5 -44t-42.5 -10q-30 0 -40.5 10t-10.5 44q0 31 10.5 40t40.5 9zM192 98l-109 -257h-60l78 257h91z"/>
<glyph glyph-name="less" d="M516 622l-320 -264l320 -266l-37 -44l-368 292v34l366 291z" unicode="&lt;"/>
<glyph glyph-name="equal" d="M71 427v60h479v-60h-479zM71 221v60h479v-60h-479z" unicode="="/>
<glyph glyph-name="greater" d="M112 92l320 264l-320 266l37 44l368 -292v-34l-366 -291z" unicode="&gt;"/>
<glyph glyph-name="question" horiz-adv-x="466" unicode="?" d="M257 198h-81q90 85 131.5 162.5t41.5 163.5q0 63 -31 94t-115 31q-85 0 -137 -24l-20 64q27 10 75.5 17.5t81.5 7.5q222 0 222 -184q0 -90 -38 -166.5t-130 -165.5zM214 103q32 0 42.5 -9t10.5 -40q0 -34 -10.5 -44t-42.5 -10q-30 0 -40.5 10.5t-10.5 43.5q0 31 10.5 40 t40.5 9z"/>
<glyph glyph-name="at" horiz-adv-x="932" unicode="@" d="M466 374q-85 0 -112.5 -19t-27.5 -86t28.5 -90.5t106.5 -23.5q79 0 107.5 32t28.5 125v53q-52 9 -131 9zM446 432q93 0 151 -12q-1 86 -40 117t-136 31q-85 0 -135 -11.5t-86 -45t-49.5 -92.5t-13.5 -156q0 -180 68.5 -240.5t259.5 -60.5q97 0 158 14.5t101.5 53 t57 100.5t16.5 160q0 148 -24 215h73q22 -67 22 -217q0 -113 -23.5 -188t-75 -119.5t-124.5 -63t-181 -18.5t-180 17t-123.5 58t-75 112t-23.5 179q0 106 21.5 177.5t66.5 112t107.5 57.5t152.5 17q46 0 78 -3.5t62.5 -13.5t49.5 -28.5t34 -48t21.5 -72.5t6.5 -102 q0 -84 -10.5 -136t-37 -80.5t-62 -38.5t-94.5 -10q-113 0 -159.5 36t-46.5 134q0 54 11.5 87.5t38 50.5t58.5 22.5t85 5.5z"/>
<glyph glyph-name="A" horiz-adv-x="668" unicode="A" d="M320 641q-91 -225 -142 -366h296q-65 179 -125 366h-29zM580 0q-56 139 -84 215h-340q-40 -115 -72 -215h-71q128 372 263 697h123q140 -417 262 -697h-81z"/>
<glyph glyph-name="B" horiz-adv-x="689" unicode="B" d="M464 375q91 -4 124 -50t33 -128q0 -97 -44.5 -147t-129.5 -50h-346v697h335q50 0 84 -13t51.5 -37.5t24 -51.5t6.5 -63q0 -73 -26.5 -111t-111.5 -46zM436 403q92 0 92 120q0 57 -20 85.5t-72 28.5h-263v-234h263zM446 60q98 0 98 138q0 67 -25 106.5t-77 39.5h-269v-284 h273z"/>
<glyph glyph-name="C" horiz-adv-x="602" unicode="C" d="M63 355q0 106 19 176t60.5 110.5t98 56.5t141.5 16q104 0 195 -27l-23 -65q-67 27 -171 27q-71 0 -113 -10t-73.5 -41t-43.5 -89t-12 -154q0 -127 25 -192.5t74 -88t143 -22.5q103 0 171 26l23 -64q-89 -28 -195 -28q-168 0 -243.5 81t-75.5 288z"/>
<glyph glyph-name="D" horiz-adv-x="703" unicode="D" d="M563 350q0 91 -12.5 147t-44.5 87.5t-75 42t-115 10.5h-143v-577h143q138 0 192.5 61t54.5 229zM101 697h215q85 0 143 -16.5t100 -55.5t61.5 -107t19.5 -168q0 -195 -77 -272.5t-247 -77.5h-215v697z"/>
<glyph glyph-name="E" horiz-adv-x="610" unicode="E" d="M578 697v-60h-405v-234h287v-60h-287v-283h405v-60h-477v697h477z"/>
<glyph glyph-name="F" horiz-adv-x="571" unicode="F" d="M101 697h470v-60h-398v-268h287v-60h-287v-309h-72v697z"/>
<glyph glyph-name="G" horiz-adv-x="677" unicode="G" d="M523 67v249h-182v58h254v-365q-73 -23 -213 -23q-168 0 -243.5 81t-75.5 288q0 106 19 176t60.5 110.5t98 56.5t141.5 16q104 0 195 -27l-23 -63q-68 26 -171 26q-71 0 -113 -10t-73.5 -41.5t-43.5 -89.5t-12 -154q0 -127 25 -193t74.5 -89t142.5 -23q76 0 140 17z"/>
<glyph glyph-name="H" horiz-adv-x="714" unicode="H" d="M173 341v-341h-72v697h72v-291h370v291h71v-697h-71v341h-370z"/>
<glyph glyph-name="I" horiz-adv-x="273" unicode="I" d="M173 697v-697h-72v697h72z"/>
<glyph glyph-name="J" horiz-adv-x="440" unicode="J" d="M339 697v-505q0 -62 -15.5 -104.5t-44 -63.5t-59.5 -29.5t-71 -8.5q-67 0 -136 30l24 67q50 -26 112 -26q116 0 116 135v505h74z"/>
<glyph glyph-name="K" horiz-adv-x="617" unicode="K" d="M527 0q-116 160 -213.5 257t-139.5 111q45 26 136.5 115t192.5 214h95q-105 -123 -192 -208.5t-126 -111.5q40 -23 136 -123t208 -254h-97zM173 0h-72v697h72v-697z"/>
<glyph glyph-name="L" horiz-adv-x="546" unicode="L" d="M101 697h72v-634h360v-63h-432v697z"/>
<glyph glyph-name="M" horiz-adv-x="869" unicode="M" d="M437 174q92 239 231 523h101v-697h-72v617q-117 -254 -238 -541h-53q-123 295 -235 541v-617h-70v697h108q131 -274 228 -523z"/>
<glyph glyph-name="N" horiz-adv-x="730" unicode="N" d="M173 624v-624h-72v697h98q172 -255 357 -590v590h73v-697h-86q-169 314 -370 624z"/>
<glyph glyph-name="O" horiz-adv-x="759" unicode="O" d="M379 653q-71 0 -113 -11t-72 -44.5t-41.5 -92t-11.5 -155.5q0 -122 23.5 -186.5t73 -89.5t141.5 -25q70 0 113.5 12.5t73.5 47t42 92t12 149.5q0 97 -12 155.5t-42.5 92t-73 44.5t-113.5 11zM379 -14q-113 0 -179.5 31t-101.5 112t-35 223q0 140 35 220t101.5 111 t179.5 31t180 -31t102 -111t35 -220q0 -142 -35 -223t-101.5 -112t-180.5 -31z"/>
<glyph glyph-name="P" horiz-adv-x="650" unicode="P" d="M173 0h-72v697h311q198 0 198 -226q0 -92 -46.5 -153.5t-146.5 -61.5h-244v-256zM173 320h238q59 0 89 41t30 111q0 78 -29 121.5t-85 43.5h-243v-317z"/>
<glyph glyph-name="Q" horiz-adv-x="785" unicode="Q" d="M392 653q-71 0 -113 -11t-72 -44.5t-41.5 -92t-11.5 -155.5q0 -122 23.5 -186.5t73 -89.5t141.5 -25q70 0 113.5 12.5t73.5 47t42 92t12 149.5q0 97 -12 155.5t-42.5 92t-73 44.5t-113.5 11zM604 -192q-59 83 -118 128.5t-99 49.5q-111 1 -176.5 32.5t-100 112 t-34.5 221.5q0 140 35 220t101.5 111t179.5 31t180 -31t102 -111t35 -220q0 -179 -53.5 -260.5t-171.5 -99.5q78 -13 212 -184h-92z"/>
<glyph glyph-name="R" horiz-adv-x="675" unicode="R" d="M412 637h-239v-272h234q60 0 91.5 35t31.5 96q0 68 -30.5 104.5t-87.5 36.5zM101 697h311q198 0 198 -202q0 -82 -47 -133t-154 -51q71 -24 244 -311h-90q-83 145 -149.5 223.5t-105.5 78.5h-135v-302h-72v697z"/>
<glyph glyph-name="S" horiz-adv-x="624" unicode="S" d="M515 622q-23 12 -74.5 19.5t-96.5 7.5q-100 0 -151.5 -30t-51.5 -107q0 -55 39 -84t138 -36q126 -10 183.5 -58t57.5 -144q0 -204 -283 -204q-109 0 -198 28l20 64q70 -26 177 -26q101 0 154.5 30.5t53.5 106.5q0 57 -39.5 92.5t-136.5 42.5q-129 9 -186 50.5t-57 135.5 q0 204 279 204q101 0 192 -27z"/>
<glyph glyph-name="T" horiz-adv-x="568" unicode="T" d="M321 637v-637h-73v637h-242v60h556v-60h-241z"/>
<glyph glyph-name="U" horiz-adv-x="738" unicode="U" d="M650 242q0 -78 -17.5 -129t-55.5 -78.5t-86.5 -38t-121.5 -10.5q-72 0 -120.5 10.5t-86.5 38t-56 78.5t-18 129v455h73v-456q0 -115 48.5 -153.5t160.5 -38.5q111 0 159.5 39.5t48.5 152.5v456h72v-455z"/>
<glyph glyph-name="V" horiz-adv-x="639" unicode="V" d="M319 55q123 289 235 642h72q-126 -380 -263 -697h-95q-126 399 -262 697h82q135 -323 231 -642z"/>
<glyph glyph-name="W" horiz-adv-x="905" unicode="W" d="M648 74q107 326 179 623h71q-94 -370 -206 -697h-93q-44 235 -137 594q-36 -195 -158 -594h-91q-124 469 -207 697h81q95 -287 176 -623q116 388 162 623h74q4 -14 29 -109.5t35.5 -138t30 -121.5t32.5 -140t22 -114z"/>
<glyph glyph-name="X" horiz-adv-x="648" unicode="X" d="M541 697h84q-116 -162 -252 -340q173 -232 262 -357h-87q-81 113 -219 299q-92 -121 -232 -299h-84q127 160 274 353q-126 165 -266 344h87q114 -143 222 -285q96 127 211 285z"/>
<glyph glyph-name="Y" horiz-adv-x="607" unicode="Y" d="M340 335v-335h-73v335q-119 175 -272 362h91q115 -142 223 -305q114 144 220 305h83q-146 -208 -272 -362z"/>
<glyph glyph-name="Z" horiz-adv-x="609" unicode="Z" d="M21 0v29q256 318 459 608h-432v60h536v-26q-217 -320 -458 -611h440v-60h-545z"/>
<glyph glyph-name="bracketleft" horiz-adv-x="266" unicode="[" d="M86 755h200v-58h-131v-900h131v-57h-200v1015z"/>
<glyph glyph-name="backslash" horiz-adv-x="427" unicode="\" d="M28 697l355 -697h-74l-357 697h76z"/>
<glyph glyph-name="bracketright" horiz-adv-x="266" unicode="]" d="M180 755v-1015h-200v57h131v900h-131v58h200z"/>
<glyph glyph-name="asciicircum" horiz-adv-x="471" unicode="^" d="M392 296l-159 338l-159 -338h-64l190 401h69l192 -401h-69z"/>
<glyph glyph-name="underscore" horiz-adv-x="398" unicode="_" d="M33 -128v60h332v-60h-332z"/>
<glyph glyph-name="grave" horiz-adv-x="494" unicode="`" d="M235 568l-133 129h83l119 -129h-69z"/>
<glyph glyph-name="a" horiz-adv-x="542" unicode="a" d="M401 68v184q-53 13 -136 13q-80 0 -107.5 -18.5t-27.5 -85.5q0 -74 26.5 -95t108.5 -21q72 0 136 23zM466 26q-88 -40 -204 -40q-111 0 -158 37t-47 133q0 99 51 133t149 34q68 0 144 -16q0 92 -30 121t-119 29t-145 -24l-19 61q89 25 168 25q114 0 162 -42t48 -154v-297 z"/>
<glyph glyph-name="b" horiz-adv-x="572" unicode="b" d="M280 48q62 0 94 15.5t47.5 59t15.5 129.5q0 121 -33.5 163t-123.5 42q-59 0 -99 -19t-40 -52v-317q59 -21 139 -21zM280 519q122 0 175.5 -59t53.5 -209t-53.5 -207.5t-175.5 -57.5q-48 0 -106 11t-98 29v696h65v-244q51 41 139 41z"/>
<glyph glyph-name="c" horiz-adv-x="466" unicode="c" d="M430 74l21 -60q-63 -28 -144 -28q-124 0 -184 60t-60 209q0 148 60 206t184 58q80 0 144 -25l-21 -61q-51 24 -123 24q-47 0 -77 -8t-52.5 -29.5t-32.5 -62t-10 -104.5q0 -119 39.5 -162t132.5 -43q65 0 123 26z"/>
<glyph glyph-name="d" horiz-adv-x="572" unicode="d" d="M292 48q80 0 139 21v317q0 33 -40 52t-99 19q-90 0 -123.5 -42t-33.5 -163q0 -86 15.5 -129.5t47.5 -59t94 -15.5zM292 519q88 0 139 -41v244h65v-696q-40 -18 -98 -29t-106 -11q-122 0 -175.5 57.5t-53.5 207.5t53.5 209t175.5 59z"/>
<glyph glyph-name="e" horiz-adv-x="546" unicode="e" d="M290 458q-81 0 -114.5 -32.5t-39.5 -120.5h286q-4 92 -32 122.5t-100 30.5zM290 519q111 0 158.5 -58.5t47.5 -214.5h-361q1 -118 39.5 -158.5t130.5 -40.5q72 0 145 27l15 -60q-91 -28 -166 -28q-121 0 -178.5 60t-57.5 209q0 144 55 204t172 60z"/>
<glyph glyph-name="f" horiz-adv-x="355" unicode="f" d="M167 552v-47h180v-60h-180v-445h-65v445h-89v60h89v47q0 53 13 88t38.5 51t51 22t61.5 6q61 0 114 -16l-17 -57q-41 13 -97 13q-21 0 -36 -3t-31 -13t-24 -33t-8 -58z"/>
<glyph glyph-name="g" horiz-adv-x="572" unicode="g" d="M292 457q-92 0 -124.5 -39.5t-32.5 -164.5q0 -121 33.5 -163t123.5 -42q59 0 99 19t40 53v316q-59 21 -139 21zM496 479v-442q0 -134 -62.5 -187t-187.5 -53q-34 0 -85 8.5t-78 20.5l19 62q25 -12 69.5 -20.5t74.5 -8.5q95 0 140 36.5t45 132.5q-52 -42 -139 -42 q-122 0 -175.5 59t-53.5 210q0 150 53.5 207t175.5 57q48 0 106 -11t98 -29z"/>
<glyph glyph-name="h" horiz-adv-x="554" unicode="h" d="M288 519q105 0 148 -49.5t43 -184.5v-285h-65v272q0 113 -27.5 149t-105.5 36q-57 0 -98.5 -19t-41.5 -52v-386h-65v722h65v-244q20 16 61 28.5t86 12.5z"/>
<glyph glyph-name="i" horiz-adv-x="217" unicode="i" d="M110 697q24 0 32.5 -7t8.5 -32q0 -27 -8.5 -35t-32.5 -8q-25 0 -33.5 8t-8.5 35q0 25 8.5 32t33.5 7zM141 0h-65v505h65v-505z"/>
<glyph glyph-name="j" horiz-adv-x="217" unicode="j" d="M110 697q24 0 32.5 -7t8.5 -32q0 -27 -8.5 -35t-32.5 -8q-25 0 -33.5 8t-8.5 35q0 25 8.5 32t33.5 7zM-24 -203v60q54 0 77 22t23 93v533h65v-533q0 -103 -42.5 -139t-122.5 -36z"/>
<glyph glyph-name="k" horiz-adv-x="478" unicode="k" d="M141 267q58 39 237 238h84q-171 -189 -231 -229q49 -25 249 -276h-84q-203 249 -255 267zM141 267v-267h-65v722h65v-455z"/>
<glyph glyph-name="l" horiz-adv-x="222" unicode="l" d="M141 722v-592q0 -36 10 -58.5t38 -50.5l-50 -42q-34 32 -48.5 63.5t-14.5 83.5v596h65z"/>
<glyph glyph-name="m" horiz-adv-x="860" unicode="m" d="M141 440v-440h-65v479q88 40 196 40q94 0 136 -35q93 35 186 35q110 0 150.5 -48.5t40.5 -185.5v-285h-65v272q0 113 -28.5 149t-109.5 36q-77 0 -140 -22q21 -58 21 -150v-285h-65v272q0 113 -28 149t-109 36q-67 0 -120 -17z"/>
<glyph glyph-name="n" horiz-adv-x="554" unicode="n" d="M141 440v-440h-65v479q40 18 98 29t106 11q112 0 155.5 -49t43.5 -185v-285h-65v272q0 114 -29.5 149.5t-116.5 35.5q-72 0 -127 -17z"/>
<glyph glyph-name="o" horiz-adv-x="585" unicode="o" d="M292 459q-91 0 -124 -40t-33 -166q0 -121 33.5 -164t123.5 -43q91 0 124.5 43t33.5 164q0 126 -33 166t-125 40zM292 -14q-122 0 -175.5 59t-53.5 210q0 150 53.5 207t175.5 57t176 -57t54 -207q0 -151 -54 -210t-176 -59z"/>
<glyph glyph-name="p" horiz-adv-x="572" unicode="p" d="M280 457q-80 0 -139 -21v-316q0 -34 40 -53t99 -19q90 0 123.5 42t33.5 163q0 125 -32.5 164.5t-124.5 39.5zM280 -14q-86 0 -139 42v-220h-65v671q40 18 98 29t106 11q122 0 175.5 -57t53.5 -207q0 -151 -53.5 -210t-175.5 -59z"/>
<glyph glyph-name="q" horiz-adv-x="572" unicode="q" d="M292 457q-92 0 -124.5 -39.5t-32.5 -164.5q0 -121 33.5 -163t123.5 -42q59 0 99 19t40 53v316q-59 21 -139 21zM292 -14q-122 0 -175.5 59t-53.5 210q0 150 53.5 207t175.5 57q48 0 106 -11t98 -29v-671h-65v220q-52 -42 -139 -42z"/>
<glyph glyph-name="r" horiz-adv-x="343" unicode="r" d="M283 519q28 0 52 -3v-67q-30 4 -52 4q-61 0 -101.5 -17t-40.5 -50v-386h-65v505h65v-36q16 20 54 35t88 15z"/>
<glyph glyph-name="s" horiz-adv-x="504" unicode="s" d="M404 431q-72 28 -144 28q-70 0 -99.5 -17.5t-29.5 -73.5q0 -38 29 -56t97 -22q99 -7 143 -41t44 -104q0 -88 -46 -123.5t-149 -35.5t-182 27l20 61q26 -12 74.5 -20.5t87.5 -8.5q67 0 95.5 18.5t28.5 75.5q0 42 -26.5 62t-97.5 26q-97 7 -143 37t-46 98q0 86 49 121.5 t151 35.5q73 0 166 -26z"/>
<glyph glyph-name="t" horiz-adv-x="393" unicode="t" d="M167 170q0 -66 21 -94t73 -28q55 0 96 15l15 -58q-55 -19 -111 -19q-89 0 -124 37.5t-35 145.5v276h-89v60h89v106l65 27v-133h187v-60h-187v-275z"/>
<glyph glyph-name="u" horiz-adv-x="554" unicode="u" d="M414 505h65v-479q-90 -40 -204 -40q-111 0 -155 49.5t-44 184.5v285h65v-272q0 -113 29.5 -149t115.5 -36q74 0 128 18v439z"/>
<glyph glyph-name="v" horiz-adv-x="509" unicode="v" d="M253 62q111 268 160 443h71q-62 -204 -188 -505h-92q-100 340 -179 505h73q85 -197 155 -443z"/>
<glyph glyph-name="w" horiz-adv-x="813" unicode="w" d="M787 505q-70 -265 -172 -505h-92q-54 261 -112 430q-54 -218 -130 -430h-92q-80 296 -164 505h77q74 -193 136 -443q33 92 74 230.5t57 212.5h83q57 -165 120 -443q97 256 142 443h73z"/>
<glyph glyph-name="x" horiz-adv-x="522" unicode="x" d="M489 0h-81q-63 101 -137 203q-52 -69 -160 -203h-80q99 114 203 253q-91 124 -203 252h90q96 -120 152 -198q58 79 136 198h79q-84 -125 -177 -249q76 -103 178 -256z"/>
<glyph glyph-name="y" horiz-adv-x="509" unicode="y" d="M211 -24q-99 350 -186 529h73q79 -179 156 -447q106 257 159 447h71q-63 -210 -188 -505q-41 -98 -91 -192h-76q35 65 82 168z"/>
<glyph glyph-name="z" horiz-adv-x="495" unicode="z" d="M36 0v27q207 250 315 418h-299v60h401v-25q-68 -103 -162 -231t-147 -189h310v-60h-418z"/>
<glyph glyph-name="braceleft" horiz-adv-x="259" unicode="{" d="M15 275q108 0 108 201q0 120 40.5 188.5t108.5 91.5l32 -53q-56 -15 -84.5 -65t-28.5 -162t-27 -164.5t-61 -62.5q34 -10 61 -62.5t27 -164.5t28.5 -162t84.5 -65l-32 -53q-68 23 -108.5 91.5t-40.5 188.5q0 201 -108 201v52z"/>
<glyph glyph-name="bar" horiz-adv-x="311" unicode="|" d="M120 755h71v-1011h-71v1011z"/>
<glyph glyph-name="braceright" horiz-adv-x="259" unicode="}" d="M244 275v-52q-108 0 -108 -201q0 -120 -40.5 -188.5t-108.5 -91.5l-32 53q56 15 84.5 65t28.5 162t27 164.5t61 62.5q-34 10 -61 62.5t-27 164.5t-28.5 162t-84.5 65l32 53q68 -23 108.5 -91.5t40.5 -188.5q0 -201 108 -201z"/>
<glyph glyph-name="asciitilde" d="M507 425l47 -35q-38 -101 -130 -101q-32 0 -125 44.5t-120 44.5q-41 0 -68 -65l-42 37q27 46 54 67t65 21q34 0 126 -43t118 -43q48 0 75 73z" unicode="~"/>
<glyph glyph-name="nbspace" horiz-adv-x="286" unicode=" "/>
<glyph glyph-name="exclamdown" horiz-adv-x="331" unicode="¡" d="M167 416q-31 0 -42 9t-11 40q0 33 11 43.5t42 10.5q30 0 41 -10.5t11 -43.5q0 -31 -11 -40t-41 -9zM214 -178h-94l22 499h50z"/>
<glyph glyph-name="cent" horiz-adv-x="466" unicode="¢" d="M135 390q0 -102 29 -147.5t95 -54.5v403q-66 -8 -95 -51t-29 -150zM259 757h61v-101q72 -4 131 -25l-21 -61q-45 21 -110 24v-409q60 3 110 26l21 -60q-53 -24 -131 -28v-123h-61v125q-99 10 -147.5 71.5t-48.5 195.5q0 133 48.5 192.5t147.5 68.5v104z"/>
<glyph glyph-name="sterling" horiz-adv-x="599" unicode="£" d="M47 320v60h68v111q0 222 254 222q101 0 192 -27l-20 -65q-23 12 -74.5 19.5t-96.5 7.5q-93 0 -138 -38t-45 -119v-111h192v-60h-192v-260h360v-60h-432v320h-68z"/>
<glyph glyph-name="currency" horiz-adv-x="648" unicode="¤" d="M330 555q-92 0 -124.5 -39.5t-32.5 -164.5q0 -121 33.5 -163t123.5 -42q91 0 124.5 42t33.5 163q0 86 -15.5 130t-47.5 59t-95 15zM330 84q-92 0 -141 30l-92 -114l-47 47l92 113q-41 62 -41 193q0 125 39 187l-88 117l56 40l82 -109q50 29 140 29q88 0 136 -26l75 106 l55 -39l-79 -113q43 -61 43 -192q0 -133 -43 -195l84 -111l-53 -47l-83 110q-51 -26 -135 -26z"/>
<glyph glyph-name="yen" horiz-adv-x="607" unicode="¥" d="M64 313v60h177q-111 158 -246 324h91q115 -142 223 -305q114 144 220 305h83q-130 -184 -241 -324h172v-60h-203v-96h203v-60h-203v-157h-73v157h-203v60h203v96h-203z"/>
<glyph glyph-name="brokenbar" horiz-adv-x="311" unicode="¦" d="M120 111h71v-367h-71v367zM120 755h71v-367h-71v367z"/>
<glyph glyph-name="section" horiz-adv-x="624" unicode="§" d="M156 369q-15 -35 -15 -84q0 -54 42 -80.5t144 -33.5q94 -6 151 -30q15 39 15 85q0 54 -42 80.5t-144 33.5q-97 6 -151 29zM535 687l-20 -65q-23 12 -74.5 19.5t-96.5 7.5q-203 0 -203 -133q0 -50 39 -76.5t138 -32.5q128 -9 189.5 -51t61.5 -129q0 -63 -40 -119 q41 -38 41 -111q0 -99 -74 -149.5t-205 -50.5q-101 0 -192 27l20 65q23 -12 74.5 -19.5t96.5 -7.5q203 0 203 133q0 50 -39 76.5t-138 32.5q-128 9 -189.5 51t-61.5 129q0 61 39 118q-40 40 -40 112q0 99 74 149.5t205 50.5q101 0 192 -27z"/>
<glyph glyph-name="dieresis" horiz-adv-x="408" unicode="¨" d="M299 657q24 0 32.5 -7t8.5 -32q0 -27 -8.5 -35t-32.5 -8q-25 0 -33.5 8t-8.5 35q0 25 8.5 32t33.5 7zM110 657q24 0 32.5 -7t8.5 -32q0 -27 -8.5 -35t-32.5 -8q-25 0 -33.5 8t-8.5 35q0 25 8.5 32t33.5 7z"/>
<glyph glyph-name="copyright" horiz-adv-x="873" unicode="©" d="M583 144q-65 -24 -137 -24q-112 0 -164 52t-52 182q0 131 51.5 181.5t164.5 50.5q74 0 137 -21l-18 -63q-44 20 -119 20q-55 0 -82.5 -12t-41.5 -48.5t-14 -108.5q0 -101 29.5 -136t108.5 -35q64 0 119 23zM435 657q-82 0 -133 -12t-87.5 -45.5t-51.5 -93.5t-15 -156 q0 -121 29.5 -187t89.5 -91.5t168 -25.5q82 0 134.5 13.5t89 47.5t52 92.5t15.5 150.5q0 96 -15 156t-52.5 93.5t-89 45.5t-134.5 12zM436 -14q-97 0 -161.5 17t-111 58t-67 112t-20.5 179q0 106 21 176.5t67 111.5t111 57.5t161 16.5q97 0 162 -16.5t111 -57.5t67 -111.5 t21 -176.5q0 -108 -21 -179t-67 -112t-111 -58t-162 -17z"/>
<glyph glyph-name="ordfeminine" horiz-adv-x="407" unicode="ª" d="M301 398v129q-33 9 -95 9q-49 0 -71.5 -13.5t-22.5 -58.5t20 -63.5t74 -18.5q47 0 95 16zM347 369q-64 -28 -143 -28t-111.5 25t-32.5 94q0 70 36 93.5t104 23.5q52 0 101 -11q0 64 -22 84.5t-82 20.5q-62 0 -102 -17l-13 43q66 17 118 17q80 0 113.5 -28.5t33.5 -108.5 v-208z"/>
<glyph glyph-name="guillemotleft" horiz-adv-x="595" unicode="«" d="M561 524l-217 -222l217 -228l-37 -44l-270 269l268 268zM341 524l-217 -222l217 -228l-37 -44l-270 269l268 268z"/>
<glyph glyph-name="logicalnot" horiz-adv-x="495" unicode="¬" d="M455 0h-73v344h-349v59h422v-403z"/>
<glyph glyph-name="registered" horiz-adv-x="566" unicode="®" d="M445 481q0 77 -17 116t-50 52.5t-96 13.5q-91 0 -125.5 -35.5t-34.5 -146.5q0 -107 35.5 -144.5t124.5 -37.5q92 0 127.5 37.5t35.5 144.5zM503 481q0 -131 -52 -182.5t-169 -51.5q-116 0 -167.5 51.5t-51.5 182.5q0 132 51.5 182t167.5 50q117 0 169 -50t52 -182z M339 524q0 38 -29 38h-73v-79h73q29 0 29 41zM397 525q0 -83 -65 -83q29 -13 69 -90h-69q-14 30 -33.5 59t-31.5 29h-30v-88h-57v259h149q34 0 51 -24t17 -62z"/>
<glyph glyph-name="macron" horiz-adv-x="533" unicode="¯" d="M136 586v58h251v-58h-251z"/>
<glyph glyph-name="macron" horiz-adv-x="533" unicode="ˉ" d="M136 586v58h251v-58h-251z"/>
<glyph glyph-name="degree" horiz-adv-x="408" unicode="°" d="M204 661q-51 0 -72 -33t-21 -131q0 -94 21.5 -131t71.5 -37q52 0 72.5 36.5t20.5 131.5q0 99 -20 131.5t-73 32.5zM204 277q-79 0 -116.5 49t-37.5 173q0 122 37 168.5t117 46.5t117 -46t37 -169q0 -124 -37.5 -173t-116.5 -49z"/>
<glyph glyph-name="plusminus" d="M71 40v60h479v-60h-479zM71 398v60h208v210h62v-210h209v-60h-209v-209h-62v209h-208z" unicode="±"/>
<glyph glyph-name="twosuperior" horiz-adv-x="380" unicode="²" d="M340 341v-55h-305q7 69 28.5 112t51.5 63.5t81 38.5q44 15 60.5 38t16.5 56t-24.5 47t-80.5 14q-74 0 -104 -16l-11 59q64 16 116 16q92 0 131 -28t39 -92q0 -51 -26.5 -85.5t-86.5 -57.5q-59 -23 -85.5 -44.5t-32.5 -65.5h232z"/>
<glyph glyph-name="threesuperior" horiz-adv-x="375" unicode="³" d="M233 509q56 -3 77.5 -30t21.5 -78q0 -68 -39.5 -95.5t-126.5 -27.5q-66 0 -128 19l10 51q56 -18 119 -18q56 0 77.5 16t21.5 62q0 43 -23 57t-90 14h-28v54h28q60 0 81.5 14t21.5 54q0 37 -19 49t-72 12q-61 0 -112 -17l-11 51q61 18 124 18q83 0 118.5 -25t35.5 -77 q0 -48 -17.5 -73t-69.5 -30z"/>
<glyph glyph-name="acute" horiz-adv-x="494" unicode="´" d="M171 568h-69l119 129h83z"/>
<glyph glyph-name="mu" horiz-adv-x="554" unicode="µ" d="M143 -192h-67v697h65v-272q0 -113 29.5 -149t115.5 -36q73 0 127 18v439h66v-479q-90 -40 -204 -40q-89 0 -132 29v-207z"/>
<glyph glyph-name="mu" horiz-adv-x="554" unicode="μ" d="M143 -192h-67v697h65v-272q0 -113 29.5 -149t115.5 -36q73 0 127 18v439h66v-479q-90 -40 -204 -40q-89 0 -132 29v-207z"/>
<glyph glyph-name="paragraph" horiz-adv-x="650" unicode="¶" d="M477 0v256h-97v-256h-72v256h-75q-100 0 -146.5 61.5t-46.5 153.5q0 226 198 226h311v-697h-72z"/>
<glyph glyph-name="periodcentered" horiz-adv-x="264" unicode="·" d="M131 354q34 0 45.5 -10t11.5 -43q0 -36 -11.5 -47t-45.5 -11q-32 0 -43.5 11t-11.5 47q0 33 11.5 43t43.5 10z"/>
<glyph glyph-name="periodcentered" horiz-adv-x="264" unicode="∙" d="M131 354q34 0 45.5 -10t11.5 -43q0 -36 -11.5 -47t-45.5 -11q-32 0 -43.5 11t-11.5 47q0 33 11.5 43t43.5 10z"/>
<glyph glyph-name="cedilla" horiz-adv-x="654" unicode="¸" d="M328 0h34v-47q70 0 94.5 -15t24.5 -60q0 -46 -28 -63.5t-97 -17.5q-70 0 -106 21l18 42q34 -17 88 -17q33 0 45 6.5t12 27.5q0 18 -15 25.5t-56 7.5q-12 0 -50 -2z"/>
<glyph glyph-name="onesuperior" horiz-adv-x="336" unicode="¹" d="M220 294h-64v349l-93 -45l-15 56l172 74v-434z"/>
<glyph glyph-name="ordmasculine" horiz-adv-x="441" unicode="º" d="M220 661q-61 0 -80.5 -25t-19.5 -108q0 -79 20.5 -106.5t79.5 -27.5t80 27.5t21 106.5q0 83 -20 108t-81 25zM220 341q-85 0 -122.5 41t-37.5 147q0 105 37.5 145t122.5 40q86 0 123.5 -40t37.5 -145q0 -106 -37.5 -147t-123.5 -41z"/>
<glyph glyph-name="guillemotright" horiz-adv-x="595" unicode="»" d="M35 74l217 222l-217 228l37 44l270 -269l-268 -268zM255 74l217 222l-217 228l37 44l270 -269l-268 -268z"/>
<glyph glyph-name="onequarter" horiz-adv-x="779" unicode="¼" d="M666 418v-251h60v-55h-60v-112h-62v112h-227v19q82 138 200 287h89zM604 167v204q-89 -109 -144 -204h144zM220 294h-64v349l-93 -45l-15 56l172 74v-434zM512 697h71l-394 -697h-71z"/>
<glyph glyph-name="onehalf" horiz-adv-x="779" unicode="½" d="M739 55v-55h-305q7 69 28.5 112t51.5 63.5t81 38.5q44 15 60.5 38t16.5 56t-24.5 47t-80.5 14q-74 0 -104 -16l-11 59q64 16 116 16q92 0 131 -28t39 -92q0 -51 -26.5 -85.5t-86.5 -57.5q-59 -23 -85.5 -44.5t-32.5 -65.5h232zM212 294h-64v349l-93 -45l-15 56l172 74 v-434zM504 697h71l-394 -697h-71z"/>
<glyph glyph-name="threequarters" horiz-adv-x="779" unicode="¾" d="M236 509q56 -3 77.5 -30t21.5 -78q0 -68 -39.5 -95.5t-126.5 -27.5q-66 0 -128 19l10 51q56 -18 119 -18q56 0 77.5 16t21.5 62q0 43 -23 57t-90 14h-28v54h28q60 0 81.5 14t21.5 54q0 37 -19 49t-72 12q-61 0 -112 -17l-11 51q61 18 124 18q83 0 118.5 -25t35.5 -77 q0 -48 -17.5 -73t-69.5 -30zM666 418v-251h60v-55h-60v-112h-62v112h-227v19q82 138 200 287h89zM604 167v204q-89 -109 -144 -204h144zM570 697h71l-394 -697h-71z"/>
<glyph glyph-name="questiondown" horiz-adv-x="466" unicode="¿" d="M215 321h81q-90 -85 -131.5 -162.5t-41.5 -163.5q0 -63 31 -94t115 -31q85 0 137 24l20 -64q-27 -10 -75.5 -17.5t-81.5 -7.5q-222 0 -222 184q0 90 38 166.5t130 165.5zM258 416q-32 0 -42.5 9t-10.5 40q0 34 10.5 44t42.5 10q30 0 40.5 -10.5t10.5 -43.5 q0 -31 -10.5 -40t-40.5 -9z"/>
<glyph glyph-name="Agrave" horiz-adv-x="668" unicode="À" d="M409 747h-79l-160 129h93zM320 641q-91 -225 -142 -366h296q-65 179 -125 366h-29zM580 0q-56 139 -84 215h-340q-40 -115 -72 -215h-71q128 372 263 697h123q140 -417 262 -697h-81z"/>
<glyph glyph-name="Aacute" horiz-adv-x="668" unicode="Á" d="M272 747l134 129h92l-159 -129h-67zM320 641q-91 -225 -142 -366h296q-65 179 -125 366h-29zM580 0q-56 139 -84 215h-340q-40 -115 -72 -215h-71q128 372 263 697h123q140 -417 262 -697h-81z"/>
<glyph glyph-name="Acircumflex" horiz-adv-x="668" unicode="Â" d="M332 837l-81 -90h-76l122 129h72l126 -129h-79zM320 641q-91 -225 -142 -366h296q-65 179 -125 366h-29zM580 0q-56 139 -84 215h-340q-40 -115 -72 -215h-71q128 372 263 697h123q140 -417 262 -697h-81z"/>
<glyph glyph-name="Atilde" horiz-adv-x="668" unicode="Ã" d="M469 867l40 -32q-32 -91 -110 -91q-26 0 -74 33.5t-70 33.5q-35 0 -58 -59l-35 34q23 41 45.5 60t54.5 19q29 0 76 -32t69 -32q40 0 62 66zM320 641q-91 -225 -142 -366h296q-65 179 -125 366h-29zM580 0q-56 139 -84 215h-340q-40 -115 -72 -215h-71q128 372 263 697 h123q140 -417 262 -697h-81z"/>
<glyph glyph-name="Adieresis" horiz-adv-x="668" unicode="Ä" d="M426 847q24 0 32.5 -7t8.5 -32q0 -27 -8.5 -35t-32.5 -8q-25 0 -33.5 8t-8.5 35q0 25 8.5 32t33.5 7zM237 847q24 0 32.5 -7t8.5 -32q0 -27 -8.5 -35t-32.5 -8q-25 0 -33.5 8t-8.5 35q0 25 8.5 32t33.5 7zM320 641q-91 -225 -142 -366h296q-65 179 -125 366h-29zM580 0 q-56 139 -84 215h-340q-40 -115 -72 -215h-71q128 372 263 697h123q140 -417 262 -697h-81z"/>
<glyph glyph-name="Aring" horiz-adv-x="668" unicode="Å" d="M336 828q-32 0 -44.5 -12.5t-12.5 -38.5q0 -52 57 -52q59 0 59 52q0 26 -13 38.5t-46 12.5zM320 641q-91 -225 -142 -366h296q-65 179 -125 366h-29zM336 873q110 0 110 -94q0 -60 -47 -82q140 -417 262 -697h-81q-56 139 -84 215h-340q-40 -115 -72 -215h-71 q134 388 262 696q-48 22 -48 83q0 48 25 71t84 23z"/>
<glyph glyph-name="AE" horiz-adv-x="962" unicode="Æ" d="M419 641q-167 -225 -266 -366h300v366h-34zM930 697v-60h-405v-234h247v-59h-247v-284h405v-60h-477v215h-343q-86 -125 -143 -215h-85q250 369 498 697h550z"/>
<glyph glyph-name="Ccedilla" horiz-adv-x="602" unicode="Ç" d="M63 355q0 106 19 176t60.5 110.5t98 56.5t141.5 16q104 0 195 -27l-23 -65q-67 27 -171 27q-71 0 -113 -10t-73.5 -41t-43.5 -89t-12 -154q0 -127 25 -192.5t74 -88t143 -22.5q103 0 171 26l23 -64q-89 -28 -195 -28h-6v-33q70 0 94.5 -15t24.5 -60q0 -46 -28 -63.5 t-97 -17.5q-70 0 -106 21l18 42q34 -17 88 -17q33 0 45 6.5t12 27.5q0 18 -15 25.5t-56 7.5q-12 0 -50 -2l31 80q-143 9 -208.5 91.5t-65.5 275.5z"/>
<glyph glyph-name="Egrave" horiz-adv-x="610" unicode="È" d="M455 747h-79l-160 129h93zM578 697v-60h-405v-234h287v-60h-287v-283h405v-60h-477v697h477z"/>
<glyph glyph-name="Eacute" horiz-adv-x="610" unicode="É" d="M264 747l134 129h92l-159 -129h-67zM578 697v-60h-405v-234h287v-60h-287v-283h405v-60h-477v697h477z"/>
<glyph glyph-name="Ecircumflex" horiz-adv-x="610" unicode="Ê" d="M346 837l-81 -90h-76l122 129h72l126 -129h-79zM578 697v-60h-405v-234h287v-60h-287v-283h405v-60h-477v697h477z"/>
<glyph glyph-name="Edieresis" horiz-adv-x="610" unicode="Ë" d="M445 847q24 0 32.5 -7t8.5 -32q0 -27 -8.5 -35t-32.5 -8q-25 0 -33.5 8t-8.5 35q0 25 8.5 32t33.5 7zM256 847q24 0 32.5 -7t8.5 -32q0 -27 -8.5 -35t-32.5 -8q-25 0 -33.5 8t-8.5 35q0 25 8.5 32t33.5 7zM578 697v-60h-405v-234h287v-60h-287v-283h405v-60h-477v697h477 z"/>
<glyph glyph-name="Igrave" horiz-adv-x="273" unicode="Ì" d="M205 747h-79l-160 129h93zM173 697v-697h-72v697h72z"/>
<glyph glyph-name="Iacute" horiz-adv-x="273" unicode="Í" d="M72 747l134 129h92l-159 -129h-67zM173 697v-697h-72v697h72z"/>
<glyph glyph-name="Icircumflex" horiz-adv-x="273" unicode="Î" d="M135 837l-81 -90h-76l122 129h72l126 -129h-79zM173 697v-697h-72v697h72z"/>
<glyph glyph-name="Idieresis" horiz-adv-x="273" unicode="Ï" d="M234 847q24 0 32.5 -7t8.5 -32q0 -27 -8.5 -35t-32.5 -8q-25 0 -33.5 8t-8.5 35q0 25 8.5 32t33.5 7zM45 847q24 0 32.5 -7t8.5 -32q0 -27 -8.5 -35t-32.5 -8q-25 0 -33.5 8t-8.5 35q0 25 8.5 32t33.5 7zM173 697v-697h-72v697h72z"/>
<glyph glyph-name="Eth" horiz-adv-x="703" unicode="Ð" d="M563 350q0 91 -12.5 147t-44.5 86.5t-75 41t-115 10.5h-143v-246h162v-55h-162v-274h143q138 0 192.5 61t54.5 229zM47 334v55h54v308h215q85 0 143 -16.5t100 -55.5t61.5 -107t19.5 -168q0 -195 -77 -272.5t-247 -77.5h-215v334h-54z"/>
<glyph glyph-name="Ntilde" horiz-adv-x="730" unicode="Ñ" d="M511 867l40 -32q-32 -91 -110 -91q-26 0 -74 33.5t-70 33.5q-35 0 -58 -59l-35 34q23 41 45.5 60t54.5 19q29 0 76 -32t69 -32q40 0 62 66zM173 624v-624h-72v697h98q172 -255 357 -590v590h73v-697h-86q-169 314 -370 624z"/>
<glyph glyph-name="Ograve" horiz-adv-x="759" unicode="Ò" d="M464 747h-79l-160 129h93zM379 653q-71 0 -113 -11t-72 -44.5t-41.5 -92t-11.5 -155.5q0 -122 23.5 -186.5t73 -89.5t141.5 -25q70 0 113.5 12.5t73.5 47t42 92t12 149.5q0 97 -12 155.5t-42.5 92t-73 44.5t-113.5 11zM379 -14q-113 0 -179.5 31t-101.5 112t-35 223 q0 140 35 220t101.5 111t179.5 31t180 -31t102 -111t35 -220q0 -142 -35 -223t-101.5 -112t-180.5 -31z"/>
<glyph glyph-name="Oacute" horiz-adv-x="759" unicode="Ó" d="M264 747l134 129h92l-159 -129h-67zM379 653q-71 0 -113 -11t-72 -44.5t-41.5 -92t-11.5 -155.5q0 -122 23.5 -186.5t73 -89.5t141.5 -25q70 0 113.5 12.5t73.5 47t42 92t12 149.5q0 97 -12 155.5t-42.5 92t-73 44.5t-113.5 11zM379 -14q-113 0 -179.5 31t-101.5 112 t-35 223q0 140 35 220t101.5 111t179.5 31t180 -31t102 -111t35 -220q0 -142 -35 -223t-101.5 -112t-180.5 -31z"/>
<glyph glyph-name="Ocircumflex" horiz-adv-x="759" unicode="Ô" d="M375 837l-81 -90h-76l122 129h72l126 -129h-79zM379 653q-71 0 -113 -11t-72 -44.5t-41.5 -92t-11.5 -155.5q0 -122 23.5 -186.5t73 -89.5t141.5 -25q70 0 113.5 12.5t73.5 47t42 92t12 149.5q0 97 -12 155.5t-42.5 92t-73 44.5t-113.5 11zM379 -14q-113 0 -179.5 31 t-101.5 112t-35 223q0 140 35 220t101.5 111t179.5 31t180 -31t102 -111t35 -220q0 -142 -35 -223t-101.5 -112t-180.5 -31z"/>
<glyph glyph-name="Otilde" horiz-adv-x="759" unicode="Õ" d="M509 867l40 -32q-32 -91 -110 -91q-26 0 -74 33.5t-70 33.5q-35 0 -58 -59l-35 34q23 41 45.5 60t54.5 19q29 0 76 -32t69 -32q40 0 62 66zM379 653q-71 0 -113 -11t-72 -44.5t-41.5 -92t-11.5 -155.5q0 -122 23.5 -186.5t73 -89.5t141.5 -25q70 0 113.5 12.5t73.5 47 t42 92t12 149.5q0 97 -12 155.5t-42.5 92t-73 44.5t-113.5 11zM379 -14q-113 0 -179.5 31t-101.5 112t-35 223q0 140 35 220t101.5 111t179.5 31t180 -31t102 -111t35 -220q0 -142 -35 -223t-101.5 -112t-180.5 -31z"/>
<glyph glyph-name="Odieresis" horiz-adv-x="759" unicode="Ö" d="M475 847q24 0 32.5 -7t8.5 -32q0 -27 -8.5 -35t-32.5 -8q-25 0 -33.5 8t-8.5 35q0 25 8.5 32t33.5 7zM286 847q24 0 32.5 -7t8.5 -32q0 -27 -8.5 -35t-32.5 -8q-25 0 -33.5 8t-8.5 35q0 25 8.5 32t33.5 7zM379 653q-71 0 -113 -11t-72 -44.5t-41.5 -92t-11.5 -155.5 q0 -122 23.5 -186.5t73 -89.5t141.5 -25q70 0 113.5 12.5t73.5 47t42 92t12 149.5q0 97 -12 155.5t-42.5 92t-73 44.5t-113.5 11zM379 -14q-113 0 -179.5 31t-101.5 112t-35 223q0 140 35 220t101.5 111t179.5 31t180 -31t102 -111t35 -220q0 -142 -35 -223t-101.5 -112 t-180.5 -31z"/>
<glyph glyph-name="multiply" d="M119 507l43 42l147 -147l148 149l44 -44l-148 -149l148 -147l-43 -43l-148 148l-147 -148l-44 44l147 148z" unicode="×"/>
<glyph glyph-name="Oslash" horiz-adv-x="759" unicode="Ø" d="M379 49q70 0 113.5 12.5t73.5 47t42 92t12 149.5q0 141 -28 205l-389 -457q50 -49 176 -49zM379 653q-71 0 -113 -11t-72 -44.5t-41.5 -92t-11.5 -155.5q0 -137 29 -204l389 459q-48 48 -180 48zM713 697l-72 -85q55 -83 55 -260q0 -142 -35 -223t-101.5 -112t-180.5 -31 q-152 0 -222 58l-37 -44h-74l73 86q-56 84 -56 266q0 140 35 220t101.5 111t179.5 31q152 0 223 -59l35 42h76z"/>
<glyph glyph-name="Ugrave" horiz-adv-x="738" unicode="Ù" d="M475 747h-79l-160 129h93zM650 242q0 -78 -17.5 -129t-55.5 -78.5t-86.5 -38t-121.5 -10.5q-72 0 -120.5 10.5t-86.5 38t-56 78.5t-18 129v455h73v-456q0 -115 48.5 -153.5t160.5 -38.5q111 0 159.5 39.5t48.5 152.5v456h72v-455z"/>
<glyph glyph-name="Uacute" horiz-adv-x="738" unicode="Ú" d="M281 747l134 129h92l-159 -129h-67zM650 242q0 -78 -17.5 -129t-55.5 -78.5t-86.5 -38t-121.5 -10.5q-72 0 -120.5 10.5t-86.5 38t-56 78.5t-18 129v455h73v-456q0 -115 48.5 -153.5t160.5 -38.5q111 0 159.5 39.5t48.5 152.5v456h72v-455z"/>
<glyph glyph-name="Ucircumflex" horiz-adv-x="738" unicode="Û" d="M366 837l-81 -90h-76l122 129h72l126 -129h-79zM650 242q0 -78 -17.5 -129t-55.5 -78.5t-86.5 -38t-121.5 -10.5q-72 0 -120.5 10.5t-86.5 38t-56 78.5t-18 129v455h73v-456q0 -115 48.5 -153.5t160.5 -38.5q111 0 159.5 39.5t48.5 152.5v456h72v-455z"/>
<glyph glyph-name="Udieresis" horiz-adv-x="738" unicode="Ü" d="M462 847q24 0 32.5 -7t8.5 -32q0 -27 -8.5 -35t-32.5 -8q-25 0 -33.5 8t-8.5 35q0 25 8.5 32t33.5 7zM273 847q24 0 32.5 -7t8.5 -32q0 -27 -8.5 -35t-32.5 -8q-25 0 -33.5 8t-8.5 35q0 25 8.5 32t33.5 7zM650 242q0 -78 -17.5 -129t-55.5 -78.5t-86.5 -38t-121.5 -10.5 q-72 0 -120.5 10.5t-86.5 38t-56 78.5t-18 129v455h73v-456q0 -115 48.5 -153.5t160.5 -38.5q111 0 159.5 39.5t48.5 152.5v456h72v-455z"/>
<glyph glyph-name="Yacute" horiz-adv-x="607" unicode="Ý" d="M241 747l134 129h92l-159 -129h-67zM340 335v-335h-73v335q-119 175 -272 362h91q115 -142 223 -305q114 144 220 305h83q-146 -208 -272 -362z"/>
<glyph glyph-name="Thorn" horiz-adv-x="650" unicode="Þ" d="M173 203h238q59 0 89 41t30 111q0 78 -29 120.5t-85 42.5h-243v-315zM101 697h72v-117h239q198 0 198 -226q0 -92 -46.5 -153.5t-146.5 -61.5h-244v-139h-72v697z"/>
<glyph glyph-name="germandbls" horiz-adv-x="616" unicode="ß" d="M232 -11l6 60q33 -3 45 -3q114 0 155 33t41 115q0 83 -39 116.5t-140 33.5h-22v59h22q90 0 126.5 30.5t36.5 101.5q0 63 -36 90.5t-120 27.5q-80 0 -122.5 -29.5t-42.5 -86.5v-537h-66v537q0 86 64.5 131.5t166.5 45.5q110 0 170 -43.5t60 -126.5q0 -74 -29 -117.5 t-114 -51.5q91 -4 126.5 -53t35.5 -130q0 -114 -64.5 -160t-208.5 -46q-31 0 -51 3z"/>
<glyph glyph-name="agrave" horiz-adv-x="542" unicode="à" d="M279 568l-133 129h83l119 -129h-69zM401 68v184q-53 13 -136 13q-80 0 -107.5 -18.5t-27.5 -85.5q0 -74 26.5 -95t108.5 -21q72 0 136 23zM466 26q-88 -40 -204 -40q-111 0 -158 37t-47 133q0 99 51 133t149 34q68 0 144 -16q0 92 -30 121t-119 29t-145 -24l-19 61 q89 25 168 25q114 0 162 -42t48 -154v-297z"/>
<glyph glyph-name="aacute" horiz-adv-x="542" unicode="á" d="M268 568h-69l119 129h83zM401 68v184q-53 13 -136 13q-80 0 -107.5 -18.5t-27.5 -85.5q0 -74 26.5 -95t108.5 -21q72 0 136 23zM466 26q-88 -40 -204 -40q-111 0 -158 37t-47 133q0 99 51 133t149 34q68 0 144 -16q0 92 -30 121t-119 29t-145 -24l-19 61q89 25 168 25 q114 0 162 -42t48 -154v-297z"/>
<glyph glyph-name="acircumflex" horiz-adv-x="542" unicode="â" d="M354 568l-81 86l-79 -86h-78l122 129h72l126 -129h-82zM401 68v184q-53 13 -136 13q-80 0 -107.5 -18.5t-27.5 -85.5q0 -74 26.5 -95t108.5 -21q72 0 136 23zM466 26q-88 -40 -204 -40q-111 0 -158 37t-47 133q0 99 51 133t149 34q68 0 144 -16q0 92 -30 121t-119 29 t-145 -24l-19 61q89 25 168 25q114 0 162 -42t48 -154v-297z"/>
<glyph glyph-name="atilde" horiz-adv-x="542" unicode="ã" d="M398 689l41 -33q-32 -91 -105 -91q-27 0 -71 33t-67 33q-36 0 -60 -61l-36 35q24 43 47.5 62.5t55.5 19.5q30 0 70.5 -33t63.5 -33q20 0 34 15t27 53zM401 68v184q-53 13 -136 13q-80 0 -107.5 -18.5t-27.5 -85.5q0 -74 26.5 -95t108.5 -21q72 0 136 23zM466 26 q-88 -40 -204 -40q-111 0 -158 37t-47 133q0 99 51 133t149 34q68 0 144 -16q0 92 -30 121t-119 29t-145 -24l-19 61q89 25 168 25q114 0 162 -42t48 -154v-297z"/>
<glyph glyph-name="adieresis" horiz-adv-x="542" unicode="ä" d="M361 657q24 0 32.5 -7t8.5 -32q0 -27 -8.5 -35t-32.5 -8q-25 0 -33.5 8t-8.5 35q0 25 8.5 32t33.5 7zM172 657q24 0 32.5 -7t8.5 -32q0 -27 -8.5 -35t-32.5 -8q-25 0 -33.5 8t-8.5 35q0 25 8.5 32t33.5 7zM401 68v184q-53 13 -136 13q-80 0 -107.5 -18.5t-27.5 -85.5 q0 -74 26.5 -95t108.5 -21q72 0 136 23zM466 26q-88 -40 -204 -40q-111 0 -158 37t-47 133q0 99 51 133t149 34q68 0 144 -16q0 92 -30 121t-119 29t-145 -24l-19 61q89 25 168 25q114 0 162 -42t48 -154v-297z"/>
<glyph glyph-name="aring" horiz-adv-x="542" unicode="å" d="M278 693q-32 0 -44.5 -12.5t-12.5 -38.5q0 -52 57 -52q59 0 59 52q0 26 -13 38.5t-46 12.5zM278 738q110 0 110 -94t-110 -94q-109 0 -109 94q0 48 25 71t84 23zM401 68v184q-53 13 -136 13q-80 0 -107.5 -18.5t-27.5 -85.5q0 -74 26.5 -95t108.5 -21q72 0 136 23z M466 26q-88 -40 -204 -40q-111 0 -158 37t-47 133q0 99 51 133t149 34q68 0 144 -16q0 92 -30 121t-119 29t-145 -24l-19 61q89 25 168 25q114 0 162 -42t48 -154v-297z"/>
<glyph glyph-name="ae" horiz-adv-x="879" unicode="æ" d="M623 458q-80 0 -114 -31t-40 -122h286q-4 92 -32 122.5t-100 30.5zM428 79q-28 64 -28 173q-53 13 -135 13q-81 0 -108 -18.5t-27 -85.5q0 -70 25 -93t110 -23q102 0 163 34zM623 519q111 0 158.5 -58.5t47.5 -214.5h-361q1 -118 39.5 -158.5t130.5 -40.5q72 0 145 27 l15 -60q-91 -28 -166 -28q-114 0 -167 47q-25 -23 -86 -35t-117 -12q-111 0 -158 37t-47 133q0 99 51.5 133t148.5 34q68 0 144 -16q0 93 -28.5 121.5t-120.5 28.5q-89 0 -145 -24l-19 61q89 25 168 25q82 0 125 -19.5t60 -68.5q21 48 64.5 68t117.5 20z"/>
<glyph glyph-name="ccedilla" horiz-adv-x="466" unicode="ç" d="M430 74l21 -60q-63 -28 -144 -28h-17v-33q70 0 94.5 -15t24.5 -60q0 -46 -28 -63.5t-97 -17.5q-70 0 -106 21l18 42q34 -17 88 -17q33 0 45 6.5t12 27.5q0 18 -15 25.5t-56 7.5q-12 0 -50 -2l31 81q-95 11 -141.5 72.5t-46.5 193.5q0 148 60 206t184 58q80 0 144 -25 l-21 -61q-51 24 -123 24q-47 0 -77 -8t-52.5 -29.5t-32.5 -62t-10 -104.5q0 -119 39.5 -162t132.5 -43q65 0 123 26z"/>
<glyph glyph-name="egrave" horiz-adv-x="546" unicode="è" d="M308 568l-133 129h83l119 -129h-69zM290 458q-81 0 -114.5 -32.5t-39.5 -120.5h286q-4 92 -32 122.5t-100 30.5zM290 519q111 0 158.5 -58.5t47.5 -214.5h-361q1 -118 39.5 -158.5t130.5 -40.5q72 0 145 27l15 -60q-91 -28 -166 -28q-121 0 -178.5 60t-57.5 209 q0 144 55 204t172 60z"/>
<glyph glyph-name="eacute" horiz-adv-x="546" unicode="é" d="M279 568h-69l119 129h83zM290 458q-81 0 -114.5 -32.5t-39.5 -120.5h286q-4 92 -32 122.5t-100 30.5zM290 519q111 0 158.5 -58.5t47.5 -214.5h-361q1 -118 39.5 -158.5t130.5 -40.5q72 0 145 27l15 -60q-91 -28 -166 -28q-121 0 -178.5 60t-57.5 209q0 144 55 204 t172 60z"/>
<glyph glyph-name="ecircumflex" horiz-adv-x="546" unicode="ê" d="M371 568l-81 86l-79 -86h-78l122 129h72l126 -129h-82zM290 458q-81 0 -114.5 -32.5t-39.5 -120.5h286q-4 92 -32 122.5t-100 30.5zM290 519q111 0 158.5 -58.5t47.5 -214.5h-361q1 -118 39.5 -158.5t130.5 -40.5q72 0 145 27l15 -60q-91 -28 -166 -28q-121 0 -178.5 60 t-57.5 209q0 144 55 204t172 60z"/>
<glyph glyph-name="edieresis" horiz-adv-x="546" unicode="ë" d="M384 657q24 0 32.5 -7t8.5 -32q0 -27 -8.5 -35t-32.5 -8q-25 0 -33.5 8t-8.5 35q0 25 8.5 32t33.5 7zM195 657q24 0 32.5 -7t8.5 -32q0 -27 -8.5 -35t-32.5 -8q-25 0 -33.5 8t-8.5 35q0 25 8.5 32t33.5 7zM290 458q-81 0 -114.5 -32.5t-39.5 -120.5h286q-4 92 -32 122.5 t-100 30.5zM290 519q111 0 158.5 -58.5t47.5 -214.5h-361q1 -118 39.5 -158.5t130.5 -40.5q72 0 145 27l15 -60q-91 -28 -166 -28q-121 0 -178.5 60t-57.5 209q0 144 55 204t172 60z"/>
<glyph glyph-name="igrave" horiz-adv-x="217" unicode="ì" d="M92 568l-133 129h83l119 -129h-69zM141 505v-505h-65v505h65z"/>
<glyph glyph-name="iacute" horiz-adv-x="217" unicode="í" d="M120 568h-69l119 129h83zM141 505v-505h-65v505h65z"/>
<glyph glyph-name="icircumflex" horiz-adv-x="217" unicode="î" d="M187 568l-81 86l-79 -86h-78l122 129h72l126 -129h-82zM141 505v-505h-65v505h65z"/>
<glyph glyph-name="idieresis" horiz-adv-x="217" unicode="ï" d="M202 657q24 0 32.5 -7t8.5 -32q0 -27 -8.5 -35t-32.5 -8q-25 0 -33.5 8t-8.5 35q0 25 8.5 32t33.5 7zM13 657q24 0 32.5 -7t8.5 -32q0 -27 -8.5 -35t-32.5 -8q-25 0 -33.5 8t-8.5 35q0 25 8.5 32t33.5 7zM141 505v-505h-65v505h65z"/>
<glyph glyph-name="eth" d="M489 238q0 54 -15 102q-68 13 -160 13q-107 0 -142.5 -29t-35.5 -118q0 -86 35.5 -124.5t137.5 -38.5q42 0 67.5 3t49.5 14t36.5 32t19.5 57t7 89zM269 490l-33 49l74 49q-49 49 -121 109h100q42 -37 77 -72l75 50l32 -49l-66 -44q156 -172 156 -356q0 -144 -54 -193.5 t-200 -49.5q-132 0 -191 54t-59 177q0 113 56 157t199 44q55 0 135 -10q-32 66 -98 140z" unicode="ð"/>
<glyph glyph-name="ntilde" horiz-adv-x="554" unicode="ñ" d="M402 689l41 -33q-32 -91 -105 -91q-27 0 -71 33t-67 33q-36 0 -60 -61l-36 35q24 43 47.5 62.5t55.5 19.5q30 0 70.5 -33t63.5 -33q20 0 34 15t27 53zM141 440v-440h-65v479q40 18 98 29t106 11q112 0 155.5 -49t43.5 -185v-285h-65v272q0 114 -29.5 149.5t-116.5 35.5 q-72 0 -127 -17z"/>
<glyph glyph-name="ograve" horiz-adv-x="585" unicode="ò" d="M316 568l-133 129h83l119 -129h-69zM292 459q-91 0 -124 -40t-33 -166q0 -121 33.5 -164t123.5 -43q91 0 124.5 43t33.5 164q0 126 -33 166t-125 40zM292 -14q-122 0 -175.5 59t-53.5 210q0 150 53.5 207t175.5 57t176 -57t54 -207q0 -151 -54 -210t-176 -59z"/>
<glyph glyph-name="oacute" horiz-adv-x="585" unicode="ó" d="M287 568h-69l119 129h83zM292 459q-91 0 -124 -40t-33 -166q0 -121 33.5 -164t123.5 -43q91 0 124.5 43t33.5 164q0 126 -33 166t-125 40zM292 -14q-122 0 -175.5 59t-53.5 210q0 150 53.5 207t175.5 57t176 -57t54 -207q0 -151 -54 -210t-176 -59z"/>
<glyph glyph-name="ocircumflex" horiz-adv-x="585" unicode="ô" d="M369 568l-81 86l-79 -86h-78l122 129h72l126 -129h-82zM292 459q-91 0 -124 -40t-33 -166q0 -121 33.5 -164t123.5 -43q91 0 124.5 43t33.5 164q0 126 -33 166t-125 40zM292 -14q-122 0 -175.5 59t-53.5 210q0 150 53.5 207t175.5 57t176 -57t54 -207q0 -151 -54 -210 t-176 -59z"/>
<glyph glyph-name="otilde" horiz-adv-x="585" unicode="õ" d="M419 689l41 -33q-32 -91 -105 -91q-27 0 -71 33t-67 33q-36 0 -60 -61l-36 35q24 43 47.5 62.5t55.5 19.5q30 0 70.5 -33t63.5 -33q20 0 34 15t27 53zM292 459q-91 0 -124 -40t-33 -166q0 -121 33.5 -164t123.5 -43q91 0 124.5 43t33.5 164q0 126 -33 166t-125 40z M292 -14q-122 0 -175.5 59t-53.5 210q0 150 53.5 207t175.5 57t176 -57t54 -207q0 -151 -54 -210t-176 -59z"/>
<glyph glyph-name="odieresis" horiz-adv-x="585" unicode="ö" d="M386 657q24 0 32.5 -7t8.5 -32q0 -27 -8.5 -35t-32.5 -8q-25 0 -33.5 8t-8.5 35q0 25 8.5 32t33.5 7zM197 657q24 0 32.5 -7t8.5 -32q0 -27 -8.5 -35t-32.5 -8q-25 0 -33.5 8t-8.5 35q0 25 8.5 32t33.5 7zM292 459q-91 0 -124 -40t-33 -166q0 -121 33.5 -164t123.5 -43 q91 0 124.5 43t33.5 164q0 126 -33 166t-125 40zM292 -14q-122 0 -175.5 59t-53.5 210q0 150 53.5 207t175.5 57t176 -57t54 -207q0 -151 -54 -210t-176 -59z"/>
<glyph glyph-name="divide" d="M313 609q32 0 42.5 -9t10.5 -40q0 -34 -10.5 -44t-42.5 -10q-30 0 -40.5 10t-10.5 44q0 31 10.5 40t40.5 9zM313 207q32 0 42.5 -9t10.5 -40q0 -34 -10.5 -44t-42.5 -10q-30 0 -40.5 10.5t-10.5 43.5q0 31 10.5 40t40.5 9zM71 328v60h479v-60h-479z" unicode="÷"/>
<glyph glyph-name="oslash" horiz-adv-x="585" unicode="ø" d="M292 48q91 0 124.5 42t33.5 163q0 85 -14 127l-254 -304q32 -28 110 -28zM292 457q-92 0 -124.5 -39.5t-32.5 -164.5q0 -84 14 -127l254 305q-32 26 -111 26zM541 505l-56 -67q37 -61 37 -183q0 -151 -54 -210t-176 -59q-102 0 -154 38l-20 -24h-74l56 67q-37 62 -37 188 q0 150 53.5 207t175.5 57q102 0 153 -37l20 23h76z"/>
<glyph glyph-name="ugrave" horiz-adv-x="554" unicode="ù" d="M298 568l-133 129h83l119 -129h-69zM414 505h65v-479q-90 -40 -204 -40q-111 0 -155 49.5t-44 184.5v285h65v-272q0 -113 29.5 -149t115.5 -36q74 0 128 18v439z"/>
<glyph glyph-name="uacute" horiz-adv-x="554" unicode="ú" d="M277 568h-69l119 129h83zM414 505h65v-479q-90 -40 -204 -40q-111 0 -155 49.5t-44 184.5v285h65v-272q0 -113 29.5 -149t115.5 -36q74 0 128 18v439z"/>
<glyph glyph-name="ucircumflex" horiz-adv-x="554" unicode="û" d="M367 568l-81 86l-79 -86h-78l122 129h72l126 -129h-82zM414 505h65v-479q-90 -40 -204 -40q-111 0 -155 49.5t-44 184.5v285h65v-272q0 -113 29.5 -149t115.5 -36q74 0 128 18v439z"/>
<glyph glyph-name="udieresis" horiz-adv-x="554" unicode="ü" d="M383 657q24 0 32.5 -7t8.5 -32q0 -27 -8.5 -35t-32.5 -8q-25 0 -33.5 8t-8.5 35q0 25 8.5 32t33.5 7zM194 657q24 0 32.5 -7t8.5 -32q0 -27 -8.5 -35t-32.5 -8q-25 0 -33.5 8t-8.5 35q0 25 8.5 32t33.5 7zM414 505h65v-479q-90 -40 -204 -40q-111 0 -155 49.5t-44 184.5 v285h65v-272q0 -113 29.5 -149t115.5 -36q74 0 128 18v439z"/>
<glyph glyph-name="yacute" horiz-adv-x="509" unicode="ý" d="M266 568h-69l119 129h83zM211 -24q-99 350 -186 529h73q79 -179 156 -447q106 257 159 447h71q-63 -210 -188 -505q-41 -98 -91 -192h-76q35 65 82 168z"/>
<glyph glyph-name="thorn" horiz-adv-x="572" unicode="þ" d="M280 457q-80 0 -139 -21v-316q0 -34 40 -53t99 -19q90 0 123.5 42t33.5 163q0 125 -32.5 164.5t-124.5 39.5zM280 -14q-86 0 -139 42v-220h-65v914h65v-221q75 18 139 18q122 0 175.5 -57t53.5 -207q0 -151 -53.5 -210t-175.5 -59z"/>
<glyph glyph-name="ydieresis" horiz-adv-x="509" unicode="ÿ" d="M350 657q24 0 32.5 -7t8.5 -32q0 -27 -8.5 -35t-32.5 -8q-25 0 -33.5 8t-8.5 35q0 25 8.5 32t33.5 7zM161 657q24 0 32.5 -7t8.5 -32q0 -27 -8.5 -35t-32.5 -8q-25 0 -33.5 8t-8.5 35q0 25 8.5 32t33.5 7zM211 -24q-99 350 -186 529h73q79 -179 156 -447q106 257 159 447 h71q-63 -210 -188 -505q-41 -98 -91 -192h-76q35 65 82 168z"/>
<glyph glyph-name="Amacron" horiz-adv-x="668" unicode="Ā" d="M207 770v62h251v-62h-251zM320 641q-91 -225 -142 -366h296q-65 179 -125 366h-29zM580 0q-56 139 -84 215h-340q-40 -115 -72 -215h-71q128 372 263 697h123q140 -417 262 -697h-81z"/>
<glyph glyph-name="amacron" horiz-adv-x="542" unicode="ā" d="M143 586v58h251v-58h-251zM401 68v184q-53 13 -136 13q-80 0 -107.5 -18.5t-27.5 -85.5q0 -74 26.5 -95t108.5 -21q72 0 136 23zM466 26q-88 -40 -204 -40q-111 0 -158 37t-47 133q0 99 51 133t149 34q68 0 144 -16q0 92 -30 121t-119 29t-145 -24l-19 61q89 25 168 25 q114 0 162 -42t48 -154v-297z"/>
<glyph glyph-name="Abreve" horiz-adv-x="668" unicode="Ă" d="M200 871h54q0 -40 18.5 -54.5t60.5 -14.5t61 14.5t19 54.5h52q0 -126 -133 -126q-132 0 -132 126zM320 641q-91 -225 -142 -366h296q-65 179 -125 366h-29zM580 0q-56 139 -84 215h-340q-40 -115 -72 -215h-71q128 372 263 697h123q140 -417 262 -697h-81z"/>
<glyph glyph-name="abreve" horiz-adv-x="542" unicode="ă" d="M135 697h54q0 -40 18.5 -54.5t60.5 -14.5t61 14.5t19 54.5h52q0 -126 -133 -126q-132 0 -132 126zM401 68v184q-53 13 -136 13q-80 0 -107.5 -18.5t-27.5 -85.5q0 -74 26.5 -95t108.5 -21q72 0 136 23zM466 26q-88 -40 -204 -40q-111 0 -158 37t-47 133q0 99 51 133 t149 34q68 0 144 -16q0 92 -30 121t-119 29t-145 -24l-19 61q89 25 168 25q114 0 162 -42t48 -154v-297z"/>
<glyph glyph-name="Aogonek" horiz-adv-x="668" unicode="Ą" d="M320 641q-91 -225 -142 -366h296q-65 179 -125 366h-29zM635 0q-45 -29 -60 -51t-15 -53q0 -24 14 -34.5t54 -10.5q55 0 92 30l29 -49q-45 -35 -126 -35q-71 0 -99 21.5t-28 67.5q0 76 90 114h-6q-56 139 -84 215h-340q-40 -115 -72 -215h-71q128 372 263 697h123 q140 -417 262 -697h-26zM635 0q6 4 20 12h-34q-13 -4 -35 -12h49z"/>
<glyph glyph-name="aogonek" horiz-adv-x="542" unicode="ą" d="M401 68v184q-53 13 -136 13q-80 0 -107.5 -18.5t-27.5 -85.5q0 -74 26.5 -95t108.5 -21q72 0 136 23zM430 12q-57 -34 -76 -58.5t-19 -57.5q0 -24 14 -34.5t54 -10.5q55 0 92 30l29 -49q-45 -35 -126 -35q-71 0 -99 21.5t-28 67.5q0 69 75 107q-51 -7 -84 -7 q-111 0 -158 37t-47 133q0 99 51 133t149 34q68 0 144 -16q0 92 -30 121t-119 29t-145 -24l-19 61q89 25 168 25q114 0 162 -42t48 -154v-297q-20 -9 -36 -14zM430 12h-34q-29 -9 -50 -19q51 9 84 19z"/>
<glyph glyph-name="Cacute" horiz-adv-x="602" unicode="Ć" d="M260 747l134 129h92l-159 -129h-67zM63 355q0 106 19 176t60.5 110.5t98 56.5t141.5 16q104 0 195 -27l-23 -65q-67 27 -171 27q-71 0 -113 -10t-73.5 -41t-43.5 -89t-12 -154q0 -127 25 -192.5t74 -88t143 -22.5q103 0 171 26l23 -64q-89 -28 -195 -28q-168 0 -243.5 81 t-75.5 288z"/>
<glyph glyph-name="cacute" horiz-adv-x="466" unicode="ć" d="M279 568h-69l119 129h83zM430 74l21 -60q-63 -28 -144 -28q-124 0 -184 60t-60 209q0 148 60 206t184 58q80 0 144 -25l-21 -61q-51 24 -123 24q-47 0 -77 -8t-52.5 -29.5t-32.5 -62t-10 -104.5q0 -119 39.5 -162t132.5 -43q65 0 123 26z"/>
<glyph glyph-name="Ccircumflex" horiz-adv-x="602" unicode="Ĉ" d="M373 837l-81 -90h-76l122 129h72l126 -129h-79zM63 355q0 106 19 176t60.5 110.5t98 56.5t141.5 16q104 0 195 -27l-23 -65q-67 27 -171 27q-71 0 -113 -10t-73.5 -41t-43.5 -89t-12 -154q0 -127 25 -192.5t74 -88t143 -22.5q103 0 171 26l23 -64q-89 -28 -195 -28 q-168 0 -243.5 81t-75.5 288z"/>
<glyph glyph-name="ccircumflex" horiz-adv-x="466" unicode="ĉ" d="M368 568l-81 86l-79 -86h-78l122 129h72l126 -129h-82zM430 74l21 -60q-63 -28 -144 -28q-124 0 -184 60t-60 209q0 148 60 206t184 58q80 0 144 -25l-21 -61q-51 24 -123 24q-47 0 -77 -8t-52.5 -29.5t-32.5 -62t-10 -104.5q0 -119 39.5 -162t132.5 -43q65 0 123 26z "/>
<glyph glyph-name="Cdotaccent" horiz-adv-x="602" unicode="Ċ" d="M366 847q24 0 32.5 -7t8.5 -32q0 -27 -8.5 -35t-32.5 -8q-25 0 -33.5 8t-8.5 35q0 25 8.5 32t33.5 7zM63 355q0 106 19 176t60.5 110.5t98 56.5t141.5 16q104 0 195 -27l-23 -65q-67 27 -171 27q-71 0 -113 -10t-73.5 -41t-43.5 -89t-12 -154q0 -127 25 -192.5t74 -88 t143 -22.5q103 0 171 26l23 -64q-89 -28 -195 -28q-168 0 -243.5 81t-75.5 288z"/>
<glyph glyph-name="cdotaccent" horiz-adv-x="466" unicode="ċ" d="M301 657q24 0 32.5 -7t8.5 -32q0 -27 -8.5 -35t-32.5 -8q-25 0 -33.5 8t-8.5 35q0 25 8.5 32t33.5 7zM430 74l21 -60q-63 -28 -144 -28q-124 0 -184 60t-60 209q0 148 60 206t184 58q80 0 144 -25l-21 -61q-51 24 -123 24q-47 0 -77 -8t-52.5 -29.5t-32.5 -62t-10 -104.5 q0 -119 39.5 -162t132.5 -43q65 0 123 26z"/>
<glyph glyph-name="Ccaron" horiz-adv-x="602" unicode="Č" d="M363 786l81 90h76l-122 -129h-72l-126 129h79zM63 355q0 106 19 176t60.5 110.5t98 56.5t141.5 16q104 0 195 -27l-23 -65q-67 27 -171 27q-71 0 -113 -10t-73.5 -41t-43.5 -89t-12 -154q0 -127 25 -192.5t74 -88t143 -22.5q103 0 171 26l23 -64q-89 -28 -195 -28 q-168 0 -243.5 81t-75.5 288z"/>
<glyph glyph-name="ccaron" horiz-adv-x="466" unicode="č" d="M216 697l81 -86l79 86h78l-122 -129h-72l-126 129h82zM430 74l21 -60q-63 -28 -144 -28q-124 0 -184 60t-60 209q0 148 60 206t184 58q80 0 144 -25l-21 -61q-51 24 -123 24q-47 0 -77 -8t-52.5 -29.5t-32.5 -62t-10 -104.5q0 -119 39.5 -162t132.5 -43q65 0 123 26z"/>
<glyph glyph-name="Dcaron" horiz-adv-x="703" unicode="Ď" d="M326 786l81 90h76l-122 -129h-72l-126 129h79zM563 350q0 91 -12.5 147t-44.5 87.5t-75 42t-115 10.5h-143v-577h143q138 0 192.5 61t54.5 229zM101 697h215q85 0 143 -16.5t100 -55.5t61.5 -107t19.5 -168q0 -195 -77 -272.5t-247 -77.5h-215v697z"/>
<glyph glyph-name="dcaron" horiz-adv-x="572" unicode="ď" d="M549 722h73l-56 -192h-39zM292 48q80 0 139 21v317q0 33 -40 52t-99 19q-90 0 -123.5 -42t-33.5 -163q0 -86 15.5 -129.5t47.5 -59t94 -15.5zM292 519q88 0 139 -41v244h65v-696q-40 -18 -98 -29t-106 -11q-122 0 -175.5 57.5t-53.5 207.5t53.5 209t175.5 59z"/>
<glyph glyph-name="Dcroat" horiz-adv-x="703" unicode="Đ" d="M563 350q0 91 -12.5 147t-44.5 86.5t-75 41t-115 10.5h-143v-246h162v-55h-162v-274h143q138 0 192.5 61t54.5 229zM47 334v55h54v308h215q85 0 143 -16.5t100 -55.5t61.5 -107t19.5 -168q0 -195 -77 -272.5t-247 -77.5h-215v334h-54z"/>
<glyph glyph-name="dcroat" horiz-adv-x="572" unicode="đ" d="M292 48q80 0 139 21v317q0 33 -40 52t-99 19q-90 0 -123.5 -42t-33.5 -163q0 -86 15.5 -129.5t47.5 -59t94 -15.5zM323 643h108v79h65v-79h45v-55h-45v-562q-40 -18 -98 -29t-106 -11q-122 0 -175.5 57.5t-53.5 207.5t53.5 209t175.5 59q88 0 139 -41v110h-108v55z"/>
<glyph glyph-name="Emacron" horiz-adv-x="610" unicode="Ē" d="M215 770v62h251v-62h-251zM578 697v-60h-405v-234h287v-60h-287v-283h405v-60h-477v697h477z"/>
<glyph glyph-name="emacron" horiz-adv-x="546" unicode="ē" d="M163 586v58h251v-58h-251zM290 458q-81 0 -114.5 -32.5t-39.5 -120.5h286q-4 92 -32 122.5t-100 30.5zM290 519q111 0 158.5 -58.5t47.5 -214.5h-361q1 -118 39.5 -158.5t130.5 -40.5q72 0 145 27l15 -60q-91 -28 -166 -28q-121 0 -178.5 60t-57.5 209q0 144 55 204 t172 60z"/>
<glyph glyph-name="Ebreve" horiz-adv-x="610" unicode="Ĕ" d="M209 871h54q0 -40 18.5 -54.5t60.5 -14.5t61 14.5t19 54.5h52q0 -126 -133 -126q-132 0 -132 126zM578 697v-60h-405v-234h287v-60h-287v-283h405v-60h-477v697h477z"/>
<glyph glyph-name="ebreve" horiz-adv-x="546" unicode="ĕ" d="M152 697h54q0 -40 18.5 -54.5t60.5 -14.5t61 14.5t19 54.5h52q0 -126 -133 -126q-132 0 -132 126zM290 458q-81 0 -114.5 -32.5t-39.5 -120.5h286q-4 92 -32 122.5t-100 30.5zM290 519q111 0 158.5 -58.5t47.5 -214.5h-361q1 -118 39.5 -158.5t130.5 -40.5q72 0 145 27 l15 -60q-91 -28 -166 -28q-121 0 -178.5 60t-57.5 209q0 144 55 204t172 60z"/>
<glyph glyph-name="Edotaccent" horiz-adv-x="610" unicode="Ė" d="M363 847q24 0 32.5 -7t8.5 -32q0 -27 -8.5 -35t-32.5 -8q-25 0 -33.5 8t-8.5 35q0 25 8.5 32t33.5 7zM578 697v-60h-405v-234h287v-60h-287v-283h405v-60h-477v697h477z"/>
<glyph glyph-name="edotaccent" horiz-adv-x="546" unicode="ė" d="M285 657q24 0 32.5 -7t8.5 -32q0 -27 -8.5 -35t-32.5 -8q-25 0 -33.5 8t-8.5 35q0 25 8.5 32t33.5 7zM290 458q-81 0 -114.5 -32.5t-39.5 -120.5h286q-4 92 -32 122.5t-100 30.5zM290 519q111 0 158.5 -58.5t47.5 -214.5h-361q1 -118 39.5 -158.5t130.5 -40.5 q72 0 145 27l15 -60q-91 -28 -166 -28q-121 0 -178.5 60t-57.5 209q0 144 55 204t172 60z"/>
<glyph glyph-name="Eogonek" horiz-adv-x="610" unicode="Ę" d="M548 0q-45 -29 -60 -51t-15 -53q0 -24 14 -34.5t54 -10.5q55 0 92 30l29 -49q-45 -35 -126 -35q-71 0 -99 21.5t-28 67.5q0 76 90 114h-398v697h477v-60h-405v-234h287v-60h-287v-283h405v-60h-30zM548 0q6 4 20 12h-34q-13 -4 -35 -12h49z"/>
<glyph glyph-name="eogonek" horiz-adv-x="546" unicode="ę" d="M290 458q-81 0 -114.5 -32.5t-39.5 -120.5h286q-4 92 -32 122.5t-100 30.5zM290 519q111 0 158.5 -58.5t47.5 -214.5h-361q1 -118 39.5 -158.5t130.5 -40.5q72 0 145 27l15 -60q-14 -5 -39 -10q-48 -30 -64.5 -53t-16.5 -55q0 -24 14 -34.5t54 -10.5q55 0 92 30l29 -49 q-45 -35 -126 -35q-71 0 -99 21.5t-28 67.5q0 66 70 104q-40 -4 -52 -4q-121 0 -178.5 60t-57.5 209q0 144 55 204t172 60z"/>
<glyph glyph-name="Ecaron" horiz-adv-x="610" unicode="Ě" d="M352 786l81 90h76l-122 -129h-72l-126 129h79zM578 697v-60h-405v-234h287v-60h-287v-283h405v-60h-477v697h477z"/>
<glyph glyph-name="ecaron" horiz-adv-x="546" unicode="ě" d="M208 697l81 -86l79 86h78l-122 -129h-72l-126 129h82zM290 458q-81 0 -114.5 -32.5t-39.5 -120.5h286q-4 92 -32 122.5t-100 30.5zM290 519q111 0 158.5 -58.5t47.5 -214.5h-361q1 -118 39.5 -158.5t130.5 -40.5q72 0 145 27l15 -60q-91 -28 -166 -28q-121 0 -178.5 60 t-57.5 209q0 144 55 204t172 60z"/>
<glyph glyph-name="Gcircumflex" horiz-adv-x="677" unicode="Ĝ" d="M368 837l-81 -90h-76l122 129h72l126 -129h-79zM523 67v249h-182v58h254v-365q-73 -23 -213 -23q-168 0 -243.5 81t-75.5 288q0 106 19 176t60.5 110.5t98 56.5t141.5 16q104 0 195 -27l-23 -63q-68 26 -171 26q-71 0 -113 -10t-73.5 -41.5t-43.5 -89.5t-12 -154 q0 -127 25 -193t74.5 -89t142.5 -23q76 0 140 17z"/>
<glyph glyph-name="gcircumflex" horiz-adv-x="572" unicode="ĝ" d="M377 568l-81 86l-79 -86h-78l122 129h72l126 -129h-82zM292 457q-92 0 -124.5 -39.5t-32.5 -164.5q0 -121 33.5 -163t123.5 -42q59 0 99 19t40 53v316q-59 21 -139 21zM496 479v-442q0 -134 -62.5 -187t-187.5 -53q-34 0 -85 8.5t-78 20.5l19 62q25 -12 69.5 -20.5 t74.5 -8.5q95 0 140 36.5t45 132.5q-52 -42 -139 -42q-122 0 -175.5 59t-53.5 210q0 150 53.5 207t175.5 57q48 0 106 -11t98 -29z"/>
<glyph glyph-name="Gbreve" horiz-adv-x="677" unicode="Ğ" d="M239 871h54q0 -40 18.5 -54.5t60.5 -14.5t61 14.5t19 54.5h52q0 -126 -133 -126q-132 0 -132 126zM523 67v249h-182v58h254v-365q-73 -23 -213 -23q-168 0 -243.5 81t-75.5 288q0 106 19 176t60.5 110.5t98 56.5t141.5 16q104 0 195 -27l-23 -63q-68 26 -171 26 q-71 0 -113 -10t-73.5 -41.5t-43.5 -89.5t-12 -154q0 -127 25 -193t74.5 -89t142.5 -23q76 0 140 17z"/>
<glyph glyph-name="gbreve" horiz-adv-x="572" unicode="ğ" d="M165 697h54q0 -40 18.5 -54.5t60.5 -14.5t61 14.5t19 54.5h52q0 -126 -133 -126q-132 0 -132 126zM292 457q-92 0 -124.5 -39.5t-32.5 -164.5q0 -121 33.5 -163t123.5 -42q59 0 99 19t40 53v316q-59 21 -139 21zM496 479v-442q0 -134 -62.5 -187t-187.5 -53 q-34 0 -85 8.5t-78 20.5l19 62q25 -12 69.5 -20.5t74.5 -8.5q95 0 140 36.5t45 132.5q-52 -42 -139 -42q-122 0 -175.5 59t-53.5 210q0 150 53.5 207t175.5 57q48 0 106 -11t98 -29z"/>
<glyph glyph-name="Gdotaccent" horiz-adv-x="677" unicode="Ġ" d="M373 847q24 0 32.5 -7t8.5 -32q0 -27 -8.5 -35t-32.5 -8q-25 0 -33.5 8t-8.5 35q0 25 8.5 32t33.5 7zM523 67v249h-182v58h254v-365q-73 -23 -213 -23q-168 0 -243.5 81t-75.5 288q0 106 19 176t60.5 110.5t98 56.5t141.5 16q104 0 195 -27l-23 -63q-68 26 -171 26 q-71 0 -113 -10t-73.5 -41.5t-43.5 -89.5t-12 -154q0 -127 25 -193t74.5 -89t142.5 -23q76 0 140 17z"/>
<glyph glyph-name="gdotaccent" horiz-adv-x="572" unicode="ġ" d="M293 657q24 0 32.5 -7t8.5 -32q0 -27 -8.5 -35t-32.5 -8q-25 0 -33.5 8t-8.5 35q0 25 8.5 32t33.5 7zM292 457q-92 0 -124.5 -39.5t-32.5 -164.5q0 -121 33.5 -163t123.5 -42q59 0 99 19t40 53v316q-59 21 -139 21zM496 479v-442q0 -134 -62.5 -187t-187.5 -53 q-34 0 -85 8.5t-78 20.5l19 62q25 -12 69.5 -20.5t74.5 -8.5q95 0 140 36.5t45 132.5q-52 -42 -139 -42q-122 0 -175.5 59t-53.5 210q0 150 53.5 207t175.5 57q48 0 106 -11t98 -29z"/>
<glyph glyph-name="Gcommaaccent" horiz-adv-x="677" unicode="Ģ" d="M442 -51l-101 -167h-53l70 167h84zM523 67v249h-182v58h254v-365q-73 -23 -213 -23q-168 0 -243.5 81t-75.5 288q0 106 19 176t60.5 110.5t98 56.5t141.5 16q104 0 195 -27l-23 -63q-68 26 -171 26q-71 0 -113 -10t-73.5 -41.5t-43.5 -89.5t-12 -154q0 -127 25 -193 t74.5 -89t142.5 -23q76 0 140 17z"/>
<glyph glyph-name="gcommaaccent" horiz-adv-x="572" unicode="ģ" d="M389 744l-101 -167h-53l70 167h84zM292 457q-92 0 -124.5 -39.5t-32.5 -164.5q0 -121 33.5 -163t123.5 -42q59 0 99 19t40 53v316q-59 21 -139 21zM496 479v-442q0 -134 -62.5 -187t-187.5 -53q-34 0 -85 8.5t-78 20.5l19 62q25 -12 69.5 -20.5t74.5 -8.5q95 0 140 36.5 t45 132.5q-52 -42 -139 -42q-122 0 -175.5 59t-53.5 210q0 150 53.5 207t175.5 57q48 0 106 -11t98 -29z"/>
<glyph glyph-name="Hcircumflex" horiz-adv-x="714" unicode="Ĥ" d="M350 837l-81 -90h-76l122 129h72l126 -129h-79zM173 341v-341h-72v697h72v-291h370v291h71v-697h-71v341h-370z"/>
<glyph glyph-name="hcircumflex" horiz-adv-x="554" unicode="ĥ" d="M169 837l-81 -90h-76l122 129h72l126 -129h-79zM288 519q105 0 148 -49.5t43 -184.5v-285h-65v272q0 113 -27.5 149t-105.5 36q-57 0 -98.5 -19t-41.5 -52v-386h-65v722h65v-244q20 16 61 28.5t86 12.5z"/>
<glyph glyph-name="Hbar" horiz-adv-x="714" unicode="Ħ" d="M173 406h370v133h-370v-133zM33 539v58h68v100h72v-100h370v100h71v-100h69v-58h-69v-539h-71v341h-370v-341h-72v539h-68z"/>
<glyph glyph-name="hbar" horiz-adv-x="554" unicode="ħ" d="M141 386v-386h-65v595h-64v52h64v75h65v-75h122v-52h-122v-117q20 16 61 28.5t86 12.5q105 0 148 -49.5t43 -184.5v-285h-65v272q0 113 -27.5 149t-105.5 36q-57 0 -98.5 -19t-41.5 -52z"/>
<glyph glyph-name="Itilde" horiz-adv-x="273" unicode="Ĩ" d="M271 867l40 -32q-32 -91 -110 -91q-26 0 -74 33.5t-70 33.5q-35 0 -58 -59l-35 34q23 41 45.5 60t54.5 19q29 0 76 -32t69 -32q40 0 62 66zM173 697v-697h-72v697h72z"/>
<glyph glyph-name="itilde" horiz-adv-x="217" unicode="ĩ" d="M237 689l41 -33q-32 -91 -105 -91q-27 0 -71 33t-67 33q-36 0 -60 -61l-36 35q24 43 47.5 62.5t55.5 19.5q30 0 70.5 -33t63.5 -33q20 0 34 15t27 53zM141 505v-505h-65v505h65z"/>
<glyph glyph-name="Imacron" horiz-adv-x="273" unicode="Ī" d="M13 770v62h251v-62h-251zM173 697v-697h-72v697h72z"/>
<glyph glyph-name="imacron" horiz-adv-x="217" unicode="ī" d="M-16 586v58h251v-58h-251zM141 505v-505h-65v505h65z"/>
<glyph glyph-name="Ibreve" horiz-adv-x="273" unicode="Ĭ" d="M7 871h54q0 -40 18.5 -54.5t60.5 -14.5t61 14.5t19 54.5h52q0 -126 -133 -126q-132 0 -132 126zM173 697v-697h-72v697h72z"/>
<glyph glyph-name="ibreve" horiz-adv-x="217" unicode="ĭ" d="M-23 697h54q0 -40 18.5 -54.5t60.5 -14.5t61 14.5t19 54.5h52q0 -126 -133 -126q-132 0 -132 126zM141 505v-505h-65v505h65z"/>
<glyph glyph-name="Iogonek" horiz-adv-x="273" unicode="Į" d="M146 0q-45 -29 -60 -51t-15 -53q0 -24 14 -34.5t54 -10.5q55 0 92 30l29 -49q-45 -35 -126 -35q-71 0 -99 21.5t-28 67.5q0 78 94 115v-1h45zM146 0q6 4 20 12h-34q-16 -4 -31 -11v696h72v-697h-27z"/>
<glyph glyph-name="iogonek" horiz-adv-x="217" unicode="į" d="M110 697q24 0 32.5 -7t8.5 -32q0 -27 -8.5 -35t-32.5 -8q-25 0 -33.5 8t-8.5 35q0 25 8.5 32t33.5 7zM121 0q-45 -29 -60 -51t-15 -53q0 -24 14 -34.5t54 -10.5q55 0 92 30l29 -49q-45 -35 -126 -35q-71 0 -99 21.5t-28 67.5q0 78 94 115v-1h45zM121 0q6 4 20 12h-34 q-16 -4 -31 -11v504h65v-493v-12h-20z"/>
<glyph glyph-name="Idotaccent" horiz-adv-x="273" unicode="İ" d="M138 847q24 0 32.5 -7t8.5 -32q0 -27 -8.5 -35t-32.5 -8q-25 0 -33.5 8t-8.5 35q0 25 8.5 32t33.5 7zM173 697v-697h-72v697h72z"/>
<glyph glyph-name="dotlessi" horiz-adv-x="217" unicode="ı" d="M141 505v-505h-65v505h65z"/>
<glyph glyph-name="IJ" horiz-adv-x="712" unicode="Ĳ" d="M611 697v-505q0 -62 -15.5 -104.5t-44 -63.5t-59.5 -29.5t-71 -8.5q-67 0 -136 30l24 67q50 -26 112 -26q116 0 116 135v505h74zM173 697v-697h-72v697h72z"/>
<glyph glyph-name="ij" horiz-adv-x="432" unicode="ĳ" d="M189 -203v60q54 0 77 22t23 93v533h65v-533q0 -103 -42.5 -139t-122.5 -36zM323 697q24 0 32.5 -7t8.5 -32q0 -27 -8.5 -35t-32.5 -8q-25 0 -33.5 8t-8.5 35q0 25 8.5 32t33.5 7zM110 697q24 0 32.5 -7t8.5 -32q0 -27 -8.5 -35t-32.5 -8q-25 0 -33.5 8t-8.5 35 q0 25 8.5 32t33.5 7zM141 0h-65v505h65v-505z"/>
<glyph glyph-name="Jcircumflex" horiz-adv-x="440" unicode="Ĵ" d="M297 837l-81 -90h-76l122 129h72l126 -129h-79zM339 697v-505q0 -62 -15.5 -104.5t-44 -63.5t-59.5 -29.5t-71 -8.5q-67 0 -136 30l24 67q50 -26 112 -26q116 0 116 135v505h74z"/>
<glyph glyph-name="jcircumflex" horiz-adv-x="217" unicode="ĵ" d="M-24 -203v60q54 0 77 22t23 93v533h65v-533q0 -103 -42.5 -139t-122.5 -36zM192 568l-81 86l-79 -86h-78l122 129h72l126 -129h-82z"/>
<glyph glyph-name="Kcommaaccent" horiz-adv-x="617" unicode="Ķ" d="M377 -51l-101 -167h-53l70 167h84zM527 0q-116 160 -213.5 257t-139.5 111q45 26 136.5 115t192.5 214h95q-105 -123 -192 -208.5t-126 -111.5q40 -23 136 -123t208 -254h-97zM173 0h-72v697h72v-697z"/>
<glyph glyph-name="kcommaaccent" horiz-adv-x="478" unicode="ķ" d="M313 -51l-101 -167h-53l70 167h84zM141 267q58 39 237 238h84q-171 -189 -231 -229q49 -25 249 -276h-84q-203 249 -255 267zM141 267v-267h-65v722h65v-455z"/>
<glyph glyph-name="Lacute" horiz-adv-x="546" unicode="Ĺ" d="M94 747l134 129h92l-159 -129h-67zM101 697h72v-634h360v-63h-432v697z"/>
<glyph glyph-name="lacute" horiz-adv-x="222" unicode="ĺ" d="M57 747l134 129h92l-159 -129h-67zM141 722v-592q0 -36 10 -58.5t38 -50.5l-50 -42q-34 32 -48.5 63.5t-14.5 83.5v596h65z"/>
<glyph glyph-name="Lcommaaccent" horiz-adv-x="546" unicode="Ļ" d="M369 -51l-101 -167h-53l70 167h84zM101 697h72v-634h360v-63h-432v697z"/>
<glyph glyph-name="lcommaaccent" horiz-adv-x="222" unicode="ļ" d="M194 -51l-101 -167h-53l70 167h84zM141 722v-592q0 -36 10 -58.5t38 -50.5l-50 -42q-34 32 -48.5 63.5t-14.5 83.5v596h65z"/>
<glyph glyph-name="Lcaron" horiz-adv-x="546" unicode="Ľ" d="M276 722h73l-56 -192h-39zM101 697h72v-634h360v-63h-432v697z"/>
<glyph glyph-name="lcaron" horiz-adv-x="222" unicode="ľ" d="M195 722h73l-56 -192h-39zM141 722v-592q0 -36 10 -58.5t38 -50.5l-50 -42q-34 32 -48.5 63.5t-14.5 83.5v596h65z"/>
<glyph glyph-name="Ldot" horiz-adv-x="546" unicode="Ŀ" d="M314 421q24 0 32.5 -7t8.5 -32q0 -27 -8.5 -35t-32.5 -8q-25 0 -33.5 8t-8.5 35q0 25 8.5 32t33.5 7zM101 697h72v-634h360v-63h-432v697z"/>
<glyph glyph-name="ldot" horiz-adv-x="222" unicode="ŀ" d="M222 434q24 0 32.5 -7t8.5 -32q0 -27 -8.5 -35t-32.5 -8q-25 0 -33.5 8t-8.5 35q0 25 8.5 32t33.5 7zM141 722v-592q0 -36 10 -58.5t38 -50.5l-50 -42q-34 32 -48.5 63.5t-14.5 83.5v596h65z"/>
<glyph glyph-name="Lslash" horiz-adv-x="546" unicode="Ł" d="M339 525v-76l-166 -154v-232h360v-63h-432v228l-74 -68v74l74 69v394h72v-327z"/>
<glyph glyph-name="lslash" horiz-adv-x="222" unicode="ł" d="M141 722v-261l78 87v-76l-78 -86v-256q0 -36 10 -58.5t38 -50.5l-50 -42q-34 32 -48.5 63.5t-14.5 83.5v188l-73 -81v74l73 81v334h65z"/>
<glyph glyph-name="Nacute" horiz-adv-x="730" unicode="Ń" d="M304 747l134 129h92l-159 -129h-67zM173 624v-624h-72v697h98q172 -255 357 -590v590h73v-697h-86q-169 314 -370 624z"/>
<glyph glyph-name="nacute" horiz-adv-x="554" unicode="ń" d="M244 568h-69l119 129h83zM141 440v-440h-65v479q40 18 98 29t106 11q112 0 155.5 -49t43.5 -185v-285h-65v272q0 114 -29.5 149.5t-116.5 35.5q-72 0 -127 -17z"/>
<glyph glyph-name="Ncommaaccent" horiz-adv-x="730" unicode="Ņ" d="M416 -51l-101 -167h-53l70 167h84zM173 624v-624h-72v697h98q172 -255 357 -590v590h73v-697h-86q-169 314 -370 624z"/>
<glyph glyph-name="ncommaaccent" horiz-adv-x="554" unicode="ņ" d="M326 -51l-101 -167h-53l70 167h84zM141 440v-440h-65v479q40 18 98 29t106 11q112 0 155.5 -49t43.5 -185v-285h-65v272q0 114 -29.5 149.5t-116.5 35.5q-72 0 -127 -17z"/>
<glyph glyph-name="Ncaron" horiz-adv-x="730" unicode="Ň" d="M374 786l81 90h76l-122 -129h-72l-126 129h79zM173 624v-624h-72v697h98q172 -255 357 -590v590h73v-697h-86q-169 314 -370 624z"/>
<glyph glyph-name="ncaron" horiz-adv-x="554" unicode="ň" d="M196 697l81 -86l79 86h78l-122 -129h-72l-126 129h82zM141 440v-440h-65v479q40 18 98 29t106 11q112 0 155.5 -49t43.5 -185v-285h-65v272q0 114 -29.5 149.5t-116.5 35.5q-72 0 -127 -17z"/>
<glyph glyph-name="Omacron" horiz-adv-x="759" unicode="Ō" d="M254 770v62h251v-62h-251zM379 653q-71 0 -113 -11t-72 -44.5t-41.5 -92t-11.5 -155.5q0 -122 23.5 -186.5t73 -89.5t141.5 -25q70 0 113.5 12.5t73.5 47t42 92t12 149.5q0 97 -12 155.5t-42.5 92t-73 44.5t-113.5 11zM379 -14q-113 0 -179.5 31t-101.5 112t-35 223 q0 140 35 220t101.5 111t179.5 31t180 -31t102 -111t35 -220q0 -142 -35 -223t-101.5 -112t-180.5 -31z"/>
<glyph glyph-name="omacron" horiz-adv-x="585" unicode="ō" d="M165 586v58h251v-58h-251zM292 459q-91 0 -124 -40t-33 -166q0 -121 33.5 -164t123.5 -43q91 0 124.5 43t33.5 164q0 126 -33 166t-125 40zM292 -14q-122 0 -175.5 59t-53.5 210q0 150 53.5 207t175.5 57t176 -57t54 -207q0 -151 -54 -210t-176 -59z"/>
<glyph glyph-name="Obreve" horiz-adv-x="759" unicode="Ŏ" d="M246 871h54q0 -40 18.5 -54.5t60.5 -14.5t61 14.5t19 54.5h52q0 -126 -133 -126q-132 0 -132 126zM379 653q-71 0 -113 -11t-72 -44.5t-41.5 -92t-11.5 -155.5q0 -122 23.5 -186.5t73 -89.5t141.5 -25q70 0 113.5 12.5t73.5 47t42 92t12 149.5q0 97 -12 155.5t-42.5 92 t-73 44.5t-113.5 11zM379 -14q-113 0 -179.5 31t-101.5 112t-35 223q0 140 35 220t101.5 111t179.5 31t180 -31t102 -111t35 -220q0 -142 -35 -223t-101.5 -112t-180.5 -31z"/>
<glyph glyph-name="obreve" horiz-adv-x="585" unicode="ŏ" d="M159 697h54q0 -40 18.5 -54.5t60.5 -14.5t61 14.5t19 54.5h52q0 -126 -133 -126q-132 0 -132 126zM292 459q-91 0 -124 -40t-33 -166q0 -121 33.5 -164t123.5 -43q91 0 124.5 43t33.5 164q0 126 -33 166t-125 40zM292 -14q-122 0 -175.5 59t-53.5 210q0 150 53.5 207 t175.5 57t176 -57t54 -207q0 -151 -54 -210t-176 -59z"/>
<glyph glyph-name="Ohungarumlaut" horiz-adv-x="759" unicode="Ő" d="M474 876h76l-106 -129h-54zM336 876h75l-107 -129h-53zM379 653q-71 0 -113 -11t-72 -44.5t-41.5 -92t-11.5 -155.5q0 -122 23.5 -186.5t73 -89.5t141.5 -25q70 0 113.5 12.5t73.5 47t42 92t12 149.5q0 97 -12 155.5t-42.5 92t-73 44.5t-113.5 11zM379 -14 q-113 0 -179.5 31t-101.5 112t-35 223q0 140 35 220t101.5 111t179.5 31t180 -31t102 -111t35 -220q0 -142 -35 -223t-101.5 -112t-180.5 -31z"/>
<glyph glyph-name="ohungarumlaut" horiz-adv-x="585" unicode="ő" d="M389 697h76l-106 -129h-54zM251 697h75l-107 -129h-53zM292 459q-91 0 -124 -40t-33 -166q0 -121 33.5 -164t123.5 -43q91 0 124.5 43t33.5 164q0 126 -33 166t-125 40zM292 -14q-122 0 -175.5 59t-53.5 210q0 150 53.5 207t175.5 57t176 -57t54 -207q0 -151 -54 -210 t-176 -59z"/>
<glyph glyph-name="OE" horiz-adv-x="1110" unicode="Œ" d="M379 653q-71 0 -113 -11t-72 -44.5t-41.5 -92t-11.5 -155.5q0 -122 23.5 -186.5t73 -89.5t141.5 -25q70 0 113.5 12.5t73.5 47t42 92t12 149.5q0 97 -12 155.5t-42.5 92t-73 44.5t-113.5 11zM1078 697v-60h-455q63 -70 72 -234h225v-59h-224q-1 -205 -78 -284h460v-60 h-568q-52 -14 -131 -14q-113 0 -179.5 31t-101.5 112t-35 223q0 140 35 220t101.5 111t179.5 31q85 0 142 -17h557z"/>
<glyph glyph-name="oe" horiz-adv-x="931" unicode="œ" d="M675 458q-78 0 -113 -31t-41 -122h286q-4 92 -32 122.5t-100 30.5zM292 459q-91 0 -124 -40t-33 -166q0 -121 33.5 -164t123.5 -43q91 0 124.5 43t33.5 164q0 126 -33 166t-125 40zM675 519q111 0 158.5 -58.5t47.5 -214.5h-361q1 -118 39.5 -158.5t130.5 -40.5 q72 0 145 27l15 -60q-91 -28 -166 -28q-78 0 -126 21t-73 72q-23 -50 -69.5 -71.5t-123.5 -21.5q-122 0 -175.5 59t-53.5 210q0 150 53.5 207t175.5 57q75 0 121.5 -20.5t70.5 -68.5q50 89 191 89z"/>
<glyph glyph-name="Racute" horiz-adv-x="675" unicode="Ŕ" d="M242 747l134 129h92l-159 -129h-67zM412 637h-239v-272h234q60 0 91.5 35t31.5 96q0 68 -30.5 104.5t-87.5 36.5zM101 697h311q198 0 198 -202q0 -82 -47 -133t-154 -51q71 -24 244 -311h-90q-83 145 -149.5 223.5t-105.5 78.5h-135v-302h-72v697z"/>
<glyph glyph-name="racute" horiz-adv-x="343" unicode="ŕ" d="M208 568h-69l119 129h83zM283 519q28 0 52 -3v-67q-30 4 -52 4q-61 0 -101.5 -17t-40.5 -50v-386h-65v505h65v-36q16 20 54 35t88 15z"/>
<glyph glyph-name="Rcommaaccent" horiz-adv-x="675" unicode="Ŗ" d="M396 -51l-101 -167h-53l70 167h84zM412 637h-239v-272h234q60 0 91.5 35t31.5 96q0 68 -30.5 104.5t-87.5 36.5zM101 697h311q198 0 198 -202q0 -82 -47 -133t-154 -51q71 -24 244 -311h-90q-83 145 -149.5 223.5t-105.5 78.5h-135v-302h-72v697z"/>
<glyph glyph-name="rcommaaccent" horiz-adv-x="343" unicode="ŗ" d="M167 -51l-101 -167h-53l70 167h84zM283 519q28 0 52 -3v-67q-30 4 -52 4q-61 0 -101.5 -17t-40.5 -50v-386h-65v505h65v-36q16 20 54 35t88 15z"/>
<glyph glyph-name="Rcaron" horiz-adv-x="675" unicode="Ř" d="M342 786l81 90h76l-122 -129h-72l-126 129h79zM412 637h-239v-272h234q60 0 91.5 35t31.5 96q0 68 -30.5 104.5t-87.5 36.5zM101 697h311q198 0 198 -202q0 -82 -47 -133t-154 -51q71 -24 244 -311h-90q-83 145 -149.5 223.5t-105.5 78.5h-135v-302h-72v697z"/>
<glyph glyph-name="rcaron" horiz-adv-x="343" unicode="ř" d="M132 697l81 -86l79 86h78l-122 -129h-72l-126 129h82zM283 519q28 0 52 -3v-67q-30 4 -52 4q-61 0 -101.5 -17t-40.5 -50v-386h-65v505h65v-36q16 20 54 35t88 15z"/>
<glyph glyph-name="Sacute" horiz-adv-x="624" unicode="Ś" d="M231 747l134 129h92l-159 -129h-67zM515 622q-23 12 -74.5 19.5t-96.5 7.5q-100 0 -151.5 -30t-51.5 -107q0 -55 39 -84t138 -36q126 -10 183.5 -58t57.5 -144q0 -204 -283 -204q-109 0 -198 28l20 64q70 -26 177 -26q101 0 154.5 30.5t53.5 106.5q0 57 -39.5 92.5 t-136.5 42.5q-129 9 -186 50.5t-57 135.5q0 204 279 204q101 0 192 -27z"/>
<glyph glyph-name="sacute" horiz-adv-x="504" unicode="ś" d="M239 568h-69l119 129h83zM404 431q-72 28 -144 28q-70 0 -99.5 -17.5t-29.5 -73.5q0 -38 29 -56t97 -22q99 -7 143 -41t44 -104q0 -88 -46 -123.5t-149 -35.5t-182 27l20 61q26 -12 74.5 -20.5t87.5 -8.5q67 0 95.5 18.5t28.5 75.5q0 42 -26.5 62t-97.5 26q-97 7 -143 37 t-46 98q0 86 49 121.5t151 35.5q73 0 166 -26z"/>
<glyph glyph-name="Scircumflex" horiz-adv-x="624" unicode="Ŝ" d="M327 837l-81 -90h-76l122 129h72l126 -129h-79zM515 622q-23 12 -74.5 19.5t-96.5 7.5q-100 0 -151.5 -30t-51.5 -107q0 -55 39 -84t138 -36q126 -10 183.5 -58t57.5 -144q0 -204 -283 -204q-109 0 -198 28l20 64q70 -26 177 -26q101 0 154.5 30.5t53.5 106.5 q0 57 -39.5 92.5t-136.5 42.5q-129 9 -186 50.5t-57 135.5q0 204 279 204q101 0 192 -27z"/>
<glyph glyph-name="scircumflex" horiz-adv-x="504" unicode="ŝ" d="M336 568l-81 86l-79 -86h-78l122 129h72l126 -129h-82zM404 431q-72 28 -144 28q-70 0 -99.5 -17.5t-29.5 -73.5q0 -38 29 -56t97 -22q99 -7 143 -41t44 -104q0 -88 -46 -123.5t-149 -35.5t-182 27l20 61q26 -12 74.5 -20.5t87.5 -8.5q67 0 95.5 18.5t28.5 75.5 q0 42 -26.5 62t-97.5 26q-97 7 -143 37t-46 98q0 86 49 121.5t151 35.5q73 0 166 -26z"/>
<glyph glyph-name="Scedilla" horiz-adv-x="624" unicode="Ş" d="M515 622q-23 12 -74.5 19.5t-96.5 7.5q-100 0 -151.5 -30t-51.5 -107q0 -55 39 -84t138 -36q126 -10 183.5 -58t57.5 -144q0 -186 -237 -202v-35q70 0 94.5 -15t24.5 -60q0 -46 -28 -63.5t-97 -17.5q-70 0 -106 21l18 42q34 -17 88 -17q33 0 45 6.5t12 27.5 q0 18 -15 25.5t-56 7.5q-12 0 -50 -2l30 78h-6q-109 0 -198 28l20 64q70 -26 177 -26q101 0 154.5 30.5t53.5 106.5q0 57 -39.5 92.5t-136.5 42.5q-129 9 -186 50.5t-57 135.5q0 204 279 204q101 0 192 -27z"/>
<glyph glyph-name="Scedilla" horiz-adv-x="624" unicode="" d="M515 622q-23 12 -74.5 19.5t-96.5 7.5q-100 0 -151.5 -30t-51.5 -107q0 -55 39 -84t138 -36q126 -10 183.5 -58t57.5 -144q0 -186 -237 -202v-35q70 0 94.5 -15t24.5 -60q0 -46 -28 -63.5t-97 -17.5q-70 0 -106 21l18 42q34 -17 88 -17q33 0 45 6.5t12 27.5 q0 18 -15 25.5t-56 7.5q-12 0 -50 -2l30 78h-6q-109 0 -198 28l20 64q70 -26 177 -26q101 0 154.5 30.5t53.5 106.5q0 57 -39.5 92.5t-136.5 42.5q-129 9 -186 50.5t-57 135.5q0 204 279 204q101 0 192 -27z"/>
<glyph glyph-name="scedilla" horiz-adv-x="504" unicode="ş" d="M404 431q-72 28 -144 28q-70 0 -99.5 -17.5t-29.5 -73.5q0 -38 29 -56t97 -22q99 -7 143 -41t44 -104q0 -87 -45 -122.5t-147 -36.5v-33q70 0 94.5 -15t24.5 -60q0 -46 -28 -63.5t-97 -17.5q-70 0 -106 21l18 42q34 -17 88 -17q33 0 45 6.5t12 27.5q0 18 -15 25.5 t-56 7.5q-12 0 -50 -2l31 79q-91 8 -146 26l20 61q26 -12 74.5 -20.5t87.5 -8.5q67 0 95.5 18.5t28.5 75.5q0 42 -26.5 62t-97.5 26q-97 7 -143 37t-46 98q0 86 49 121.5t151 35.5q73 0 166 -26z"/>
<glyph glyph-name="scedilla" horiz-adv-x="504" unicode="" d="M404 431q-72 28 -144 28q-70 0 -99.5 -17.5t-29.5 -73.5q0 -38 29 -56t97 -22q99 -7 143 -41t44 -104q0 -87 -45 -122.5t-147 -36.5v-33q70 0 94.5 -15t24.5 -60q0 -46 -28 -63.5t-97 -17.5q-70 0 -106 21l18 42q34 -17 88 -17q33 0 45 6.5t12 27.5q0 18 -15 25.5 t-56 7.5q-12 0 -50 -2l31 79q-91 8 -146 26l20 61q26 -12 74.5 -20.5t87.5 -8.5q67 0 95.5 18.5t28.5 75.5q0 42 -26.5 62t-97.5 26q-97 7 -143 37t-46 98q0 86 49 121.5t151 35.5q73 0 166 -26z"/>
<glyph glyph-name="Scaron" horiz-adv-x="624" unicode="Š" d="M325 786l81 90h76l-122 -129h-72l-126 129h79zM515 622q-23 12 -74.5 19.5t-96.5 7.5q-100 0 -151.5 -30t-51.5 -107q0 -55 39 -84t138 -36q126 -10 183.5 -58t57.5 -144q0 -204 -283 -204q-109 0 -198 28l20 64q70 -26 177 -26q101 0 154.5 30.5t53.5 106.5 q0 57 -39.5 92.5t-136.5 42.5q-129 9 -186 50.5t-57 135.5q0 204 279 204q101 0 192 -27z"/>
<glyph glyph-name="scaron" horiz-adv-x="504" unicode="š" d="M175 697l81 -86l79 86h78l-122 -129h-72l-126 129h82zM404 431q-72 28 -144 28q-70 0 -99.5 -17.5t-29.5 -73.5q0 -38 29 -56t97 -22q99 -7 143 -41t44 -104q0 -88 -46 -123.5t-149 -35.5t-182 27l20 61q26 -12 74.5 -20.5t87.5 -8.5q67 0 95.5 18.5t28.5 75.5 q0 42 -26.5 62t-97.5 26q-97 7 -143 37t-46 98q0 86 49 121.5t151 35.5q73 0 166 -26z"/>
<glyph glyph-name="Tcommaaccent" horiz-adv-x="568" unicode="Ţ" d="M350 -51l-101 -167h-53l70 167h84zM321 637v-637h-73v637h-242v60h556v-60h-241z"/>
<glyph glyph-name="Tcommaaccent" horiz-adv-x="568" unicode="Ț" d="M350 -51l-101 -167h-53l70 167h84zM321 637v-637h-73v637h-242v60h556v-60h-241z"/>
<glyph glyph-name="tcommaaccent" horiz-adv-x="393" unicode="ţ" d="M260 -51l-101 -167h-53l70 167h84zM167 170q0 -66 21 -94t73 -28q55 0 96 15l15 -58q-55 -19 -111 -19q-89 0 -124 37.5t-35 145.5v276h-89v60h89v106l65 27v-133h187v-60h-187v-275z"/>
<glyph glyph-name="tcommaaccent" horiz-adv-x="393" unicode="ț" d="M260 -51l-101 -167h-53l70 167h84zM167 170q0 -66 21 -94t73 -28q55 0 96 15l15 -58q-55 -19 -111 -19q-89 0 -124 37.5t-35 145.5v276h-89v60h89v106l65 27v-133h187v-60h-187v-275z"/>
<glyph glyph-name="Tcaron" horiz-adv-x="568" unicode="Ť" d="M289 786l81 90h76l-122 -129h-72l-126 129h79zM321 637v-637h-73v637h-242v60h556v-60h-241z"/>
<glyph glyph-name="tcaron" horiz-adv-x="393" unicode="ť" d="M269 767h73l-56 -192h-39zM167 170q0 -66 21 -94t73 -28q55 0 96 15l15 -58q-55 -19 -111 -19q-89 0 -124 37.5t-35 145.5v276h-89v60h89v106l65 27v-133h187v-60h-187v-275z"/>
<glyph glyph-name="Tbar" horiz-adv-x="568" unicode="Ŧ" d="M154 251v62h94v320h-242v64h556v-64h-241v-320h84v-62h-84v-251h-73v251h-94z"/>
<glyph glyph-name="tbar" horiz-adv-x="393" unicode="ŧ" d="M35 290h67v156h-89v59h89v106l65 27v-133h187v-59h-187v-156h119v-62h-119v-58q0 -66 21 -94t73 -28q55 0 96 15l15 -58q-55 -19 -111 -19q-89 0 -124 37.5t-35 145.5v59h-67v62z"/>
<glyph glyph-name="Utilde" horiz-adv-x="738" unicode="Ũ" d="M504 867l40 -32q-32 -91 -110 -91q-26 0 -74 33.5t-70 33.5q-35 0 -58 -59l-35 34q23 41 45.5 60t54.5 19q29 0 76 -32t69 -32q40 0 62 66zM650 242q0 -78 -17.5 -129t-55.5 -78.5t-86.5 -38t-121.5 -10.5q-72 0 -120.5 10.5t-86.5 38t-56 78.5t-18 129v455h73v-456 q0 -115 48.5 -153.5t160.5 -38.5q111 0 159.5 39.5t48.5 152.5v456h72v-455z"/>
<glyph glyph-name="utilde" horiz-adv-x="554" unicode="ũ" d="M408 689l41 -33q-32 -91 -105 -91q-27 0 -71 33t-67 33q-36 0 -60 -61l-36 35q24 43 47.5 62.5t55.5 19.5q30 0 70.5 -33t63.5 -33q20 0 34 15t27 53zM414 505h65v-479q-90 -40 -204 -40q-111 0 -155 49.5t-44 184.5v285h65v-272q0 -113 29.5 -149t115.5 -36q74 0 128 18 v439z"/>
<glyph glyph-name="Umacron" horiz-adv-x="738" unicode="Ū" d="M241 770v62h251v-62h-251zM650 242q0 -78 -17.5 -129t-55.5 -78.5t-86.5 -38t-121.5 -10.5q-72 0 -120.5 10.5t-86.5 38t-56 78.5t-18 129v455h73v-456q0 -115 48.5 -153.5t160.5 -38.5q111 0 159.5 39.5t48.5 152.5v456h72v-455z"/>
<glyph glyph-name="umacron" horiz-adv-x="554" unicode="ū" d="M150 586v58h251v-58h-251zM414 505h65v-479q-90 -40 -204 -40q-111 0 -155 49.5t-44 184.5v285h65v-272q0 -113 29.5 -149t115.5 -36q74 0 128 18v439z"/>
<glyph glyph-name="Ubreve" horiz-adv-x="738" unicode="Ŭ" d="M238 871h54q0 -40 18.5 -54.5t60.5 -14.5t61 14.5t19 54.5h52q0 -126 -133 -126q-132 0 -132 126zM650 242q0 -78 -17.5 -129t-55.5 -78.5t-86.5 -38t-121.5 -10.5q-72 0 -120.5 10.5t-86.5 38t-56 78.5t-18 129v455h73v-456q0 -115 48.5 -153.5t160.5 -38.5 q111 0 159.5 39.5t48.5 152.5v456h72v-455z"/>
<glyph glyph-name="ubreve" horiz-adv-x="554" unicode="ŭ" d="M145 697h54q0 -40 18.5 -54.5t60.5 -14.5t61 14.5t19 54.5h52q0 -126 -133 -126q-132 0 -132 126zM414 505h65v-479q-90 -40 -204 -40q-111 0 -155 49.5t-44 184.5v285h65v-272q0 -113 29.5 -149t115.5 -36q74 0 128 18v439z"/>
<glyph glyph-name="Uring" horiz-adv-x="738" unicode="Ů" d="M367 828q-32 0 -44.5 -12.5t-12.5 -38.5q0 -52 57 -52q59 0 59 52q0 26 -13 38.5t-46 12.5zM367 873q110 0 110 -94t-110 -94q-109 0 -109 94q0 48 25 71t84 23zM650 242q0 -78 -17.5 -129t-55.5 -78.5t-86.5 -38t-121.5 -10.5q-72 0 -120.5 10.5t-86.5 38t-56 78.5 t-18 129v455h73v-456q0 -115 48.5 -153.5t160.5 -38.5q111 0 159.5 39.5t48.5 152.5v456h72v-455z"/>
<glyph glyph-name="uring" horiz-adv-x="554" unicode="ů" d="M284 693q-32 0 -44.5 -12.5t-12.5 -38.5q0 -52 57 -52q59 0 59 52q0 26 -13 38.5t-46 12.5zM284 738q110 0 110 -94t-110 -94q-109 0 -109 94q0 48 25 71t84 23zM414 505h65v-479q-90 -40 -204 -40q-111 0 -155 49.5t-44 184.5v285h65v-272q0 -113 29.5 -149t115.5 -36 q74 0 128 18v439z"/>
<glyph glyph-name="Uhungarumlaut" horiz-adv-x="738" unicode="Ű" d="M451 876h76l-106 -129h-54zM313 876h75l-107 -129h-53zM650 242q0 -78 -17.5 -129t-55.5 -78.5t-86.5 -38t-121.5 -10.5q-72 0 -120.5 10.5t-86.5 38t-56 78.5t-18 129v455h73v-456q0 -115 48.5 -153.5t160.5 -38.5q111 0 159.5 39.5t48.5 152.5v456h72v-455z"/>
<glyph glyph-name="uhungarumlaut" horiz-adv-x="554" unicode="ű" d="M371 697h76l-106 -129h-54zM233 697h75l-107 -129h-53zM414 505h65v-479q-90 -40 -204 -40q-111 0 -155 49.5t-44 184.5v285h65v-272q0 -113 29.5 -149t115.5 -36q74 0 128 18v439z"/>
<glyph glyph-name="Uogonek" horiz-adv-x="738" unicode="Ų" d="M442 -10q-34 -24 -46.5 -45t-12.5 -49q0 -24 14 -34.5t54 -10.5q55 0 92 30l29 -49q-45 -35 -126 -35q-71 0 -99 21.5t-28 67.5q0 62 63 100h-13q-72 0 -120.5 10.5t-86.5 38t-56 78.5t-18 129v455h73v-456q0 -115 48.5 -153.5t160.5 -38.5q111 0 159.5 39.5t48.5 152.5 v456h72v-455q0 -131 -50.5 -187t-157.5 -65zM442 -10q11 8 36 22h-34q-40 -12 -62 -26q40 2 60 4z"/>
<glyph glyph-name="uogonek" horiz-adv-x="554" unicode="ų" d="M426 7q-52 -32 -69.5 -55.5t-17.5 -55.5q0 -24 14 -34.5t54 -10.5q55 0 92 30l29 -49q-45 -35 -126 -35q-71 0 -99 21.5t-28 67.5q0 66 73 106q-39 -6 -73 -6q-111 0 -155 49.5t-44 184.5v285h65v-272q0 -113 29.5 -149t115.5 -36q74 0 128 18v439h65v-479 q-29 -13 -53 -19zM426 7q2 1 8 5h-34q-33 -10 -52 -20q42 5 78 15z"/>
<glyph glyph-name="Wcircumflex" horiz-adv-x="905" unicode="Ŵ" d="M458 837l-81 -90h-76l122 129h72l126 -129h-79zM648 74q107 326 179 623h71q-94 -370 -206 -697h-93q-44 235 -137 594q-36 -195 -158 -594h-91q-124 469 -207 697h81q95 -287 176 -623q116 388 162 623h74q4 -14 29 -109.5t35.5 -138t30 -121.5t32.5 -140t22 -114z"/>
<glyph glyph-name="wcircumflex" horiz-adv-x="813" unicode="ŵ" d="M489 568l-81 86l-79 -86h-78l122 129h72l126 -129h-82zM787 505q-70 -265 -172 -505h-92q-54 261 -112 430q-54 -218 -130 -430h-92q-80 296 -164 505h77q74 -193 136 -443q33 92 74 230.5t57 212.5h83q57 -165 120 -443q97 256 142 443h73z"/>
<glyph glyph-name="Ycircumflex" horiz-adv-x="607" unicode="Ŷ" d="M303 837l-81 -90h-76l122 129h72l126 -129h-79zM340 335v-335h-73v335q-119 175 -272 362h91q115 -142 223 -305q114 144 220 305h83q-146 -208 -272 -362z"/>
<glyph glyph-name="ycircumflex" horiz-adv-x="509" unicode="ŷ" d="M334 568l-81 86l-79 -86h-78l122 129h72l126 -129h-82zM211 -24q-99 350 -186 529h73q79 -179 156 -447q106 257 159 447h71q-63 -210 -188 -505q-41 -98 -91 -192h-76q35 65 82 168z"/>
<glyph glyph-name="Ydieresis" horiz-adv-x="607" unicode="Ÿ" d="M404 847q24 0 32.5 -7t8.5 -32q0 -27 -8.5 -35t-32.5 -8q-25 0 -33.5 8t-8.5 35q0 25 8.5 32t33.5 7zM215 847q24 0 32.5 -7t8.5 -32q0 -27 -8.5 -35t-32.5 -8q-25 0 -33.5 8t-8.5 35q0 25 8.5 32t33.5 7zM340 335v-335h-73v335q-119 175 -272 362h91q115 -142 223 -305 q114 144 220 305h83q-146 -208 -272 -362z"/>
<glyph glyph-name="Zacute" horiz-adv-x="609" unicode="Ź" d="M228 747l134 129h92l-159 -129h-67zM21 0v29q256 318 459 608h-432v60h536v-26q-217 -320 -458 -611h440v-60h-545z"/>
<glyph glyph-name="zacute" horiz-adv-x="495" unicode="ź" d="M269 568h-69l119 129h83zM36 0v27q207 250 315 418h-299v60h401v-25q-68 -103 -162 -231t-147 -189h310v-60h-418z"/>
<glyph glyph-name="Zdotaccent" horiz-adv-x="609" unicode="Ż" d="M309 847q24 0 32.5 -7t8.5 -32q0 -27 -8.5 -35t-32.5 -8q-25 0 -33.5 8t-8.5 35q0 25 8.5 32t33.5 7zM21 0v29q256 318 459 608h-432v60h536v-26q-217 -320 -458 -611h440v-60h-545z"/>
<glyph glyph-name="zdotaccent" horiz-adv-x="495" unicode="ż" d="M254 657q24 0 32.5 -7t8.5 -32q0 -27 -8.5 -35t-32.5 -8q-25 0 -33.5 8t-8.5 35q0 25 8.5 32t33.5 7zM36 0v27q207 250 315 418h-299v60h401v-25q-68 -103 -162 -231t-147 -189h310v-60h-418z"/>
<glyph glyph-name="Zcaron" horiz-adv-x="609" unicode="Ž" d="M322 786l81 90h76l-122 -129h-72l-126 129h79zM21 0v29q256 318 459 608h-432v60h536v-26q-217 -320 -458 -611h440v-60h-545z"/>
<glyph glyph-name="zcaron" horiz-adv-x="495" unicode="ž" d="M173 697l81 -86l79 86h78l-122 -129h-72l-126 129h82zM36 0v27q207 250 315 418h-299v60h401v-25q-68 -103 -162 -231t-147 -189h310v-60h-418z"/>
<glyph glyph-name="florin" horiz-adv-x="355" unicode="ƒ" d="M229 552l-10 -47h180l-13 -59h-180l-100 -474q-22 -101 -74.5 -138t-126.5 -37q-66 0 -113 22l33 61q39 -23 92 -23q99 0 124 115l100 474h-89l13 59h89l10 47q11 53 31.5 88t49 51t55.5 22t63 6q61 0 111 -16l-29 -57q-37 13 -94 13q-21 0 -36.5 -3t-33.5 -13t-31.5 -33 t-20.5 -58z"/>
<glyph glyph-name="Scommaaccent" horiz-adv-x="624" unicode="Ș" d="M371 -51l-101 -167h-53l70 167h84zM515 622q-23 12 -74.5 19.5t-96.5 7.5q-100 0 -151.5 -30t-51.5 -107q0 -55 39 -84t138 -36q126 -10 183.5 -58t57.5 -144q0 -204 -283 -204q-109 0 -198 28l20 64q70 -26 177 -26q101 0 154.5 30.5t53.5 106.5q0 57 -39.5 92.5 t-136.5 42.5q-129 9 -186 50.5t-57 135.5q0 204 279 204q101 0 192 -27z"/>
<glyph glyph-name="scommaaccent" horiz-adv-x="504" unicode="ș" d="M307 -51l-101 -167h-53l70 167h84zM404 431q-72 28 -144 28q-70 0 -99.5 -17.5t-29.5 -73.5q0 -38 29 -56t97 -22q99 -7 143 -41t44 -104q0 -88 -46 -123.5t-149 -35.5t-182 27l20 61q26 -12 74.5 -20.5t87.5 -8.5q67 0 95.5 18.5t28.5 75.5q0 42 -26.5 62t-97.5 26 q-97 7 -143 37t-46 98q0 86 49 121.5t151 35.5q73 0 166 -26z"/>
<glyph glyph-name="circumflex" horiz-adv-x="680" unicode="ˆ" d="M427 568l-81 86l-79 -86h-78l122 129h72l126 -129h-82z"/>
<glyph glyph-name="caron" horiz-adv-x="667" unicode="ˇ" d="M271 697l81 -86l79 86h78l-122 -129h-72l-126 129h82z"/>
<glyph glyph-name="breve" horiz-adv-x="537" unicode="˘" d="M99 697h54q0 -40 18.5 -54.5t60.5 -14.5t61 14.5t19 54.5h52q0 -126 -133 -126q-132 0 -132 126z"/>
<glyph glyph-name="dotaccent" horiz-adv-x="408" unicode="˙" d="M110 657q24 0 32.5 -7t8.5 -32q0 -27 -8.5 -35t-32.5 -8q-25 0 -33.5 8t-8.5 35q0 25 8.5 32t33.5 7z"/>
<glyph glyph-name="ring" horiz-adv-x="727" unicode="˚" d="M360 693q-32 0 -44.5 -12.5t-12.5 -38.5q0 -52 57 -52q59 0 59 52q0 26 -13 38.5t-46 12.5zM360 738q110 0 110 -94t-110 -94q-109 0 -109 94q0 48 25 71t84 23z"/>
<glyph glyph-name="ogonek" horiz-adv-x="654" unicode="˛" d="M438 12h34q-57 -34 -76 -58.5t-19 -57.5q0 -24 14 -34.5t54 -10.5q55 0 92 30l29 -49q-45 -35 -126 -35q-71 0 -99 21.5t-28 67.5q0 41 31.5 75t93.5 51z"/>
<glyph glyph-name="tilde" horiz-adv-x="728" unicode="˜" d="M442 689l41 -33q-32 -91 -105 -91q-27 0 -71 33t-67 33q-36 0 -60 -61l-36 35q24 43 47.5 62.5t55.5 19.5q30 0 70.5 -33t63.5 -33q20 0 34 15t27 53z"/>
<glyph glyph-name="hungarumlaut" horiz-adv-x="631" unicode="˝" d="M399 697h76l-106 -129h-54zM261 697h75l-107 -129h-53z"/>
<glyph glyph-name="Delta" horiz-adv-x="639" unicode="Δ" d="M314 642q-115 -268 -216 -582h422q-119 293 -206 582zM627 0h-620q126 380 263 697h95q126 -399 262 -697z"/>
<glyph glyph-name="Delta" horiz-adv-x="639" unicode="∆" d="M314 642q-115 -268 -216 -582h422q-119 293 -206 582zM627 0h-620q126 380 263 697h95q126 -399 262 -697z"/>
<glyph glyph-name="Omega" horiz-adv-x="776" unicode="Ω" d="M746 0h-284v60q149 48 149 330q0 150 -50.5 206.5t-172.5 56.5q-121 0 -171.5 -56.5t-50.5 -206.5q0 -282 148 -330v-60h-284v60h184q-122 80 -122 332q0 180 71 251t225 71t225.5 -71t71.5 -251q0 -251 -123 -332h184v-60z"/>
<glyph glyph-name="Omega" horiz-adv-x="776" unicode="Ω" d="M746 0h-284v60q149 48 149 330q0 150 -50.5 206.5t-172.5 56.5q-121 0 -171.5 -56.5t-50.5 -206.5q0 -282 148 -330v-60h-284v60h184q-122 80 -122 332q0 180 71 251t225 71t225.5 -71t71.5 -251q0 -251 -123 -332h184v-60z"/>
<glyph glyph-name="pi" horiz-adv-x="598" unicode="π" d="M30 445v60h538v-60h-85v-445h-65v445h-240v-297q0 -135 -93 -165l-28 57q56 20 56 108v297h-83z"/>
<glyph glyph-name="afii10023" horiz-adv-x="610" unicode="Ё" d="M429 847q24 0 32.5 -7t8.5 -32q0 -27 -8.5 -35t-32.5 -8q-25 0 -33.5 8t-8.5 35q0 25 8.5 32t33.5 7zM240 847q24 0 32.5 -7t8.5 -32q0 -27 -8.5 -35t-32.5 -8q-25 0 -33.5 8t-8.5 35q0 25 8.5 32t33.5 7zM578 697v-60h-405v-234h287v-60h-287v-283h405v-60h-477v697h477 z"/>
<glyph glyph-name="afii10051" horiz-adv-x="727" unicode="Ђ" d="M482 -170l-33 52q25 10 41 20t38 34.5t34.5 58.5t22 93.5t9.5 138.5q0 100 -13 149t-39.5 65t-80.5 16q-56 0 -97 -18t-43 -50v-389h-73v637h-242v60h556v-60h-241v-159q20 16 61 28.5t86 12.5q73 0 113 -22t61.5 -86.5t21.5 -183.5q0 -317 -182 -397z"/>
<glyph glyph-name="afii10052" horiz-adv-x="546" unicode="Ѓ" d="M239 747l134 129h92l-159 -129h-67zM101 0v697h432v-60h-360v-637h-72z"/>
<glyph glyph-name="afii10053" horiz-adv-x="609" unicode="Є" d="M487 344h-346q1 -122 26.5 -185.5t74.5 -85t141 -21.5q103 0 171 26l23 -64q-89 -28 -195 -28q-168 0 -243.5 81t-75.5 288q0 106 19 176t60.5 110.5t98 56.5t141.5 16q104 0 195 -27l-23 -65q-67 27 -171 27q-67 0 -106.5 -8.5t-71 -34.5t-46 -74.5t-17.5 -128.5h345 v-59z"/>
<glyph glyph-name="afii10054" horiz-adv-x="624" unicode="Ѕ" d="M515 622q-23 12 -74.5 19.5t-96.5 7.5q-100 0 -151.5 -30t-51.5 -107q0 -55 39 -84t138 -36q126 -10 183.5 -58t57.5 -144q0 -204 -283 -204q-109 0 -198 28l20 64q70 -26 177 -26q101 0 154.5 30.5t53.5 106.5q0 57 -39.5 92.5t-136.5 42.5q-129 9 -186 50.5t-57 135.5 q0 204 279 204q101 0 192 -27z"/>
<glyph glyph-name="afii10055" horiz-adv-x="273" unicode="І" d="M173 697v-697h-72v697h72z"/>
<glyph glyph-name="afii10056" horiz-adv-x="273" unicode="Ї" d="M231 847q24 0 32.5 -7t8.5 -32q0 -27 -8.5 -35t-32.5 -8q-25 0 -33.5 8t-8.5 35q0 25 8.5 32t33.5 7zM42 847q24 0 32.5 -7t8.5 -32q0 -27 -8.5 -35t-32.5 -8q-25 0 -33.5 8t-8.5 35q0 25 8.5 32t33.5 7zM173 697v-697h-72v697h72z"/>
<glyph glyph-name="afii10057" horiz-adv-x="440" unicode="Ј" d="M339 697v-505q0 -62 -15.5 -104.5t-44 -63.5t-59.5 -29.5t-71 -8.5q-67 0 -136 30l24 67q50 -26 112 -26q116 0 116 135v505h74z"/>
<glyph glyph-name="afii10058" horiz-adv-x="1022" unicode="Љ" d="M574 60h233q98 0 98 138q0 67 -25 106.5t-77 39.5h-229v-284zM183 697h391v-294h223q104 0 144.5 -53t40.5 -153q0 -97 -44.5 -147t-129.5 -50h-306v637h-253q-8 -145 -43.5 -318.5t-86.5 -318.5h-77q128 389 141 697z"/>
<glyph glyph-name="afii10059" horiz-adv-x="1022" unicode="Њ" d="M574 60h233q98 0 98 138q0 67 -25 106.5t-77 39.5h-229v-284zM503 697h71v-294h223q104 0 144.5 -53t40.5 -153q0 -97 -44.5 -147t-129.5 -50h-305v344h-330v-344h-72v697h72v-294h330v294z"/>
<glyph glyph-name="afii10060" horiz-adv-x="734" unicode="Ћ" d="M468 519q105 0 148 -49.5t43 -184.5v-285h-65v272q0 113 -27.5 149t-105.5 36q-56 0 -97 -18t-43 -50v-389h-73v637h-242v60h556v-60h-241v-159q20 16 61 28.5t86 12.5z"/>
<glyph glyph-name="afii10061" horiz-adv-x="617" unicode="Ќ" d="M270 747l134 129h92l-159 -129h-67zM525 0q-47 108 -85.5 173.5t-81 102t-83 50t-102.5 17.5v-343h-72v697h72v-339q54 40 146.5 133.5t183.5 205.5h95q-106 -124 -189 -206.5t-120 -107.5q45 -12 72.5 -26t67 -51.5t83.5 -112t99 -193.5h-86z"/>
<glyph glyph-name="afii10062" horiz-adv-x="500" unicode="Ў" d="M163 871h54q0 -40 18.5 -54.5t60.5 -14.5t61 14.5t19 54.5h52q0 -126 -133 -126q-132 0 -132 126zM239 170q-31 99 -106.5 262t-137.5 265h82q133 -238 208 -451q149 297 202 451h75q-68 -174 -164.5 -367.5t-183.5 -329.5l-87 -2q58 78 112 170v2z"/>
<glyph glyph-name="afii10145" horiz-adv-x="714" unicode="Џ" d="M175 60h370v637h71v-697h-207l-21 -184h-53l-21 184h-211v697h72v-637z"/>
<glyph glyph-name="afii10017" horiz-adv-x="668" unicode="А" d="M320 641q-91 -225 -142 -366h296q-65 179 -125 366h-29zM580 0q-56 139 -84 215h-340q-40 -115 -72 -215h-71q128 372 263 697h123q140 -417 262 -697h-81z"/>
<glyph glyph-name="afii10018" horiz-adv-x="689" unicode="Б" d="M446 60q98 0 98 138q0 67 -25 106.5t-77 39.5h-269v-284h273zM546 637h-373v-234h263q104 0 144.5 -53t40.5 -153q0 -97 -44.5 -147t-129.5 -50h-346v697h445v-60z"/>
<glyph glyph-name="afii10019" horiz-adv-x="689" unicode="В" d="M464 375q91 -4 124 -50t33 -128q0 -97 -44.5 -147t-129.5 -50h-346v697h335q50 0 84 -13t51.5 -37.5t24 -51.5t6.5 -63q0 -73 -26.5 -111t-111.5 -46zM436 403q92 0 92 120q0 57 -20 85.5t-72 28.5h-263v-234h263zM446 60q98 0 98 138q0 67 -25 106.5t-77 39.5h-269v-284 h273z"/>
<glyph glyph-name="afii10020" horiz-adv-x="533" unicode="Г" d="M101 0v697h432v-60h-360v-637h-72z"/>
<glyph glyph-name="afii10021" horiz-adv-x="763" unicode="Д" d="M635 60h128l-20 -214h-61v154h-600v-154h-62l-20 214h103q102 240 119 637h413v-637zM564 60v577h-276q-20 -348 -101 -577h377z"/>
<glyph glyph-name="afii10022" horiz-adv-x="610" unicode="Е" d="M578 697v-60h-405v-234h287v-60h-287v-283h405v-60h-477v697h477z"/>
<glyph glyph-name="afii10024" horiz-adv-x="851" unicode="Ж" d="M6 0q39 96 73 163t59 105.5t53.5 62.5t48 33.5t50.5 18.5q-33 25 -106 107.5t-167 206.5h86q78 -109 157 -199t129 -133v332h72v-332q49 42 129 132.5t158 199.5h86q-94 -124 -167 -206.5t-106 -107.5q31 -9 50.5 -18.5t48 -33.5t53.5 -62.5t59 -105.5t73 -163h-78 q-54 141 -99.5 214t-90.5 99.5t-116 31.5v-345h-72v345q-53 -4 -89 -18.5t-72.5 -52t-70 -102.5t-73.5 -172h-78z"/>
<glyph glyph-name="afii10025" horiz-adv-x="636" unicode="З" d="M406 375q91 -4 126.5 -53t35.5 -130q0 -113 -69 -159.5t-214 -46.5q-107 0 -223 29l17 58q86 -26 206 -26q116 0 161 33t45 114q0 83 -41.5 116.5t-142.5 33.5h-100v59h100q95 0 131.5 30t36.5 102q0 66 -38.5 92t-151.5 26q-118 0 -198 -26l-18 60q126 27 216 27 q142 0 203 -41.5t61 -128.5q0 -74 -29 -117.5t-114 -51.5z"/>
<glyph glyph-name="afii10026" horiz-adv-x="730" unicode="И" d="M173 76q210 325 370 621h86v-697h-71v593q-185 -335 -359 -593h-98v697h72v-621z"/>
<glyph glyph-name="afii10027" horiz-adv-x="730" unicode="Й" d="M237 871h54q0 -40 18.5 -54.5t60.5 -14.5t61 14.5t19 54.5h52q0 -126 -133 -126q-132 0 -132 126zM173 76q210 325 370 621h86v-697h-71v593q-185 -335 -359 -593h-98v697h72v-621z"/>
<glyph glyph-name="afii10028" horiz-adv-x="617" unicode="К" d="M525 0q-47 108 -85.5 173.5t-81 102t-83 50t-102.5 17.5v-343h-72v697h72v-339q54 40 146.5 133.5t183.5 205.5h95q-106 -124 -189 -206.5t-120 -107.5q45 -12 72.5 -26t67 -51.5t83.5 -112t99 -193.5h-86z"/>
<glyph glyph-name="afii10029" horiz-adv-x="714" unicode="Л" d="M543 637h-294q-8 -145 -43.5 -318.5t-86.5 -318.5h-77q128 389 141 697h431v-697h-71v637z"/>
<glyph glyph-name="afii10030" horiz-adv-x="869" unicode="М" d="M437 174q92 239 231 523h101v-697h-72v617q-117 -254 -238 -541h-53q-123 295 -235 541v-617h-70v697h108q131 -274 228 -523z"/>
<glyph glyph-name="afii10031" horiz-adv-x="714" unicode="Н" d="M173 341v-341h-72v697h72v-291h370v291h71v-697h-71v341h-370z"/>
<glyph glyph-name="afii10032" horiz-adv-x="759" unicode="О" d="M379 653q-71 0 -113 -11t-72 -44.5t-41.5 -92t-11.5 -155.5q0 -122 23.5 -186.5t73 -89.5t141.5 -25q70 0 113.5 12.5t73.5 47t42 92t12 149.5q0 97 -12 155.5t-42.5 92t-73 44.5t-113.5 11zM379 -14q-113 0 -179.5 31t-101.5 112t-35 223q0 140 35 220t101.5 111 t179.5 31t180 -31t102 -111t35 -220q0 -142 -35 -223t-101.5 -112t-180.5 -31z"/>
<glyph glyph-name="afii10033" horiz-adv-x="714" unicode="П" d="M173 637v-637h-72v697h513v-697h-71v637h-370z"/>
<glyph glyph-name="afii10034" horiz-adv-x="650" unicode="Р" d="M173 0h-72v697h311q198 0 198 -226q0 -92 -46.5 -153.5t-146.5 -61.5h-244v-256zM173 320h238q59 0 89 41t30 111q0 78 -29 121.5t-85 43.5h-243v-317z"/>
<glyph glyph-name="afii10035" horiz-adv-x="602" unicode="С" d="M63 355q0 106 19 176t60.5 110.5t98 56.5t141.5 16q104 0 195 -27l-23 -65q-67 27 -171 27q-71 0 -113 -10t-73.5 -41t-43.5 -89t-12 -154q0 -127 25 -192.5t74 -88t143 -22.5q103 0 171 26l23 -64q-89 -28 -195 -28q-168 0 -243.5 81t-75.5 288z"/>
<glyph glyph-name="afii10036" horiz-adv-x="568" unicode="Т" d="M321 637v-637h-73v637h-242v60h556v-60h-241z"/>
<glyph glyph-name="afii10037" horiz-adv-x="557" unicode="У" d="M214 0h-86q66 88 112 170q-31 98 -106.5 261t-138.5 266h82q133 -238 208 -451q149 297 202 451h75q-68 -174 -164.5 -367.5t-183.5 -329.5z"/>
<glyph glyph-name="afii10038" horiz-adv-x="741" unicode="Ф" d="M110 349q0 -66 14.5 -102t61.5 -58t138 -25v371q-69 -3 -111.5 -14t-65 -35.5t-30 -55t-7.5 -81.5zM616 349q0 69 -15 105t-63 57.5t-142 23.5v-371q93 3 141.5 24.5t63.5 57.5t15 103zM324 697h72v-101q165 -5 227.5 -63t62.5 -183t-62.5 -183.5t-227.5 -63.5v-103h-72 v103q-161 6 -222.5 64.5t-61.5 182.5t61 182t223 64v101z"/>
<glyph glyph-name="afii10039" horiz-adv-x="648" unicode="Х" d="M541 697h84q-116 -162 -252 -340q173 -232 262 -357h-87q-81 113 -219 299q-92 -121 -232 -299h-84q127 160 274 353q-126 165 -266 344h87q114 -143 222 -285q96 127 211 285z"/>
<glyph glyph-name="afii10040" horiz-adv-x="742" unicode="Ц" d="M173 697v-637h370v637h71v-637h128l-20 -214h-61v154h-560v697h72z"/>
<glyph glyph-name="afii10041" horiz-adv-x="601" unicode="Ч" d="M256 203q-66 0 -109 9t-78.5 33.5t-52 71.5t-16.5 120v260h72v-247q0 -110 41.5 -145t144.5 -35q70 0 120 19t50 52v356h72v-697h-72v244q-20 -16 -69 -28.5t-103 -12.5z"/>
<glyph glyph-name="afii10042" horiz-adv-x="905" unicode="Ш" d="M417 697h72v-637h244v637h71v-697h-703v697h72v-637h244v637z"/>
<glyph glyph-name="afii10043" horiz-adv-x="932" unicode="Щ" d="M417 697h72v-637h244v637h71v-637h128l-20 -214h-61v154h-750v697h72v-637h244v637z"/>
<glyph glyph-name="afii10044" horiz-adv-x="679" unicode="Ъ" d="M464 60q98 0 98 138q0 67 -25 106.5t-77 39.5h-269v-284h273zM191 697v-294h263q104 0 144.5 -53t40.5 -153q0 -97 -44.5 -147t-129.5 -50h-346v637h-104v60h176z"/>
<glyph glyph-name="afii10045" horiz-adv-x="868" unicode="Ы" d="M767 697v-697h-72v697h72zM173 697v-294h263q104 0 144.5 -53t40.5 -153q0 -97 -44.5 -147t-129.5 -50h-346v697h72zM446 60q98 0 98 138q0 67 -25 106.5t-77 39.5h-269v-284h273z"/>
<glyph glyph-name="afii10046" horiz-adv-x="661" unicode="Ь" d="M173 697v-294h263q104 0 144.5 -53t40.5 -153q0 -97 -44.5 -147t-129.5 -50h-346v697h72zM446 60q98 0 98 138q0 67 -25 106.5t-77 39.5h-269v-284h273z"/>
<glyph glyph-name="afii10047" horiz-adv-x="609" unicode="Э" d="M122 344v59h345q-3 80 -17.5 128.5t-46 74.5t-71 34.5t-106.5 8.5q-104 0 -171 -27l-23 65q91 27 195 27q85 0 141.5 -16t98 -56.5t60.5 -110.5t19 -176q0 -207 -75.5 -288t-243.5 -81q-106 0 -195 28l23 64q68 -26 171 -26q92 0 141 21.5t74.5 85t26.5 185.5h-346z"/>
<glyph glyph-name="afii10048" horiz-adv-x="922" unicode="Ю" d="M611 656q-67 0 -101.5 -21t-53 -85.5t-18.5 -191.5q0 -121 18 -188.5t54.5 -94.5t100.5 -27q97 0 136 65.5t39 244.5q0 96 -9 154.5t-31.5 90.5t-53 42.5t-81.5 10.5zM173 341v-341h-72v697h72v-291h193q6 175 64.5 241.5t181.5 66.5q88 0 139.5 -29.5t79.5 -108.5 t28 -218q0 -208 -58.5 -290t-188.5 -82q-127 0 -186 78.5t-61 276.5h-192z"/>
<glyph glyph-name="afii10049" horiz-adv-x="675" unicode="Я" d="M502 637h-239q-57 0 -87.5 -36.5t-30.5 -104.5q0 -61 31.5 -96t91.5 -35h234v272zM263 697h311v-697h-72v302h-132q-38 0 -66 -10t-59.5 -40.5t-62 -92.5t-63.5 -159h-85q51 126 88.5 191.5t68 90t75.5 33.5q-107 0 -154 49.5t-47 130.5q0 202 198 202z"/>
<glyph glyph-name="afii10065" horiz-adv-x="542" unicode="а" d="M401 68v184q-53 13 -136 13q-80 0 -107.5 -18.5t-27.5 -85.5q0 -74 26.5 -95t108.5 -21q72 0 136 23zM466 26q-88 -40 -204 -40q-111 0 -158 37t-47 133q0 99 51 133t149 34q68 0 144 -16q0 92 -30 121t-119 29t-145 -24l-19 61q89 25 168 25q114 0 162 -42t48 -154v-297 z"/>
<glyph glyph-name="afii10066" horiz-adv-x="564" unicode="б" d="M133 242q0 -194 139 -194q91 0 124 38t33 156q0 113 -31.5 154t-109.5 41q-92 0 -123.5 -41t-31.5 -154zM470 718v-63q-57 -28 -178 -40q-90 -8 -119 -46.5t-42 -140.5q47 71 159 71q109 0 160 -58t51 -201t-54 -198.5t-175 -55.5q-108 0 -158.5 67t-50.5 227 q0 97 9 164.5t25 111t45.5 69t63.5 36.5t86 16q115 11 178 41z"/>
<glyph glyph-name="afii10067" horiz-adv-x="551" unicode="в" d="M376 273q115 -4 115 -130q0 -71 -36 -107t-103 -36h-276v505h267q76 0 104.5 -32.5t28.5 -87.5q0 -52 -20 -79.5t-80 -32.5zM333 300q74 0 74 76q0 39 -15.5 54t-58.5 15h-192v-145h192zM341 60q43 0 60.5 20t17.5 65q0 98 -81 98h-197v-183h200z"/>
<glyph glyph-name="afii10068" horiz-adv-x="400" unicode="г" d="M76 505h321v-60h-256v-445h-65v505z"/>
<glyph glyph-name="afii10069" horiz-adv-x="581" unicode="д" d="M234 445q-16 -175 -75 -385h255v385h-180zM91 60q70 223 81 445h307v-445h92l-17 -188h-49v128h-431v-128h-49l-17 188h83z"/>
<glyph glyph-name="afii10070" horiz-adv-x="546" unicode="е" d="M290 458q-81 0 -114.5 -32.5t-39.5 -120.5h286q-4 92 -32 122.5t-100 30.5zM290 519q111 0 158.5 -58.5t47.5 -214.5h-361q1 -118 39.5 -158.5t130.5 -40.5q72 0 145 27l15 -60q-91 -28 -166 -28q-121 0 -178.5 60t-57.5 209q0 144 55 204t172 60z"/>
<glyph glyph-name="afii10072" horiz-adv-x="677" unicode="ж" d="M76 0h-76q44 83 78 136.5t61.5 80.5t42.5 36t40 20q-43 31 -207 232h79q141 -173 212 -241v241h65v-241q78 76 212 241h79q-164 -201 -207 -232q25 -11 40 -20t42.5 -36t61.5 -80.5t78 -136.5h-76q-68 134 -122 185t-108 61v-246h-65v246q-55 -10 -108 -61t-122 -185z "/>
<glyph glyph-name="afii10073" horiz-adv-x="500" unicode="з" d="M299 271q138 -6 138 -134q0 -83 -56.5 -117t-175.5 -34q-101 0 -165 21l19 59q56 -20 146 -20q94 0 128.5 22t34.5 80q0 53 -35.5 75.5t-118.5 22.5h-75v57h75q77 0 109 17t32 62q0 42 -32.5 59.5t-117.5 17.5q-87 0 -141 -20l-18 60q68 20 159 20q114 0 165.5 -30.5 t51.5 -93.5q0 -53 -26.5 -85.5t-96.5 -38.5z"/>
<glyph glyph-name="afii10074" horiz-adv-x="555" unicode="и" d="M414 0v397q-100 -174 -273 -397h-65v505h65v-411q126 165 273 411h65v-505h-65z"/>
<glyph glyph-name="afii10075" horiz-adv-x="555" unicode="й" d="M148 697h54q0 -40 18.5 -54.5t60.5 -14.5t61 14.5t19 54.5h52q0 -126 -133 -126q-132 0 -132 126zM414 0v397q-100 -174 -273 -397h-65v505h65v-411q126 165 273 411h65v-505h-65z"/>
<glyph glyph-name="afii10076" horiz-adv-x="478" unicode="к" d="M478 0h-80q-76 136 -136 186.5t-121 60.5v-247h-65v505h65v-243q73 61 237 243h84q-181 -201 -225 -230q26 -10 43 -20t46 -37t66 -81t86 -137z"/>
<glyph glyph-name="afii10077" horiz-adv-x="525" unicode="л" d="M384 445h-180q-20 -217 -93 -445h-71q90 255 102 505h307v-505h-65v445z"/>
<glyph glyph-name="afii10078" horiz-adv-x="685" unicode="м" d="M346 130q65 174 158 375h105v-505h-65v447q-99 -213 -172 -411h-61q-100 256 -170 411v-447h-65v505h109q99 -219 161 -375z"/>
<glyph glyph-name="afii10079" horiz-adv-x="555" unicode="н" d="M414 246h-273v-246h-65v505h65v-202h273v202h65v-505h-65v246z"/>
<glyph glyph-name="afii10080" horiz-adv-x="585" unicode="о" d="M292 457q-92 0 -124.5 -39.5t-32.5 -164.5q0 -121 33.5 -163t123.5 -42q91 0 124.5 42t33.5 163q0 86 -15.5 130t-47.5 59t-95 15zM292 -14q-122 0 -175.5 59t-53.5 210q0 150 53.5 207t175.5 57t176 -57t54 -207q0 -151 -54 -210t-176 -59z"/>
<glyph glyph-name="afii10081" horiz-adv-x="555" unicode="п" d="M414 445h-273v-445h-65v505h403v-505h-65v445z"/>
<glyph glyph-name="afii10082" horiz-adv-x="572" unicode="р" d="M280 457q-80 0 -139 -21v-316q0 -34 40 -53t99 -19q90 0 123.5 42t33.5 163q0 125 -32.5 164.5t-124.5 39.5zM280 -14q-86 0 -139 42v-220h-65v671q40 18 98 29t106 11q122 0 175.5 -57t53.5 -207q0 -151 -53.5 -210t-175.5 -59z"/>
<glyph glyph-name="afii10083" horiz-adv-x="466" unicode="с" d="M430 74l21 -60q-63 -28 -144 -28q-124 0 -184 60t-60 209q0 148 60 206t184 58q80 0 144 -25l-21 -61q-51 24 -123 24q-47 0 -77 -8t-52.5 -29.5t-32.5 -62t-10 -104.5q0 -119 39.5 -162t132.5 -43q65 0 123 26z"/>
<glyph glyph-name="afii10084" horiz-adv-x="481" unicode="т" d="M273 445v-445h-65v445h-198v60h461v-60h-198z"/>
<glyph glyph-name="afii10085" horiz-adv-x="509" unicode="у" d="M211 -24q-99 350 -186 529h73q79 -179 156 -447q106 257 159 447h71q-63 -210 -188 -505q-41 -98 -91 -192h-76q35 65 82 168z"/>
<glyph glyph-name="afii10086" horiz-adv-x="847" unicode="ф" d="M272 457q-52 0 -80 -15t-42.5 -59.5t-14.5 -129.5q0 -120 30.5 -162.5t106.5 -42.5q51 0 85 19t34 53v316q-58 21 -119 21zM575 457q-61 0 -119 -21v-320q2 -32 35.5 -50t83.5 -18q76 0 106.5 42.5t30.5 162.5q0 85 -14.5 129.5t-42.5 59.5t-80 15zM391 -192v220 q-52 -42 -119 -42q-108 0 -158.5 59.5t-50.5 209.5q0 148 50.5 206t158.5 58q42 0 119 -18v196h65v-196q75 18 119 18q108 0 158.5 -58t50.5 -206q0 -150 -50.5 -209.5t-158.5 -59.5q-66 0 -119 42v-220h-65z"/>
<glyph glyph-name="afii10087" horiz-adv-x="522" unicode="х" d="M489 0h-81q-63 101 -137 203q-52 -69 -160 -203h-80q99 114 203 253q-91 124 -203 252h90q96 -120 152 -198q58 79 136 198h79q-84 -125 -177 -249q76 -103 178 -256z"/>
<glyph glyph-name="afii10088" horiz-adv-x="581" unicode="ц" d="M479 60h92l-17 -188h-49v128h-429v505h65v-445h273v445h65v-445z"/>
<glyph glyph-name="afii10089" horiz-adv-x="526" unicode="ч" d="M238 166q-105 0 -148 49.5t-43 184.5v105h65v-92q0 -113 27.5 -149t105.5 -36q57 0 98.5 19t41.5 52v206h65v-505h-65v207q-20 -16 -61 -28.5t-86 -12.5z"/>
<glyph glyph-name="afii10090" horiz-adv-x="787" unicode="ш" d="M646 505h65v-505h-635v505h65v-445h220v445h65v-445h220v445z"/>
<glyph glyph-name="afii10091" horiz-adv-x="813" unicode="щ" d="M737 0h-661v505h65v-445h220v445h65v-445h220v445h65v-445h92l-17 -188h-49v128z"/>
<glyph glyph-name="afii10092" horiz-adv-x="594" unicode="ъ" d="M384 60q45 0 64 21.5t19 74.5q0 50 -19.5 70t-63.5 20h-195v-186h195zM0 505h189v-202h195q82 0 118.5 -35.5t36.5 -110.5q0 -82 -36.5 -119.5t-118.5 -37.5h-260v445h-124v60z"/>
<glyph glyph-name="afii10093" horiz-adv-x="701" unicode="ы" d="M625 505v-505h-65v505h65zM141 303h195q82 0 118.5 -35.5t36.5 -110.5q0 -82 -36.5 -119.5t-118.5 -37.5h-260v505h65v-202zM336 60q45 0 64 21.5t19 74.5q0 50 -19.5 70t-63.5 20h-195v-186h195z"/>
<glyph glyph-name="afii10094" horiz-adv-x="546" unicode="ь" d="M141 303h195q82 0 118.5 -35.5t36.5 -110.5q0 -82 -36.5 -119.5t-118.5 -37.5h-260v505h65v-202zM336 60q45 0 64 21.5t19 74.5q0 50 -19.5 70t-63.5 20h-195v-186h195z"/>
<glyph glyph-name="afii10095" horiz-adv-x="484" unicode="э" d="M54 74q58 -26 123 -26q91 0 131 41.5t41 155.5h-234v60h232q-7 90 -46.5 121t-123.5 31q-72 0 -123 -24l-21 61q64 25 144 25q124 0 184 -58t60 -206q0 -149 -60 -209t-184 -60q-81 0 -144 28z"/>
<glyph glyph-name="afii10096" horiz-adv-x="808" unicode="ю" d="M525 459q-85 0 -117 -40.5t-32 -165.5q0 -120 33 -163.5t116 -43.5q84 0 117 43.5t33 163.5q0 125 -32.5 165.5t-117.5 40.5zM525 -14q-113 0 -165.5 57.5t-53.5 202.5h-165v-246h-65v505h65v-202h166q8 121 60.5 168.5t157.5 47.5q115 0 167.5 -57.5t52.5 -206.5 q0 -150 -52.5 -209.5t-167.5 -59.5z"/>
<glyph glyph-name="afii10097" horiz-adv-x="550" unicode="я" d="M409 269v176h-184q-47 0 -67.5 -19t-20.5 -67q0 -46 22 -68t70 -22h180zM474 505v-505h-65v213h-94q-32 0 -54 -7.5t-46.5 -30t-49 -64.5t-55.5 -111h-74q44 92 76 141.5t53 66t49 20.5q-77 0 -112 36t-35 94q0 147 158 147h249z"/>
<glyph glyph-name="afii10071" horiz-adv-x="546" unicode="ё" d="M384 657q24 0 32.5 -7t8.5 -32q0 -27 -8.5 -35t-32.5 -8q-25 0 -33.5 8t-8.5 35q0 25 8.5 32t33.5 7zM195 657q24 0 32.5 -7t8.5 -32q0 -27 -8.5 -35t-32.5 -8q-25 0 -33.5 8t-8.5 35q0 25 8.5 32t33.5 7zM290 458q-81 0 -114.5 -32.5t-39.5 -120.5h286q-4 92 -32 122.5 t-100 30.5zM290 519q111 0 158.5 -58.5t47.5 -214.5h-361q1 -118 39.5 -158.5t130.5 -40.5q72 0 145 27l15 -60q-91 -28 -166 -28q-121 0 -178.5 60t-57.5 209q0 144 55 204t172 60z"/>
<glyph glyph-name="afii10099" horiz-adv-x="547" unicode="ђ" d="M141 595v-117q20 16 61 28.5t86 12.5q73 0 113 -22t61.5 -86.5t21.5 -183.5q0 -317 -182 -397l-33 52q25 10 41 20t38 34.5t34.5 58.5t22 93.5t9.5 138.5q0 100 -13 149t-39.5 65t-80.5 16q-56 0 -97 -18t-43 -50v-389h-65v595h-64v52h64v75h65v-75h122v-52h-122z"/>
<glyph glyph-name="afii10100" horiz-adv-x="400" unicode="ѓ" d="M249 568h-69l119 129h83zM76 505h321v-59h-256v-446h-65v505z"/>
<glyph glyph-name="afii10101" horiz-adv-x="484" unicode="є" d="M430 74l21 -60q-63 -28 -144 -28q-124 0 -184 60t-60 209q0 148 60 206t184 58q80 0 144 -25l-21 -61q-51 24 -123 24q-84 0 -123.5 -31t-46.5 -121h232v-60h-234q1 -114 41 -155.5t131 -41.5q65 0 123 26z"/>
<glyph glyph-name="afii10102" horiz-adv-x="504" unicode="ѕ" d="M404 431q-72 28 -144 28q-70 0 -99.5 -17.5t-29.5 -73.5q0 -38 29 -56t97 -22q99 -7 143 -41t44 -104q0 -88 -46 -123.5t-149 -35.5t-182 27l20 61q26 -12 74.5 -20.5t87.5 -8.5q67 0 95.5 18.5t28.5 75.5q0 42 -26.5 62t-97.5 26q-97 7 -143 37t-46 98q0 86 49 121.5 t151 35.5q73 0 166 -26z"/>
<glyph glyph-name="afii10103" horiz-adv-x="217" unicode="і" d="M110 697q24 0 32.5 -7t8.5 -32q0 -27 -8.5 -35t-32.5 -8q-25 0 -33.5 8t-8.5 35q0 25 8.5 32t33.5 7zM141 0h-65v505h65v-505z"/>
<glyph glyph-name="afii10104" horiz-adv-x="217" unicode="ї" d="M203 657q24 0 32.5 -7t8.5 -32q0 -27 -8.5 -35t-32.5 -8q-25 0 -33.5 8t-8.5 35q0 25 8.5 32t33.5 7zM14 657q24 0 32.5 -7t8.5 -32q0 -27 -8.5 -35t-32.5 -8q-25 0 -33.5 8t-8.5 35q0 25 8.5 32t33.5 7zM141 505v-505h-65v505h65z"/>
<glyph glyph-name="afii10105" horiz-adv-x="217" unicode="ј" d="M-24 -203v60q54 0 77 22t23 93v533h65v-533q0 -103 -42.5 -139t-122.5 -36zM110 697q24 0 32.5 -7t8.5 -32q0 -27 -8.5 -35t-32.5 -8q-25 0 -33.5 8t-8.5 35q0 25 8.5 32t33.5 7z"/>
<glyph glyph-name="afii10106" horiz-adv-x="854" unicode="љ" d="M644 60q45 0 64 21.5t19 74.5q0 50 -19.5 70t-63.5 20h-195v-186h195zM384 445h-180q-20 -217 -93 -445h-71q90 255 102 505h307v-202h195q82 0 118.5 -35.5t36.5 -110.5q0 -82 -36.5 -119.5t-118.5 -37.5h-260v445z"/>
<glyph glyph-name="afii10107" horiz-adv-x="884" unicode="њ" d="M674 60q45 0 64 21.5t19 74.5q0 50 -19.5 70t-63.5 20h-195v-186h195zM479 303h195q82 0 118.5 -35.5t36.5 -110.5q0 -82 -36.5 -119.5t-118.5 -37.5h-260v246h-273v-246h-65v505h65v-202h273v202h65v-202z"/>
<glyph glyph-name="afii10108" horiz-adv-x="554" unicode="ћ" d="M141 386v-386h-65v595h-64v52h64v75h65v-75h122v-52h-122v-117q20 16 61 28.5t86 12.5q105 0 148 -49.5t43 -184.5v-285h-65v272q0 113 -27.5 149t-105.5 36q-57 0 -98.5 -19t-41.5 -52z"/>
<glyph glyph-name="afii10109" horiz-adv-x="478" unicode="ќ" d="M273 568h-69l119 129h83zM478 0h-80q-76 136 -136 186.5t-121 60.5v-247h-65v505h65v-243q73 61 237 243h84q-181 -201 -225 -230q26 -10 43 -20t46 -37t66 -81t86 -137z"/>
<glyph glyph-name="afii10110" horiz-adv-x="509" unicode="ў" d="M125 702h54q0 -40 18.5 -54.5t60.5 -14.5t61 14.5t19 54.5h52q0 -126 -133 -126q-132 0 -132 126zM211 -24q-99 350 -186 529h73q79 -179 156 -447q106 257 159 447h71q-63 -210 -188 -505q-41 -98 -91 -192h-76q35 65 82 168z"/>
<glyph glyph-name="afii10193" horiz-adv-x="555" unicode="џ" d="M329 0l-21 -164h-53l-21 164h-158v505h65v-445h273v445h65v-505h-150z"/>
<glyph glyph-name="afii10050" horiz-adv-x="533" unicode="Ґ" d="M457 697l23 164h53v-224h-360v-637h-72v697h356z"/>
<glyph glyph-name="afii10098" horiz-adv-x="400" unicode="ґ" d="M397 445h-256v-445h-65v505h250l18 144h53v-204z"/>
<glyph glyph-name="endash" horiz-adv-x="544" unicode="–" d="M53 245v60h438v-60h-438z"/>
<glyph glyph-name="emdash" horiz-adv-x="837" unicode="—" d="M53 245v60h731v-60h-731z"/>
<glyph glyph-name="quoteleft" horiz-adv-x="216" unicode="‘" d="M24 505l109 257h60l-78 -257h-91z"/>
<glyph glyph-name="quoteright" horiz-adv-x="215" unicode="’" d="M192 762l-109 -257h-60l78 257h91z"/>
<glyph glyph-name="quotesinglbase" horiz-adv-x="215" unicode="‚" d="M192 98l-109 -257h-60l78 257h91z"/>
<glyph glyph-name="quotedblleft" horiz-adv-x="377" unicode="“" d="M24 505l109 257h60l-78 -257h-91zM186 505l109 257h60l-78 -257h-91z"/>
<glyph glyph-name="quotedblright" horiz-adv-x="377" unicode="”" d="M354 762l-109 -257h-60l78 257h91zM192 762l-109 -257h-60l78 257h91z"/>
<glyph glyph-name="quotedblbase" horiz-adv-x="377" unicode="„" d="M354 98l-109 -257h-60l78 257h91zM192 98l-109 -257h-60l78 257h91z"/>
<glyph glyph-name="dagger" horiz-adv-x="420" unicode="†" d="M30 518v54h150v153h60v-153h150v-54h-150v-253h-60v253h-150z"/>
<glyph glyph-name="daggerdbl" horiz-adv-x="420" unicode="‡" d="M30 518v54h150v153h60v-153h150v-54h-150v-130h150v-54h-150v-153h-60v153h-150v54h150v130h-150z"/>
<glyph glyph-name="bullet" horiz-adv-x="585" unicode="•" d="M292 56q-122 0 -175.5 59t-53.5 210q0 150 53.5 207t175.5 57t176 -57t54 -207q0 -151 -54 -210t-176 -59z"/>
<glyph glyph-name="ellipsis" horiz-adv-x="1211" unicode="…" d="M956 103q32 0 42.5 -9t10.5 -40q0 -34 -10.5 -44t-42.5 -10q-29 0 -40 10.5t-11 43.5q0 31 11 40t40 9zM605 103q31 0 42 -9t11 -40q0 -33 -11 -43.5t-42 -10.5q-30 0 -41 10.5t-11 43.5q0 31 11 40t41 9zM253 103q32 0 42.5 -9t10.5 -40q0 -34 -10.5 -44t-42.5 -10 q-30 0 -40.5 10.5t-10.5 43.5q0 31 10.5 40t40.5 9z"/>
<glyph glyph-name="perthousand" horiz-adv-x="1209" unicode="‰" d="M1005 370q-51 0 -72 -33t-21 -131q0 -94 21.5 -131t71.5 -37q52 0 72.5 36.5t20.5 131.5q0 99 -20 131.5t-73 32.5zM1005 -14q-79 0 -116.5 49t-37.5 173q0 122 37 168.5t117 46.5t117 -46t37 -169q0 -124 -37.5 -173t-116.5 -49zM658 370q-51 0 -72 -33t-21 -131 q0 -94 21.5 -131t71.5 -37q52 0 72.5 36.5t20.5 131.5q0 99 -20 131.5t-73 32.5zM658 -14q-79 0 -116.5 49t-37.5 173q0 122 37 168.5t117 46.5t117 -46t37 -169q0 -124 -37.5 -173t-116.5 -49zM204 661q-51 0 -72 -33t-21 -131q0 -94 21.5 -131t71.5 -37q52 0 72.5 36.5 t20.5 131.5q0 99 -20 131.5t-73 32.5zM204 277q-79 0 -116.5 49t-37.5 173q0 122 37 168.5t117 46.5t117 -46t37 -169q0 -124 -37.5 -173t-116.5 -49zM591 697h71l-394 -697h-71z"/>
<glyph glyph-name="guilsinglleft" horiz-adv-x="374" unicode="‹" d="M341 524l-217 -222l217 -228l-37 -44l-270 269l268 268z"/>
<glyph glyph-name="guilsinglright" horiz-adv-x="374" unicode="›" d="M35 74l217 222l-217 228l37 44l270 -269l-268 -268z"/>
<glyph glyph-name="fraction" horiz-adv-x="528" unicode="⁄" d="M425 697h71l-394 -697h-71z"/>
<glyph glyph-name="fraction" horiz-adv-x="528" unicode="∕" d="M425 697h71l-394 -697h-71z"/>
<glyph glyph-name="franc" horiz-adv-x="559" unicode="₣" d="M52 160v55h49v482h470v-60h-398v-268h247v-59h-247v-95h97v-55h-97v-160h-72v160h-49z"/>
<glyph glyph-name="Euro" horiz-adv-x="602" unicode="€" d="M63 355q0 106 19 176t60.5 110.5t98 56.5t141.5 16q104 0 195 -27l-23 -65q-67 27 -171 27q-114 0 -166.5 -33.5t-67.5 -135.5h292v-60h-299q-1 -21 -1 -65q0 -45 1 -64h299v-59h-292q15 -107 67.5 -143.5t166.5 -36.5q103 0 171 26l23 -64q-89 -28 -195 -28 q-168 0 -243.5 81t-75.5 288z"/>
<glyph glyph-name="afii61352" horiz-adv-x="1097" unicode="№" d="M742 186v60h271v-60h-271zM875 661q-61 0 -80.5 -25t-19.5 -108q0 -79 20.5 -106.5t79.5 -27.5t80 27.5t21 106.5q0 83 -20 108t-81 25zM875 341q-85 0 -122.5 41t-37.5 147q0 105 37.5 145t122.5 40q86 0 123.5 -40t37.5 -145q0 -106 -37.5 -147t-123.5 -41zM173 624 v-624h-72v697h98q172 -255 357 -590v590h73v-697h-86q-169 314 -370 624z"/>
<glyph glyph-name="trademark" horiz-adv-x="728" unicode="™" d="M525 349h-61l-92 304v-304h-50v348h84l92 -293l90 293h80v-348h-51v304zM178 651v-302h-57v302h-106v46h268v-46h-105z"/>
<glyph glyph-name="estimated" horiz-adv-x="690" unicode="℮" d="M359 653q-55 0 -91 -10t-65 -37t-43.5 -78t-17.5 -130h427q-2 102 -27 159t-67.5 76.5t-115.5 19.5zM141 338q1 -116 26 -178t75 -85t141 -23q103 0 171 26l23 -64q-89 -28 -195 -28q-168 0 -243.5 81t-75.5 285q0 105 19.5 176.5t59.5 111.5t92 57t125 17t124 -18 t89 -60t56 -116t18 -182h-505z"/>
<glyph glyph-name="arrowleft" horiz-adv-x="722" unicode="←" d="M408 622l-256 -216h550v-59h-550l256 -214l-41 -50l-347 295l346 292z"/>
<glyph glyph-name="arrowup" horiz-adv-x="722" unicode="↑" d="M606 329l-216 256v-550h-59v550l-214 -256l-50 41l295 347l292 -346z"/>
<glyph glyph-name="arrowright" horiz-adv-x="722" unicode="→" d="M314 622l42 48l346 -292l-347 -295l-41 50l256 214h-550v59h550z"/>
<glyph glyph-name="arrowdown" horiz-adv-x="722" unicode="↓" d="M115 423l216 -256v550h59v-550l214 256l50 -41l-295 -347l-292 346z"/>
<glyph glyph-name="partialdiff" d="M489 238q0 54 -15 102q-68 13 -160 13q-107 0 -142.5 -29t-35.5 -118q0 -86 35.5 -124.5t137.5 -38.5q42 0 67.5 3t49.5 14t36.5 32t19.5 57t7 89zM314 415q55 0 135 -10q-63 128 -260 292h100q57 -50 98.5 -93.5t85 -103.5t67 -129.5t23.5 -144.5q0 -144 -54 -193.5 t-200 -49.5q-132 0 -191 54t-59 177q0 113 56 157t199 44z" unicode="∂"/>
<glyph glyph-name="product" horiz-adv-x="714" unicode="∏" d="M173 637v-637h-72v697h513v-697h-71v637h-370z"/>
<glyph glyph-name="summation" horiz-adv-x="609" unicode="∑" d="M351 344q-125 -172 -219 -285h434v-59h-558q139 176 261 343q-102 142 -245 354h548v-60h-427q112 -164 206 -293z"/>
<glyph glyph-name="minus" d="M71 328v60h479v-60h-479z" unicode="−"/>
<glyph glyph-name="radical" horiz-adv-x="542" unicode="√" d="M0 445v60h128q85 -197 155 -443q46 111 118 318.5t103 316.5h71q-39 -131 -118 -352t-131 -345h-92q-80 275 -152 445h-82z"/>
<glyph glyph-name="infinity" horiz-adv-x="772" unicode="∞" d="M386 275q-8 -75 -53.5 -100.5t-123.5 -25.5q-90 0 -134.5 47.5t-44.5 153.5t44.5 154t134.5 48q77 0 123 -25.5t54 -100.5q8 75 53.5 100.5t123.5 25.5q90 0 134.5 -47.5t44.5 -153.5t-44.5 -154t-134.5 -48q-77 0 -123 25.5t-54 100.5zM415 351q0 -73 32.5 -104.5 t106.5 -31.5q67 0 95.5 30t28.5 106t-28.5 106t-95.5 30q-74 0 -106.5 -32t-32.5 -104zM357 350q0 73 -32.5 104.5t-106.5 31.5q-67 0 -95.5 -30t-28.5 -106t28.5 -106t95.5 -30q74 0 106.5 32t32.5 104z"/>
<glyph glyph-name="integral" horiz-adv-x="355" unicode="∫" d="M338 646q-41 13 -97 13q-21 0 -36 -3t-31 -13t-24.5 -33t-8.5 -58v-580q0 -101 -45.5 -138t-119.5 -37q-65 0 -117 22l20 61q44 -23 97 -23q44 0 72 24t28 91v580q0 53 13.5 88t39 51t51 22t61.5 6q61 0 114 -16z"/>
<glyph glyph-name="approxequal" d="M507 316l47 -35q-38 -101 -130 -101q-32 0 -125 44.5t-120 44.5q-41 0 -68 -65l-42 37q27 46 54 67t65 21q34 0 126 -43t118 -43q48 0 75 73zM507 502l47 -35q-38 -101 -130 -101q-32 0 -125 44.5t-120 44.5q-41 0 -68 -65l-42 37q27 46 54 67t65 21q34 0 126 -43 t118 -43q48 0 75 73z" unicode="≈"/>
<glyph glyph-name="notequal" d="M417 609h76l-70 -122h127v-60h-162l-84 -146h246v-60h-280l-69 -120h-74l68 120h-124v60h159l83 146h-242v60h276z" unicode="≠"/>
<glyph glyph-name="lessequal" d="M501 637l-305 -226l305 -228l-32 -47l-358 259v30l356 258zM71 40v60h479v-60h-479z" unicode="≤"/>
<glyph glyph-name="greaterequal" d="M121 637l34 46l356 -258v-30l-358 -259l-32 47l305 228zM551 40h-479v60h479v-60z" unicode="≥"/>
<glyph glyph-name="lozenge" horiz-adv-x="504" unicode="◊" d="M395 280q-65 179 -125 366h-29q-91 -225 -142 -366q59 -161 142 -368h29q65 203 125 368zM474 279q-93 -238 -154 -423h-123q-106 255 -167 423q61 168 167 423h123q61 -185 154 -423z"/>
<glyph glyph-name="caron.alt" horiz-adv-x="340" unicode="" d="M205 722h73l-56 -192h-39z"/>
<glyph glyph-name="commaaccent" horiz-adv-x="280" unicode="" d="M216 -51l-101 -167h-53l70 167h84z"/>
<glyph glyph-name="Acute" horiz-adv-x="348" unicode="" d="M94 747l134 129h92l-159 -129h-67z"/>
<glyph glyph-name="Caron" horiz-adv-x="667" unicode="" d="M352 786l81 90h76l-122 -129h-72l-126 129h79z"/>
<glyph glyph-name="Dieresis" horiz-adv-x="336" unicode="" d="M337 847q24 0 32.5 -7t8.5 -32q0 -27 -8.5 -35t-32.5 -8q-25 0 -33.5 8t-8.5 35q0 25 8.5 32t33.5 7zM148 847q24 0 32.5 -7t8.5 -32q0 -27 -8.5 -35t-32.5 -8q-25 0 -33.5 8t-8.5 35q0 25 8.5 32t33.5 7z"/>
<glyph glyph-name="Grave" horiz-adv-x="348" unicode="" d="M409 747h-79l-160 129h93z"/>
<glyph glyph-name="Hungarumlaut" horiz-adv-x="631" unicode="" d="M399 876h76l-106 -129h-54zM261 876h75l-107 -129h-53z"/>
<glyph glyph-name="Macron" horiz-adv-x="339" unicode="" d="M136 770v62h251v-62h-251z"/>
<glyph glyph-name="Lslashsmall" horiz-adv-x="400" unicode="" d="M76 0v150l-49 -45v69l49 45v286h65v-226l103 96v-71l-103 -95v-149h256v-60h-321z"/>
<glyph glyph-name="OEsmall" horiz-adv-x="848" unicode="" d="M292 459q-91 0 -124 -40t-33 -166q0 -121 33.5 -164t123.5 -43q91 0 124.5 43t33.5 164q0 126 -33 166t-125 40zM802 0h-405q-45 -14 -105 -14q-122 0 -175.5 59t-53.5 210q0 150 53.5 207t175.5 57q65 0 107 -14h403v-60h-321q34 -53 40 -145h221v-57h-220 q-1 -124 -43 -183h323v-60z"/>
<glyph glyph-name="Scaronsmall" horiz-adv-x="504" unicode="" d="M175 697l81 -86l79 86h78l-122 -129h-72l-126 129h82zM404 431q-72 28 -144 28q-70 0 -99.5 -17.5t-29.5 -73.5q0 -38 29 -56t97 -22q99 -7 143 -41t44 -104q0 -88 -46 -123.5t-149 -35.5t-182 27l20 61q26 -12 74.5 -20.5t87.5 -8.5q67 0 95.5 18.5t28.5 75.5 q0 42 -26.5 62t-97.5 26q-97 7 -143 37t-46 98q0 86 49 121.5t151 35.5q73 0 166 -26z"/>
<glyph glyph-name="Zcaronsmall" horiz-adv-x="495" unicode="" d="M173 697l81 -86l79 86h78l-122 -129h-72l-126 129h82zM36 0v27q207 250 315 418h-299v60h401v-25q-68 -103 -162 -231t-147 -189h310v-60h-418z"/>
<glyph glyph-name="exclamsmall" horiz-adv-x="331" unicode="" d="M165 103q31 0 42 -9t11 -40q0 -33 -11 -43.5t-42 -10.5q-30 0 -41 10.5t-11 43.5q0 31 11 40t41 9zM120 505h89l-19 -333h-50z"/>
<glyph glyph-name="ampersandsmall" horiz-adv-x="649" unicode="" d="M274 303q79 0 114.5 17t35.5 62q0 43 -29 60t-113 17t-114.5 -17t-30.5 -60q0 -46 30 -62.5t107 -16.5zM245 46q131 0 231 88q-49 60 -97 86t-105 26q-85 0 -127.5 -23t-42.5 -75q0 -57 31 -79.5t110 -22.5zM641 0h-74q-27 46 -60 92q-120 -106 -263 -106 q-103 0 -156 34.5t-53 116.5q0 57 34.5 95t110.5 42q-36 3 -59.5 13t-34 28t-13.5 35.5t-3 44.5q0 63 49.5 93.5t162.5 30.5t161 -30.5t48 -93.5q0 -114 -128 -124q76 -10 153 -95q47 57 69 123h68q-34 -87 -102 -164q45 -58 90 -135z"/>
<glyph glyph-name="zerooldstyle" d="M316 459q-91 0 -124 -40t-33 -166q0 -121 33.5 -164t123.5 -43q89 0 118.5 41.5t29.5 165.5q0 128 -29 167t-119 39zM316 -14q-116 0 -172.5 60t-56.5 209q0 148 56.5 206t172.5 58q115 0 167.5 -57.5t52.5 -206.5q0 -150 -52.5 -209.5t-167.5 -59.5z" unicode=""/>
<glyph glyph-name="oneoldstyle" d="M410 0h-65v425l-156 -82l-24 54l245 122v-519z" unicode=""/>
<glyph glyph-name="twooldstyle" d="M525 60v-60h-424v55q145 80 218 131t99.5 88t26.5 82q0 53 -33 75.5t-124 22.5q-36 0 -87.5 -7t-69.5 -15l-16 67q84 20 174 20q129 0 180.5 -38t51.5 -123q0 -77 -73.5 -149t-244.5 -149h322z" unicode=""/>
<glyph glyph-name="threeoldstyle" d="M385 183q92 -4 127 -51.5t35 -128.5q0 -114 -64.5 -160t-208.5 -46q-97 0 -213 29l17 56q79 -24 196 -24q114 0 155 32.5t41 114.5t-41 114.5t-143 32.5h-80v59h80q92 0 132.5 30t40.5 99q0 65 -38 91.5t-142 26.5q-112 0 -192 -26l-18 60q126 27 210 27q138 0 196 -41.5 t58 -128.5q0 -72 -31 -115t-117 -51z" unicode=""/>
<glyph glyph-name="fouroldstyle" d="M465 505v-446h99v-59h-99v-192h-71v192h-353v15q164 304 309 490h115zM394 59v401q-109 -134 -256 -401h256z" unicode=""/>
<glyph glyph-name="fiveoldstyle" d="M180 445v-222q51 6 113 6q140 0 197 -49.5t57 -164.5q0 -122 -63 -170t-208 -48q-81 0 -199 29l18 56q78 -24 181 -24q114 0 154 33t40 115q0 92 -36.5 127t-140.5 35q-105 0 -183 -19v356h394v-60h-324z" unicode=""/>
<glyph glyph-name="sixoldstyle" d="M327 47q103 0 138 32.5t35 115.5q0 92 -37 127t-141 35q-101 0 -181 -18q1 -90 12 -147.5t36 -89t57 -43.5t81 -12zM532 621q-69 28 -156 28q-63 0 -101.5 -9t-70 -35t-46 -75.5t-17.5 -128.5q85 17 181 17q140 0 197.5 -49.5t57.5 -164.5q0 -122 -58 -170t-192 -48 q-98 0 -153 32.5t-81.5 112t-26.5 222.5q0 106 19 176.5t60 111t95.5 57t134.5 16.5q88 0 180 -29z" unicode=""/>
<glyph glyph-name="sevenoldstyle" d="M574 505v-26q-80 -129 -168 -320.5t-144 -350.5h-82q62 171 145 348.5t153 288.5h-397v60h493z" unicode=""/>
<glyph glyph-name="eightoldstyle" d="M311 -14q-126 0 -187 47t-61 159q0 81 35.5 130t127.5 53q-85 8 -114.5 51.5t-29.5 117.5q0 86 54 128t175 42t175.5 -42t54.5 -128q0 -74 -29.5 -117.5t-114.5 -51.5q91 -4 126.5 -53t35.5 -130q0 -113 -60.5 -159.5t-187.5 -46.5zM311 403q82 0 118.5 31t36.5 101 q0 64 -34.5 91t-120.5 27t-120.5 -27t-34.5 -91q0 -70 36.5 -101t118.5 -31zM311 47q97 0 134.5 33t37.5 114q0 82 -40 116t-132 34t-131.5 -34t-39.5 -116q0 -81 37 -114t134 -33z" unicode=""/>
<glyph glyph-name="nineoldstyle" d="M489 264q0 53 -7 89t-19.5 57t-36.5 32t-49.5 14t-67.5 3q-102 0 -137.5 -38.5t-35.5 -124.5q0 -89 35.5 -118t142.5 -29q92 0 160 13q15 48 15 102zM314 87q-143 0 -199 44t-56 157q0 123 59 177t191 54q146 0 200 -49.5t54 -193.5q0 -75 -23 -144t-66.5 -128.5 t-84.5 -102.5t-98 -93h-100q94 78 158 146.5t100 142.5q-80 -10 -135 -10z" unicode=""/>
<glyph glyph-name="questionsmall" horiz-adv-x="466" unicode="" d="M243 172h-80q147 104 147 210q0 40 -23 59t-90 19q-71 0 -114 -15l-17 58q55 16 131 16q97 0 142 -31.5t45 -97.5q0 -116 -141 -218zM214 103q32 0 42.5 -9t10.5 -40q0 -34 -10.5 -44t-42.5 -10q-30 0 -40.5 10.5t-10.5 43.5q0 31 10.5 40t40.5 9z"/>
<glyph glyph-name="Asmall" horiz-adv-x="534" unicode="" d="M281 445h-25q-55 -133 -94 -241h196q-44 125 -77 241zM436 0q-29 66 -60 152h-233q-28 -83 -47 -152h-71q62 204 188 505h117q100 -340 179 -505h-73z"/>
<glyph glyph-name="Bsmall" horiz-adv-x="551" unicode="" d="M376 273q115 -4 115 -130q0 -71 -36 -107t-103 -36h-276v505h267q76 0 104.5 -32.5t28.5 -87.5q0 -52 -20 -79.5t-80 -32.5zM333 300q74 0 74 76q0 39 -15.5 54t-58.5 15h-192v-145h192zM341 60q43 0 60.5 20t17.5 65q0 98 -81 98h-197v-183h200z"/>
<glyph glyph-name="Csmall" horiz-adv-x="466" unicode="" d="M430 74l21 -60q-63 -28 -144 -28q-124 0 -184 60t-60 209q0 148 60 206t184 58q80 0 144 -25l-21 -61q-51 24 -123 24q-47 0 -77 -8t-52.5 -29.5t-32.5 -62t-10 -104.5q0 -119 39.5 -162t132.5 -43q65 0 123 26z"/>
<glyph glyph-name="Dsmall" horiz-adv-x="556" unicode="" d="M255 445h-114v-385h114q92 0 129 40t37 153q0 117 -36.5 154.5t-129.5 37.5zM76 0v505h173q124 0 184 -55t60 -195q0 -142 -60 -198.5t-184 -56.5h-173z"/>
<glyph glyph-name="Esmall" horiz-adv-x="491" unicode="" d="M385 300v-57h-244v-183h304v-60h-369v505h369v-60h-304v-145h244z"/>
<glyph glyph-name="Fsmall" horiz-adv-x="455" unicode="" d="M76 0v505h369v-60h-304v-169h244v-57h-244v-219h-65z"/>
<glyph glyph-name="Gsmall" horiz-adv-x="552" unicode="" d="M418 62v160h-142v55h208v-256q-30 -13 -79.5 -24t-87.5 -11q-127 0 -190.5 60.5t-63.5 208.5q0 147 64 205.5t190 58.5q79 0 154 -25l-21 -61q-58 24 -133 24q-96 0 -139 -41t-43 -163q0 -118 43 -161.5t139 -43.5q57 0 101 14z"/>
<glyph glyph-name="Hsmall" horiz-adv-x="555" unicode="" d="M414 246h-273v-246h-65v505h65v-202h273v202h65v-505h-65v246z"/>
<glyph glyph-name="Ismall" horiz-adv-x="217" unicode="" d="M141 505v-505h-65v505h65z"/>
<glyph glyph-name="Jsmall" horiz-adv-x="358" unicode="" d="M282 505v-344q0 -101 -45.5 -138t-119.5 -37q-65 0 -117 22l20 61q44 -23 97 -23q44 0 72 24t28 91v344h65z"/>
<glyph glyph-name="Ksmall" horiz-adv-x="478" unicode="" d="M141 267q58 39 237 238h84q-171 -189 -231 -229q49 -25 249 -276h-84q-203 249 -255 267zM141 267v-267h-65v505h65v-238z"/>
<glyph glyph-name="Lsmall" horiz-adv-x="400" unicode="" d="M76 0v505h65v-445h256v-60h-321z"/>
<glyph glyph-name="Msmall" horiz-adv-x="685" unicode="" d="M346 130q65 174 158 375h105v-505h-65v447q-99 -213 -172 -411h-61q-100 256 -170 411v-447h-65v505h109q99 -219 161 -375z"/>
<glyph glyph-name="Nsmall" horiz-adv-x="555" unicode="" d="M414 505h65v-505h-65q-147 246 -273 411v-411h-65v505h65q173 -223 273 -397v397z"/>
<glyph glyph-name="Osmall" horiz-adv-x="585" unicode="" d="M292 457q-92 0 -124.5 -39.5t-32.5 -164.5q0 -121 33.5 -163t123.5 -42q91 0 124.5 42t33.5 163q0 86 -15.5 130t-47.5 59t-95 15zM292 -14q-122 0 -175.5 59t-53.5 210q0 150 53.5 207t175.5 57t176 -57t54 -207q0 -151 -54 -210t-176 -59z"/>
<glyph glyph-name="Psmall" horiz-adv-x="546" unicode="" d="M141 202v-202h-65v505h260q82 0 118.5 -37.5t36.5 -119.5q0 -75 -36.5 -110.5t-118.5 -35.5h-195zM336 445h-195v-186h195q44 0 63.5 20t19.5 70q0 53 -19 74.5t-64 21.5z"/>
<glyph glyph-name="Qsmall" horiz-adv-x="585" unicode="" d="M292 459q-91 0 -124 -40t-33 -166q0 -121 33.5 -164t123.5 -43q91 0 124.5 43t33.5 164q0 126 -33 166t-125 40zM292 -14q-122 0 -175.5 59t-53.5 210q0 150 53.5 207t175.5 57t176 -57t54 -207q0 -125 -31.5 -181.5t-107.5 -73.5q66 -10 200 -182h-86q-57 80 -112.5 124 t-92.5 44z"/>
<glyph glyph-name="Rsmall" horiz-adv-x="538" unicode="" d="M141 269h180q48 0 70 22t22 68q0 48 -20.5 67t-67.5 19h-184v-176zM325 505q158 0 158 -147q0 -58 -35 -94t-112 -36q37 -8 74 -50t119 -178h-80q-72 131 -116.5 172t-97.5 41h-94v-213h-65v505h249z"/>
<glyph glyph-name="Ssmall" horiz-adv-x="504" unicode="" d="M404 431q-72 28 -144 28q-70 0 -99.5 -17.5t-29.5 -73.5q0 -38 29 -56t97 -22q99 -7 143 -41t44 -104q0 -88 -46 -123.5t-149 -35.5t-182 27l20 61q26 -12 74.5 -20.5t87.5 -8.5q67 0 95.5 18.5t28.5 75.5q0 42 -26.5 62t-97.5 26q-97 7 -143 37t-46 98q0 86 49 121.5 t151 35.5q73 0 166 -26z"/>
<glyph glyph-name="Tsmall" horiz-adv-x="481" unicode="" d="M273 445v-445h-65v445h-198v60h461v-60h-198z"/>
<glyph glyph-name="Usmall" horiz-adv-x="550" unicode="" d="M474 505v-323q0 -111 -44 -153.5t-155 -42.5t-155 42.5t-44 153.5v323h65v-330q0 -71 27.5 -99t106.5 -28t106.5 28t27.5 99v330h65z"/>
<glyph glyph-name="Vsmall" horiz-adv-x="509" unicode="" d="M253 62q111 268 160 443h71q-62 -204 -188 -505h-92q-100 340 -179 505h73q85 -197 155 -443z"/>
<glyph glyph-name="Wsmall" horiz-adv-x="813" unicode="" d="M787 505q-70 -265 -172 -505h-92q-54 261 -112 430q-54 -218 -130 -430h-92q-80 296 -164 505h77q74 -193 136 -443q33 92 74 230.5t57 212.5h83q57 -165 120 -443q97 256 142 443h73z"/>
<glyph glyph-name="Xsmall" horiz-adv-x="522" unicode="" d="M489 0h-81q-63 101 -137 203q-52 -69 -160 -203h-80q99 114 203 253q-91 124 -203 252h90q96 -120 152 -198q58 79 136 198h79q-84 -125 -177 -249q76 -103 178 -256z"/>
<glyph glyph-name="Ysmall" horiz-adv-x="473" unicode="" d="M269 235v-235h-65v235q-109 152 -211 270h83q73 -86 163 -215q73 84 161 215h80q-98 -136 -211 -270z"/>
<glyph glyph-name="Zsmall" horiz-adv-x="495" unicode="" d="M36 0v27q207 250 315 418h-299v60h401v-25q-68 -103 -162 -231t-147 -189h310v-60h-418z"/>
<glyph glyph-name="exclamdownsmall" horiz-adv-x="331" unicode="" d="M165 402q-31 0 -42 9t-11 40q0 33 11 43.5t42 10.5q30 0 41 -10.5t11 -43.5q0 -31 -11 -40t-41 -9zM210 0h-89l19 333h50z"/>
<glyph glyph-name="questiondownsmall" horiz-adv-x="466" unicode="" d="M207 347h80q-147 -104 -147 -210q0 -40 23 -59t90 -19q71 0 114 15l17 -58q-55 -16 -131 -16q-97 0 -142 31.5t-45 97.5q0 116 141 218zM236 416q-32 0 -42.5 9t-10.5 40q0 34 10.5 44t42.5 10q30 0 40.5 -10.5t10.5 -43.5q0 -31 -10.5 -40t-40.5 -9z"/>
<glyph glyph-name="Agravesmall" horiz-adv-x="534" unicode="" d="M281 568l-133 129h83l119 -129h-69zM281 445h-25q-55 -133 -94 -241h196q-44 125 -77 241zM436 0q-29 66 -60 152h-233q-28 -83 -47 -152h-71q62 204 188 505h117q100 -340 179 -505h-73z"/>
<glyph glyph-name="Aacutesmall" horiz-adv-x="534" unicode="" d="M275 568h-69l119 129h83zM281 445h-25q-55 -133 -94 -241h196q-44 125 -77 241zM436 0q-29 66 -60 152h-233q-28 -83 -47 -152h-71q62 204 188 505h117q100 -340 179 -505h-73z"/>
<glyph glyph-name="Acircumflexsmall" horiz-adv-x="534" unicode="" d="M350 568l-81 86l-79 -86h-78l122 129h72l126 -129h-82zM281 445h-25q-55 -133 -94 -241h196q-44 125 -77 241zM436 0q-29 66 -60 152h-233q-28 -83 -47 -152h-71q62 204 188 505h117q100 -340 179 -505h-73z"/>
<glyph glyph-name="Atildesmall" horiz-adv-x="534" unicode="" d="M397 689l41 -33q-32 -91 -105 -91q-27 0 -71 33t-67 33q-36 0 -60 -61l-36 35q24 43 47.5 62.5t55.5 19.5q30 0 70.5 -33t63.5 -33q20 0 34 15t27 53zM281 445h-25q-55 -133 -94 -241h196q-44 125 -77 241zM436 0q-29 66 -60 152h-233q-28 -83 -47 -152h-71 q62 204 188 505h117q100 -340 179 -505h-73z"/>
<glyph glyph-name="Adieresissmall" horiz-adv-x="534" unicode="" d="M363 657q24 0 32.5 -7t8.5 -32q0 -27 -8.5 -35t-32.5 -8q-25 0 -33.5 8t-8.5 35q0 25 8.5 32t33.5 7zM174 657q24 0 32.5 -7t8.5 -32q0 -27 -8.5 -35t-32.5 -8q-25 0 -33.5 8t-8.5 35q0 25 8.5 32t33.5 7zM281 445h-25q-55 -133 -94 -241h196q-44 125 -77 241zM436 0 q-29 66 -60 152h-233q-28 -83 -47 -152h-71q62 204 188 505h117q100 -340 179 -505h-73z"/>
<glyph glyph-name="Aringsmall" horiz-adv-x="534" unicode="" d="M267 693q-32 0 -44.5 -12.5t-12.5 -38.5q0 -52 57 -52q59 0 59 52q0 26 -13 38.5t-46 12.5zM267 738q110 0 110 -94t-110 -94q-109 0 -109 94q0 48 25 71t84 23zM281 445h-25q-55 -133 -94 -241h196q-44 125 -77 241zM436 0q-29 66 -60 152h-233q-28 -83 -47 -152h-71 q62 204 188 505h117q100 -340 179 -505h-73z"/>
<glyph glyph-name="AEsmall" horiz-adv-x="760" unicode="" d="M324 445q-107 -141 -180 -241h201v241h-21zM654 300v-57h-244v-183h304v-60h-369v152h-238q-70 -102 -101 -152h-80q137 211 367 505h421v-60h-304v-145h244z"/>
<glyph glyph-name="Ccedillasmall" horiz-adv-x="466" unicode="" d="M430 74l21 -60q-63 -28 -144 -28h-7v-33q70 0 94.5 -15t24.5 -60q0 -46 -28 -63.5t-97 -17.5q-70 0 -106 21l18 42q34 -17 88 -17q33 0 45 6.5t12 27.5q0 18 -15 25.5t-56 7.5q-12 0 -50 -2l31 80q-100 9 -149 70.5t-49 196.5q0 148 60 206t184 58q80 0 144 -25l-21 -61 q-51 24 -123 24q-47 0 -77 -8t-52.5 -29.5t-32.5 -62t-10 -104.5q0 -119 39.5 -162t132.5 -43q65 0 123 26z"/>
<glyph glyph-name="Egravesmall" horiz-adv-x="491" unicode="" d="M293 568l-133 129h83l119 -129h-69zM385 300v-57h-244v-183h304v-60h-369v505h369v-60h-304v-145h244z"/>
<glyph glyph-name="Eacutesmall" horiz-adv-x="491" unicode="" d="M266 568h-69l119 129h83zM385 300v-57h-244v-183h304v-60h-369v505h369v-60h-304v-145h244z"/>
<glyph glyph-name="Ecircumflexsmall" horiz-adv-x="491" unicode="" d="M353 568l-81 86l-79 -86h-78l122 129h72l126 -129h-82zM385 300v-57h-244v-183h304v-60h-369v505h369v-60h-304v-145h244z"/>
<glyph glyph-name="Edieresissmall" horiz-adv-x="491" unicode="" d="M371 657q24 0 32.5 -7t8.5 -32q0 -27 -8.5 -35t-32.5 -8q-25 0 -33.5 8t-8.5 35q0 25 8.5 32t33.5 7zM182 657q24 0 32.5 -7t8.5 -32q0 -27 -8.5 -35t-32.5 -8q-25 0 -33.5 8t-8.5 35q0 25 8.5 32t33.5 7zM385 300v-57h-244v-183h304v-60h-369v505h369v-60h-304v-145h244 z"/>
<glyph glyph-name="Igravesmall" horiz-adv-x="217" unicode="" d="M92 568l-133 129h83l119 -129h-69zM141 505v-505h-65v505h65z"/>
<glyph glyph-name="Iacutesmall" horiz-adv-x="217" unicode="" d="M120 568h-69l119 129h83zM141 505v-505h-65v505h65z"/>
<glyph glyph-name="Icircumflexsmall" horiz-adv-x="217" unicode="" d="M187 568l-81 86l-79 -86h-78l122 129h72l126 -129h-82zM141 505v-505h-65v505h65z"/>
<glyph glyph-name="Idieresissmall" horiz-adv-x="217" unicode="" d="M202 657q24 0 32.5 -7t8.5 -32q0 -27 -8.5 -35t-32.5 -8q-25 0 -33.5 8t-8.5 35q0 25 8.5 32t33.5 7zM13 657q24 0 32.5 -7t8.5 -32q0 -27 -8.5 -35t-32.5 -8q-25 0 -33.5 8t-8.5 35q0 25 8.5 32t33.5 7zM141 505v-505h-65v505h65z"/>
<glyph glyph-name="Ethsmall" horiz-adv-x="556" unicode="" d="M255 445h-114v-146h128v-59h-128v-180h114q92 0 129 40t37 153q0 117 -36.5 154.5t-129.5 37.5zM18 240v59h58v206h173q124 0 184 -55t60 -195q0 -142 -60 -198.5t-184 -56.5h-173v240h-58z"/>
<glyph glyph-name="Ntildesmall" horiz-adv-x="555" unicode="" d="M412 689l41 -33q-32 -91 -105 -91q-27 0 -71 33t-67 33q-36 0 -60 -61l-36 35q24 43 47.5 62.5t55.5 19.5q30 0 70.5 -33t63.5 -33q20 0 34 15t27 53zM414 505h65v-505h-65q-147 246 -273 411v-411h-65v505h65q173 -223 273 -397v397z"/>
<glyph glyph-name="Ogravesmall" horiz-adv-x="585" unicode="" d="M316 568l-133 129h83l119 -129h-69zM292 459q-91 0 -124 -40t-33 -166q0 -121 33.5 -164t123.5 -43q91 0 124.5 43t33.5 164q0 126 -33 166t-125 40zM292 -14q-122 0 -175.5 59t-53.5 210q0 150 53.5 207t175.5 57t176 -57t54 -207q0 -151 -54 -210t-176 -59z"/>
<glyph glyph-name="Oacutesmall" horiz-adv-x="585" unicode="" d="M287 568h-69l119 129h83zM292 459q-91 0 -124 -40t-33 -166q0 -121 33.5 -164t123.5 -43q91 0 124.5 43t33.5 164q0 126 -33 166t-125 40zM292 -14q-122 0 -175.5 59t-53.5 210q0 150 53.5 207t175.5 57t176 -57t54 -207q0 -151 -54 -210t-176 -59z"/>
<glyph glyph-name="Ocircumflexsmall" horiz-adv-x="585" unicode="" d="M369 568l-81 86l-79 -86h-78l122 129h72l126 -129h-82zM292 459q-91 0 -124 -40t-33 -166q0 -121 33.5 -164t123.5 -43q91 0 124.5 43t33.5 164q0 126 -33 166t-125 40zM292 -14q-122 0 -175.5 59t-53.5 210q0 150 53.5 207t175.5 57t176 -57t54 -207q0 -151 -54 -210 t-176 -59z"/>
<glyph glyph-name="Otildesmall" horiz-adv-x="585" unicode="" d="M419 689l41 -33q-32 -91 -105 -91q-27 0 -71 33t-67 33q-36 0 -60 -61l-36 35q24 43 47.5 62.5t55.5 19.5q30 0 70.5 -33t63.5 -33q20 0 34 15t27 53zM292 459q-91 0 -124 -40t-33 -166q0 -121 33.5 -164t123.5 -43q91 0 124.5 43t33.5 164q0 126 -33 166t-125 40z M292 -14q-122 0 -175.5 59t-53.5 210q0 150 53.5 207t175.5 57t176 -57t54 -207q0 -151 -54 -210t-176 -59z"/>
<glyph glyph-name="Odieresissmall" horiz-adv-x="585" unicode="" d="M386 657q24 0 32.5 -7t8.5 -32q0 -27 -8.5 -35t-32.5 -8q-25 0 -33.5 8t-8.5 35q0 25 8.5 32t33.5 7zM197 657q24 0 32.5 -7t8.5 -32q0 -27 -8.5 -35t-32.5 -8q-25 0 -33.5 8t-8.5 35q0 25 8.5 32t33.5 7zM292 459q-91 0 -124 -40t-33 -166q0 -121 33.5 -164t123.5 -43 q91 0 124.5 43t33.5 164q0 126 -33 166t-125 40zM292 -14q-122 0 -175.5 59t-53.5 210q0 150 53.5 207t175.5 57t176 -57t54 -207q0 -151 -54 -210t-176 -59z"/>
<glyph glyph-name="Oslashsmall" horiz-adv-x="585" unicode="" d="M292 48q91 0 124.5 42t33.5 163q0 85 -14 127l-254 -304q32 -28 110 -28zM292 457q-92 0 -124.5 -39.5t-32.5 -164.5q0 -84 14 -127l254 305q-32 26 -111 26zM541 505l-56 -67q37 -61 37 -183q0 -151 -54 -210t-176 -59q-102 0 -154 38l-20 -24h-74l56 67q-37 62 -37 188 q0 150 53.5 207t175.5 57q102 0 153 -37l20 23h76z"/>
<glyph glyph-name="Ugravesmall" horiz-adv-x="550" unicode="" d="M305 568l-133 129h83l119 -129h-69zM474 505v-323q0 -111 -44 -153.5t-155 -42.5t-155 42.5t-44 153.5v323h65v-330q0 -71 27.5 -99t106.5 -28t106.5 28t27.5 99v330h65z"/>
<glyph glyph-name="Uacutesmall" horiz-adv-x="550" unicode="" d="M259 568h-69l119 129h83zM474 505v-323q0 -111 -44 -153.5t-155 -42.5t-155 42.5t-44 153.5v323h65v-330q0 -71 27.5 -99t106.5 -28t106.5 28t27.5 99v330h65z"/>
<glyph glyph-name="Ucircumflexsmall" horiz-adv-x="550" unicode="" d="M349 568l-81 86l-79 -86h-78l122 129h72l126 -129h-82zM474 505v-323q0 -111 -44 -153.5t-155 -42.5t-155 42.5t-44 153.5v323h65v-330q0 -71 27.5 -99t106.5 -28t106.5 28t27.5 99v330h65z"/>
<glyph glyph-name="Udieresissmall" horiz-adv-x="550" unicode="" d="M372 657q24 0 32.5 -7t8.5 -32q0 -27 -8.5 -35t-32.5 -8q-25 0 -33.5 8t-8.5 35q0 25 8.5 32t33.5 7zM183 657q24 0 32.5 -7t8.5 -32q0 -27 -8.5 -35t-32.5 -8q-25 0 -33.5 8t-8.5 35q0 25 8.5 32t33.5 7zM474 505v-323q0 -111 -44 -153.5t-155 -42.5t-155 42.5 t-44 153.5v323h65v-330q0 -71 27.5 -99t106.5 -28t106.5 28t27.5 99v330h65z"/>
<glyph glyph-name="Yacutesmall" horiz-adv-x="473" unicode="" d="M248 568h-69l119 129h83zM269 235v-235h-65v235q-109 152 -211 270h83q73 -86 163 -215q73 84 161 215h80q-98 -136 -211 -270z"/>
<glyph glyph-name="Thornsmall" horiz-adv-x="546" unicode="" d="M336 349h-195v-186h195q44 0 63.5 20t19.5 70q0 53 -19 74.5t-64 21.5zM141 0h-65v505h65v-96h195q82 0 118.5 -37.5t36.5 -119.5q0 -75 -36.5 -110.5t-118.5 -35.5h-195v-106z"/>
<glyph glyph-name="Ydieresissmall" horiz-adv-x="473" unicode="" d="M334 657q24 0 32.5 -7t8.5 -32q0 -27 -8.5 -35t-32.5 -8q-25 0 -33.5 8t-8.5 35q0 25 8.5 32t33.5 7zM145 657q24 0 32.5 -7t8.5 -32q0 -27 -8.5 -35t-32.5 -8q-25 0 -33.5 8t-8.5 35q0 25 8.5 32t33.5 7zM269 235v-235h-65v235q-109 152 -211 270h83q73 -86 163 -215 q73 84 161 215h80q-98 -136 -211 -270z"/>
<glyph glyph-name="Gcedilla" d="M523 67v249h-182v58h254v-365q-69 -21 -208 -23v-33q70 0 94.5 -15t24.5 -60q0 -46 -28 -63.5t-97 -17.5q-70 0 -106 21l18 42q34 -17 88 -17q33 0 45 6.5t12 27.5q0 18 -15 25.5t-56 7.5q-12 0 -50 -2l31 79q-149 7 -217 89.5t-68 278.5q0 106 19 176t60.5 110.5 t98 56.5t141.5 16q104 0 195 -27l-23 -63q-68 26 -171 26q-71 0 -113 -10t-73.5 -41.5t-43.5 -89.5t-12 -154q0 -127 25 -193t74.5 -89t142.5 -23q76 0 140 17z" horiz-adv-x="677"/>
<glyph glyph-name="Idot" d="M140 847q24 0 32.5 -7t8.5 -32q0 -27 -8.5 -35t-32.5 -8q-25 0 -33.5 8t-8.5 35q0 25 8.5 32t33.5 7zM173 697v-697h-72v697h72z" horiz-adv-x="273"/>
<glyph glyph-name="Breve" d="M122 871h54q0 -40 18.5 -54.5t60.5 -14.5t61 14.5t19 54.5h52q0 -126 -133 -126q-132 0 -132 126z" horiz-adv-x="336"/>
<glyph glyph-name="Circumflex" d="M346 837l-81 -90h-76l122 129h72l126 -129h-79z" horiz-adv-x="680"/>
<glyph glyph-name="Dotaccent" d="M148 847q24 0 32.5 -7t8.5 -32q0 -27 -8.5 -35t-32.5 -8q-25 0 -33.5 8t-8.5 35q0 25 8.5 32t33.5 7z" horiz-adv-x="336"/>
<glyph glyph-name="gacute" d="M280 568h-69l119 129h83zM292 457q-92 0 -124.5 -39.5t-32.5 -164.5q0 -121 33.5 -163t123.5 -42q59 0 99 19t40 53v316q-59 21 -139 21zM496 479v-442q0 -134 -62.5 -187t-187.5 -53q-34 0 -85 8.5t-78 20.5l19 62q25 -12 69.5 -20.5t74.5 -8.5q95 0 140 36.5t45 132.5 q-52 -42 -139 -42q-122 0 -175.5 59t-53.5 210q0 150 53.5 207t175.5 57q48 0 106 -11t98 -29z" horiz-adv-x="572"/>
<glyph glyph-name="ldotaccent" d="M236 414q24 0 32.5 -7t8.5 -32q0 -27 -8.5 -35t-32.5 -8q-25 0 -33.5 8t-8.5 35q0 25 8.5 32t33.5 7zM141 722v-592q0 -36 10 -58.5t38 -50.5l-50 -42q-34 32 -48.5 63.5t-14.5 83.5v596h65z" horiz-adv-x="222"/>
<glyph glyph-name="Ring" d="M360 828q-32 0 -44.5 -12.5t-12.5 -38.5q0 -52 57 -52q59 0 59 52q0 26 -13 38.5t-46 12.5zM360 873q110 0 110 -94t-110 -94q-109 0 -109 94q0 48 25 71t84 23z" horiz-adv-x="727"/>
<glyph glyph-name="Tilde" d="M531 867l40 -32q-32 -91 -110 -91q-26 0 -74 33.5t-70 33.5q-35 0 -58 -59l-35 34q23 41 45.5 60t54.5 19q29 0 76 -32t69 -32q40 0 62 66z" horiz-adv-x="721"/>
<glyph glyph-name="Dmacron" d="M206 770v62h251v-62h-251zM563 350q0 91 -12.5 147t-44.5 87.5t-75 42t-115 10.5h-143v-577h143q138 0 192.5 61t54.5 229zM101 697h215q85 0 143 -16.5t100 -55.5t61.5 -107t19.5 -168q0 -195 -77 -272.5t-247 -77.5h-215v697z" horiz-adv-x="703"/>
<glyph glyph-name="zerop" d="M310 656q-67 0 -101.5 -21t-53 -85.5t-18.5 -191.5q0 -121 18 -188.5t54.5 -94.5t100.5 -27q97 0 136 65.5t39 244.5q0 96 -9 154.5t-31.5 90.5t-53 42.5t-81.5 10.5zM311 -14q-86 0 -138.5 33t-80.5 115.5t-28 223.5q0 139 28 218t80 108.5t139 29.5q88 0 139.5 -29.5 t79.5 -108.5t28 -218q0 -208 -58.5 -290t-188.5 -82z"/>
<glyph glyph-name="onep" d="M237 0h-72v621l-156 -75l-24 54l252 122v-722z" horiz-adv-x="338"/>
<glyph glyph-name="twop" d="M520 60v-60h-472v56q150 119 225 182.5t118.5 116t52 82t8.5 80.5q0 75 -40.5 103.5t-135.5 28.5q-45 0 -97.5 -7.5t-76.5 -19.5l-18 65q110 27 193 27q130 0 190 -45t60 -150q0 -55 -12.5 -95t-54.5 -93t-116.5 -115t-202.5 -156h379z" horiz-adv-x="588"/>
<glyph glyph-name="threep" d="M364 375q91 -4 126.5 -53t35.5 -130q0 -114 -64.5 -160t-208.5 -46q-97 0 -213 29l17 56q79 -24 196 -24q114 0 155 32.5t41 114.5q0 83 -41.5 116.5t-142.5 33.5h-80v59h80q91 0 132 31t41 101q0 65 -38 91.5t-142 26.5q-112 0 -192 -26l-18 60q126 27 210 27 q138 0 196 -41.5t58 -128.5q0 -72 -31.5 -116.5t-116.5 -52.5z" horiz-adv-x="588"/>
<glyph glyph-name="fourp" d="M450 697v-434h99v-59h-99v-204h-71v204h-353v15q56 103 143.5 240t165.5 238h115zM379 263v389q-64 -78 -137.5 -193t-118.5 -196h256z" horiz-adv-x="582"/>
<glyph glyph-name="fivep" d="M177 637v-225q51 6 113 6q140 0 197 -49.5t57 -164.5q0 -122 -63 -170t-208 -48q-81 0 -199 29l18 56q78 -24 181 -24q114 0 154 33t40 115q0 92 -36.5 127t-140.5 35q-105 0 -183 -19v359h394v-60h-324z" horiz-adv-x="608"/>
<glyph glyph-name="sixp" d="M325 47q103 0 138 32.5t35 115.5q0 92 -37 127t-141 35q-101 0 -181 -18q1 -90 12 -147.5t36 -89t57 -43.5t81 -12zM530 621q-69 28 -156 28q-63 0 -101.5 -9t-70 -35t-46 -75.5t-17.5 -128.5q85 17 181 17q140 0 197.5 -49.5t57.5 -164.5q0 -122 -58 -170t-192 -48 q-98 0 -153 32.5t-81.5 112t-26.5 222.5q0 106 19 176.5t60 111t95.5 57t134.5 16.5q88 0 180 -29z" horiz-adv-x="628"/>
<glyph glyph-name="sevenp" d="M507 697v-26q-80 -129 -168 -320.5t-144 -350.5h-82q62 171 145 348.5t153 288.5h-397v60h493z" horiz-adv-x="495"/>
<glyph glyph-name="eightp" d="M311 -14q-126 0 -187 47t-61 159q0 81 35.5 130t127.5 53q-85 8 -114.5 51.5t-29.5 117.5q0 86 54 128t175 42t175.5 -42t54.5 -128q0 -74 -29.5 -117.5t-114.5 -51.5q91 -4 126.5 -53t35.5 -130q0 -113 -60.5 -159.5t-187.5 -46.5zM311 403q82 0 118.5 31t36.5 101 q0 64 -34.5 91t-120.5 27t-120.5 -27t-34.5 -91q0 -70 36.5 -101t118.5 -31zM311 47q97 0 134.5 33t37.5 114q0 82 -40 116t-132 34t-131.5 -34t-39.5 -116q0 -81 37 -114t134 -33z"/>
<glyph glyph-name="ninep" d="M484 459q0 53 -7 89t-19.5 57t-36.5 32t-49.5 14t-67.5 3q-102 0 -137.5 -38.5t-35.5 -124.5q0 -89 35.5 -118t142.5 -29q92 0 160 13q15 48 15 102zM309 282q-143 0 -199 44t-56 157q0 123 59 177t191 54q146 0 200 -49.5t54 -193.5q0 -75 -23.5 -144.5t-67 -129.5 t-85 -103.5t-98.5 -93.5h-100q197 164 260 292q-80 -10 -135 -10z"/>
<glyph glyph-name="g.2" d="M431 445q-63 13 -139 13q-90 0 -123.5 -23t-33.5 -89q0 -65 33.5 -88.5t120.5 -23.5q142 0 142 120v91zM496 490v-140q0 -78 -54 -127t-153 -49q-76 0 -127 20q-8 -28 -8 -49q0 -37 28 -53.5t110 -17.5q128 -2 179 -29.5t51 -97.5q0 -80 -61 -115t-189 -35 q-126 0 -205 27l18 62q66 -30 187 -30q99 0 139 19t40 66q0 41 -30 54t-137 16q-60 1 -99 9.5t-58.5 25t-26.5 35.5t-7 48q0 49 23 91q-53 43 -53 128q0 90 55.5 130.5t173.5 40.5q115 0 204 -29z" horiz-adv-x="572"/>
<glyph glyph-name="ct" d="M568 445q-50 0 -148 6t-113 6q-47 0 -77 -8t-52.5 -29.5t-32.5 -62t-10 -104.5q0 -119 39.5 -162t132.5 -43q65 0 123 26l21 -60q-63 -28 -144 -28q-124 0 -184 60t-60 209q0 148 60 206t184 58q15 0 113 -7t148 -7v106l65 27v-133h187v-60h-187v-275q0 -66 21 -94 t73 -28q56 0 96 15l15 -58q-55 -19 -111 -19q-89 0 -124 37.5t-35 145.5v276z" horiz-adv-x="859"/>
<glyph glyph-name="arrowupleft" d="M568 517l-334 28l389 -389l-41 -42l-389 389l29 -332l-64 -6l-37 454l451 -39z" horiz-adv-x="722"/>
<glyph glyph-name="arrowupright" d="M176 517l-4 63l451 39l-37 -454l-64 6l29 332l-389 -389l-41 42l389 389z" horiz-adv-x="722"/>
<glyph glyph-name="arrowdownleft" d="M568 215l4 -63l-451 -39l37 454l64 -6l-29 -332l389 389l41 -42l-389 -389z" horiz-adv-x="722"/>
<glyph glyph-name="arrowdownright" d="M176 215l334 -28l-389 389l41 42l389 -389l-29 332l64 6l37 -454l-451 39z" horiz-adv-x="722"/>
<glyph glyph-name="dmacron" d="M292 48q80 0 139 21v317q0 33 -40 52t-99 19q-90 0 -123.5 -42t-33.5 -163q0 -86 15.5 -129.5t47.5 -59t94 -15.5zM323 643h108v79h65v-79h45v-55h-45v-562q-40 -18 -98 -29t-106 -11q-122 0 -175.5 57.5t-53.5 207.5t53.5 209t175.5 59q88 0 139 -41v110h-108v55z" horiz-adv-x="572"/>
<glyph glyph-name="Ldotaccent" d="M314 421q24 0 32.5 -7t8.5 -32q0 -27 -8.5 -35t-32.5 -8q-25 0 -33.5 8t-8.5 35q0 25 8.5 32t33.5 7zM101 697h72v-634h360v-63h-432v697z" horiz-adv-x="546"/>
<glyph glyph-name="st" d="M596 169v276q-70 1 -194 7.5t-142 6.5q-70 0 -99.5 -17.5t-29.5 -73.5q0 -38 29 -56t97 -22q99 -7 143 -41t44 -104q0 -88 -46 -123.5t-149 -35.5t-182 27l20 61q26 -12 74.5 -20.5t87.5 -8.5q67 0 95.5 18.5t28.5 75.5q0 42 -26.5 62t-97.5 26q-97 7 -143 37t-46 98 q0 86 49 121.5t151 35.5q17 0 146 -7t190 -7v106l65 27v-133h187v-60h-187v-275q0 -66 21 -94t73 -28q55 0 96 15l15 -58q-55 -19 -111 -19q-89 0 -124 37.5t-35 145.5z" horiz-adv-x="887"/>
<glyph glyph-name="orn1" d="M286 359q-46 34 -82 34q-75 0 -75 -146q0 -46 8 -76t21 -43t30 -22t34 -14t34.5 -17.5t29.5 -32.5q12 24 33 36.5t41.5 19t40 19t31.5 44.5t12 86q0 77 -15.5 110.5t-49.5 33.5q-35 0 -93 -32zM286 -40q-14 27 -38.5 44t-48.5 24t-50.5 21t-46 33t-32.5 61.5t-13 105.5 q0 104 32.5 153.5t90.5 49.5q46 0 106 -31q59 31 106 31q58 0 91 -49.5t33 -153.5q0 -62 -14.5 -104t-36 -61t-49 -33t-52.5 -21t-47 -25t-31 -45zM556 577h-241q24 -22 24 -58q0 -53 -55 -80q7 17 7 40q0 38 -19 68t-51 30h-221v54h556v-54z" horiz-adv-x="556"/>
<glyph glyph-name="orn2" d="M270 -40q-9 27 -31 45t-47 25t-52.5 21t-49 33t-36 61t-14.5 104q0 104 33 153.5t91 49.5q47 0 106 -31q60 31 106 31q58 0 90.5 -49.5t32.5 -153.5q0 -63 -13 -105.5t-32.5 -61.5t-46 -33t-50.5 -21t-48.5 -24t-38.5 -44zM0 577v54h556v-54h-221q-32 0 -51 -30t-19 -68 q0 -23 7 -40q-55 27 -55 80q0 36 24 58h-241z" horiz-adv-x="556"/>
<glyph glyph-name="orn3" d="M286 233q58 -32 93 -32q34 0 49.5 33.5t15.5 110.5q0 54 -12 86t-31.5 44.5t-40 19t-41.5 19t-33 36.5q-12 -20 -29.5 -32.5t-34.5 -17.5t-34 -14t-30 -22t-21 -43t-8 -76q0 -146 75 -146q36 0 82 34zM286 632q9 -27 31 -45t47 -25t52.5 -21t49 -33t36 -61t14.5 -104 q0 -104 -33 -153.5t-91 -49.5q-47 0 -106 31q-60 -31 -106 -31q-58 0 -90.5 49.5t-32.5 153.5q0 63 13 105.5t32.5 61.5t46 33t50.5 21t48.5 24t38.5 44zM556 15v-54h-556v54h221q32 0 51 30t19 68q0 23 -7 40q55 -27 55 -80q0 -36 -24 -58h241z" horiz-adv-x="556"/>
<glyph glyph-name="orn4" d="M270 632q14 -27 38.5 -44t48.5 -24t50.5 -21t46 -33t32.5 -61.5t13 -105.5q0 -104 -32.5 -153.5t-90.5 -49.5q-46 0 -106 31q-59 -31 -106 -31q-58 0 -91 49.5t-33 153.5q0 62 14.5 104t36 61t49 33t52.5 21t47 25t31 45zM0 15h241q-24 22 -24 58q0 53 55 80 q-7 -17 -7 -40q0 -38 19 -68t51 -30h221v-54h-556v54z" horiz-adv-x="556"/>
<glyph glyph-name="orn5" d="M419 288q34 46 34 82q0 75 -146 75q-46 0 -76 -8t-43 -21t-22 -30t-14 -34t-17.5 -34.5t-32.5 -29.5q24 -12 36.5 -33t19 -41.5t19 -40t44.5 -31.5t86 -12q77 0 110.5 15.5t33.5 49.5q0 35 -32 93zM20 288q27 14 44 38.5t24 48.5t21 50.5t33 46t61.5 32.5t105.5 13 q104 0 153.5 -32.5t49.5 -90.5q0 -46 -31 -106q31 -59 31 -106q0 -58 -49.5 -91t-153.5 -33q-62 0 -104 14.5t-61 36t-33 49t-21 52.5t-25 47t-45 31zM637 18v241q-22 -24 -58 -24q-53 0 -80 55q17 -7 40 -7q38 0 68 19t30 51v221h54v-556h-54z" horiz-adv-x="766"/>
<glyph glyph-name="orn6" d="M20 304q27 9 45 31t25 47t21 52.5t33 49t61 36t104 14.5q104 0 153.5 -33t49.5 -91q0 -47 -31 -106q31 -60 31 -106q0 -58 -49.5 -90.5t-153.5 -32.5q-63 0 -105.5 13t-61.5 32.5t-33 46t-21 50.5t-24 48.5t-44 38.5zM637 574h54v-556h-54v221q0 32 -30 51t-68 19 q-23 0 -40 -7q27 55 80 55q36 0 58 -24v241z" horiz-adv-x="766"/>
<glyph glyph-name="orn7" d="M347 289q-32 -58 -32 -93q0 -34 33.5 -49.5t110.5 -15.5q54 0 86 12t44.5 31.5t19 40t19 41.5t36.5 33q-20 12 -32.5 29.5t-17.5 34.5t-14 34t-22 30t-43 21t-76 8q-146 0 -146 -75q0 -36 34 -82zM746 289q-27 -9 -45 -31t-25 -47t-21 -52.5t-33 -49t-61 -36t-104 -14.5 q-104 0 -153.5 33t-49.5 91q0 47 31 106q-31 60 -31 106q0 58 49.5 90.5t153.5 32.5q63 0 105.5 -13t61.5 -32.5t33 -46t21 -50.5t24 -48.5t44 -38.5zM129 19h-54v556h54v-221q0 -32 30 -51t68 -19q23 0 40 7q-27 -55 -80 -55q-36 0 -58 24v-241z" horiz-adv-x="766"/>
<glyph glyph-name="orn8" d="M746 305q-27 -14 -44 -38.5t-24 -48.5t-21 -50.5t-33 -46t-61.5 -32.5t-105.5 -13q-104 0 -153.5 32.5t-49.5 90.5q0 46 31 106q-31 59 -31 106q0 58 49.5 91t153.5 33q62 0 104 -14.5t61 -36t33 -49t21 -52.5t25 -47t45 -31zM129 575v-241q22 24 58 24q53 0 80 -55 q-17 7 -40 7q-38 0 -68 -19t-30 -51v-221h-54v556h54z" horiz-adv-x="766"/>
<glyph glyph-name="publish" d="M435 657q-82 0 -133 -12t-87.5 -45.5t-51.5 -93.5t-15 -156q0 -121 29.5 -187t89.5 -91.5t168 -25.5q82 0 134.5 13.5t89 47.5t52 92.5t15.5 150.5q0 96 -15 156t-52.5 93.5t-89 45.5t-134.5 12zM637 430q0 -66 -32.5 -107t-98.5 -41h-153v-151h-70v448h220q70 0 102 -41 t32 -108zM558 427q0 44 -14.5 66.5t-48.5 22.5h-142v-172h139q37 0 51.5 21.5t14.5 61.5zM797 352q0 -108 -21 -179t-67 -112t-111 -58t-162 -17t-161.5 17t-111 58t-67 112t-20.5 179q0 106 21 176.5t67 111.5t111 57.5t161 16.5q97 0 162 -16.5t111 -57.5t67 -111.5 t21 -176.5z" horiz-adv-x="873"/>
<glyph glyph-name="zerob" d="M379 -14q-113 0 -179.5 31t-101.5 112t-35 223q0 140 35 220t101.5 111t179.5 31t180 -31t102 -111t35 -220q0 -142 -35 -223t-101.5 -112t-180.5 -31zM378 580q51 0 77.5 -16t40.5 -64.5t14 -143.5q0 -134 -29.5 -183.5t-102.5 -49.5q-72 0 -101 49.5t-29 183.5 q0 95 14 144t40 64.5t76 15.5zM379 77q98 0 141.5 61.5t43.5 217.5q0 153 -43.5 210t-141.5 57t-141.5 -57t-43.5 -210q0 -156 44 -217.5t141 -61.5z" horiz-adv-x="759"/>
<glyph glyph-name="oneb" d="M379 -14q-113 0 -179.5 31t-101.5 112t-35 223q0 140 35 220t101.5 111t179.5 31t180 -31t102 -111t35 -220q0 -142 -35 -223t-101.5 -112t-180.5 -31zM419 90v542l-190 -92l18 -40l118 56v-466h54z" horiz-adv-x="759"/>
<glyph glyph-name="twob" d="M545 134h-285q127 93 188 150.5t81.5 98.5t20.5 95q0 79 -45 113t-143 34q-65 0 -144 -21l13 -48q42 20 131 20q71 0 101.5 -21.5t30.5 -77.5q0 -50 -17.5 -83t-77.5 -89t-208 -174v-42h354v45zM379 -14q-113 0 -179.5 31t-101.5 112t-35 223q0 140 35 220t101.5 111 t179.5 31t180 -31t102 -111t35 -220q0 -142 -35 -223t-101.5 -112t-180.5 -31z" horiz-adv-x="759"/>
<glyph glyph-name="threeb" d="M379 -14q-113 0 -179.5 31t-101.5 112t-35 223q0 140 35 220t101.5 111t179.5 31t180 -31t102 -111t35 -220q0 -142 -35 -223t-101.5 -112t-180.5 -31zM444 369q44 4 69 23.5t31.5 43.5t6.5 60q0 65 -43.5 96t-147.5 31q-61 0 -154 -20l13 -45q59 19 141 19 q78 0 107 -19.5t29 -68.5q0 -53 -29 -76t-98 -23h-60v-45h60q76 0 107.5 -25t31.5 -87t-31 -86t-117 -24q-89 0 -147 18l-12 -42q83 -22 159 -22q108 0 156.5 34.5t48.5 119.5q0 40 -9 67.5t-37 48t-75 22.5z" horiz-adv-x="759"/>
<glyph glyph-name="fourb" d="M379 -14q-113 0 -179.5 31t-101.5 112t-35 223q0 140 35 220t101.5 111t179.5 31t180 -31t102 -111t35 -220q0 -142 -35 -223t-101.5 -112t-180.5 -31zM488 610h-87q-119 -153 -232 -359v-11h265v-153h54v153h74v44h-74v326zM434 284h-192q32 59 88 145.5t104 146.5v-292 z" horiz-adv-x="759"/>
<glyph glyph-name="fiveb" d="M379 -14q-113 0 -179.5 31t-101.5 112t-35 223q0 140 35 220t101.5 111t179.5 31t180 -31t102 -111t35 -220q0 -142 -35 -223t-101.5 -112t-180.5 -31zM282 560h243v48h-296v-269q58 14 138 14q78 0 105.5 -26t27.5 -95q0 -62 -30.5 -86.5t-115.5 -24.5q-79 0 -136 18 l-13 -42q83 -22 149 -22q108 0 155.5 36t47.5 127q0 87 -42.5 124t-147.5 37q-52 0 -85 -4v165z" horiz-adv-x="759"/>
<glyph glyph-name="sixb" d="M379 -14q-113 0 -179.5 31t-101.5 112t-35 223q0 140 35 220t101.5 111t179.5 31t180 -31t102 -111t35 -220q0 -142 -35 -223t-101.5 -112t-180.5 -31zM381 123q-50 0 -78 16.5t-44.5 65t-17.5 137.5q60 13 136 13q79 0 106.5 -26t27.5 -95q0 -62 -26.5 -86.5 t-103.5 -24.5zM535 553l17 48q-69 22 -135 22q-121 0 -176.5 -58.5t-55.5 -212.5q0 -158 43.5 -216.5t152.5 -58.5q100 0 143.5 36t43.5 127q0 87 -43 124t-148 37q-77 0 -136 -13q2 60 13 97t34.5 56.5t53 26t76.5 6.5q65 0 117 -21z" horiz-adv-x="759"/>
<glyph glyph-name="sevenb" d="M379 -14q-113 0 -179.5 31t-101.5 112t-35 223q0 140 35 220t101.5 111t179.5 31t180 -31t102 -111t35 -220q0 -142 -35 -223t-101.5 -112t-180.5 -31zM346 87q112 299 231 523h-375v-48h298q-129 -254 -206 -475h52z" horiz-adv-x="759"/>
<glyph glyph-name="eightb" d="M379 -14q-113 0 -179.5 31t-101.5 112t-35 223q0 140 35 220t101.5 111t179.5 31t180 -31t102 -111t35 -220q0 -142 -35 -223t-101.5 -112t-180.5 -31zM379 77q95 0 140.5 35t45.5 119q0 40 -9 67.5t-37 48t-75 22.5q34 3 56 14t33 29.5t15 38t4 45.5q0 64 -41 95.5 t-132 31.5t-131.5 -31.5t-40.5 -95.5q0 -56 22 -89t86 -38q-69 -3 -95.5 -39.5t-26.5 -98.5q0 -84 45.5 -119t140.5 -35zM379 390q-62 0 -89 23.5t-27 75.5q0 48 25.5 68t90.5 20t90.5 -20t25.5 -68q0 -53 -27 -76t-89 -23zM379 123q-73 0 -100.5 24.5t-27.5 85.5t29.5 86.5 t98.5 25.5t99 -25.5t30 -86.5t-28 -85.5t-101 -24.5z" horiz-adv-x="759"/>
<glyph glyph-name="nineb" d="M379 -14q-113 0 -179.5 31t-101.5 112t-35 223q0 140 35 220t101.5 111t179.5 31t180 -31t102 -111t35 -220q0 -142 -35 -223t-101.5 -112t-180.5 -31zM513 434q0 -41 -12 -77q-50 -10 -120 -10q-80 0 -106.5 22t-26.5 89q0 64 26.5 93t102.5 29q40 0 62 -4t41 -18.5 t26 -44t7 -79.5zM381 301q39 0 102 7q-47 -96 -196 -219h75q43 37 74.5 70t64 78t50 97.5t17.5 108.5q0 108 -40.5 145t-150.5 37q-98 0 -142.5 -40.5t-44.5 -132.5q0 -86 42 -118.5t149 -32.5z" horiz-adv-x="759"/>
<glyph glyph-name="apple" d="M431 537q-34 -27 -81.5 -47.5t-82 -33t-66.5 -34t-49 -63t-17 -106.5q0 -121 33.5 -163t123.5 -42q59 0 99 19t40 53v417zM497 537v-417q0 -34 40 -53t99 -19q90 0 123.5 42t33.5 163q0 65 -17 106.5t-49 63t-66.5 34t-82 33t-81.5 47.5zM292 -14q-122 0 -175.5 59 t-53.5 210q0 69 15.5 116.5t42.5 73t60 42t72.5 29.5t76 28.5t73 46t61.5 75.5q25 -45 61.5 -75.5t73 -46t76 -28.5t72.5 -29.5t60 -42t42.5 -73t15.5 -116.5q0 -151 -53.5 -210t-175.5 -59q-86 0 -139 42v-220h-66v220q-52 -42 -139 -42z" horiz-adv-x="928"/>
<glyph glyph-name="sp" d="M780 457q-80 0 -139 -21v-316q0 -34 40 -53t99 -19q90 0 123.5 42t33.5 163q0 125 -32.5 164.5t-124.5 39.5zM780 -14q-86 0 -139 42v-220h-65v611q-158 40 -316 40q-70 0 -99.5 -17.5t-29.5 -73.5q0 -38 29 -56t97 -22q99 -7 143 -41t44 -104q0 -88 -46 -123.5 t-149 -35.5t-182 27l20 61q26 -12 74.5 -20.5t87.5 -8.5q67 0 95.5 18.5t28.5 75.5q0 42 -26.5 62t-97.5 26q-97 7 -143 37t-46 98q0 86 49 121.5t151 35.5q159 0 316 -40q40 18 98 29t106 11q122 0 175.5 -57t53.5 -207q0 -151 -53.5 -210t-175.5 -59z" horiz-adv-x="1072"/>
<glyph glyph-name="at.2" d="M663 136q-90 -40 -204 -40q-113 0 -159.5 36t-46.5 134q0 53 14.5 87.5t43.5 51t59.5 22t75.5 5.5q69 0 151 -16q0 93 -30 122.5t-130 29.5q-91 0 -144.5 -11.5t-90.5 -45t-51 -92t-14 -156.5q0 -180 68.5 -240.5t259.5 -60.5q99 0 159.5 12.5t101.5 47t57 91.5t16 150 q0 113 -22 175h70q22 -67 22 -173q0 -107 -23.5 -178.5t-75.5 -112.5t-124.5 -58t-180.5 -17t-180 17t-123.5 58t-75 112t-23.5 179q0 107 21.5 177.5t69.5 112t115 58t166 16.5q129 0 178.5 -40.5t49.5 -156.5v-296zM597 178v184q-65 12 -131 12q-74 0 -107 -19.5 t-33 -83.5t29.5 -90t105.5 -26q72 0 136 23z" horiz-adv-x="932"/>
<glyph glyph-name="ampersand.2" d="M578 344v-318q-39 -18 -107 -29t-121 -11q-128 0 -194.5 47.5t-66.5 158.5q0 81 36 130t127 53q-86 8 -115 50t-29 116q0 86 56 129.5t176 43.5q78 0 144 -25l-22 -60q-52 24 -122 24q-87 0 -122 -27t-35 -91q0 -70 36.5 -101t118.5 -31h171v106l69 26v-132h136v-59h-136 zM509 344h-171q-93 0 -132.5 -34t-39.5 -116q0 -79 42.5 -113t141.5 -34q100 0 159 21v276z" horiz-adv-x="732"/>
<glyph glyph-name="Abrevesmall" d="M139 697h54q0 -40 18.5 -54.5t60.5 -14.5t61 14.5t19 54.5h52q0 -126 -133 -126q-132 0 -132 126zM281 445h-25q-55 -133 -94 -241h196q-44 125 -77 241zM436 0q-29 66 -60 152h-233q-28 -83 -47 -152h-71q62 204 188 505h117q100 -340 179 -505h-73z" horiz-adv-x="534"/>
<glyph glyph-name="Amacronsmall" d="M143 586v58h251v-58h-251zM281 445h-25q-55 -133 -94 -241h196q-44 125 -77 241zM436 0q-29 66 -60 152h-233q-28 -83 -47 -152h-71q62 204 188 505h117q100 -340 179 -505h-73z" horiz-adv-x="534"/>
<glyph glyph-name="Aogoneksmall" d="M281 445h-25q-55 -133 -94 -241h196q-44 125 -77 241zM509 0h-28q-45 -29 -60 -51t-15 -53q0 -24 14 -34.5t54 -10.5q55 0 92 30l29 -49q-45 -35 -126 -35q-71 0 -99 21.5t-28 67.5q0 36 23.5 66.5t69.5 48.5q-25 58 -59 151h-233q-28 -83 -47 -152h-71q62 204 188 505 h117q100 -340 179 -505z" horiz-adv-x="534"/>
<glyph glyph-name="bracketleftsmall" d="M86 637h200v-58h-131v-659h131v-57h-200v774z" horiz-adv-x="323"/>
<glyph glyph-name="braceleftsmall" d="M27 275q49 0 76 32t27 119q0 96 39 151t105 69l24 -51q-35 -8 -55.5 -22t-33.5 -50t-13 -97q0 -87 -26.5 -128.5t-58.5 -49.5q32 -7 58.5 -48.5t26.5 -128.5q0 -61 13 -97t33.5 -50t55.5 -22l-24 -51q-66 14 -105 69t-39 151q0 87 -27 119t-76 32v53z" horiz-adv-x="321"/>
<glyph glyph-name="Dcaronsmall" d="M182 697l81 -86l79 86h78l-122 -129h-72l-126 129h82zM255 445h-114v-385h114q92 0 129 40t37 153q0 117 -36.5 154.5t-129.5 37.5zM76 0v505h173q124 0 184 -55t60 -195q0 -142 -60 -198.5t-184 -56.5h-173z" horiz-adv-x="556"/>
<glyph glyph-name="Dcroatsmall" d="M255 445h-114v-146h128v-59h-128v-180h114q92 0 129 40t37 153q0 117 -36.5 154.5t-129.5 37.5zM18 240v59h58v206h173q124 0 184 -55t60 -195q0 -142 -60 -198.5t-184 -56.5h-173v240h-58z" horiz-adv-x="556"/>
<glyph glyph-name="Dmacronsmall" d="M127 586v58h251v-58h-251zM255 445h-114v-385h114q92 0 129 40t37 153q0 117 -36.5 154.5t-129.5 37.5zM76 0v505h173q124 0 184 -55t60 -195q0 -142 -60 -198.5t-184 -56.5h-173z" horiz-adv-x="556"/>
<glyph glyph-name="Emacronsmall" d="M138 586v58h251v-58h-251zM385 300v-57h-244v-183h304v-60h-369v505h369v-60h-304v-145h244z" horiz-adv-x="491"/>
<glyph glyph-name="Eurosmall" d="M430 74l21 -60q-63 -28 -144 -28q-124 0 -184 60t-60 209q0 148 60 206t184 58q80 0 144 -25l-21 -61q-51 24 -123 24q-71 0 -108.5 -20.5t-52.5 -76.5h229v-57h-239q-1 -15 -1 -50q0 -30 1 -43h239v-57h-230q14 -59 53 -82t109 -23q65 0 123 26z" horiz-adv-x="479"/>
<glyph glyph-name="Eogoneksmall" d="M385 300v-57h-244v-183h304v-60h-49q-45 -29 -60 -51t-15 -53q0 -24 14 -34.5t54 -10.5q55 0 92 30l29 -49q-45 -35 -126 -35q-71 0 -99 21.5t-28 67.5q0 76 90 114h-271v505h369v-60h-304v-145h244z" horiz-adv-x="491"/>
<glyph glyph-name="Ecaronsmall" d="M203 697l81 -86l79 86h78l-122 -129h-72l-126 129h82zM385 300v-57h-244v-183h304v-60h-369v505h369v-60h-304v-145h244z" horiz-adv-x="491"/>
<glyph glyph-name="Edotaccentsmall" d="M278 657q24 0 32.5 -7t8.5 -32q0 -27 -8.5 -35t-32.5 -8q-25 0 -33.5 8t-8.5 35q0 25 8.5 32t33.5 7zM385 300v-57h-244v-183h304v-60h-369v505h369v-60h-304v-145h244z" horiz-adv-x="491"/>
<glyph glyph-name="Ebrevesmall" d="M139 697h54q0 -40 18.5 -54.5t60.5 -14.5t61 14.5t19 54.5h52q0 -126 -133 -126q-132 0 -132 126zM385 300v-57h-244v-183h304v-60h-369v505h369v-60h-304v-145h244z" horiz-adv-x="491"/>
<glyph glyph-name="Gacutesmall" d="M289 568h-69l119 129h83zM418 62v160h-142v55h208v-256q-30 -13 -79.5 -24t-87.5 -11q-127 0 -190.5 60.5t-63.5 208.5q0 147 64 205.5t190 58.5q79 0 154 -25l-21 -61q-58 24 -133 24q-96 0 -139 -41t-43 -163q0 -118 43 -161.5t139 -43.5q57 0 101 14z" horiz-adv-x="552"/>
<glyph glyph-name="Gbrevesmall" d="M172 697h54q0 -40 18.5 -54.5t60.5 -14.5t61 14.5t19 54.5h52q0 -126 -133 -126q-132 0 -132 126zM418 62v160h-142v55h208v-256q-30 -13 -79.5 -24t-87.5 -11q-127 0 -190.5 60.5t-63.5 208.5q0 147 64 205.5t190 58.5q79 0 154 -25l-21 -61q-58 24 -133 24 q-96 0 -139 -41t-43 -163q0 -118 43 -161.5t139 -43.5q57 0 101 14z" horiz-adv-x="552"/>
<glyph glyph-name="Gcircumflexsmall" d="M385 568l-81 86l-79 -86h-78l122 129h72l126 -129h-82zM418 62v160h-142v55h208v-256q-30 -13 -79.5 -24t-87.5 -11q-127 0 -190.5 60.5t-63.5 208.5q0 147 64 205.5t190 58.5q79 0 154 -25l-21 -61q-58 24 -133 24q-96 0 -139 -41t-43 -163q0 -118 43 -161.5t139 -43.5 q57 0 101 14z" horiz-adv-x="552"/>
<glyph glyph-name="Gcommaaccentsmall" d="M355 -51l-101 -167h-53l70 167h84zM418 62v160h-142v55h208v-256q-30 -13 -79.5 -24t-87.5 -11q-127 0 -190.5 60.5t-63.5 208.5q0 147 64 205.5t190 58.5q79 0 154 -25l-21 -61q-58 24 -133 24q-96 0 -139 -41t-43 -163q0 -118 43 -161.5t139 -43.5q57 0 101 14z" horiz-adv-x="552"/>
<glyph glyph-name="Gdotaccentsmall" d="M302 657q24 0 32.5 -7t8.5 -32q0 -27 -8.5 -35t-32.5 -8q-25 0 -33.5 8t-8.5 35q0 25 8.5 32t33.5 7zM418 62v160h-142v55h208v-256q-30 -13 -79.5 -24t-87.5 -11q-127 0 -190.5 60.5t-63.5 208.5q0 147 64 205.5t190 58.5q79 0 154 -25l-21 -61q-58 24 -133 24 q-96 0 -139 -41t-43 -163q0 -118 43 -161.5t139 -43.5q57 0 101 14z" horiz-adv-x="552"/>
<glyph glyph-name="Germandblssmall" d="M404 431q-72 28 -144 28q-70 0 -99.5 -17.5t-29.5 -73.5q0 -38 29 -56t97 -22q99 -7 143 -41t44 -104q0 -88 -46 -123.5t-149 -35.5t-182 27l20 61q26 -12 74.5 -20.5t87.5 -8.5q67 0 95.5 18.5t28.5 75.5q0 42 -26.5 62t-97.5 26q-97 7 -143 37t-46 98q0 86 49 121.5 t151 35.5q73 0 166 -26zM906 431q-72 28 -144 28q-70 0 -99.5 -17.5t-29.5 -73.5q0 -38 29 -56t97 -22q99 -7 143 -41t44 -104q0 -88 -46 -123.5t-149 -35.5t-182 27l20 61q26 -12 74.5 -20.5t87.5 -8.5q67 0 95.5 18.5t28.5 75.5q0 42 -26.5 62t-97.5 26q-97 7 -143 37 t-46 98q0 86 49 121.5t151 35.5q73 0 166 -26z" horiz-adv-x="1006"/>
<glyph glyph-name="Hbarsmall" d="M141 303h273v87h-273v-87zM9 390v55h67v60h65v-60h273v60h65v-60h67v-55h-67v-390h-65v246h-273v-246h-65v390h-67z" horiz-adv-x="555"/>
<glyph glyph-name="Hcircumflexsmall" d="M360 568l-81 86l-79 -86h-78l122 129h72l126 -129h-82zM414 246h-273v-246h-65v505h65v-202h273v202h65v-505h-65v246z" horiz-adv-x="555"/>
<glyph glyph-name="IJsmall" d="M499 505v-344q0 -101 -45.5 -138t-119.5 -37q-65 0 -117 22l20 61q44 -23 97 -23q44 0 72 24t28 91v344h65zM141 505v-505h-65v505h65z" horiz-adv-x="575"/>
<glyph glyph-name="Imacronsmall" d="M-16 586v58h251v-58h-251zM141 505v-505h-65v505h65z" horiz-adv-x="217"/>
<glyph glyph-name="Iogoneksmall" d="M141 505v-505h-24q-45 -29 -60 -51t-15 -53q0 -24 14 -34.5t54 -10.5q55 0 92 30l29 -49q-45 -35 -126 -35q-71 0 -99 21.5t-28 67.5q0 79 98 117v502h65z" horiz-adv-x="217"/>
<glyph glyph-name="Itildesmall" d="M240 689l41 -33q-32 -91 -105 -91q-27 0 -71 33t-67 33q-36 0 -60 -61l-36 35q24 43 47.5 62.5t55.5 19.5q30 0 70.5 -33t63.5 -33q20 0 34 15t27 53zM141 505v-505h-65v505h65z" horiz-adv-x="217"/>
<glyph glyph-name="Jcircumflexsmall" d="M326 568l-81 86l-79 -86h-78l122 129h72l126 -129h-82zM282 505v-344q0 -101 -45.5 -138t-119.5 -37q-65 0 -117 22l20 61q44 -23 97 -23q44 0 72 24t28 91v344h65z" horiz-adv-x="358"/>
<glyph glyph-name="Kcommaaccentsmall" d="M322 -51l-101 -167h-53l70 167h84zM141 267q58 39 237 238h84q-171 -189 -231 -229q49 -25 249 -276h-84q-203 249 -255 267zM141 267v-267h-65v505h65v-238z" horiz-adv-x="478"/>
<glyph glyph-name="Lacutesmall" d="M154 568h-69l119 129h83zM76 0v505h65v-445h256v-60h-321z" horiz-adv-x="400"/>
<glyph glyph-name="Lcaronsmall" d="M235 548h73l-56 -192h-39zM76 0v505h65v-445h256v-60h-321z" horiz-adv-x="400"/>
<glyph glyph-name="Lcommaaccentsmall" d="M283 -51l-101 -167h-53l70 167h84zM76 0v505h65v-445h256v-60h-321z" horiz-adv-x="400"/>
<glyph glyph-name="Ldotsmall" d="M261 341q24 0 32.5 -7t8.5 -32q0 -27 -8.5 -35t-32.5 -8q-25 0 -33.5 8t-8.5 35q0 25 8.5 32t33.5 7zM76 0v505h65v-445h256v-60h-321z" horiz-adv-x="400"/>
<glyph glyph-name="Nacutesmall" d="M281 568h-69l119 129h83zM414 505h65v-505h-65q-147 246 -273 411v-411h-65v505h65q173 -223 273 -397v397z" horiz-adv-x="555"/>
<glyph glyph-name="Ncaronsmall" d="M205 697l81 -86l79 86h78l-122 -129h-72l-126 129h82zM414 505h65v-505h-65q-147 246 -273 411v-411h-65v505h65q173 -223 273 -397v397z" horiz-adv-x="555"/>
<glyph glyph-name="Ncommaaccentsmall" d="M329 -51l-101 -167h-53l70 167h84zM414 505h65v-505h-65q-147 246 -273 411v-411h-65v505h65q173 -223 273 -397v397z" horiz-adv-x="555"/>
<glyph glyph-name="Obrevesmall" d="M160 697h54q0 -40 18.5 -54.5t60.5 -14.5t61 14.5t19 54.5h52q0 -126 -133 -126q-132 0 -132 126zM292 457q-92 0 -124.5 -39.5t-32.5 -164.5q0 -121 33.5 -163t123.5 -42q91 0 124.5 42t33.5 163q0 86 -15.5 130t-47.5 59t-95 15zM292 -14q-122 0 -175.5 59t-53.5 210 q0 150 53.5 207t175.5 57t176 -57t54 -207q0 -151 -54 -210t-176 -59z" horiz-adv-x="585"/>
<glyph glyph-name="Ohungarumlautsmall" d="M389 697h76l-106 -129h-54zM251 697h75l-107 -129h-53zM292 457q-92 0 -124.5 -39.5t-32.5 -164.5q0 -121 33.5 -163t123.5 -42q91 0 124.5 42t33.5 163q0 86 -15.5 130t-47.5 59t-95 15zM292 -14q-122 0 -175.5 59t-53.5 210q0 150 53.5 207t175.5 57t176 -57t54 -207 q0 -151 -54 -210t-176 -59z" horiz-adv-x="585"/>
<glyph glyph-name="Omacronsmall" d="M168 586v58h251v-58h-251zM292 457q-92 0 -124.5 -39.5t-32.5 -164.5q0 -121 33.5 -163t123.5 -42q91 0 124.5 42t33.5 163q0 86 -15.5 130t-47.5 59t-95 15zM292 -14q-122 0 -175.5 59t-53.5 210q0 150 53.5 207t175.5 57t176 -57t54 -207q0 -151 -54 -210t-176 -59z " horiz-adv-x="585"/>
<glyph glyph-name="parenleftsmall" d="M68 250q0 322 190 402l31 -52q-42 -13 -74.5 -48t-55.5 -112.5t-23 -189.5q0 -162 43.5 -245.5t109.5 -103.5l-31 -52q-190 80 -190 401z" horiz-adv-x="297"/>
<glyph glyph-name="Racutesmall" d="M247 568h-69l119 129h83zM141 269h180q48 0 70 22t22 68q0 48 -20.5 67t-67.5 19h-184v-176zM325 505q158 0 158 -147q0 -58 -35 -94t-112 -36q37 -8 74 -50t119 -178h-80q-72 131 -116.5 172t-97.5 41h-94v-213h-65v505h249z" horiz-adv-x="538"/>
<glyph glyph-name="Rcaronsmall" d="M196 697l81 -86l79 86h78l-122 -129h-72l-126 129h82zM141 269h180q48 0 70 22t22 68q0 48 -20.5 67t-67.5 19h-184v-176zM325 505q158 0 158 -147q0 -58 -35 -94t-112 -36q37 -8 74 -50t119 -178h-80q-72 131 -116.5 172t-97.5 41h-94v-213h-65v505h249z" horiz-adv-x="538"/>
<glyph glyph-name="Rcommaaccentsmall" d="M325 -51l-101 -167h-53l70 167h84zM141 269h180q48 0 70 22t22 68q0 48 -20.5 67t-67.5 19h-184v-176zM325 505q158 0 158 -147q0 -58 -35 -94t-112 -36q37 -8 74 -50t119 -178h-80q-72 131 -116.5 172t-97.5 41h-94v-213h-65v505h249z" horiz-adv-x="538"/>
<glyph glyph-name="sterlingsmall" d="M47 218v59h57v80q0 162 212 162q86 0 161 -20l-17 -59q-45 20 -143 20q-77 0 -110 -27.5t-33 -87.5v-68h151v-59h-151v-158h291v-60h-361v218h-57z" horiz-adv-x="513"/>
<glyph glyph-name="summationsmall" d="M452 445h-299q55 -86 136 -192q-121 -166 -145 -193h310v-60h-418v27q54 65 173 227q-105 145 -158 226v25h401v-60z" horiz-adv-x="495"/>
<glyph glyph-name="Tbarsmall" d="M117 218v58h91v169h-198v60h461v-60h-198v-169h95v-58h-95v-218h-65v218h-91z" horiz-adv-x="481"/>
<glyph glyph-name="Tcommaaccentsmall" d="M287 -51l-101 -167h-53l70 167h84zM273 445v-445h-65v445h-198v60h461v-60h-198z" horiz-adv-x="481"/>
<glyph glyph-name="Tcaronsmall" d="M163 697l81 -86l79 86h78l-122 -129h-72l-126 129h82zM273 445v-445h-65v445h-198v60h461v-60h-198z" horiz-adv-x="481"/>
<glyph glyph-name="Utildesmall" d="M404 689l41 -33q-32 -91 -105 -91q-27 0 -71 33t-67 33q-36 0 -60 -61l-36 35q24 43 47.5 62.5t55.5 19.5q30 0 70.5 -33t63.5 -33q20 0 34 15t27 53zM474 505v-323q0 -111 -44 -153.5t-155 -42.5t-155 42.5t-44 153.5v323h65v-330q0 -71 27.5 -99t106.5 -28t106.5 28 t27.5 99v330h65z" horiz-adv-x="550"/>
<glyph glyph-name="Uringsmall" d="M276 693q-32 0 -44.5 -12.5t-12.5 -38.5q0 -52 57 -52q59 0 59 52q0 26 -13 38.5t-46 12.5zM276 738q110 0 110 -94t-110 -94q-109 0 -109 94q0 48 25 71t84 23zM474 505v-323q0 -111 -44 -153.5t-155 -42.5t-155 42.5t-44 153.5v323h65v-330q0 -71 27.5 -99t106.5 -28 t106.5 28t27.5 99v330h65z" horiz-adv-x="550"/>
<glyph glyph-name="Uogoneksmall" d="M474 505v-323q0 -85 -25.5 -129t-84.5 -58q-40 -27 -53.5 -48.5t-13.5 -50.5q0 -24 14 -34.5t54 -10.5q55 0 92 30l29 -49q-45 -35 -126 -35q-71 0 -99 21.5t-28 67.5q0 62 64 101q-7 -1 -22 -1q-111 0 -155 42.5t-44 153.5v323h65v-330q0 -71 27.5 -99t106.5 -28 t106.5 28t27.5 99v330h65z" horiz-adv-x="550"/>
<glyph glyph-name="Umacronsmall" d="M155 586v58h251v-58h-251zM474 505v-323q0 -111 -44 -153.5t-155 -42.5t-155 42.5t-44 153.5v323h65v-330q0 -71 27.5 -99t106.5 -28t106.5 28t27.5 99v330h65z" horiz-adv-x="550"/>
<glyph glyph-name="Ubrevesmall" d="M147 697h54q0 -40 18.5 -54.5t60.5 -14.5t61 14.5t19 54.5h52q0 -126 -133 -126q-132 0 -132 126zM474 505v-323q0 -111 -44 -153.5t-155 -42.5t-155 42.5t-44 153.5v323h65v-330q0 -71 27.5 -99t106.5 -28t106.5 28t27.5 99v330h65z" horiz-adv-x="550"/>
<glyph glyph-name="Uhungarumlautsmall" d="M379 697h76l-106 -129h-54zM241 697h75l-107 -129h-53zM474 505v-323q0 -111 -44 -153.5t-155 -42.5t-155 42.5t-44 153.5v323h65v-330q0 -71 27.5 -99t106.5 -28t106.5 28t27.5 99v330h65z" horiz-adv-x="550"/>
<glyph glyph-name="yensmall" d="M58 225v48h121q-87 120 -184 232h79q62 -72 165 -215q78 89 162 215h77q-88 -121 -181 -232h114v-48h-142v-68h142v-48h-142v-109h-65v109h-146v48h146v68h-146z" horiz-adv-x="473"/>
<glyph glyph-name="Ycircumflexsmall" d="M323 568l-81 86l-79 -86h-78l122 129h72l126 -129h-82zM269 235v-235h-65v235q-109 152 -211 270h83q73 -86 163 -215q73 84 161 215h80q-98 -136 -211 -270z" horiz-adv-x="473"/>
<glyph glyph-name="zerosmall" d="M272 459q-77 0 -107 -41t-30 -165q0 -120 30.5 -163.5t106.5 -43.5t107 43.5t31 163.5q0 124 -30 165t-108 41zM272 -14q-108 0 -158.5 59.5t-50.5 209.5q0 148 50.5 206t158.5 58t159 -58t51 -206q0 -150 -51 -209.5t-159 -59.5z" horiz-adv-x="545"/>
<glyph glyph-name="onesmall" d="M350 0h-65v425l-156 -82l-24 54l245 122v-519z" horiz-adv-x="545"/>
<glyph glyph-name="twosmall" d="M463 60v-60h-391v55q149 97 211 145.5t81.5 80t19.5 77.5q0 52 -31.5 74t-109.5 22q-34 0 -78.5 -6.5t-62.5 -15.5l-18 67q84 20 160 20q116 0 167 -39t51 -122q0 -76 -57.5 -137.5t-230.5 -160.5h289z" horiz-adv-x="545"/>
<glyph glyph-name="foursmall" d="M299 505h112v-308h99v-59h-99v-138h-71v138h-294v15q101 160 253 352zM340 197v263q-128 -163 -194 -263h194z" horiz-adv-x="545"/>
<glyph glyph-name="fivesmall" d="M162 445v-144q56 4 99 4q115 0 166.5 -38.5t51.5 -121.5q0 -88 -56.5 -123.5t-176.5 -35.5q-117 0 -183 21l19 58q64 -19 164 -19q88 0 125.5 22.5t37.5 73.5q0 58 -34.5 83t-113.5 25q-100 0 -165 -13v268h361v-60h-295z" horiz-adv-x="545"/>
<glyph glyph-name="sixsmall" d="M292 45q88 0 118 22.5t30 78.5q0 63 -31 84.5t-122 21.5q-82 0 -154 -12q1 -82 20 -125t50.5 -56.5t88.5 -13.5zM469 438q-62 20 -136 20q-107 0 -151.5 -31.5t-48.5 -132.5q78 13 157 13q121 0 169.5 -38t48.5 -123q0 -89 -50.5 -124.5t-166.5 -35.5q-126 0 -176.5 57.5 t-50.5 211.5q0 145 65.5 204.5t202.5 59.5q74 0 154 -22z" horiz-adv-x="545"/>
<glyph glyph-name="sevensmall" d="M504 505v-20q-70 -90 -146 -226.5t-129 -258.5h-75q54 117 125 241t128 204h-346v60h443z" horiz-adv-x="545"/>
<glyph glyph-name="eightsmall" d="M272 519q114 0 165.5 -30.5t51.5 -93.5q0 -53 -26.5 -85.5t-96.5 -38.5q138 -6 138 -134q0 -83 -56.5 -117t-175.5 -34t-175.5 34t-56.5 117q0 128 138 134q-70 6 -96.5 38.5t-26.5 85.5q0 63 51.5 93.5t165.5 30.5zM272 46q94 0 128.5 22t34.5 80q0 52 -39.5 75 t-123.5 23t-123.5 -23t-39.5 -75q0 -58 34.5 -80t128.5 -22zM272 303q79 0 114.5 17t35.5 62q0 42 -32.5 59.5t-117.5 17.5t-117.5 -17.5t-32.5 -59.5q0 -45 35.5 -62t114.5 -17z" horiz-adv-x="545"/>
<glyph glyph-name="ninesmall" d="M428 329q0 73 -35.5 103t-121.5 30q-92 0 -122.5 -26t-30.5 -86q0 -61 27 -79t123 -18q63 0 147 12q13 32 13 64zM268 195q-125 0 -172.5 35.5t-47.5 121.5q0 90 52 129t171 39q125 0 175.5 -46t50.5 -145q0 -37 -9.5 -71t-30.5 -64.5t-40.5 -54t-54 -52t-55.5 -44 t-60 -43.5h-101q77 52 153 114.5t94 91.5q-97 -11 -125 -11z" horiz-adv-x="545"/>
<glyph glyph-name="threesmall" d="M333 271q138 -6 138 -134q0 -83 -56.5 -117t-175.5 -34q-101 0 -165 21l19 59q56 -20 146 -20q94 0 128.5 22t34.5 80q0 53 -35.5 75.5t-118.5 22.5h-75v57h75q78 0 111.5 17t33.5 62q0 42 -32.5 59.5t-117.5 17.5q-91 0 -145 -20l-18 60q68 20 163 20q114 0 165.5 -30.5 t51.5 -93.5q0 -114 -127 -124z" horiz-adv-x="545"/>
<glyph glyph-name="atsmall" d="M365 329q-58 0 -77 -13t-19 -58q0 -46 19.5 -61.5t72.5 -15.5q54 0 74 22t20 86v34q-52 6 -90 6zM351 380q59 0 104 -7q-3 55 -31 76t-92 21q-80 0 -120.5 -16t-60.5 -62.5t-20 -138.5q0 -127 49 -170t185 -43q134 0 185 48.5t51 184.5q0 105 -20 163h68q17 -50 17 -164 q0 -163 -70.5 -225t-230.5 -62q-162 0 -232 57.5t-70 212.5q0 154 62.5 211.5t199.5 57.5q53 0 84.5 -6.5t57.5 -26.5t36.5 -60.5t10.5 -105.5q0 -82 -16.5 -125t-47.5 -57t-90 -14q-87 0 -121.5 25t-34.5 99q0 75 34 101t113 26z" horiz-adv-x="729"/>
<glyph glyph-name="backslashsmall" d="M75 505l352 -505h-77l-354 505h79z" horiz-adv-x="427"/>
<glyph glyph-name="slashsmall" d="M347 505h79l-354 -505h-77z" horiz-adv-x="427"/>
<glyph glyph-name="barsmall" d="M120 621h71v-737h-71v737z" horiz-adv-x="311"/>
<glyph glyph-name="bracketrightsmall" d="M237 637v-774h-200v57h131v659h-131v58h200z" horiz-adv-x="323"/>
<glyph glyph-name="bracerightsmall" d="M191 70q0 -96 -39 -151t-105 -69l-24 51q35 8 55.5 22t33.5 50t13 97q0 87 26.5 128.5t58.5 49.5q-32 7 -58.5 48.5t-26.5 128.5q0 61 -13 97t-33.5 50t-55.5 22l24 51q66 -14 105 -69t39 -151q0 -87 27 -119t76 -32v-53q-49 0 -76 -32t-27 -119z" horiz-adv-x="321"/>
<glyph glyph-name="Cdotaccentsmall" d="M301 657q24 0 32.5 -7t8.5 -32q0 -27 -8.5 -35t-32.5 -8q-25 0 -33.5 8t-8.5 35q0 25 8.5 32t33.5 7zM430 74l21 -60q-63 -28 -144 -28q-124 0 -184 60t-60 209q0 148 60 206t184 58q80 0 144 -25l-21 -61q-51 24 -123 24q-47 0 -77 -8t-52.5 -29.5t-32.5 -62t-10 -104.5 q0 -119 39.5 -162t132.5 -43q65 0 123 26z" horiz-adv-x="466"/>
<glyph glyph-name="Cacutesmall" d="M279 568h-69l119 129h83zM430 74l21 -60q-63 -28 -144 -28q-124 0 -184 60t-60 209q0 148 60 206t184 58q80 0 144 -25l-21 -61q-51 24 -123 24q-47 0 -77 -8t-52.5 -29.5t-32.5 -62t-10 -104.5q0 -119 39.5 -162t132.5 -43q65 0 123 26z" horiz-adv-x="466"/>
<glyph glyph-name="Ccaronsmall" d="M216 697l81 -86l79 86h78l-122 -129h-72l-126 129h82zM430 74l21 -60q-63 -28 -144 -28q-124 0 -184 60t-60 209q0 148 60 206t184 58q80 0 144 -25l-21 -61q-51 24 -123 24q-47 0 -77 -8t-52.5 -29.5t-32.5 -62t-10 -104.5q0 -119 39.5 -162t132.5 -43q65 0 123 26z" horiz-adv-x="466"/>
<glyph glyph-name="centsmall" d="M121 256q0 -65 20.5 -95t63.5 -37v264q-44 -6 -64 -35.5t-20 -96.5zM205 519h55v-76q50 -3 100 -19l-19 -52q-35 16 -81 19v-270q40 3 81 20l19 -51q-43 -18 -100 -22v-82h-55v85q-74 8 -110.5 50.5t-36.5 135.5q0 92 36.5 134.5t110.5 49.5v78z" horiz-adv-x="466"/>
<glyph glyph-name="daggersmall" d="M30 451v54h150v153h60v-153h150v-54h-150v-253h-60v253h-150z" horiz-adv-x="420"/>
<glyph glyph-name="degreesmall" d="M174 471q-49 0 -66 -25t-17 -97q0 -69 17.5 -96.5t65.5 -27.5q49 0 66 27t17 97q0 73 -16 97.5t-67 24.5zM174 177q-77 0 -110.5 37.5t-33.5 136.5q0 97 33 132.5t111 35.5q79 0 111.5 -35.5t32.5 -132.5q0 -99 -33 -136.5t-111 -37.5z" horiz-adv-x="348"/>
<glyph glyph-name="dollarsmall" d="M155 365q0 -34 21 -51.5t72 -24.5v162q-93 -10 -93 -86zM403 139q0 37 -21 56.5t-76 28.5v-173q97 10 97 88zM248 614h58v-107q80 0 145 -18l-19 -57q-38 17 -126 19v-168q85 -10 124 -44.5t39 -99.5q0 -127 -163 -145v-107h-58v108q-89 0 -153 17l22 59q54 -18 131 -20 v180q-84 8 -122.5 39.5t-38.5 93.5q0 127 161 143v107z" horiz-adv-x="556"/>
<glyph glyph-name="numbersignsmall" d="M216 327l-8 -134h125l8 134h-125zM41 327l4 55h111l7 123h64l-7 -123h125l7 123h64l-7 -123h118l-4 -55h-118l-8 -134h121l-4 -54h-120l-9 -139h-64l9 139h-125l-9 -139h-64l9 139h-109l4 54h108l8 134h-111z" horiz-adv-x="559"/>
<glyph glyph-name="parenrightsmall" d="M229 250q0 -322 -190 -402l-31 52q42 13 74.5 48t55.5 112.5t23 189.5q0 162 -43.5 245.5t-109.5 103.5l31 52q190 -80 190 -401z" horiz-adv-x="297"/>
<glyph glyph-name="percentsmall" d="M610 280q-49 0 -66 -25t-17 -97q0 -69 17.5 -96.5t65.5 -27.5q49 0 66 27t17 97q0 73 -16 97.5t-67 24.5zM610 -14q-77 0 -110.5 37.5t-33.5 136.5q0 97 33 132.5t111 35.5q79 0 111.5 -35.5t32.5 -132.5q0 -99 -33 -136.5t-111 -37.5zM530 505h75l-354 -505h-73z M174 471q-49 0 -66 -25t-17 -97q0 -69 17.5 -96.5t65.5 -27.5q49 0 66 27t17 97q0 73 -16 97.5t-67 24.5zM174 177q-77 0 -110.5 37.5t-33.5 136.5q0 97 33 132.5t111 35.5q79 0 111.5 -35.5t32.5 -132.5q0 -99 -33 -136.5t-111 -37.5z" horiz-adv-x="784"/>
<glyph glyph-name="sectionsmall" d="M125 313q-10 -24 -10 -43q0 -29 28 -43.5t94 -18.5q64 -3 99 -15q10 28 10 42q0 29 -28 43.5t-94 18.5q-65 3 -99 16zM385 501l-17 -51q-44 17 -119 17q-67 0 -99.5 -13t-32.5 -50q0 -27 25 -40.5t89 -17.5q90 -6 133 -31.5t43 -78.5q0 -35 -27 -68q26 -22 26 -66 q0 -116 -193 -116q-71 0 -137 17l17 52q44 -17 119 -17q67 0 99.5 13t32.5 50q0 27 -25 40.5t-89 17.5q-90 6 -133 31.5t-43 78.5q0 34 26 68q-25 22 -25 66q0 116 193 116q68 0 137 -18z" horiz-adv-x="461"/>
<glyph glyph-name="Sacutesmall" d="M239 568h-69l119 129h83zM404 431q-72 28 -144 28q-70 0 -99.5 -17.5t-29.5 -73.5q0 -38 29 -56t97 -22q99 -7 143 -41t44 -104q0 -88 -46 -123.5t-149 -35.5t-182 27l20 61q26 -12 74.5 -20.5t87.5 -8.5q67 0 95.5 18.5t28.5 75.5q0 42 -26.5 62t-97.5 26q-97 7 -143 37 t-46 98q0 86 49 121.5t151 35.5q73 0 166 -26z" horiz-adv-x="504"/>
<glyph glyph-name="Scedillasmall" d="M404 431q-72 28 -144 28q-70 0 -99.5 -17.5t-29.5 -73.5q0 -38 29 -56t97 -22q99 -7 143 -41t44 -104q0 -87 -45 -122.5t-147 -36.5v-33q70 0 94.5 -15t24.5 -60q0 -46 -28 -63.5t-97 -17.5q-70 0 -106 21l18 42q34 -17 88 -17q33 0 45 6.5t12 27.5q0 18 -15 25.5 t-56 7.5q-12 0 -50 -2l31 79q-91 8 -146 26l20 61q26 -12 74.5 -20.5t87.5 -8.5q67 0 95.5 18.5t28.5 75.5q0 42 -26.5 62t-97.5 26q-97 7 -143 37t-46 98q0 86 49 121.5t151 35.5q73 0 166 -26z" horiz-adv-x="504"/>
<glyph glyph-name="Scircumflexsmall" d="M336 568l-81 86l-79 -86h-78l122 129h72l126 -129h-82zM404 431q-72 28 -144 28q-70 0 -99.5 -17.5t-29.5 -73.5q0 -38 29 -56t97 -22q99 -7 143 -41t44 -104q0 -88 -46 -123.5t-149 -35.5t-182 27l20 61q26 -12 74.5 -20.5t87.5 -8.5q67 0 95.5 18.5t28.5 75.5 q0 42 -26.5 62t-97.5 26q-97 7 -143 37t-46 98q0 86 49 121.5t151 35.5q73 0 166 -26z" horiz-adv-x="504"/>
<glyph glyph-name="Scommaaccentsmall" d="M307 -51l-101 -167h-53l70 167h84zM404 431q-72 28 -144 28q-70 0 -99.5 -17.5t-29.5 -73.5q0 -38 29 -56t97 -22q99 -7 143 -41t44 -104q0 -88 -46 -123.5t-149 -35.5t-182 27l20 61q26 -12 74.5 -20.5t87.5 -8.5q67 0 95.5 18.5t28.5 75.5q0 42 -26.5 62t-97.5 26 q-97 7 -143 37t-46 98q0 86 49 121.5t151 35.5q73 0 166 -26z" horiz-adv-x="504"/>
<glyph glyph-name="Wcircumflexsmall" d="M489 568l-81 86l-79 -86h-78l122 129h72l126 -129h-82zM787 505q-70 -265 -172 -505h-92q-54 261 -112 430q-54 -218 -130 -430h-92q-80 296 -164 505h77q74 -193 136 -443q33 92 74 230.5t57 212.5h83q57 -165 120 -443q97 256 142 443h73z" horiz-adv-x="813"/>
<glyph glyph-name="Zacutesmall" d="M269 568h-69l119 129h83zM36 0v27q207 250 315 418h-299v60h401v-25q-68 -103 -162 -231t-147 -189h310v-60h-418z" horiz-adv-x="495"/>
<glyph glyph-name="Zdotaccentsmall" d="M254 657q24 0 32.5 -7t8.5 -32q0 -27 -8.5 -35t-32.5 -8q-25 0 -33.5 8t-8.5 35q0 25 8.5 32t33.5 7zM36 0v27q207 250 315 418h-299v60h401v-25q-68 -103 -162 -231t-147 -189h310v-60h-418z" horiz-adv-x="495"/>
<glyph glyph-name="zeroop" d="M292 459q-91 0 -124 -40t-33 -166q0 -121 33.5 -164t123.5 -43q89 0 118.5 41.5t29.5 165.5q0 128 -29 167t-119 39zM292 -14q-116 0 -172.5 60t-56.5 209q0 148 56.5 206t172.5 58q115 0 167.5 -57.5t52.5 -206.5q0 -150 -52.5 -209.5t-167.5 -59.5z" horiz-adv-x="575"/>
<glyph glyph-name="oneop" d="M250 0h-65v425l-156 -82l-24 54l245 122v-519z" horiz-adv-x="326"/>
<glyph glyph-name="twoop" d="M475 60v-60h-424v55q145 80 218 131t99.5 88t26.5 82q0 53 -33 75.5t-124 22.5q-36 0 -87.5 -7t-69.5 -15l-16 67q84 20 174 20q129 0 180.5 -38t51.5 -123q0 -77 -73.5 -149t-244.5 -149h322z" horiz-adv-x="530"/>
<glyph glyph-name="threeop" d="M346 183q92 -4 127 -51.5t35 -128.5q0 -114 -64.5 -160t-208.5 -46q-97 0 -213 29l17 56q79 -24 196 -24q114 0 155 32.5t41 114.5t-41 114.5t-143 32.5h-80v59h80q92 0 132.5 30t40.5 99q0 65 -38 91.5t-142 26.5q-112 0 -192 -26l-18 60q126 27 210 27q138 0 196 -41.5 t58 -128.5q0 -72 -31 -115t-117 -51z" horiz-adv-x="571"/>
<glyph glyph-name="fourop" d="M443 505v-446h99v-59h-99v-192h-71v192h-353v15q164 304 309 490h115zM372 59v401q-109 -134 -256 -401h256z" horiz-adv-x="551"/>
<glyph glyph-name="fiveop" d="M158 445v-222q51 6 113 6q140 0 197 -49.5t57 -164.5q0 -122 -63 -170t-208 -48q-81 0 -199 29l18 56q78 -24 181 -24q114 0 154 33t40 115q0 92 -36.5 127t-140.5 35q-105 0 -183 -19v356h394v-60h-324z" horiz-adv-x="588"/>
<glyph glyph-name="sixop" d="M324 47q103 0 138 32.5t35 115.5q0 92 -37 127t-141 35q-101 0 -181 -18q1 -90 12 -147.5t36 -89t57 -43.5t81 -12zM529 621q-69 28 -156 28q-63 0 -101.5 -9t-70 -35t-46 -75.5t-17.5 -128.5q85 17 181 17q140 0 197.5 -49.5t57.5 -164.5q0 -122 -58 -170t-192 -48 q-98 0 -153 32.5t-81.5 112t-26.5 222.5q0 106 19 176.5t60 111t95.5 57t134.5 16.5q88 0 180 -29z" horiz-adv-x="637"/>
<glyph glyph-name="sevenop" d="M480 505v-26q-80 -129 -168 -320.5t-144 -350.5h-82q62 171 145 348.5t153 288.5h-397v60h493z" horiz-adv-x="479"/>
<glyph glyph-name="eightop" d="M311 -14q-126 0 -187 47t-61 159q0 81 35.5 130t127.5 53q-85 8 -114.5 51.5t-29.5 117.5q0 86 54 128t175 42t175.5 -42t54.5 -128q0 -74 -29.5 -117.5t-114.5 -51.5q91 -4 126.5 -53t35.5 -130q0 -113 -60.5 -159.5t-187.5 -46.5zM311 403q82 0 118.5 31t36.5 101 q0 64 -34.5 91t-120.5 27t-120.5 -27t-34.5 -91q0 -70 36.5 -101t118.5 -31zM311 47q97 0 134.5 33t37.5 114q0 82 -40 116t-132 34t-131.5 -34t-39.5 -116q0 -81 37 -114t134 -33z"/>
<glyph glyph-name="nineop" d="M493 264q0 53 -7 89t-19.5 57t-36.5 32t-49.5 14t-67.5 3q-102 0 -137.5 -38.5t-35.5 -124.5q0 -89 35.5 -118t142.5 -29q92 0 160 13q15 48 15 102zM318 87q-143 0 -199 44t-56 157q0 123 59 177t191 54q146 0 200 -49.5t54 -193.5q0 -75 -23 -144t-66.5 -128.5 t-84.5 -102.5t-98 -93h-100q94 78 158 146.5t100 142.5q-80 -10 -135 -10z" horiz-adv-x="630"/>
<glyph glyph-name="two.alt" d="M518 60v-60h-466q7 69 27.5 124.5t45.5 90.5t64 65t68 45.5t73 34.5q64 29 91.5 63t27.5 96q0 75 -40 102.5t-135 27.5q-45 0 -97.5 -7.5t-76.5 -19.5l-18 65q110 27 193 27q130 0 190 -45t60 -150q0 -79 -39.5 -127.5t-128.5 -89.5q-52 -24 -82.5 -41.5t-62 -45.5 t-48.5 -65.5t-24 -89.5h378z" horiz-adv-x="588"/>
<glyph glyph-name="Ccircumflexsmall" d="M368 568l-81 86l-79 -86h-78l122 129h72l126 -129h-82zM430 74l21 -60q-63 -28 -144 -28q-124 0 -184 60t-60 209q0 148 60 206t184 58q80 0 144 -25l-21 -61q-51 24 -123 24q-47 0 -77 -8t-52.5 -29.5t-32.5 -62t-10 -104.5q0 -119 39.5 -162t132.5 -43q65 0 123 26z " horiz-adv-x="466"/>
<glyph glyph-name="ccaront" d="M225 697l81 -86l79 86h78l-122 -129h-72l-126 129h82zM568 445q-50 0 -148 6t-113 6q-47 0 -77 -8t-52.5 -29.5t-32.5 -62t-10 -104.5q0 -119 39.5 -162t132.5 -43q65 0 123 26l21 -60q-63 -28 -144 -28q-124 0 -184 60t-60 209q0 148 60 206t184 58q15 0 113 -7t148 -7 v106l65 27v-133h187v-60h-187v-275q0 -66 21 -94t73 -28q56 0 96 15l15 -58q-55 -19 -111 -19q-89 0 -124 37.5t-35 145.5v276z" horiz-adv-x="859"/>
<glyph glyph-name="scaront" d="M178 697l81 -86l79 86h78l-122 -129h-72l-126 129h82zM596 169v276q-70 1 -194 7.5t-142 6.5q-70 0 -99.5 -17.5t-29.5 -73.5q0 -38 29 -56t97 -22q99 -7 143 -41t44 -104q0 -88 -46 -123.5t-149 -35.5t-182 27l20 61q26 -12 74.5 -20.5t87.5 -8.5q67 0 95.5 18.5 t28.5 75.5q0 42 -26.5 62t-97.5 26q-97 7 -143 37t-46 98q0 86 49 121.5t151 35.5q17 0 146 -7t190 -7v106l65 27v-133h187v-60h-187v-275q0 -66 21 -94t73 -28q55 0 96 15l15 -58q-55 -19 -111 -19q-89 0 -124 37.5t-35 145.5z" horiz-adv-x="887"/>
<glyph glyph-name="ampersandsmall.2" d="M144 150q0 -58 34.5 -81t128.5 -23q75 0 128 14v188h-144q-79 0 -113 -23t-34 -75zM212 273q-71 6 -99 34.5t-28 78.5q0 133 218 133q95 0 163 -20l-18 -60q-54 20 -145 20q-85 0 -117.5 -16.5t-32.5 -58.5q0 -45 33.5 -62t111.5 -17h339v-57h-137v-233q-94 -29 -193 -29 q-119 0 -175.5 34t-56.5 117q0 130 137 136z" horiz-adv-x="660"/>
<glyph glyph-name="man" d="M262 721q61 0 82 -16.5t21 -72.5q0 -63 -21 -82t-82 -19q-63 0 -84.5 19t-21.5 82q0 56 21.5 72.5t84.5 16.5zM345 419v-611h-76v372h-13v-372h-76v611q-22 -1 -29 -10.5t-7 -37.5v-191h-94v194q0 83 41 109t171 26q129 0 170.5 -26t41.5 -109v-194h-94v191 q0 28 -6.5 37.5t-28.5 10.5z" horiz-adv-x="524"/>
<glyph glyph-name="woman" d="M262 721q61 0 82 -16.5t21 -72.5q0 -63 -21 -82t-82 -19q-63 0 -84.5 19t-21.5 82q0 56 21.5 72.5t84.5 16.5zM324 419v-239q104 -241 180 -372h-484q130 284 180 372v239q-36 -1 -46 -10t-10 -38v-191h-74v194q0 83 38 109t154 26q115 0 153.5 -26.5t38.5 -108.5v-194 h-74v191q0 29 -10 38t-46 10z" horiz-adv-x="524"/>
<glyph glyph-name="escaperight" d="M530 531h-74q-63 0 -84.5 19t-21.5 82q0 56 21.5 72.5t84.5 16.5q52 0 76 -12t24 -45q0 -16 -4 -32zM1245 293l-273 -256l-54 57l163 159h-388l13 80h375l-163 159l54 57zM446 509q13 -60 73 -118t137 -58l-14 -80q-73 0 -133.5 36.5t-88.5 99.5l-49 -229 q84 -2 132.5 -45.5t48.5 -135.5q0 -48 -15 -111h-84q16 66 16 105q0 62 -39 89t-129 27q-37 -128 -102 -182.5t-177 -54.5l18 77q68 0 111.5 41t66.5 149l65 308q-39 0 -74.5 -41.5t-52.5 -132.5h-82q31 127 80.5 191.5t144.5 64.5h147z" horiz-adv-x="1267"/>
<glyph glyph-name="noentry" d="M544 371q0 22 -4 31l-41 -41v-16l45 -46v72zM308 371v-73l46 47v16l-42 41q-4 -7 -4 -31zM426 721q61 0 82 -16.5t21 -72.5q0 -63 -21 -82t-82 -19q-63 0 -84.5 19t-21.5 82q0 56 21.5 72.5t84.5 16.5zM838 0h-124l-215 215v-407h-66v372h-13v-372h-66v407l-215 -215 h-124l199 202v172q0 71 28 99l-223 224h133l187 -191q37 3 87 3q54 0 86 -4l189 192h133l-224 -225q28 -27 28 -98v-171z" horiz-adv-x="853"/>
<glyph glyph-name="escapeleft" d="M737 531l-22 101q-4 16 -4 32q0 33 24 45t76 12q63 0 84.5 -16.5t21.5 -72.5q0 -63 -21.5 -82t-84.5 -19h-74zM22 293l273 256l54 -57l-163 -159h375l13 -80h-388l163 -159l-54 -57zM821 509h147q95 0 144.5 -64.5t80.5 -191.5h-82q-17 91 -52.5 132.5t-74.5 41.5 l65 -308q23 -108 66.5 -149t111.5 -41l18 -77q-112 0 -177 54.5t-102 182.5q-90 0 -129 -27t-39 -89q0 -39 16 -105h-84q-15 63 -15 111q0 92 48.5 135.5t132.5 45.5l-49 229q-28 -63 -88.5 -99.5t-133.5 -36.5l-14 80q77 0 137 58t73 118z" horiz-adv-x="1267"/>
<glyph glyph-name="manneg" d="M551 -232h-418q-61 0 -82 19t-21 82v803q0 56 21 72.5t82 16.5h418q61 0 82 -16.5t21 -72.5v-803q0 -63 -21 -82t-82 -19zM343 721q-63 0 -84.5 -16.5t-21.5 -72.5q0 -63 21.5 -82t84.5 -19q61 0 82 19t21 82q0 56 -21 72.5t-82 16.5zM426 -192v611q22 -1 28.5 -10.5 t6.5 -37.5v-191h94v194q0 83 -41.5 109t-170.5 26q-130 0 -171 -26t-41 -109v-194h94v191q0 28 7 37.5t29 10.5v-611h76v372h13v-372h76z" horiz-adv-x="684"/>
<glyph glyph-name="womanneg" d="M551 -232h-418q-61 0 -82 19t-21 82v803q0 56 21 72.5t82 16.5h418q61 0 82 -16.5t21 -72.5v-803q0 -63 -21 -82t-82 -19zM343 721q-63 0 -84.5 -16.5t-21.5 -72.5q0 -63 21.5 -82t84.5 -19q61 0 82 19t21 82q0 56 -21 72.5t-82 16.5zM405 180v239q36 -1 46 -10t10 -38 v-191h74v194q0 82 -38.5 108.5t-153.5 26.5q-116 0 -154 -26t-38 -109v-194h74v191q0 29 10 38t46 10v-239q-50 -88 -180 -372h484q-76 131 -180 372z" horiz-adv-x="684"/>
<glyph glyph-name="escaperightneg" d="M515 531h74l22 101q4 16 4 32q0 33 -24 45t-76 12q-63 0 -84.5 -16.5t-21.5 -72.5q0 -63 21.5 -82t84.5 -19zM1031 37l273 256l-273 256l-54 -57l163 -159h-375l-13 -80h388l-163 -159zM505 509h-147q-95 0 -144.5 -64.5t-80.5 -191.5h82q17 91 52.5 132.5t74.5 41.5 l-65 -308q-23 -108 -66.5 -149t-111.5 -41l-18 -77q112 0 177 54.5t102 182.5q90 0 129 -27t39 -89q0 -39 -16 -105h84q15 63 15 111q0 92 -48.5 135.5t-132.5 45.5l49 229q28 -63 88.5 -99.5t133.5 -36.5l14 80q-77 0 -137 58t-73 118zM1240 -232h-1107q-61 0 -82 19 t-21 82v803q0 56 21 72.5t82 16.5h1107q61 0 82 -16.5t21 -72.5v-803q0 -63 -21 -82t-82 -19z" horiz-adv-x="1373"/>
<glyph glyph-name="escapeleftneg" d="M858 531q63 0 84.5 19t21.5 82q0 56 -21.5 72.5t-84.5 16.5q-52 0 -76 -12t-24 -45q0 -16 4 -32l22 -101h74zM342 37l54 57l-163 159h388l-13 80h-375l163 159l-54 57l-273 -256zM868 509q-13 -60 -73 -118t-137 -58l14 -80q73 0 133.5 36.5t88.5 99.5l49 -229 q-84 -2 -132.5 -45.5t-48.5 -135.5q0 -48 15 -111h84q-16 66 -16 105q0 62 39 89t129 27q37 -128 102 -182.5t177 -54.5l-18 77q-68 0 -111.5 41t-66.5 149l-65 308q39 0 74.5 -41.5t52.5 -132.5h82q-31 127 -80.5 191.5t-144.5 64.5h-147zM133 -232q-61 0 -82 19t-21 82 v803q0 56 21 72.5t82 16.5h1107q61 0 82 -16.5t21 -72.5v-803q0 -63 -21 -82t-82 -19h-1107z" horiz-adv-x="1373"/>
<glyph glyph-name="noentryneg" d="M597 371v-72l-45 46v16l41 41q4 -9 4 -31zM361 298v73q0 24 4 31l42 -41v-16zM479 721q-63 0 -84.5 -16.5t-21.5 -72.5q0 -63 21.5 -82t84.5 -19q61 0 82 19t21 82q0 56 -21 72.5t-82 16.5zM767 0h124l-200 203v171q0 71 -28 98l224 225h-133l-189 -192q-32 4 -86 4 q-49 0 -87 -3l-187 191h-133l223 -224q-28 -28 -28 -99v-172l-199 -202h124l215 215v-407h66v372h13v-372h66v407zM827 -232h-694q-61 0 -82 19t-21 82v803q0 56 21 72.5t82 16.5h694q61 0 82 -16.5t21 -72.5v-803q0 -63 -21 -82t-82 -19z" horiz-adv-x="960"/>
<glyph glyph-name="trash" d="M407 -5v-142h67l23 142h-90zM272 -5l23 -142h67v142h-90zM407 162v-122h97l20 122h-117zM245 162l19 -122h98v122h-117zM343 412q42 -46 160 -46l-83 -122q-44 3 -83.5 40t-39.5 62q0 9 7 21t15.5 21t16.5 16zM610 531l-22 101q-4 16 -4 32q0 33 24 45t76 12 q63 0 84.5 -16.5t21.5 -72.5q0 -63 -21.5 -82t-84.5 -19h-74zM879 180v-372h-66v372h-13l-60 -372h-66l60 372l-58 249h-363l-14 80h504zM171 334h46l20 -127h294l21 127h46l-85 -526h-257z" horiz-adv-x="1068"/>
<glyph glyph-name="material" d="M277 452l130 225q43 72 126 72q40 0 77 -19.5t57 -55.5l120 -206l105 60l-48 -240l-231 78l106 62l-119 207q-21 35 -65 35q-39 0 -58 -32l-131 -226zM425 -192h-260q-64 0 -106 45.5t-42 106.5q0 41 20 75l119 207l-105 61l232 78l48 -239l-106 61l-120 -207 q-9 -16 -9 -35q0 -29 19 -51t49 -22h261v-80zM904 258l130 -226q18 -31 18 -73q0 -64 -44 -107.5t-107 -43.5h-239v-122l-183 162l183 161v-122h239q29 0 50.5 21t21.5 51q0 20 -8 33l-130 227z" horiz-adv-x="1068"/>
<glyph glyph-name="recycling" d="M533 -228q-21 0 -63 4q42 -4 63 -4zM30 256q0 208 148 356t356 148t356 -148t148 -356t-148 -356t-356 -148t-356 148t-148 356zM534 739q-131 0 -242.5 -64.5t-177 -176t-65.5 -242.5q0 -96 36 -182.5t100 -152.5q-117 126 -117 287q0 71 27 133.5t81.5 115t146 85.5 t211.5 38v159zM534 739q95 -61 165 -126.5t137 -155.5q-140 -179 -302 -282v161q-162 -103 -302 -282q67 -90 137 -155.5t165 -126.5v159q232 11 348.5 116t116.5 255q0 108 -56.5 207t-165 164.5t-243.5 65.5z" horiz-adv-x="1068"/>
<glyph glyph-name="flammable" d="M472 41q9 -7 9 -21q0 -16 -12 -33.5t-31 -26.5h185q-26 16 -26 49q0 40 43 83q-14 -4 -21 -4q-44 0 -58 47q-2 8 -2 14q0 18 14 58q-14 -8 -31 -8q-33 0 -55 30q-1 1 -3 4q15 -53 33 -77q6 -9 6 -20q0 -21 -17.5 -39t-41.5 -18q-18 0 -37 13q25 -36 45 -51zM225 -79v39 h158q-26 11 -42.5 42t-24.5 66t-16.5 68.5t-26.5 55.5t-47 22q-8 0 -13 -1q35 15 61 15q40 0 68.5 -25.5t59.5 -72.5q-12 33 -23.5 122.5t-30 151t-54.5 67.5q18 2 24 2q29 0 52 -12.5t37.5 -29t28 -46.5t20 -51.5t16.5 -57.5q-1 7 -1 23q0 31 8.5 108t8.5 113q0 93 -44 110 q54 -4 85.5 -31t41.5 -69.5t12.5 -85.5t5.5 -92t13 -76q2 5 10.5 23t11 24t9.5 22.5t10 24.5t8.5 22t8 23t5.5 20t4 20.5t1 17.5q0 28 -15 43q75 -38 75 -123q0 -47 -28.5 -139t-28.5 -123q0 -4 -2 -12q9 8 28.5 23t29.5 23.5t22 20.5t17.5 23t5.5 21q0 12 -7 22 q48 -33 48 -73q0 -32 -41 -96t-47 -94q-1 -17 -18 -29h143v-39h-627zM195 -161h678q54 0 66.5 12t12.5 65v700q0 47 -12.5 57.5t-66.5 10.5h-678q-54 0 -67 -10.5t-13 -57.5v-700q0 -53 13 -65t67 -12zM881 -192h-694q-61 0 -82 17.5t-21 74.5v733q0 51 21 66t82 15h694 q61 0 82 -15t21 -66v-733q0 -57 -21 -74.5t-82 -17.5z" horiz-adv-x="1068"/>
<glyph glyph-name="poison" d="M280 -104l-118 117l253 254l-253 255l115 113l253 -252l255 257l119 -118l-256 -256l254 -253l-116 -117l-254 255zM195 -161h678q54 0 66.5 12t12.5 65v700q0 47 -12.5 57.5t-66.5 10.5h-678q-54 0 -67 -10.5t-13 -57.5v-700q0 -53 13 -65t67 -12zM881 -192h-694 q-61 0 -82 17.5t-21 74.5v733q0 51 21 66t82 15h694q61 0 82 -15t21 -66v-733q0 -57 -21 -74.5t-82 -17.5z" horiz-adv-x="1068"/>
<glyph glyph-name="Pct" d="M936 347v-240h-100v240h-96v73h292v-73h-96zM242 1v361q0 65 18.5 86.5t77.5 21.5q44 0 63.5 -24t19.5 -82t-22.5 -82t-78.5 -24q-40 0 -63 18v-66q31 -17 70 -17q176 0 176 172q0 86 -44.5 128.5t-127.5 42.5q-75 0 -122 -37.5t-47 -121.5v-315zM532 266q0 -100 88 -154 t223 -54q55 0 93 5v-92q-65 -45 -166.5 -68.5t-211.5 -23.5q-134 0 -248.5 52t-181.5 141t-67 193q0 160 146.5 274t350.5 114q111 0 212.5 -23.5t165.5 -68.5v-91q-38 5 -93 5q-135 0 -223 -54.5t-88 -154.5z" horiz-adv-x="1068"/>
<glyph glyph-name="warning" d="M534 66q-34 0 -46.5 -10t-12.5 -44q0 -36 12.5 -47t46.5 -11q35 0 47 11t12 47q0 34 -12 44t-47 10zM589 583h-112l25 -438h63zM53 4l398 689q35 57 85 57q52 0 85 -57l394 -689q18 -29 18 -61q0 -38 -27.5 -61.5t-75.5 -23.5h-791q-48 0 -76 24t-28 61q0 30 18 61z" horiz-adv-x="1068"/>
<glyph glyph-name="deadly" d="M53 4l398 689q35 57 85 57q52 0 85 -57l394 -689q18 -29 18 -61q0 -38 -27.5 -61.5t-75.5 -23.5h-791q-48 0 -76 24t-28 61q0 30 18 61zM640 281q35 0 55 -18.5t20 -53.5q0 -32 -9 -44t-29 -12q-14 0 -32 3q-33 6 -55.5 30t-22.5 49q0 29 14.5 37.5t58.5 8.5zM534 -98 q5 0 11.5 -4t14.5 -4h5q16 2 59 35t50 52q6 14 7 56.5t6 66.5l-24 3v-9q0 -38 -17 -82q-6 -8 -7 -2v2q-13 -13 -17 -12q-7 -12 -12 -9q-2 -1 -5 -4t-5.5 -4t-4.5 0q-2 -1 -5 -3l-4.5 -3t-4.5 -1.5t-4 1.5q-15 -8 -21 -4q-13 -10 -22 1q-10 -10 -23 -1q-6 -4 -20 4 q-5 -3 -18 6q-2 -1 -4.5 0t-5.5 4t-5 4q-5 -3 -12 9q-3 0 -6 1.5t-7 5.5l-5 5q1 -3 0 -4q-3 -2 -6 4q-17 44 -17 82v9q-1 0 -9.5 -1t-15.5 -2q5 -25 6.5 -67t7.5 -56q7 -19 50 -52t59 -35h5q8 0 14.5 4t11.5 4zM534 90q-11 -13 -24 -13q-14 0 -14 21q0 7 1 12q14 95 37 95 q21 0 37 -95q1 -4 1 -12q0 -21 -14 -21q-15 0 -24 13zM427 281q44 0 58.5 -8.5t14.5 -37.5q0 -25 -22.5 -49.5t-54.5 -29.5q-24 -4 -32 -4q-20 0 -29.5 12.5t-9.5 44.5q0 35 20.5 53.5t54.5 18.5zM534 15q7 10 16 10q6 0 13 -6q10 12 24 5q10 10 21 6q9 9 15 6q4 5 9 8t7 5 q3 6 3 15q0 10 -4 25.5t-4 18.5t1 3q14 2 20 2q12 0 31.5 -3t26.5 -3q23 0 34 20q8 16 8 29q0 6 -3 6q-1 0 -5 -2q2 24 2 39q0 38 -10 58q24 42 24 77q0 85 -65.5 141t-163.5 56t-163.5 -56t-65.5 -141q0 -37 23 -77q-9 -17 -9 -56q0 -15 2 -41q-4 2 -5 2q-3 0 -3 -6 q0 -13 8 -29q11 -20 34 -20q7 0 26 3t31 3q6 0 20 -2q1 0 1 -4q0 -3 -4 -19.5t-4 -25.5q0 -7 3 -13q2 -2 7 -5t9 -8q7 4 15 -6q12 3 21 -6q14 7 24 -5q8 6 14 6q9 0 16 -10z" horiz-adv-x="1068"/>
<glyph glyph-name="Ractive" d="M90 6q-19 -32 -19 -52q0 -33 15.5 -48.5t54.5 -15.5h787q39 0 54.5 15.5t15.5 48.5q0 21 -20 52l-379 662q-14 21 -20 29t-17 14.5t-26 6.5t-26.5 -6.5t-17 -14t-19.5 -29.5zM451 693q35 57 85 57q52 0 85 -57l394 -689q18 -29 18 -61q0 -38 -27.5 -61.5t-75.5 -23.5 h-791q-48 0 -76 24t-28 61q0 30 18 61zM799 189q0 -71 -36 -132t-96 -96l-94 163q37 23 37 65h189zM534 453q73 0 132 -36l-93 -163q-16 10 -39 10q-21 0 -37 -10l-94 164q60 35 131 35zM269 189h189q0 -43 39 -67l-94 -163q-61 34 -97.5 95.5t-36.5 134.5z" horiz-adv-x="1068"/>
<glyph glyph-name="CE" d="M470 -67q-134 0 -227.5 93.5t-93.5 226.5q0 134 94 228t227 94v-101q-92 0 -156 -64.5t-64 -156.5t64 -156t156 -64v-100zM914 -67q-134 0 -227.5 93.5t-93.5 226.5q0 134 94 228t227 94v-101q-78 0 -138 -49t-77 -124h185v-95h-185q15 -75 75 -124t140 -49v-100z" horiz-adv-x="1068"/>
<glyph glyph-name="FCC" d="M575 253q0 -67 44 -112t111 -45q51 0 88.5 26.5t47.5 73.5h87q-18 -80 -78.5 -131t-144.5 -51q-102 0 -167 68t-65 171q0 104 65 172t167 68q84 0 145 -51.5t79 -132.5h-88q-10 48 -47.5 75t-88.5 27q-66 0 -110.5 -45.5t-44.5 -112.5zM40 -93v569q0 63 29.5 95.5 t100.5 32.5h238v-87h-233q-40 0 -40 -41v-185h234q14 140 116 233.5t245 93.5q113 0 206 -63.5t130 -162.5h-93q-32 68 -96.5 108.5t-146.5 40.5q-118 0 -197.5 -85t-79.5 -203q0 -119 79 -203t198 -84q81 0 145.5 39.5t96.5 106.5h94q-38 -98 -131 -160t-205 -62 q-144 0 -246 92t-116 233h-233v-308h-95z" horiz-adv-x="1068"/>
<glyph glyph-name="VCI" d="M15 252q0 293 39 337q46 40 480 40q438 0 483 -42q15 -15 25.5 -111.5t10.5 -223.5q0 -132 -10 -224.5t-28 -111.5q-21 -19 -149 -30.5t-332 -11.5q-436 0 -482 41q-15 15 -26 113t-11 224zM55 252q0 -117 8 -207.5t19 -101.5q40 -33 452 -33q411 0 451 34q28 29 28 308 q0 115 -7.5 205.5t-17.5 101.5q-41 34 -454 34q-408 0 -450 -32q-29 -32 -29 -309zM125 252q0 216 31 247q18 15 119.5 25t258.5 10q159 0 262 -10.5t118 -26.5q12 -10 20.5 -81.5t8.5 -163.5q0 -218 -31 -246q-15 -15 -119 -26t-259 -11q-156 0 -259.5 10.5t-119.5 25.5 q-12 11 -21 83t-9 164zM163 252q0 -85 7 -148t18 -71q33 -26 346 -26t345 27q25 17 25 218q0 200 -23 218q-31 26 -347 26q-314 0 -344 -26q-27 -17 -27 -218zM786 364v-223h-37v223h37zM587 253q0 -29 11.5 -40.5t35.5 -11.5q16 0 22 2l13 -31q-15 -7 -35 -7 q-39 0 -62.5 25t-23.5 63q0 37 23.5 63t62.5 26q15 0 35 -9l-12 -30q-9 3 -23 3q-47 0 -47 -53zM456 364l-136 -223h-52v223h39v-177l103 177h46zM509 253q0 -53 34 -90t86 -37q33 0 58 13l14 -31q-38 -19 -72 -19q-73 0 -116.5 47t-43.5 117q0 69 43.5 116t116.5 47 q40 0 72 -19l-14 -32q-24 14 -58 14q-51 0 -85.5 -37.5t-34.5 -88.5z" horiz-adv-x="1068"/>
<glyph glyph-name="checked" d="M516 419q-26 0 -57 -29.5t-31 -60.5q0 -41 9 -114.5t21 -97.5q13 -26 37 -40t48 -14q31 0 134 109t177 200q21 -60 21 -119q0 -142 -100 -241.5t-242 -99.5t-241.5 99.5t-99.5 241.5t99.5 242t241.5 100q80 0 149.5 -34t116.5 -94q-25 -43 -107.5 -130.5t-108.5 -87.5 q-9 0 -21.5 43.5t-12.5 80.5q0 4 0.5 11t0.5 10q0 10 -9 17.5t-25 7.5z" horiz-adv-x="1068"/>
</font>
</defs>
</svg>
