<?xml version="1.0" encoding="UTF-8" standalone="no"?>
<!DOCTYPE svg  PUBLIC '-//W3C//DTD SVG 1.1//EN'  'http://www.w3.org/Graphics/SVG/1.1/DTD/svg11.dtd'>
<svg xmlns="http://www.w3.org/2000/svg">
<defs>
<font id="ElektraLightPro-Bold" horiz-adv-x="588">
<font-face underline-position="-100" font-weight="700" descent="-200" panose-1="2 0 8 3 0 0 0 2 0 4" units-per-em="1000" unicode-range="U+0020-FB04" bbox="-156 -314 1343 890" x-height="509" underline-thickness="50" font-family="ElektraLightPro" ascent="800" cap-height="697"/>
<missing-glyph d="M85 545v-393l132 197zM133 82h264l-132 197zM313 349l132 -197v393zM265 419l132 196h-264zM0 0v697h530v-697h-530z" horiz-adv-x="530"/>
<glyph glyph-name="ff" horiz-adv-x="687" unicode="ff" d="M214 532v-23h187v34q0 40 8 61q-48 14 -94 14q-52 0 -76.5 -18t-24.5 -68zM525 536v-27h165v-108h-165v-401h-124v401h-187v-401h-124v401h-85v108h85v30q0 185 202 185q98 0 172 -29q42 29 121 29q75 0 141 -22l-28 -98q-42 14 -92 14q-39 0 -60 -18.5t-21 -63.5z"/>
<glyph glyph-name="fi" horiz-adv-x="594" unicode="fi" d="M525 509v-509h-124v401h-187v-401h-124v401h-85v108h85v30q0 105 61.5 145t177.5 40q103 0 189 -31l-29 -97q-66 22 -144 22q-66 0 -98.5 -18t-32.5 -68v-23h311z"/>
<glyph glyph-name="fl" horiz-adv-x="599" unicode="fl" d="M525 693v-550q0 -75 39 -120q-19 -7 -55 -23t-55 -23q-53 59 -53 161v469q-44 11 -86 11q-51 0 -76 -18t-25 -68v-23h135v-108h-135v-401h-124v401h-85v108h85v30q0 106 58.5 145.5t168.5 39.5q105 0 208 -31z"/>
<glyph glyph-name="ffi" horiz-adv-x="905" unicode="ffi" d="M214 532v-23h187v30q0 38 10 64q-47 15 -96 15q-52 0 -76.5 -18t-24.5 -68zM836 509v-509h-124v401h-187v-401h-124v401h-187v-401h-124v401h-85v108h85v30q0 104 55 144.5t149 40.5q84 0 178 -34q56 34 168 34q103 0 189 -31l-29 -97q-66 22 -144 22q-66 0 -98.5 -18 t-32.5 -68v-23h311z"/>
<glyph glyph-name="ffl" horiz-adv-x="911" unicode="ffl" d="M401 539q0 40 10 64q-52 15 -96 15q-56 0 -78.5 -21t-22.5 -75v-13h187v30zM836 693v-550q0 -75 39 -120q-19 -7 -55 -23t-55 -23q-53 59 -53 161v469q-44 11 -86 11q-50 0 -75.5 -18.5t-25.5 -67.5v-23h135v-108h-135v-401h-124v401h-187v-401h-124v401h-85v108h85v30 q0 104 55 144.5t149 40.5q93 0 176 -33q53 33 158 33t208 -31z"/>
<glyph glyph-name="Th" horiz-adv-x="1083" unicode="Th" d="M1018 293v-293h-124v283q0 77 -24 103t-79 26q-40 0 -68.5 -12t-28.5 -33v-367h-124v583h-199v-583h-133v583h-235v114h691v-208q66 35 140 35q64 0 101.5 -17.5t60 -69t22.5 -144.5z"/>
<glyph glyph-name="ffk" horiz-adv-x="1194" unicode="ffk" d="M401 539q0 40 10 64q-52 15 -96 15q-55 0 -78 -15.5t-23 -60.5v-33h187v30zM1195 0h-147q-173 252 -212 269v-269h-124v607q-44 11 -86 11q-50 0 -75.5 -18.5t-25.5 -67.5v-23h135v-108h-135v-401h-124v401h-187v-401h-124v401h-85v108h85v30q0 54 16 92t46 57t63.5 27 t77.5 8q100 0 177 -32q53 33 158 33q114 0 208 -31v-424q49 40 197 240h146q-137 -187 -194 -231q21 -13 77 -85.5t133 -192.5z"/>
<glyph glyph-name="fk" horiz-adv-x="883" unicode="fk" d="M884 0h-147q-173 252 -212 269v-269h-124v607q-44 11 -86 11q-50 0 -75.5 -18.5t-25.5 -67.5v-23h135v-108h-135v-401h-124v401h-85v108h85v30q0 106 58.5 145.5t168.5 39.5q114 0 208 -31v-424q49 40 197 240h146q-137 -187 -194 -231q21 -13 77 -85.5t133 -192.5z"/>
<glyph glyph-name="fj" horiz-adv-x="594" unicode="fj" d="M525 509v-521q0 -192 -189 -192q-4 0 -11 0.5t-10 0.5v103q45 0 65.5 18.5t20.5 67.5v415h-187v-401h-124v401h-85v108h85v30q0 105 61.5 145t177.5 40q103 0 189 -31l-29 -97q-66 22 -144 22q-66 0 -98.5 -18t-32.5 -68v-23h311z"/>
<glyph glyph-name=".notdef" d="M85 545v-393l132 197zM133 82h264l-132 197zM313 349l132 -197v393zM265 419l132 196h-264zM0 0v697h530v-697h-530z" horiz-adv-x="530"/>
<glyph glyph-name=".null" horiz-adv-x="0"/>
<glyph glyph-name="nonmarkingreturn" horiz-adv-x="333"/>
<glyph glyph-name="space" horiz-adv-x="266" unicode=" "/>
<glyph glyph-name="exclam" horiz-adv-x="332" unicode="!" d="M166 143q47 0 63.5 -13t16.5 -57q0 -48 -16.5 -63t-63.5 -15q-45 0 -61.5 15t-16.5 63q0 44 16 57t62 13zM89 697h153l-31 -474h-91z"/>
<glyph glyph-name="quotedbl" horiz-adv-x="370" unicode='&quot;' d="M216 697h109l-19 -240h-81zM45 697h112l-19 -240h-82z"/>
<glyph glyph-name="numbersign" horiz-adv-x="712" unicode="#" d="M285 435l-11 -159h138l11 159h-138zM40 435l7 100h129l10 162h116l-11 -162h138l11 162h115l-10 -162h137l-7 -100h-137l-10 -159h139l-7 -99h-138l-12 -177h-115l11 177h-138l-11 -177h-116l12 177h-128l7 99h127l10 159h-129z"/>
<glyph glyph-name="dollar" horiz-adv-x="622" unicode="$" d="M435 203q0 36 -17 54.5t-64 27.5v-163q41 7 61 26t20 55zM185 488q0 -34 17 -50.5t64 -23.5v155q-81 -13 -81 -81zM266 825h88v-138q111 -2 189 -27l-29 -110q-52 21 -160 23v-171q103 -14 153.5 -60.5t50.5 -131.5q0 -96 -50 -143.5t-154 -58.5v-145h-88v142 q-119 2 -195 26l29 111q58 -20 166 -24v180q-102 12 -153 53t-51 123q0 96 50.5 146t153.5 62v143z"/>
<glyph glyph-name="percent" horiz-adv-x="959" unicode="%" d="M742 74q43 0 57.5 28t14.5 114q0 85 -14.5 110t-57.5 25t-58 -25t-15 -110q0 -86 15.5 -114t57.5 -28zM742 439q100 0 141 -47t41 -175q0 -131 -41.5 -181t-140.5 -50t-140.5 50t-41.5 181q0 128 41 175t141 47zM217 349q43 0 57.5 27.5t14.5 113.5q0 85 -14.5 110.5 t-57.5 25.5t-58 -25.5t-15 -110.5t15.5 -113t57.5 -28zM217 714q100 0 141 -47t41 -176q0 -131 -41.5 -181t-140.5 -50t-140.5 50t-41.5 181q0 129 41 176t141 47zM633 697h117l-429 -697h-116z"/>
<glyph glyph-name="ampersand" horiz-adv-x="796" unicode="&amp;" d="M332 417q58 0 86.5 22.5t28.5 74.5q0 51 -24.5 70.5t-84.5 19.5t-84.5 -19t-24.5 -70q0 -53 23.5 -75.5t79.5 -22.5zM313 94q63 0 105.5 15.5t88.5 54.5q-56 76 -101 113t-87 37q-67 0 -98 -26.5t-31 -86.5q0 -61 26 -84t97 -23zM761 396q0 -129 -95 -242 q29 -38 108 -154h-150q-24 40 -49 75q-63 -47 -122.5 -68t-139.5 -21q-145 0 -204 43t-59 153q0 172 187 180q-86 7 -113.5 47t-27.5 119q0 96 53.5 141t188.5 45q134 0 188 -41t54 -134q0 -75 -35.5 -117t-124.5 -49q70 -6 167 -126q41 68 41 149h133z"/>
<glyph glyph-name="quotesingle" horiz-adv-x="202" unicode="&apos;" d="M45 697h112l-19 -240h-82z"/>
<glyph glyph-name="parenleft" horiz-adv-x="303" unicode="(" d="M68 249q0 419 220 517l57 -93q-146 -70 -146 -424t146 -424l-57 -93q-220 98 -220 517z"/>
<glyph glyph-name="parenright" horiz-adv-x="303" unicode=")" d="M235 249q0 -419 -220 -517l-58 93q146 70 146 424t-146 424l58 93q220 -98 220 -517z"/>
<glyph glyph-name="asterisk" horiz-adv-x="494" unicode="*" d="M30 479v100h129l-65 113l89 50l64 -112l64 112l89 -50l-66 -113h130v-100h-130l65 -113l-88 -49l-64 110l-64 -110l-89 50l65 112h-129z"/>
<glyph glyph-name="plus" horiz-adv-x="582" unicode="+" d="M48 303v118h183v184h119v-184h184v-118h-184v-184h-119v184h-183z"/>
<glyph glyph-name="comma" horiz-adv-x="285" unicode="," d="M236 103l-115 -262h-111l78 262h148z"/>
<glyph glyph-name="hyphen" horiz-adv-x="304" unicode="-" d="M29 222v118h246v-118h-246z"/>
<glyph glyph-name="hyphen" horiz-adv-x="304" unicode="­" d="M29 222v118h246v-118h-246z"/>
<glyph glyph-name="period" horiz-adv-x="285" unicode="." d="M141 143q48 0 64 -13t16 -57q0 -48 -16.5 -63t-63.5 -15q-45 0 -61 15t-16 63q0 44 15.5 57t61.5 13z"/>
<glyph glyph-name="slash" horiz-adv-x="467" unicode="/" d="M371 697h134l-356 -697h-134z"/>
<glyph glyph-name="zero" horiz-adv-x="626" unicode="0" d="M313 105q54 0 80.5 20t38.5 73t12 160q0 106 -12 156.5t-38 66.5t-81 16t-80.5 -16t-37.5 -66.5t-12 -156.5q0 -107 12 -160t38.5 -73t79.5 -20zM313 714q91 0 146 -29.5t85.5 -109t30.5 -217.5q0 -141 -30 -223.5t-85.5 -115.5t-146.5 -33q-136 0 -199 82.5t-63 289.5 q0 138 30.5 217.5t85.5 109t146 29.5z"/>
<glyph glyph-name="one" horiz-adv-x="626" unicode="1" d="M410 0h-129v556l-156 -67l-37 108l322 129v-726z"/>
<glyph glyph-name="two" horiz-adv-x="626" unicode="2" d="M102 568l-28 114q103 32 222 32q136 0 197 -44.5t61 -160.5q0 -56 -10.5 -94t-48 -83.5t-98 -93t-171.5 -124.5h327v-114h-506v106q95 72 148 113.5t100 82t66 61t33.5 46.5t17 43t2.5 46q0 56 -28.5 76.5t-100.5 20.5q-109 0 -183 -27z"/>
<glyph glyph-name="three" horiz-adv-x="626" unicode="3" d="M193 310v112h96q65 0 91 19.5t26 69.5q0 49 -30 67t-120 18q-104 0 -175 -22l-26 114q120 26 226 26q147 0 205.5 -41t58.5 -137q0 -77 -31 -118t-118 -49q93 -4 128 -49.5t35 -131.5q0 -112 -64.5 -157t-215.5 -45q-117 0 -229 25l25 114q71 -20 178 -20 q98 0 130.5 21.5t32.5 79.5q0 59 -28 81.5t-96 22.5h-99z"/>
<glyph glyph-name="four" horiz-adv-x="622" unicode="4" d="M365 288v295q-92 -121 -188 -295h188zM365 179h-348v41q164 294 298 477h176v-409h93v-109h-93v-179h-126v179z"/>
<glyph glyph-name="five" horiz-adv-x="626" unicode="5" d="M96 697h432v-114h-307v-155q52 4 83 4q145 0 200.5 -49t55.5 -168q0 -131 -61 -180t-213 -49q-118 0 -222 25l26 114q66 -20 171 -20q95 0 125.5 20.5t30.5 82.5q0 67 -28 89.5t-122 22.5q-98 0 -171 -14v391z"/>
<glyph glyph-name="six" horiz-adv-x="626" unicode="6" d="M323 105q74 0 99 22t25 81q0 62 -25 87t-100 25q-63 0 -129 -10q2 -124 31 -164.5t99 -40.5zM562 687l-29 -116q-61 23 -164 23q-88 0 -129.5 -35t-44.5 -138q63 11 132 11q145 0 201.5 -49t56.5 -168q0 -131 -58 -180t-204 -49q-151 0 -210 78.5t-59 289.5 q0 107 17 176.5t56.5 110.5t96.5 57t145 16q102 0 193 -27z"/>
<glyph glyph-name="seven" horiz-adv-x="626" unicode="7" d="M602 697v-40q-69 -110 -161 -310.5t-141 -346.5h-149q59 161 137 328.5t139 254.5h-360v114h535z"/>
<glyph glyph-name="eight" horiz-adv-x="626" unicode="8" d="M313 -14q-143 0 -202.5 45.5t-59.5 156.5q0 86 34.5 131.5t128.5 49.5q-87 8 -117.5 49t-30.5 118q0 95 53 136.5t194 41.5t194 -41.5t53 -136.5q0 -77 -30.5 -118t-117.5 -49q94 -4 128.5 -49.5t34.5 -131.5q0 -111 -59 -156.5t-203 -45.5zM313 417q60 0 86.5 22.5 t26.5 75.5q0 51 -25 70t-88 19q-64 0 -89 -19t-25 -70q0 -53 26.5 -75.5t87.5 -22.5zM313 94q71 0 98 23.5t27 83.5q0 61 -28 87t-97 26t-96.5 -26t-27.5 -87t26.5 -84t97.5 -23z"/>
<glyph glyph-name="nine" horiz-adv-x="626" unicode="9" d="M323 380q62 0 108 7q9 35 9 72q0 87 -25.5 112t-101.5 25q-74 0 -99 -25t-25 -87q0 -65 25 -84.5t109 -19.5zM171 0q167 158 225 273q-40 -5 -87 -5q-146 0 -202 46t-56 164q0 132 58.5 184t203.5 52q157 0 211.5 -50t54.5 -191q0 -137 -65 -249.5t-179 -223.5h-164z"/>
<glyph glyph-name="colon" horiz-adv-x="285" unicode=":" d="M141 515q48 0 64 -13t16 -58q0 -48 -16.5 -62.5t-63.5 -14.5q-45 0 -61 14.5t-16 62.5q0 45 15.5 58t61.5 13zM141 143q48 0 64 -13t16 -57q0 -48 -16.5 -63t-63.5 -15q-45 0 -61 15t-16 63q0 44 15.5 57t61.5 13z"/>
<glyph glyph-name="semicolon" horiz-adv-x="285" unicode=";" d="M141 515q48 0 64 -13t16 -58q0 -48 -16.5 -62.5t-63.5 -14.5q-45 0 -61 14.5t-16 62.5q0 45 15.5 58t61.5 13zM236 103l-115 -262h-111l78 262h148z"/>
<glyph glyph-name="less" horiz-adv-x="582" unicode="&lt;" d="M515 587l-268 -225l268 -227l-65 -90l-366 285v61l364 284z"/>
<glyph glyph-name="equal" horiz-adv-x="582" unicode="=" d="M48 435v118h486v-118h-486zM48 168v118h486v-118h-486z"/>
<glyph glyph-name="greater" horiz-adv-x="582" unicode="&gt;" d="M85 134l268 225l-268 228l65 89l365 -285v-61l-364 -284z"/>
<glyph glyph-name="question" horiz-adv-x="493" unicode="?" d="M300 215h-130q79 84 113.5 149.5t34.5 142.5q0 44 -27 65.5t-94 21.5q-90 0 -143 -21l-27 116q80 25 181 25q137 0 198 -49.5t61 -152.5q0 -80 -41.5 -149t-125.5 -148zM235 143q48 0 64 -13t16 -57q0 -48 -16.5 -62.5t-63.5 -14.5q-45 0 -61 14.5t-16 62.5q0 44 15.5 57 t61.5 13z"/>
<glyph glyph-name="at" horiz-adv-x="939" unicode="@" d="M471 342q-57 0 -76.5 -13.5t-19.5 -60.5t19.5 -62.5t77.5 -15.5q53 0 73 20t20 78v47q-36 7 -94 7zM429 528q-80 0 -125.5 -9t-78 -37.5t-44 -78.5t-11.5 -135q0 -86 12.5 -137t48.5 -82t90.5 -41.5t147.5 -10.5q179 0 241.5 62t62.5 242q0 129 -22 187h113 q20 -68 20 -191q0 -228 -95.5 -316t-318.5 -88q-114 0 -189 17t-128 59.5t-76 114.5t-23 182q0 107 24 179.5t74.5 112.5t115 56.5t157.5 16.5q74 0 118 -10t77 -40t46.5 -84.5t13.5 -143.5q0 -85 -10 -134.5t-38 -78t-66.5 -37t-107.5 -8.5q-117 0 -160.5 35t-43.5 134 q0 101 40.5 133.5t145.5 32.5q78 0 125 -10q-1 63 -29 85.5t-107 22.5z"/>
<glyph glyph-name="A" horiz-adv-x="682" unicode="A" d="M353 585h-27q-49 -127 -108 -298h232q-54 153 -97 298zM555 0q-44 110 -67 174h-305q-23 -71 -54 -174h-138q107 341 252 697h207q128 -403 251 -697h-146z"/>
<glyph glyph-name="B" horiz-adv-x="712" unicode="B" d="M489 369q93 -4 126.5 -48t33.5 -130q0 -191 -180 -191h-381v697h375q98 0 134.5 -41.5t36.5 -125.5q0 -77 -29 -115t-116 -46zM220 585v-166h214q60 0 60 84q0 43 -13.5 62.5t-46.5 19.5h-214zM220 111h220q67 0 67 98q0 103 -71 103h-216v-201z"/>
<glyph glyph-name="C" horiz-adv-x="592" unicode="C" d="M53 355q0 106 19.5 176t62 110.5t100.5 56.5t145 16q106 0 200 -26l-29 -116q-61 22 -148 22q-63 0 -98 -7.5t-62.5 -32.5t-38 -72.5t-10.5 -127.5t10.5 -128.5t37.5 -75t63 -35t98 -8.5q87 0 148 22l29 -118q-90 -25 -200 -25q-115 0 -184 32.5t-106 114.5t-37 222z"/>
<glyph glyph-name="D" horiz-adv-x="736" unicode="D" d="M542 350q0 78 -9 123t-34.5 70t-60.5 32.5t-97 7.5h-121v-469h121q81 0 122 18t60 68.5t19 149.5zM88 697h266q86 0 145 -16t101.5 -55t62.5 -106.5t20 -168.5q0 -196 -78.5 -273.5t-250.5 -77.5h-266v697z"/>
<glyph glyph-name="E" horiz-adv-x="620" unicode="E" d="M88 697h506v-114h-374v-161h267v-113h-267v-195h374v-114h-506v697z"/>
<glyph glyph-name="F" horiz-adv-x="584" unicode="F" d="M88 697h496v-114h-364v-197h267v-113h-267v-273h-132v697z"/>
<glyph glyph-name="G" horiz-adv-x="700" unicode="G" d="M493 116v180h-152v111h287v-391q-95 -30 -248 -30q-115 0 -184 32.5t-106 114.5t-37 222q0 106 21.5 176.5t67 110.5t107 56t150.5 16q116 0 210 -26l-27 -115q-60 21 -173 21q-52 0 -83.5 -4.5t-59.5 -18t-42 -40.5t-22 -69.5t-8 -107.5q0 -80 10.5 -129t37.5 -75.5 t63.5 -35t97.5 -8.5q48 0 90 10z"/>
<glyph glyph-name="H" horiz-adv-x="736" unicode="H" d="M220 309v-309h-132v697h132v-266h298v266h130v-697h-130v309h-298z"/>
<glyph glyph-name="I" horiz-adv-x="308" unicode="I" d="M88 697h132v-697h-132v697z"/>
<glyph glyph-name="J" horiz-adv-x="461" unicode="J" d="M375 697l1 -505q0 -206 -212 -206q-84 0 -158 27l26 118q53 -21 119 -21q91 0 91 99v488h133z"/>
<glyph glyph-name="K" horiz-adv-x="662" unicode="K" d="M675 0h-162q-97 160 -177.5 257t-114.5 111q37 26 112 115t160 214h160q-87 -123 -159 -208.5t-104 -111.5q33 -22 112.5 -122t172.5 -255zM220 697v-697h-132v697h132z"/>
<glyph glyph-name="L" horiz-adv-x="551" unicode="L" d="M88 697h132v-582h329v-115h-461v697z"/>
<glyph glyph-name="M" horiz-adv-x="916" unicode="M" d="M464 251q81 215 193 446h171v-697h-129v519q-82 -180 -194 -455h-103q-130 330 -187 455v-519h-127v697h180q100 -206 196 -446z"/>
<glyph glyph-name="N" horiz-adv-x="774" unicode="N" d="M685 697v-697h-161q-143 265 -307 525v-525h-129v697h173q151 -238 293 -503v503h131z"/>
<glyph glyph-name="O" horiz-adv-x="770" unicode="O" d="M385 105q48 0 78.5 6t54 20.5t35.5 43.5t17.5 71t5.5 107q0 81 -7.5 127t-31 72.5t-57.5 34.5t-95 8t-95 -8t-57.5 -34.5t-31 -72.5t-7.5 -127q0 -65 5.5 -107t17.5 -71t35.5 -43.5t54 -20.5t78.5 -6zM385 714q87 0 146 -16.5t102 -56.5t63 -110.5t20 -175.5 q0 -107 -20 -179t-63 -113.5t-102.5 -59t-145.5 -17.5q-87 0 -146.5 17.5t-102.5 59t-63 113.5t-20 179q0 105 20 175.5t63.5 110.5t102.5 56.5t146 16.5z"/>
<glyph glyph-name="P" horiz-adv-x="673" unicode="P" d="M220 0h-132v697h363q194 0 194 -239q0 -98 -48 -163t-143 -65h-234v-230zM220 340h194q86 0 86 119q0 126 -83 126h-197v-245z"/>
<glyph glyph-name="Q" horiz-adv-x="783" unicode="Q" d="M391 105q49 0 79.5 6t54 20.5t35.5 43.5t17.5 71t5.5 107q0 107 -17 157.5t-55 67.5t-120 17q-49 0 -79 -5t-53.5 -19t-35 -42t-17 -69.5t-5.5 -106.5q0 -81 7.5 -127.5t30.5 -74.5t57 -37t95 -9zM391 714q87 0 146 -16.5t102.5 -56.5t63.5 -110.5t20 -175.5 q0 -162 -48 -241.5t-147 -98.5q71 -19 207 -207h-154q-55 84 -105.5 129t-86.5 49q-86 0 -145 17.5t-101.5 59.5t-62.5 114t-20 178q0 105 20 175.5t63 110.5t102 56.5t146 16.5z"/>
<glyph glyph-name="R" horiz-adv-x="706" unicode="R" d="M462 303q36 -13 88.5 -81.5t144.5 -221.5h-163q-80 141 -132.5 203.5t-86.5 62.5h-93v-266h-132v697h363q194 0 194 -203q0 -184 -183 -191zM220 585v-210h197q81 0 81 102q0 108 -78 108h-200z"/>
<glyph glyph-name="S" horiz-adv-x="622" unicode="S" d="M559 683l-29 -114q-70 25 -184 25q-85 0 -121 -20.5t-36 -70.5q0 -42 30.5 -61t122.5 -28q123 -13 178.5 -62t55.5 -147q0 -120 -72.5 -169.5t-228.5 -49.5q-126 0 -217 31l29 114q79 -25 186 -25q86 0 123.5 20t37.5 72q0 43 -32.5 66t-126.5 31q-119 12 -172.5 55 t-53.5 137q0 120 73.5 173.5t223.5 53.5q118 0 213 -31z"/>
<glyph glyph-name="T" horiz-adv-x="609" unicode="T" d="M371 0h-133v583h-235v114h603v-114h-235v-583z"/>
<glyph glyph-name="U" horiz-adv-x="742" unicode="U" d="M663 697l1 -486q0 -129 -72.5 -177t-220.5 -48t-220.5 48t-72.5 177v486h133v-466q0 -70 35.5 -97t124.5 -27q88 0 124.5 26.5t36.5 97.5v466h131z"/>
<glyph glyph-name="V" horiz-adv-x="648" unicode="V" d="M-19 697h146q116 -280 199 -563q96 236 192 563h139q-106 -346 -255 -697h-169q-128 415 -252 697z"/>
<glyph glyph-name="W" horiz-adv-x="975" unicode="W" d="M493 478q-38 -185 -128 -478h-167q-111 447 -200 697h144q81 -243 150 -533q102 337 140 533h122q106 -380 137 -533q83 258 145 533h136q-87 -357 -202 -697h-168q-39 207 -109 478z"/>
<glyph glyph-name="X" horiz-adv-x="674" unicode="X" d="M169 697q74 -95 175 -230q97 135 160 230h162q-105 -154 -241 -342q179 -248 252 -355h-164q-98 141 -170 241q-127 -167 -185 -241h-162q102 127 266 352q-162 218 -262 345h169z"/>
<glyph glyph-name="Y" horiz-adv-x="638" unicode="Y" d="M134 697q89 -111 194 -266q112 150 184 266h160q-131 -197 -281 -396v-301h-132v300q-177 251 -297 397h172z"/>
<glyph glyph-name="Z" horiz-adv-x="621" unicode="Z" d="M17 0v32q184 250 382 551h-360v114h565v-30q-80 -129 -193 -293t-189 -260h375v-114h-580z"/>
<glyph glyph-name="bracketleft" horiz-adv-x="341" unicode="[" d="M90 755h270v-108h-141v-800h141v-107h-270v1015z"/>
<glyph glyph-name="backslash" horiz-adv-x="467" unicode="\" d="M-29 697h134l356 -697h-134z"/>
<glyph glyph-name="bracketright" horiz-adv-x="341" unicode="]" d="M-19 755h270v-1015h-270v107h141v800h-141v108z"/>
<glyph glyph-name="asciicircum" horiz-adv-x="531" unicode="^" d="M384 296l-121 266l-119 -266h-131l192 401h119l194 -401h-134z"/>
<glyph glyph-name="underscore" horiz-adv-x="470" unicode="_" d="M29 -166v118h412v-118h-412z"/>
<glyph glyph-name="grave" horiz-adv-x="481" unicode="`" d="M347 568h-110l-144 129h132z"/>
<glyph glyph-name="a" horiz-adv-x="560" unicode="a" d="M375 98v127q-42 9 -101 9q-56 0 -75.5 -13t-19.5 -60q0 -51 18 -65.5t76 -14.5q53 0 102 17zM494 326v-300q-102 -40 -230 -40q-122 0 -168.5 35.5t-46.5 134.5q0 100 49.5 133.5t150.5 33.5q59 0 126 -14q0 68 -24 89.5t-103 21.5q-84 0 -154 -25l-23 102q102 27 203 27 q117 0 168.5 -43.5t51.5 -154.5z"/>
<glyph glyph-name="b" d="M69 23v699h124v-232q56 34 132 34q110 0 160.5 -58.5t50.5 -207.5q0 -153 -57 -212.5t-187 -59.5t-223 37zM193 367v-263q42 -16 99 -16q69 0 93 31.5t24 136.5q0 93 -24.5 126t-90.5 33q-43 0 -72 -13t-29 -35z" unicode="b"/>
<glyph glyph-name="c" horiz-adv-x="470" unicode="c" d="M430 118l28 -106q-65 -26 -155 -26q-124 0 -188 61t-64 210q0 148 64 207.5t188 59.5q90 0 155 -24l-28 -106q-59 22 -118 22q-49 0 -75.5 -10.5t-42 -46t-15.5 -104.5q0 -96 30.5 -128.5t102.5 -32.5q59 0 118 24z"/>
<glyph glyph-name="d" d="M518 722v-699q-92 -37 -222 -37q-131 0 -188 58.5t-57 210.5q0 147 56 208t165 61q70 0 122 -29v227h124zM394 107v263q0 22 -28.5 35.5t-71.5 13.5q-66 0 -90.5 -34t-24.5 -128q0 -101 24.5 -133t92.5 -32q55 0 98 15z" unicode="d"/>
<glyph glyph-name="e" horiz-adv-x="552" unicode="e" d="M295 426q-59 0 -83 -23t-30 -86h214q-3 66 -24.5 87.5t-76.5 21.5zM456 112l20 -98q-84 -28 -178 -28q-119 0 -183 61.5t-64 209.5q0 146 59.5 206.5t177.5 60.5q80 0 126.5 -20.5t71.5 -78.5t25 -163q0 -26 -1 -40h-329q1 -78 31 -104.5t101 -26.5q73 0 143 21z"/>
<glyph glyph-name="f" horiz-adv-x="376" unicode="f" d="M214 536v-27h165v-108h-165v-401h-124v401h-85v108h85v34q0 102 49.5 141.5t135.5 39.5q74 0 140 -22l-28 -98q-42 14 -92 14q-40 0 -60.5 -18t-20.5 -64z"/>
<glyph glyph-name="g" d="M394 21q-54 -33 -129 -33q-111 0 -162.5 58t-51.5 207q0 152 57.5 211.5t187.5 59.5q131 0 222 -38v-447q0 -73 -19 -122t-57 -74.5t-84.5 -36t-111.5 -10.5q-101 0 -179 30l25 100q78 -25 153 -25t112 26.5t37 93.5zM394 143v262q-45 17 -98 17q-69 0 -93 -31.5 t-24 -136.5q0 -94 24 -126.5t90 -32.5q43 0 72 13t29 35z" unicode="g"/>
<glyph glyph-name="h" horiz-adv-x="583" unicode="h" d="M333 524q64 0 101.5 -17.5t60 -69t22.5 -144.5v-293h-124v283q0 67 -22.5 98t-79.5 31q-41 0 -69.5 -12t-28.5 -33v-367h-124v722h124v-233q68 35 140 35z"/>
<glyph glyph-name="i" horiz-adv-x="262" unicode="i" d="M132 721q42 0 56.5 -11.5t14.5 -49.5q0 -43 -14.5 -56t-56.5 -13q-43 0 -57.5 13t-14.5 56q0 38 14.5 49.5t57.5 11.5zM193 509v-509h-124v509h124z"/>
<glyph glyph-name="j" horiz-adv-x="262" unicode="j" d="M132 721q42 0 56.5 -11.5t14.5 -49.5q0 -43 -14.5 -56t-56.5 -13q-43 0 -57.5 13t-14.5 56q0 38 14.5 49.5t57.5 11.5zM-16 -203v103q44 0 64.5 18.5t20.5 67.5v523h124v-520q0 -109 -50 -150.5t-159 -41.5z"/>
<glyph glyph-name="k" horiz-adv-x="551" unicode="k" d="M552 0h-146q-174 252 -213 269v-269h-124v722h124v-453q49 40 197 240h147q-139 -188 -195 -231q22 -13 78 -86t132 -192z"/>
<glyph glyph-name="l" horiz-adv-x="268" unicode="l" d="M193 722v-579q0 -68 39 -120l-109 -47q-54 62 -54 162v584h124z"/>
<glyph glyph-name="m" horiz-adv-x="881" unicode="m" d="M193 400v-400h-124v480q114 44 235 44q86 0 130 -34q93 34 181 34q109 0 154.5 -52.5t45.5 -187.5v-284h-124v271q0 85 -20.5 113t-81.5 28q-53 0 -99 -14q14 -47 14 -114v-284h-124v271q0 85 -20.5 113t-81.5 28q-42 0 -85 -12z"/>
<glyph glyph-name="n" horiz-adv-x="583" unicode="n" d="M193 400v-400h-124v480q114 44 241 44q110 0 158.5 -53t48.5 -187v-284h-124v271q0 85 -21.5 113t-87.5 28q-46 0 -91 -12z"/>
<glyph glyph-name="o" d="M293 424q-68 0 -91 -31.5t-23 -137.5q0 -103 23.5 -136t90.5 -33q68 0 92 33t24 136q0 73 -11 109t-34.5 48t-70.5 12zM293 -14q-127 0 -184.5 59.5t-57.5 211.5q0 150 58 208.5t184 58.5q128 0 186 -58.5t58 -208.5q0 -152 -58 -211.5t-186 -59.5z" unicode="o"/>
<glyph glyph-name="p" d="M69 -192v678q91 38 223 38q130 0 187 -58.5t57 -210.5q0 -148 -56 -208.5t-165 -60.5q-64 0 -122 29v-207h-124zM193 402v-262q0 -22 29 -35.5t71 -13.5q66 0 91 34t25 127q0 102 -24.5 133.5t-92.5 31.5q-60 0 -99 -15z" unicode="p"/>
<glyph glyph-name="q" d="M518 486v-678h-124v212q-56 -34 -132 -34q-110 0 -160.5 58.5t-50.5 208.5q0 152 57.5 211.5t187.5 59.5q131 0 222 -38zM394 143v262q-45 17 -98 17q-69 0 -93 -31.5t-24 -136.5q0 -94 24 -126.5t90 -32.5q43 0 72 13t29 35z" unicode="q"/>
<glyph glyph-name="r" horiz-adv-x="379" unicode="r" d="M69 0v509h124v-38q34 53 130 53q25 0 52 -3v-118q-31 7 -65 7q-49 0 -83 -15t-34 -42v-353h-124z"/>
<glyph glyph-name="s" horiz-adv-x="491" unicode="s" d="M434 496l-27 -97q-74 24 -148 24q-51 0 -71.5 -11t-20.5 -48q0 -26 21.5 -37.5t83.5 -17.5q95 -10 136 -44t41 -109q0 -94 -56 -132t-162 -38t-182 27l26 98q68 -24 151 -24q55 0 77.5 12t22.5 50q0 28 -22.5 41.5t-86.5 19.5q-89 7 -130.5 38.5t-41.5 106.5 q0 93 56.5 131t161.5 38q87 0 171 -28z"/>
<glyph glyph-name="t" horiz-adv-x="415" unicode="t" d="M388 401h-169v-219q0 -49 16.5 -69t60.5 -20q43 0 87 14l22 -98q-64 -23 -140 -23q-91 0 -130.5 38.5t-39.5 146.5v230h-85v108h85v86l124 51v-137h169v-108z"/>
<glyph glyph-name="u" horiz-adv-x="583" unicode="u" d="M390 110v399h124v-480q-116 -44 -241 -44q-110 0 -158.5 53t-48.5 187v284h124v-271q0 -85 21.5 -113t86.5 -28q49 0 92 13z"/>
<glyph glyph-name="v" horiz-adv-x="511" unicode="v" d="M255 125q84 222 126 384h126q-69 -232 -183 -509h-153q-84 298 -171 509h129q67 -171 126 -384z"/>
<glyph glyph-name="w" horiz-adv-x="830" unicode="w" d="M415 341q-38 -170 -98 -341h-153q-78 281 -164 509h131q65 -174 116 -382q26 75 60 193.5t50 188.5h121q56 -167 103 -382q80 220 118 382h126q-74 -264 -174 -509h-154q-37 192 -82 341z"/>
<glyph glyph-name="x" horiz-adv-x="521" unicode="x" d="M516 0h-140q-37 61 -107 161q-64 -87 -125 -161h-138q77 90 198 254q-113 157 -197 255h148q53 -66 117 -156q40 55 105 156h138q-75 -113 -175 -251q98 -138 176 -258z"/>
<glyph glyph-name="y" horiz-adv-x="511" unicode="y" d="M180 -25q-83 299 -180 534h129q68 -170 126 -386q85 226 126 386h126q-72 -245 -193 -530q-42 -100 -79 -171h-138q37 66 83 167z"/>
<glyph glyph-name="z" horiz-adv-x="497" unicode="z" d="M35 509h439v-25q-53 -85 -131.5 -197.5t-130.5 -178.5h255v-108h-449v25q70 88 148 199.5t118 176.5h-249v108z"/>
<glyph glyph-name="braceleft" horiz-adv-x="338" unicode="{" d="M31 198v102q110 0 110 201q0 211 164 266l59 -93q-54 -19 -78.5 -63.5t-24.5 -149.5t-27 -153.5t-61 -58.5q34 -10 61 -59.5t27 -154.5q0 -106 24 -149.5t79 -63.5l-59 -92q-164 55 -164 267q0 201 -110 201z"/>
<glyph glyph-name="bar" horiz-adv-x="371" unicode="|" d="M120 755h131v-1011h-131v1011z"/>
<glyph glyph-name="braceright" horiz-adv-x="338" unicode="}" d="M307 198q-110 0 -110 -201q0 -211 -164 -266q-10 15 -29.5 46t-29.5 47q54 19 78.5 63.5t24.5 149.5q0 104 27 153t61 59q-34 10 -61 59.5t-27 154.5t-24 149t-79 63q10 15 29.5 45.5t29.5 46.5q164 -55 164 -266q0 -201 110 -201v-102z"/>
<glyph glyph-name="asciitilde" horiz-adv-x="582" unicode="~" d="M466 445l80 -63q-19 -51 -59 -83t-94 -32q-40 0 -115 43t-104 43q-38 0 -64 -60l-72 69q57 97 137 97q47 0 122 -41.5t101 -41.5q23 0 38.5 15t29.5 54z"/>
<glyph glyph-name="nbspace" horiz-adv-x="266" unicode=" "/>
<glyph glyph-name="exclamdown" horiz-adv-x="332" unicode="¡" d="M166 376q-47 0 -63 13t-16 57q0 48 16.5 63t62.5 15q45 0 61.5 -15t16.5 -63q0 -44 -16 -57t-62 -13zM244 -178h-154l32 474h90z"/>
<glyph glyph-name="cent" horiz-adv-x="458" unicode="¢" d="M170 380q0 -70 18 -104.5t56 -45.5v301q-39 -10 -56.5 -44t-17.5 -107zM244 751h98v-104q63 -5 107 -21l-28 -98q-31 14 -79 16v-328q47 3 79 18l28 -96q-41 -18 -107 -24v-121h-98v121q-95 13 -144 75.5t-49 193.5q0 129 49.5 190t143.5 72v106z"/>
<glyph glyph-name="sterling" horiz-adv-x="610" unicode="£" d="M36 293v105h59v79q0 119 67.5 177.5t211.5 58.5q123 0 213 -31l-29 -113q-72 24 -184 24q-82 0 -114.5 -25t-32.5 -83v-87h197v-105h-197v-179h339v-114h-471v293h-59z"/>
<glyph glyph-name="currency" horiz-adv-x="674" unicode="¤" d="M342 515q-48 0 -71 -10t-35.5 -45t-12.5 -108q0 -101 25 -132t94 -31q70 0 95.5 31t25.5 132q0 55 -6 87.5t-22 49t-36 21.5t-57 5zM342 83q-64 0 -104 17l-80 -100l-104 75l80 103q-34 61 -34 177q0 108 31 168l-77 102l114 72l70 -93q40 17 104 17t102 -15l61 91 l114 -71l-68 -97q35 -61 35 -174q0 -115 -35 -177l74 -103l-112 -75l-70 98q-42 -15 -101 -15z"/>
<glyph glyph-name="yen" horiz-adv-x="638" unicode="¥" d="M81 278v92h128q-145 202 -247 327h172q89 -111 194 -266q112 150 184 266h160q-105 -159 -230 -327h120v-92h-171v-78h171v-92h-171v-108h-132v108h-178v92h178v78h-178z"/>
<glyph glyph-name="brokenbar" horiz-adv-x="371" unicode="¦" d="M120 111h131v-367h-131v367zM120 755h131v-367h-131v367z"/>
<glyph glyph-name="section" horiz-adv-x="622" unicode="§" d="M195 334q-18 -23 -18 -57q0 -40 34 -58t134 -27q49 -3 87 -16q18 23 18 57q0 40 -34 58.5t-134 26.5q-59 5 -87 16zM551 684l-27 -108q-68 24 -176 24q-80 0 -116 -20.5t-36 -67.5q0 -38 29.5 -55.5t118.5 -25.5q120 -12 179.5 -57t59.5 -134q0 -63 -46 -119 q36 -39 36 -108q0 -216 -294 -216q-116 0 -203 30l27 108q63 -24 176 -24q81 0 116.5 20.5t35.5 66.5q0 38 -29.5 56t-117.5 26q-120 12 -179.5 57t-59.5 133q0 68 43 122q-33 39 -33 105q0 217 294 217q115 0 202 -30z"/>
<glyph glyph-name="dieresis" horiz-adv-x="462" unicode="¨" d="M333 681q35 0 47 -10t12 -45q0 -38 -12.5 -50t-46.5 -12q-36 0 -48 11.5t-12 50.5q0 35 12 45t48 10zM119 681q35 0 47.5 -10t12.5 -45q0 -38 -12.5 -50t-47.5 -12t-47 11.5t-12 50.5q0 35 12 45t47 10z"/>
<glyph glyph-name="copyright" horiz-adv-x="837" unicode="©" d="M548 246l23 -89q-59 -22 -130 -22q-112 0 -160.5 46t-48.5 172t48.5 170.5t160.5 44.5q73 0 130 -19l-23 -90q-42 16 -101 16t-80.5 -23t-21.5 -100q0 -74 22 -99t80 -25t101 18zM418 78q74 0 118 10t75.5 40.5t43.5 84t12 141.5t-12 140t-44 81t-75 38t-118 9 q-74 0 -117 -9t-75 -38t-44 -81t-12 -140t12 -141.5t43.5 -84t75.5 -40.5t117 -10zM418 714q93 0 157 -16.5t111 -56.5t69 -110.5t22 -175.5q0 -208 -86 -288.5t-273 -80.5q-93 0 -157 17.5t-110.5 59t-68.5 113.5t-22 179q0 105 22 175.5t69 110.5t110.5 56.5t156.5 16.5z "/>
<glyph glyph-name="ordfeminine" horiz-adv-x="435" unicode="ª" d="M288 413v89q-27 7 -70 7q-35 0 -50.5 -10t-15.5 -41q0 -33 13.5 -45t51.5 -12q37 0 71 12zM375 577v-215q-74 -28 -165 -28q-86 0 -118 25t-32 95q0 71 34.5 94.5t105.5 23.5q45 0 88 -10q0 47 -17.5 62t-71.5 15q-60 0 -108 -16l-15 72q76 19 142 19q82 0 119.5 -30 t37.5 -107z"/>
<glyph glyph-name="guillemotleft" horiz-adv-x="668" unicode="«" d="M641 518l-176 -204l176 -208l-70 -75l-271 281l270 279zM368 518l-176 -204l176 -208l-70 -75l-271 281l270 279z"/>
<glyph glyph-name="logicalnot" horiz-adv-x="519" unicode="¬" d="M486 0h-131v311h-326v117h457v-428z"/>
<glyph glyph-name="registered" horiz-adv-x="571" unicode="®" d="M442 466q0 108 -32.5 141t-124.5 33q-90 0 -122.5 -33t-32.5 -141q0 -103 33.5 -138.5t121.5 -35.5q90 0 123.5 35.5t33.5 138.5zM524 466q0 -139 -56.5 -194t-182.5 -55t-182 55t-56 194q0 140 56 193.5t182 53.5q127 0 183 -53.5t56 -193.5zM330 508q0 28 -21 28h-54 v-58h54q21 0 21 30zM411 512q0 -44 -17 -62t-51 -18q44 -21 61 -98h-85q-5 27 -19.5 51.5t-25.5 24.5h-19v-76h-78v266h163q36 0 53.5 -24.5t17.5 -63.5z"/>
<glyph glyph-name="macron" horiz-adv-x="520" unicode="¯" d="M123 576v90h278v-90h-278z"/>
<glyph glyph-name="macron" horiz-adv-x="520" unicode="ˉ" d="M123 576v90h278v-90h-278z"/>
<glyph glyph-name="degree" horiz-adv-x="434" unicode="°" d="M217 349q43 0 57.5 27.5t14.5 113.5q0 85 -14.5 110.5t-57.5 25.5t-58 -25.5t-15 -110.5t15.5 -113t57.5 -28zM217 714q100 0 141 -47t41 -176q0 -131 -41.5 -181t-140.5 -50t-140.5 50t-41.5 181q0 129 41 176t141 47z"/>
<glyph glyph-name="plusminus" horiz-adv-x="582" unicode="±" d="M48 19v118h486v-118h-486zM48 380v118h183v184h119v-184h184v-118h-184v-184h-119v184h-183z"/>
<glyph glyph-name="twosuperior" horiz-adv-x="429" unicode="²" d="M67 601l-17 93q60 19 141 19q95 0 139 -30.5t44 -102.5q0 -104 -91 -136q-83 -29 -101 -43q-19 -15 -22 -38h215v-89h-339q7 97 39.5 143.5t103.5 76.5q45 17 66 34.5t21 43.5t-18.5 36t-64.5 10q-69 0 -116 -17z"/>
<glyph glyph-name="threesuperior" horiz-adv-x="423" unicode="³" d="M131 454v83h50q41 0 55 10t14 37q0 25 -16 33.5t-66 8.5q-65 0 -107 -14l-16 85q68 16 140 16q94 0 136.5 -25.5t42.5 -84.5q0 -49 -20.5 -74.5t-75.5 -29.5q58 -3 82 -30.5t24 -81.5q0 -68 -46.5 -96.5t-142.5 -28.5q-75 0 -143 17l16 85q49 -14 111 -14q53 0 71.5 11 t18.5 41q0 32 -15.5 42t-60.5 10h-52z"/>
<glyph glyph-name="acute" horiz-adv-x="481" unicode="´" d="M202 568h-109l121 129h133z"/>
<glyph glyph-name="mu" horiz-adv-x="583" unicode="µ" d="M181 -192h-121l6 405v296h124v-271q0 -74 21 -107.5t87 -33.5q47 0 92 13v399h124v-480q-113 -43 -241 -43q-62 0 -95 16z"/>
<glyph glyph-name="mu" horiz-adv-x="583" unicode="μ" d="M181 -192h-121l6 405v296h124v-271q0 -74 21 -107.5t87 -33.5q47 0 92 13v399h124v-480q-113 -43 -241 -43q-62 0 -95 16z"/>
<glyph glyph-name="paragraph" horiz-adv-x="673" unicode="¶" d="M584 0h-116v230h-86v-230h-117v230h-46q-95 0 -143 65t-48 163q0 239 193 239h363v-697z"/>
<glyph glyph-name="periodcentered" horiz-adv-x="297" unicode="·" d="M147 379q51 0 68.5 -14.5t17.5 -61.5q0 -52 -17.5 -68t-68.5 -16q-48 0 -65.5 16t-17.5 68q0 47 17.5 61.5t65.5 14.5z"/>
<glyph glyph-name="periodcentered" horiz-adv-x="297" unicode="∙" d="M147 379q51 0 68.5 -14.5t17.5 -61.5q0 -52 -17.5 -68t-68.5 -16q-48 0 -65.5 16t-17.5 68q0 47 17.5 61.5t65.5 14.5z"/>
<glyph glyph-name="cedilla" horiz-adv-x="641" unicode="¸" d="M330 0h49v-42q60 0 85 -17t25 -61q0 -47 -30.5 -65t-106.5 -18q-62 0 -98 16l22 54q24 -12 71 -12q23 0 32 5.5t9 20.5t-12.5 21t-44.5 6q-23 0 -37 -1z"/>
<glyph glyph-name="onesuperior" horiz-adv-x="377" unicode="¹" d="M263 278h-104v306l-95 -41l-27 88l226 94v-447z"/>
<glyph glyph-name="ordmasculine" horiz-adv-x="460" unicode="º" d="M229 635q-46 0 -61.5 -22t-15.5 -94q0 -70 16 -93t61 -23q46 0 62.5 23t16.5 93q0 72 -16 94t-63 22zM229 324q-88 0 -131 44.5t-43 151.5t43 150.5t131 43.5q90 0 133 -43.5t43 -150.5t-43 -151.5t-133 -44.5z"/>
<glyph glyph-name="guillemotright" horiz-adv-x="668" unicode="»" d="M27 105l177 204l-177 209l70 74l272 -280l-270 -280zM300 105l177 204l-177 209l70 74l272 -280l-270 -280z"/>
<glyph glyph-name="onequarter" horiz-adv-x="860" unicode="¼" d="M249 278h-105v306l-94 -41l-28 88l227 94v-447zM656 189v161q-67 -84 -110 -161h110zM656 98h-228v43q82 142 194 291h137v-243h57v-91h-57v-98h-103v98zM539 697h122l-430 -697h-122z"/>
<glyph glyph-name="onehalf" horiz-adv-x="860" unicode="½" d="M245 278h-105v306l-94 -41l-28 88l227 94v-447zM535 697h122l-430 -697h-122zM523 327l-17 93q60 19 141 19q95 0 139 -30.5t44 -102.5q0 -104 -91 -136q-83 -29 -101 -43q-19 -15 -22 -38h215v-89h-339q7 97 39.5 143.5t103.5 76.5q45 17 66 34.5t21 43.5t-18.5 36 t-64.5 10q-69 0 -116 -17z"/>
<glyph glyph-name="threequarters" horiz-adv-x="860" unicode="¾" d="M113 454v83h50q41 0 55 10t14 37q0 25 -16 33.5t-66 8.5q-65 0 -107 -14l-16 85q68 16 140 16q94 0 136.5 -25.5t42.5 -84.5q0 -49 -20.5 -74.5t-75.5 -29.5q58 -3 82 -30.5t24 -81.5q0 -68 -46.5 -96.5t-142.5 -28.5q-75 0 -143 17l16 85q49 -14 111 -14q53 0 71.5 11 t18.5 41q0 32 -15.5 42t-60.5 10h-52zM670 189v161q-65 -84 -110 -161h110zM670 98h-228v43q92 155 195 291h136v-243h58v-91h-58v-98h-103v98zM603 697h122l-431 -697h-122z"/>
<glyph glyph-name="questiondown" horiz-adv-x="493" unicode="¿" d="M194 305h130q-79 -84 -113.5 -149.5t-34.5 -142.5q0 -44 27 -65.5t94 -21.5q90 0 143 21l27 -116q-80 -25 -181 -25q-137 0 -198 49.5t-61 152.5q0 80 41.5 149t125.5 148zM259 377q-48 0 -64 13t-16 57q0 48 16.5 62.5t63.5 14.5q45 0 61 -14.5t16 -62.5 q0 -44 -15.5 -57t-61.5 -13z"/>
<glyph glyph-name="Agrave" horiz-adv-x="682" unicode="À" d="M436 747h-114l-158 129h137zM353 585h-27q-49 -127 -108 -298h232q-54 153 -97 298zM555 0q-44 110 -67 174h-305q-23 -71 -54 -174h-138q107 341 252 697h207q128 -403 251 -697h-146z"/>
<glyph glyph-name="Aacute" horiz-adv-x="682" unicode="Á" d="M356 747h-108l129 129h137zM353 585h-27q-49 -127 -108 -298h232q-54 153 -97 298zM555 0q-44 110 -67 174h-305q-23 -71 -54 -174h-138q107 341 252 697h207q128 -403 251 -697h-146z"/>
<glyph glyph-name="Acircumflex" horiz-adv-x="682" unicode="Â" d="M412 747l-72 78l-70 -78h-112l122 129h122l126 -129h-116zM353 585h-27q-49 -127 -108 -298h232q-54 153 -97 298zM555 0q-44 110 -67 174h-305q-23 -71 -54 -174h-138q107 341 252 697h207q128 -403 251 -697h-146z"/>
<glyph glyph-name="Atilde" horiz-adv-x="682" unicode="Ã" d="M462 879l61 -50q-15 -41 -46.5 -67t-73.5 -26q-31 0 -76 27t-67 27q-31 0 -51 -50l-56 55q45 79 107 79q37 0 82.5 -26t65.5 -26q18 0 30 12.5t24 44.5zM353 585h-27q-49 -127 -108 -298h232q-54 153 -97 298zM555 0q-44 110 -67 174h-305q-23 -71 -54 -174h-138 q107 341 252 697h207q128 -403 251 -697h-146z"/>
<glyph glyph-name="Adieresis" horiz-adv-x="682" unicode="Ä" d="M446 864q35 0 47 -10.5t12 -45.5q0 -38 -12 -49.5t-47 -11.5q-36 0 -48 11.5t-12 49.5q0 35 12 45.5t48 10.5zM233 864q35 0 47 -10.5t12 -45.5q0 -38 -12 -49.5t-47 -11.5t-47.5 11.5t-12.5 49.5q0 35 12.5 45.5t47.5 10.5zM353 585h-27q-49 -127 -108 -298h232 q-54 153 -97 298zM555 0q-44 110 -67 174h-305q-23 -71 -54 -174h-138q107 341 252 697h207q128 -403 251 -697h-146z"/>
<glyph glyph-name="Aring" horiz-adv-x="682" unicode="Å" d="M345 834q-29 0 -39.5 -10t-10.5 -33t10.5 -33t39.5 -10t39.5 10t10.5 33q0 24 -10 33.5t-40 9.5zM353 585h-27q-49 -127 -108 -298h232q-54 153 -97 298zM345 890q61 0 90 -22.5t29 -75.5q0 -83 -78 -95h64q128 -403 251 -697h-146q-44 110 -67 174h-305 q-23 -71 -54 -174h-138q107 341 252 697h60q-78 12 -78 95q0 54 28 76t92 22z"/>
<glyph glyph-name="AE" horiz-adv-x="969" unicode="Æ" d="M437 585h-28q-118 -163 -209 -298h237v298zM345 697h597v-114h-374v-161h222v-112h-222v-196h374v-114h-505v174h-311q-63 -95 -112 -174h-158q240 367 489 697z"/>
<glyph glyph-name="Ccedilla" horiz-adv-x="592" unicode="Ç" d="M53 355q0 106 19.5 176t62 110.5t100.5 56.5t145 16q106 0 200 -26l-29 -116q-61 22 -148 22q-63 0 -98 -7.5t-62.5 -32.5t-38 -72.5t-10.5 -127.5t10.5 -128.5t37.5 -75t63 -35t98 -8.5q87 0 148 22l29 -118q-88 -23 -194 -25v-28q60 0 85 -17t25 -61q0 -47 -30.5 -65 t-106.5 -18q-62 0 -98 16l22 54q24 -12 71 -12q23 0 32 5.5t9 20.5t-12.5 21t-44.5 6q-23 0 -37 -1l31 81q-146 9 -212.5 92t-66.5 275z"/>
<glyph glyph-name="Egrave" horiz-adv-x="620" unicode="È" d="M473 747h-114l-158 129h137zM88 697h506v-114h-374v-161h267v-113h-267v-195h374v-114h-506v697z"/>
<glyph glyph-name="Eacute" horiz-adv-x="620" unicode="É" d="M360 747h-108l129 129h137zM88 697h506v-114h-374v-161h267v-113h-267v-195h374v-114h-506v697z"/>
<glyph glyph-name="Ecircumflex" horiz-adv-x="620" unicode="Ê" d="M419 747l-72 78l-70 -78h-112l122 129h122l126 -129h-116zM88 697h506v-114h-374v-161h267v-113h-267v-195h374v-114h-506v697z"/>
<glyph glyph-name="Edieresis" horiz-adv-x="620" unicode="Ë" d="M454 864q35 0 47 -10.5t12 -45.5q0 -38 -12 -49.5t-47 -11.5q-36 0 -48 11.5t-12 49.5q0 35 12 45.5t48 10.5zM241 864q35 0 47 -10.5t12 -45.5q0 -38 -12 -49.5t-47 -11.5t-47.5 11.5t-12.5 49.5q0 35 12.5 45.5t47.5 10.5zM88 697h506v-114h-374v-161h267v-113h-267 v-195h374v-114h-506v697z"/>
<glyph glyph-name="Igrave" horiz-adv-x="308" unicode="Ì" d="M242 747h-114l-158 129h137zM88 697h132v-697h-132v697z"/>
<glyph glyph-name="Iacute" horiz-adv-x="308" unicode="Í" d="M178 747h-108l129 129h137zM88 697h132v-697h-132v697z"/>
<glyph glyph-name="Icircumflex" horiz-adv-x="308" unicode="Î" d="M224 747l-72 78l-70 -78h-112l122 129h122l126 -129h-116zM88 697h132v-697h-132v697z"/>
<glyph glyph-name="Idieresis" horiz-adv-x="308" unicode="Ï" d="M262 864q35 0 47 -10.5t12 -45.5q0 -38 -12 -49.5t-47 -11.5q-36 0 -48 11.5t-12 49.5q0 35 12 45.5t48 10.5zM49 864q35 0 47 -10.5t12 -45.5q0 -38 -12 -49.5t-47 -11.5t-47.5 11.5t-12.5 49.5q0 35 12.5 45.5t47.5 10.5zM88 697h132v-697h-132v697z"/>
<glyph glyph-name="Eth" horiz-adv-x="736" unicode="Ð" d="M542 350q0 78 -9 123t-34.5 69.5t-60 32t-97.5 7.5h-121v-179h159v-92h-159v-197h121q81 0 122 18t60 68.5t19 149.5zM36 311v92h52v294h266q86 0 145 -16t101.5 -55t62.5 -106.5t20 -168.5q0 -196 -78.5 -273.5t-250.5 -77.5h-266v311h-52z"/>
<glyph glyph-name="Ntilde" horiz-adv-x="774" unicode="Ñ" d="M515 879l61 -50q-15 -41 -46.5 -67t-73.5 -26q-31 0 -76 27t-67 27q-31 0 -51 -50l-56 55q45 79 107 79q37 0 82.5 -26t65.5 -26q18 0 30 12.5t24 44.5zM685 697v-697h-161q-143 265 -307 525v-525h-129v697h173q151 -238 293 -503v503h131z"/>
<glyph glyph-name="Ograve" horiz-adv-x="770" unicode="Ò" d="M484 747h-114l-158 129h137zM385 105q48 0 78.5 6t54 20.5t35.5 43.5t17.5 71t5.5 107q0 81 -7.5 127t-31 72.5t-57.5 34.5t-95 8t-95 -8t-57.5 -34.5t-31 -72.5t-7.5 -127q0 -65 5.5 -107t17.5 -71t35.5 -43.5t54 -20.5t78.5 -6zM385 714q87 0 146 -16.5t102 -56.5 t63 -110.5t20 -175.5q0 -107 -20 -179t-63 -113.5t-102.5 -59t-145.5 -17.5q-87 0 -146.5 17.5t-102.5 59t-63 113.5t-20 179q0 105 20 175.5t63.5 110.5t102.5 56.5t146 16.5z"/>
<glyph glyph-name="Oacute" horiz-adv-x="770" unicode="Ó" d="M360 747h-108l129 129h137zM385 105q48 0 78.5 6t54 20.5t35.5 43.5t17.5 71t5.5 107q0 81 -7.5 127t-31 72.5t-57.5 34.5t-95 8t-95 -8t-57.5 -34.5t-31 -72.5t-7.5 -127q0 -65 5.5 -107t17.5 -71t35.5 -43.5t54 -20.5t78.5 -6zM385 714q87 0 146 -16.5t102 -56.5 t63 -110.5t20 -175.5q0 -107 -20 -179t-63 -113.5t-102.5 -59t-145.5 -17.5q-87 0 -146.5 17.5t-102.5 59t-63 113.5t-20 179q0 105 20 175.5t63.5 110.5t102.5 56.5t146 16.5z"/>
<glyph glyph-name="Ocircumflex" horiz-adv-x="770" unicode="Ô" d="M453 747l-72 78l-70 -78h-112l122 129h122l126 -129h-116zM385 105q48 0 78.5 6t54 20.5t35.5 43.5t17.5 71t5.5 107q0 81 -7.5 127t-31 72.5t-57.5 34.5t-95 8t-95 -8t-57.5 -34.5t-31 -72.5t-7.5 -127q0 -65 5.5 -107t17.5 -71t35.5 -43.5t54 -20.5t78.5 -6zM385 714 q87 0 146 -16.5t102 -56.5t63 -110.5t20 -175.5q0 -107 -20 -179t-63 -113.5t-102.5 -59t-145.5 -17.5q-87 0 -146.5 17.5t-102.5 59t-63 113.5t-20 179q0 105 20 175.5t63.5 110.5t102.5 56.5t146 16.5z"/>
<glyph glyph-name="Otilde" horiz-adv-x="770" unicode="Õ" d="M507 879l61 -50q-15 -41 -46.5 -67t-73.5 -26q-31 0 -76 27t-67 27q-31 0 -51 -50l-56 55q45 79 107 79q37 0 82.5 -26t65.5 -26q18 0 30 12.5t24 44.5zM385 105q48 0 78.5 6t54 20.5t35.5 43.5t17.5 71t5.5 107q0 81 -7.5 127t-31 72.5t-57.5 34.5t-95 8t-95 -8 t-57.5 -34.5t-31 -72.5t-7.5 -127q0 -65 5.5 -107t17.5 -71t35.5 -43.5t54 -20.5t78.5 -6zM385 714q87 0 146 -16.5t102 -56.5t63 -110.5t20 -175.5q0 -107 -20 -179t-63 -113.5t-102.5 -59t-145.5 -17.5q-87 0 -146.5 17.5t-102.5 59t-63 113.5t-20 179q0 105 20 175.5 t63.5 110.5t102.5 56.5t146 16.5z"/>
<glyph glyph-name="Odieresis" horiz-adv-x="770" unicode="Ö" d="M490 864q35 0 47 -10.5t12 -45.5q0 -38 -12 -49.5t-47 -11.5q-36 0 -48 11.5t-12 49.5q0 35 12 45.5t48 10.5zM277 864q35 0 47 -10.5t12 -45.5q0 -38 -12 -49.5t-47 -11.5t-47.5 11.5t-12.5 49.5q0 35 12.5 45.5t47.5 10.5zM385 105q48 0 78.5 6t54 20.5t35.5 43.5 t17.5 71t5.5 107q0 81 -7.5 127t-31 72.5t-57.5 34.5t-95 8t-95 -8t-57.5 -34.5t-31 -72.5t-7.5 -127q0 -65 5.5 -107t17.5 -71t35.5 -43.5t54 -20.5t78.5 -6zM385 714q87 0 146 -16.5t102 -56.5t63 -110.5t20 -175.5q0 -107 -20 -179t-63 -113.5t-102.5 -59t-145.5 -17.5 q-87 0 -146.5 17.5t-102.5 59t-63 113.5t-20 179q0 105 20 175.5t63.5 110.5t102.5 56.5t146 16.5z"/>
<glyph glyph-name="multiply" horiz-adv-x="582" unicode="×" d="M161 149l-84 84l129 130l-130 129l84 84l130 -130l130 131l84 -85l-130 -130l130 -130l-84 -83l-130 130z"/>
<glyph glyph-name="Oslash" horiz-adv-x="770" unicode="Ø" d="M385 105q111 0 151.5 42t40.5 173q0 98 -14 157l-298 -346q35 -26 120 -26zM385 595q-76 0 -114.5 -15t-57.5 -60t-19 -134q0 -108 14 -168l301 351q-36 26 -124 26zM620 697h135l-88 -101q49 -82 49 -241q0 -107 -20 -179t-63 -113.5t-102.5 -59t-145.5 -17.5 q-135 0 -207 45l-27 -31h-134l88 101q-52 85 -52 254q0 105 20 175.5t63.5 110.5t102.5 56.5t146 16.5q138 0 210 -47z"/>
<glyph glyph-name="Ugrave" horiz-adv-x="742" unicode="Ù" d="M486 747h-114l-158 129h137zM663 697l1 -486q0 -129 -72.5 -177t-220.5 -48t-220.5 48t-72.5 177v486h133v-466q0 -70 35.5 -97t124.5 -27q88 0 124.5 26.5t36.5 97.5v466h131z"/>
<glyph glyph-name="Uacute" horiz-adv-x="742" unicode="Ú" d="M372 747h-108l129 129h137zM663 697l1 -486q0 -129 -72.5 -177t-220.5 -48t-220.5 48t-72.5 177v486h133v-466q0 -70 35.5 -97t124.5 -27q88 0 124.5 26.5t36.5 97.5v466h131z"/>
<glyph glyph-name="Ucircumflex" horiz-adv-x="742" unicode="Û" d="M438 747l-72 78l-70 -78h-112l122 129h122l126 -129h-116zM663 697l1 -486q0 -129 -72.5 -177t-220.5 -48t-220.5 48t-72.5 177v486h133v-466q0 -70 35.5 -97t124.5 -27q88 0 124.5 26.5t36.5 97.5v466h131z"/>
<glyph glyph-name="Udieresis" horiz-adv-x="742" unicode="Ü" d="M475 864q35 0 47 -10.5t12 -45.5q0 -38 -12 -49.5t-47 -11.5q-36 0 -48 11.5t-12 49.5q0 35 12 45.5t48 10.5zM262 864q35 0 47 -10.5t12 -45.5q0 -38 -12 -49.5t-47 -11.5t-47.5 11.5t-12.5 49.5q0 35 12.5 45.5t47.5 10.5zM663 697l1 -486q0 -129 -72.5 -177 t-220.5 -48t-220.5 48t-72.5 177v486h133v-466q0 -70 35.5 -97t124.5 -27q88 0 124.5 26.5t36.5 97.5v466h131z"/>
<glyph glyph-name="Yacute" horiz-adv-x="638" unicode="Ý" d="M334 747h-108l129 129h137zM134 697q89 -111 194 -266q112 150 184 266h160q-131 -197 -281 -396v-301h-132v300q-177 251 -297 397h172z"/>
<glyph glyph-name="Thorn" horiz-adv-x="673" unicode="Þ" d="M220 237h194q86 0 86 119q0 125 -83 125h-197v-244zM88 697h132v-103h231q194 0 194 -239q0 -98 -48 -163t-143 -65h-234v-127h-132v697z"/>
<glyph glyph-name="germandbls" horiz-adv-x="654" unicode="ß" d="M324 714q137 0 200 -42t63 -136q0 -77 -30 -118t-117 -49q93 -4 128 -49.5t35 -131.5q0 -112 -64.5 -157t-215.5 -45q-36 0 -69 3l14 108q32 -4 60 -4q80 0 108.5 24t28.5 84q0 63 -28.5 88t-98.5 25h-38v103h35q67 0 93 23.5t26 74.5q0 49 -28.5 68.5t-101.5 19.5 q-130 0 -130 -93v-510h-125v527q0 187 255 187z"/>
<glyph glyph-name="agrave" horiz-adv-x="560" unicode="à" d="M369 568h-110l-144 129h132zM375 98v127q-42 9 -101 9q-56 0 -75.5 -13t-19.5 -60q0 -51 18 -65.5t76 -14.5q53 0 102 17zM494 326v-300q-102 -40 -230 -40q-122 0 -168.5 35.5t-46.5 134.5q0 100 49.5 133.5t150.5 33.5q59 0 126 -14q0 68 -24 89.5t-103 21.5 q-84 0 -154 -25l-23 102q102 27 203 27q117 0 168.5 -43.5t51.5 -154.5z"/>
<glyph glyph-name="aacute" horiz-adv-x="560" unicode="á" d="M298 568h-109l121 129h133zM375 98v127q-42 9 -101 9q-56 0 -75.5 -13t-19.5 -60q0 -51 18 -65.5t76 -14.5q53 0 102 17zM494 326v-300q-102 -40 -230 -40q-122 0 -168.5 35.5t-46.5 134.5q0 100 49.5 133.5t150.5 33.5q59 0 126 -14q0 68 -24 89.5t-103 21.5 q-84 0 -154 -25l-23 102q102 27 203 27q117 0 168.5 -43.5t51.5 -154.5z"/>
<glyph glyph-name="acircumflex" horiz-adv-x="560" unicode="â" d="M467 568h-117l-71 76l-69 -76h-113l122 129h122zM375 98v127q-42 9 -101 9q-56 0 -75.5 -13t-19.5 -60q0 -51 18 -65.5t76 -14.5q53 0 102 17zM494 326v-300q-102 -40 -230 -40q-122 0 -168.5 35.5t-46.5 134.5q0 100 49.5 133.5t150.5 33.5q59 0 126 -14q0 68 -24 89.5 t-103 21.5q-84 0 -154 -25l-23 102q102 27 203 27q117 0 168.5 -43.5t51.5 -154.5z"/>
<glyph glyph-name="atilde" horiz-adv-x="560" unicode="ã" d="M394 702l62 -50q-33 -93 -117 -93q-31 0 -74.5 26.5t-66.5 26.5q-31 0 -52 -51l-56 55q46 81 109 81q37 0 79 -26.5t63 -26.5q18 0 29.5 12.5t23.5 45.5zM375 98v127q-42 9 -101 9q-56 0 -75.5 -13t-19.5 -60q0 -51 18 -65.5t76 -14.5q53 0 102 17zM494 326v-300 q-102 -40 -230 -40q-122 0 -168.5 35.5t-46.5 134.5q0 100 49.5 133.5t150.5 33.5q59 0 126 -14q0 68 -24 89.5t-103 21.5q-84 0 -154 -25l-23 102q102 27 203 27q117 0 168.5 -43.5t51.5 -154.5z"/>
<glyph glyph-name="adieresis" horiz-adv-x="560" unicode="ä" d="M380 681q35 0 47 -10t12 -45q0 -38 -12.5 -50t-46.5 -12q-36 0 -48 11.5t-12 50.5q0 35 12 45t48 10zM166 681q35 0 47.5 -10t12.5 -45q0 -38 -12.5 -50t-47.5 -12t-47 11.5t-12 50.5q0 35 12 45t47 10zM375 98v127q-42 9 -101 9q-56 0 -75.5 -13t-19.5 -60 q0 -51 18 -65.5t76 -14.5q53 0 102 17zM494 326v-300q-102 -40 -230 -40q-122 0 -168.5 35.5t-46.5 134.5q0 100 49.5 133.5t150.5 33.5q59 0 126 -14q0 68 -24 89.5t-103 21.5q-84 0 -154 -25l-23 102q102 27 203 27q117 0 168.5 -43.5t51.5 -154.5z"/>
<glyph glyph-name="aring" horiz-adv-x="560" unicode="å" d="M281 684q-30 0 -40 -9.5t-10 -33.5q0 -23 10.5 -33t39.5 -10t39.5 10t10.5 33q0 24 -10 33.5t-40 9.5zM281 741q61 0 90 -22.5t29 -75.5t-28.5 -75.5t-90.5 -22.5t-91 22.5t-29 75.5t28 75.5t92 22.5zM375 98v127q-42 9 -101 9q-56 0 -75.5 -13t-19.5 -60q0 -51 18 -65.5 t76 -14.5q53 0 102 17zM494 326v-300q-102 -40 -230 -40q-122 0 -168.5 35.5t-46.5 134.5q0 100 49.5 133.5t150.5 33.5q59 0 126 -14q0 68 -24 89.5t-103 21.5q-84 0 -154 -25l-23 102q102 27 203 27q117 0 168.5 -43.5t51.5 -154.5z"/>
<glyph glyph-name="ae" horiz-adv-x="868" unicode="æ" d="M611 426q-58 0 -82.5 -22.5t-30.5 -86.5h214q-3 66 -24.5 87.5t-76.5 21.5zM393 105q-20 48 -20 120q-41 9 -98 9q-56 0 -75.5 -13t-19.5 -60q0 -49 17 -64.5t77 -15.5q74 0 119 24zM772 112l20 -98q-84 -28 -178 -28q-96 0 -148 36q-75 -36 -202 -36q-122 0 -168.5 35.5 t-46.5 134.5q0 100 50 133.5t150 33.5q59 0 126 -14q0 68 -23.5 88.5t-103.5 20.5q-90 0 -154 -23l-23 102q102 27 203 27q128 0 169 -61q44 61 161 61q80 0 126.5 -20.5t71.5 -78.5t25 -163q0 -26 -1 -40h-329q1 -78 31 -104.5t101 -26.5q73 0 143 21z"/>
<glyph glyph-name="ccedilla" horiz-adv-x="470" unicode="ç" d="M430 118l28 -106q-63 -24 -149 -26v-28q60 0 85 -17t25 -61q0 -47 -30.5 -65t-106.5 -18q-62 0 -98 16l22 54q24 -12 71 -12q23 0 32 5.5t9 20.5t-12.5 21t-44.5 6q-23 0 -37 -1l31 82q-101 9 -152.5 71.5t-51.5 196.5q0 148 64 207.5t188 59.5q90 0 155 -24l-28 -106 q-59 22 -118 22q-49 0 -75.5 -10.5t-42 -46t-15.5 -104.5q0 -96 30.5 -128.5t102.5 -32.5q59 0 118 24z"/>
<glyph glyph-name="egrave" horiz-adv-x="552" unicode="è" d="M390 568h-110l-144 129h132zM295 426q-59 0 -83 -23t-30 -86h214q-3 66 -24.5 87.5t-76.5 21.5zM456 112l20 -98q-84 -28 -178 -28q-119 0 -183 61.5t-64 209.5q0 146 59.5 206.5t177.5 60.5q80 0 126.5 -20.5t71.5 -78.5t25 -163q0 -26 -1 -40h-329q1 -78 31 -104.5 t101 -26.5q73 0 143 21z"/>
<glyph glyph-name="eacute" horiz-adv-x="552" unicode="é" d="M310 568h-109l121 129h133zM295 426q-59 0 -83 -23t-30 -86h214q-3 66 -24.5 87.5t-76.5 21.5zM456 112l20 -98q-84 -28 -178 -28q-119 0 -183 61.5t-64 209.5q0 146 59.5 206.5t177.5 60.5q80 0 126.5 -20.5t71.5 -78.5t25 -163q0 -26 -1 -40h-329q1 -78 31 -104.5 t101 -26.5q73 0 143 21z"/>
<glyph glyph-name="ecircumflex" horiz-adv-x="552" unicode="ê" d="M481 568h-117l-71 76l-69 -76h-113l122 129h122zM295 426q-59 0 -83 -23t-30 -86h214q-3 66 -24.5 87.5t-76.5 21.5zM456 112l20 -98q-84 -28 -178 -28q-119 0 -183 61.5t-64 209.5q0 146 59.5 206.5t177.5 60.5q80 0 126.5 -20.5t71.5 -78.5t25 -163q0 -26 -1 -40h-329 q1 -78 31 -104.5t101 -26.5q73 0 143 21z"/>
<glyph glyph-name="edieresis" horiz-adv-x="552" unicode="ë" d="M400 681q35 0 47 -10t12 -45q0 -38 -12.5 -50t-46.5 -12q-36 0 -48 11.5t-12 50.5q0 35 12 45t48 10zM186 681q35 0 47.5 -10t12.5 -45q0 -38 -12.5 -50t-47.5 -12t-47 11.5t-12 50.5q0 35 12 45t47 10zM295 426q-59 0 -83 -23t-30 -86h214q-3 66 -24.5 87.5t-76.5 21.5z M456 112l20 -98q-84 -28 -178 -28q-119 0 -183 61.5t-64 209.5q0 146 59.5 206.5t177.5 60.5q80 0 126.5 -20.5t71.5 -78.5t25 -163q0 -26 -1 -40h-329q1 -78 31 -104.5t101 -26.5q73 0 143 21z"/>
<glyph glyph-name="igrave" horiz-adv-x="262" unicode="ì" d="M214 568h-110l-144 129h132zM193 509v-509h-124v509h124z"/>
<glyph glyph-name="iacute" horiz-adv-x="262" unicode="í" d="M153 568h-109l121 129h133zM193 509v-509h-124v509h124z"/>
<glyph glyph-name="icircumflex" horiz-adv-x="262" unicode="î" d="M317 568h-117l-71 76l-69 -76h-113l122 129h122zM193 509v-509h-124v509h124z"/>
<glyph glyph-name="idieresis" horiz-adv-x="262" unicode="ï" d="M239 681q35 0 47 -10t12 -45q0 -38 -12.5 -50t-46.5 -12q-36 0 -48 11.5t-12 50.5q0 35 12 45t48 10zM25 681q35 0 47.5 -10t12.5 -45q0 -38 -12.5 -50t-47.5 -12t-47 11.5t-12 50.5q0 35 12 45t47 10zM193 509v-509h-124v509h124z"/>
<glyph glyph-name="eth" horiz-adv-x="626" unicode="ð" d="M323 317q-84 0 -109 -20t-25 -85q0 -62 25 -86.5t99 -24.5q76 0 101.5 24.5t25.5 112.5q0 38 -9 72q-46 7 -108 7zM255 480l-49 65l70 44q-25 28 -105 108h164q30 -28 47 -45l61 38l48 -65l-55 -35q143 -175 143 -366q0 -141 -54.5 -191t-211.5 -50q-145 0 -203.5 52 t-58.5 183q0 118 56 164t202 46q47 0 87 -5q-27 53 -69 102z"/>
<glyph glyph-name="ntilde" horiz-adv-x="583" unicode="ñ" d="M411 702l62 -50q-33 -93 -117 -93q-31 0 -74.5 26.5t-66.5 26.5q-31 0 -52 -51l-56 55q46 81 109 81q37 0 79 -26.5t63 -26.5q18 0 29.5 12.5t23.5 45.5zM193 400v-400h-124v480q114 44 241 44q110 0 158.5 -53t48.5 -187v-284h-124v271q0 85 -21.5 113t-87.5 28 q-46 0 -91 -12z"/>
<glyph glyph-name="ograve" d="M397 568h-110l-144 129h132zM293 424q-68 0 -91 -31.5t-23 -137.5q0 -103 23.5 -136t90.5 -33q68 0 92 33t24 136q0 73 -11 109t-34.5 48t-70.5 12zM293 -14q-127 0 -184.5 59.5t-57.5 211.5q0 150 58 208.5t184 58.5q128 0 186 -58.5t58 -208.5q0 -152 -58 -211.5 t-186 -59.5z" unicode="ò"/>
<glyph glyph-name="oacute" d="M307 568h-109l121 129h133zM293 424q-68 0 -91 -31.5t-23 -137.5q0 -103 23.5 -136t90.5 -33q68 0 92 33t24 136q0 73 -11 109t-34.5 48t-70.5 12zM293 -14q-127 0 -184.5 59.5t-57.5 211.5q0 150 58 208.5t184 58.5q128 0 186 -58.5t58 -208.5q0 -152 -58 -211.5 t-186 -59.5z" unicode="ó"/>
<glyph glyph-name="ocircumflex" d="M477 568h-117l-71 76l-69 -76h-113l122 129h122zM293 424q-68 0 -91 -31.5t-23 -137.5q0 -103 23.5 -136t90.5 -33q68 0 92 33t24 136q0 73 -11 109t-34.5 48t-70.5 12zM293 -14q-127 0 -184.5 59.5t-57.5 211.5q0 150 58 208.5t184 58.5q128 0 186 -58.5t58 -208.5 q0 -152 -58 -211.5t-186 -59.5z" unicode="ô"/>
<glyph glyph-name="otilde" d="M413 702l62 -50q-33 -93 -117 -93q-31 0 -74.5 26.5t-66.5 26.5q-31 0 -52 -51l-56 55q46 81 109 81q37 0 79 -26.5t63 -26.5q18 0 29.5 12.5t23.5 45.5zM293 424q-68 0 -91 -31.5t-23 -137.5q0 -103 23.5 -136t90.5 -33q68 0 92 33t24 136q0 73 -11 109t-34.5 48 t-70.5 12zM293 -14q-127 0 -184.5 59.5t-57.5 211.5q0 150 58 208.5t184 58.5q128 0 186 -58.5t58 -208.5q0 -152 -58 -211.5t-186 -59.5z" unicode="õ"/>
<glyph glyph-name="odieresis" d="M400 681q35 0 47 -10t12 -45q0 -38 -12.5 -50t-46.5 -12q-36 0 -48 11.5t-12 50.5q0 35 12 45t48 10zM186 681q35 0 47.5 -10t12.5 -45q0 -38 -12.5 -50t-47.5 -12t-47 11.5t-12 50.5q0 35 12 45t47 10zM293 424q-68 0 -91 -31.5t-23 -137.5q0 -103 23.5 -136t90.5 -33 q68 0 92 33t24 136q0 73 -11 109t-34.5 48t-70.5 12zM293 -14q-127 0 -184.5 59.5t-57.5 211.5q0 150 58 208.5t184 58.5q128 0 186 -58.5t58 -208.5q0 -152 -58 -211.5t-186 -59.5z" unicode="ö"/>
<glyph glyph-name="divide" horiz-adv-x="582" unicode="÷" d="M289 645q48 0 64 -13t16 -57q0 -48 -16.5 -62.5t-63.5 -14.5q-45 0 -61 14.5t-16 62.5q0 44 15.5 57t61.5 13zM289 224q47 0 63.5 -13.5t16.5 -57.5q0 -48 -16.5 -62.5t-63.5 -14.5q-45 0 -61 14.5t-16 62.5q0 44 16 57.5t61 13.5zM48 303v118h486v-118h-486z"/>
<glyph glyph-name="oslash" d="M293 87q67 0 90.5 33.5t23.5 120.5q0 44 -5 73l-181 -212q20 -15 72 -15zM293 423q-65 0 -89 -27t-25 -117q0 -52 7 -86l182 214q-24 16 -75 16zM457 509h116l-69 -79q33 -62 33 -173q0 -152 -58 -211.5t-186 -59.5q-92 0 -147 31l-15 -17h-115l69 79q-34 61 -34 178 q0 150 58 208.5t184 58.5q97 0 149 -31z" unicode="ø"/>
<glyph glyph-name="ugrave" horiz-adv-x="583" unicode="ù" d="M390 568h-110l-144 129h132zM390 110v399h124v-480q-116 -44 -241 -44q-110 0 -158.5 53t-48.5 187v284h124v-271q0 -85 21.5 -113t86.5 -28q49 0 92 13z"/>
<glyph glyph-name="uacute" horiz-adv-x="583" unicode="ú" d="M309 568h-109l121 129h133zM390 110v399h124v-480q-116 -44 -241 -44q-110 0 -158.5 53t-48.5 187v284h124v-271q0 -85 21.5 -113t86.5 -28q49 0 92 13z"/>
<glyph glyph-name="ucircumflex" horiz-adv-x="583" unicode="û" d="M482 568h-117l-71 76l-69 -76h-113l122 129h122zM390 110v399h124v-480q-116 -44 -241 -44q-110 0 -158.5 53t-48.5 187v284h124v-271q0 -85 21.5 -113t86.5 -28q49 0 92 13z"/>
<glyph glyph-name="udieresis" horiz-adv-x="583" unicode="ü" d="M401 681q35 0 47 -10t12 -45q0 -38 -12.5 -50t-46.5 -12q-36 0 -48 11.5t-12 50.5q0 35 12 45t48 10zM187 681q35 0 47.5 -10t12.5 -45q0 -38 -12.5 -50t-47.5 -12t-47 11.5t-12 50.5q0 35 12 45t47 10zM390 110v399h124v-480q-116 -44 -241 -44q-110 0 -158.5 53 t-48.5 187v284h124v-271q0 -85 21.5 -113t86.5 -28q49 0 92 13z"/>
<glyph glyph-name="yacute" horiz-adv-x="511" unicode="ý" d="M288 568h-109l121 129h133zM180 -25q-83 299 -180 534h129q68 -170 126 -386q85 226 126 386h126q-72 -245 -193 -530q-42 -100 -79 -171h-138q37 66 83 167z"/>
<glyph glyph-name="thorn" d="M193 402v-262q0 -22 29 -35.5t71 -13.5q66 0 91 34t25 127q0 102 -24.5 133.5t-92.5 31.5q-60 0 -99 -15zM69 -192v901h124v-195q55 10 99 10q130 0 187 -58.5t57 -210.5q0 -148 -56 -208.5t-165 -60.5q-64 0 -122 29v-207h-124z" unicode="þ"/>
<glyph glyph-name="ydieresis" horiz-adv-x="511" unicode="ÿ" d="M366 681q35 0 47 -10t12 -45q0 -38 -12.5 -50t-46.5 -12q-36 0 -48 11.5t-12 50.5q0 35 12 45t48 10zM152 681q35 0 47.5 -10t12.5 -45q0 -38 -12.5 -50t-47.5 -12t-47 11.5t-12 50.5q0 35 12 45t47 10zM180 -25q-83 299 -180 534h129q68 -170 126 -386q85 226 126 386 h126q-72 -245 -193 -530q-42 -100 -79 -171h-138q37 66 83 167z"/>
<glyph glyph-name="Amacron" horiz-adv-x="682" unicode="Ā" d="M202 753v92h278v-92h-278zM353 585h-27q-49 -127 -108 -298h232q-54 153 -97 298zM555 0q-44 110 -67 174h-305q-23 -71 -54 -174h-138q107 341 252 697h207q128 -403 251 -697h-146z"/>
<glyph glyph-name="amacron" horiz-adv-x="560" unicode="ā" d="M138 576v90h278v-90h-278zM375 98v127q-42 9 -101 9q-56 0 -75.5 -13t-19.5 -60q0 -51 18 -65.5t76 -14.5q53 0 102 17zM494 326v-300q-102 -40 -230 -40q-122 0 -168.5 35.5t-46.5 134.5q0 100 49.5 133.5t150.5 33.5q59 0 126 -14q0 68 -24 89.5t-103 21.5 q-84 0 -154 -25l-23 102q102 27 203 27q117 0 168.5 -43.5t51.5 -154.5z"/>
<glyph glyph-name="Abreve" horiz-adv-x="682" unicode="Ă" d="M190 871h85q0 -34 15.5 -46t50.5 -12t51 12.5t16 45.5h80q0 -137 -150 -137q-148 0 -148 137zM353 585h-27q-49 -127 -108 -298h232q-54 153 -97 298zM555 0q-44 110 -67 174h-305q-23 -71 -54 -174h-138q107 341 252 697h207q128 -403 251 -697h-146z"/>
<glyph glyph-name="abreve" horiz-adv-x="560" unicode="ă" d="M128 697h85q0 -34 15.5 -46t50.5 -12t51 12.5t16 45.5h80q0 -137 -150 -137q-148 0 -148 137zM375 98v127q-42 9 -101 9q-56 0 -75.5 -13t-19.5 -60q0 -51 18 -65.5t76 -14.5q53 0 102 17zM494 326v-300q-102 -40 -230 -40q-122 0 -168.5 35.5t-46.5 134.5 q0 100 49.5 133.5t150.5 33.5q59 0 126 -14q0 68 -24 89.5t-103 21.5q-84 0 -154 -25l-23 102q102 27 203 27q117 0 168.5 -43.5t51.5 -154.5z"/>
<glyph glyph-name="Aogonek" horiz-adv-x="682" unicode="Ą" d="M353 585h-27q-49 -127 -108 -298h232q-54 153 -97 298zM555 0q-44 110 -67 174h-305q-23 -71 -54 -174h-138q107 341 252 697h207q128 -403 251 -697h-52q-38 -25 -51 -45t-13 -47q0 -22 12.5 -31t47.5 -9q51 0 83 27l35 -63q-47 -35 -131 -35q-74 0 -103 21.5t-29 67.5 q0 76 94 114h-39z"/>
<glyph glyph-name="aogonek" horiz-adv-x="560" unicode="ą" d="M375 98v127q-42 9 -101 9q-56 0 -75.5 -13t-19.5 -60q0 -51 18 -65.5t76 -14.5q53 0 102 17zM494 326v-300q-26 -10 -41 -14q-50 -30 -67 -52t-17 -52q0 -22 12.5 -31t47.5 -9q51 0 83 27l35 -63q-47 -35 -131 -35q-74 0 -103 21.5t-29 67.5q0 68 79 108q-54 -8 -99 -8 q-122 0 -168.5 35.5t-46.5 134.5q0 100 49.5 133.5t150.5 33.5q59 0 126 -14q0 68 -24 89.5t-103 21.5q-84 0 -154 -25l-23 102q102 27 203 27q117 0 168.5 -43.5t51.5 -154.5z"/>
<glyph glyph-name="Cacute" horiz-adv-x="592" unicode="Ć" d="M353 747h-108l129 129h137zM53 355q0 106 19.5 176t62 110.5t100.5 56.5t145 16q106 0 200 -26l-29 -116q-61 22 -148 22q-63 0 -98 -7.5t-62.5 -32.5t-38 -72.5t-10.5 -127.5t10.5 -128.5t37.5 -75t63 -35t98 -8.5q87 0 148 22l29 -118q-90 -25 -200 -25 q-115 0 -184 32.5t-106 114.5t-37 222z"/>
<glyph glyph-name="cacute" horiz-adv-x="470" unicode="ć" d="M297 568h-109l121 129h133zM430 118l28 -106q-65 -26 -155 -26q-124 0 -188 61t-64 210q0 148 64 207.5t188 59.5q90 0 155 -24l-28 -106q-59 22 -118 22q-49 0 -75.5 -10.5t-42 -46t-15.5 -104.5q0 -96 30.5 -128.5t102.5 -32.5q59 0 118 24z"/>
<glyph glyph-name="Ccircumflex" horiz-adv-x="592" unicode="Ĉ" d="M444 747l-72 78l-70 -78h-112l122 129h122l126 -129h-116zM53 355q0 106 19.5 176t62 110.5t100.5 56.5t145 16q106 0 200 -26l-29 -116q-61 22 -148 22q-63 0 -98 -7.5t-62.5 -32.5t-38 -72.5t-10.5 -127.5t10.5 -128.5t37.5 -75t63 -35t98 -8.5q87 0 148 22l29 -118 q-90 -25 -200 -25q-115 0 -184 32.5t-106 114.5t-37 222z"/>
<glyph glyph-name="ccircumflex" horiz-adv-x="470" unicode="ĉ" d="M477 568h-117l-71 76l-69 -76h-113l122 129h122zM430 118l28 -106q-65 -26 -155 -26q-124 0 -188 61t-64 210q0 148 64 207.5t188 59.5q90 0 155 -24l-28 -106q-59 22 -118 22q-49 0 -75.5 -10.5t-42 -46t-15.5 -104.5q0 -96 30.5 -128.5t102.5 -32.5q59 0 118 24z"/>
<glyph glyph-name="Cdotaccent" horiz-adv-x="592" unicode="Ċ" d="M375 867q35 0 47.5 -10.5t12.5 -45.5q0 -38 -12.5 -49.5t-47.5 -11.5t-47 11.5t-12 49.5q0 35 12 45.5t47 10.5zM53 355q0 106 19.5 176t62 110.5t100.5 56.5t145 16q106 0 200 -26l-29 -116q-61 22 -148 22q-63 0 -98 -7.5t-62.5 -32.5t-38 -72.5t-10.5 -127.5 t10.5 -128.5t37.5 -75t63 -35t98 -8.5q87 0 148 22l29 -118q-90 -25 -200 -25q-115 0 -184 32.5t-106 114.5t-37 222z"/>
<glyph glyph-name="cdotaccent" horiz-adv-x="470" unicode="ċ" d="M294 681q35 0 47.5 -10t12.5 -45q0 -38 -12.5 -50t-47.5 -12t-47 11.5t-12 50.5q0 35 12 45t47 10zM430 118l28 -106q-65 -26 -155 -26q-124 0 -188 61t-64 210q0 148 64 207.5t188 59.5q90 0 155 -24l-28 -106q-59 22 -118 22q-49 0 -75.5 -10.5t-42 -46t-15.5 -104.5 q0 -96 30.5 -128.5t102.5 -32.5q59 0 118 24z"/>
<glyph glyph-name="Ccaron" horiz-adv-x="592" unicode="Č" d="M292 876l73 -78l70 78h112l-122 -129h-122l-126 129h115zM53 355q0 106 19.5 176t62 110.5t100.5 56.5t145 16q106 0 200 -26l-29 -116q-61 22 -148 22q-63 0 -98 -7.5t-62.5 -32.5t-38 -72.5t-10.5 -127.5t10.5 -128.5t37.5 -75t63 -35t98 -8.5q87 0 148 22l29 -118 q-90 -25 -200 -25q-115 0 -184 32.5t-106 114.5t-37 222z"/>
<glyph glyph-name="ccaron" horiz-adv-x="470" unicode="č" d="M106 697h117l71 -76l69 76h113l-122 -129h-122zM430 118l28 -106q-65 -26 -155 -26q-124 0 -188 61t-64 210q0 148 64 207.5t188 59.5q90 0 155 -24l-28 -106q-59 22 -118 22q-49 0 -75.5 -10.5t-42 -46t-15.5 -104.5q0 -96 30.5 -128.5t102.5 -32.5q59 0 118 24z"/>
<glyph glyph-name="Dcaron" horiz-adv-x="736" unicode="Ď" d="M271 876l73 -78l70 78h112l-122 -129h-122l-126 129h115zM542 350q0 78 -9 123t-34.5 70t-60.5 32.5t-97 7.5h-121v-469h121q81 0 122 18t60 68.5t19 149.5zM88 697h266q86 0 145 -16t101.5 -55t62.5 -106.5t20 -168.5q0 -196 -78.5 -273.5t-250.5 -77.5h-266v697z"/>
<glyph glyph-name="dcaron" d="M574 722h110l-57 -192h-73zM518 722v-699q-92 -37 -222 -37q-131 0 -188 58.5t-57 210.5q0 147 56 208t165 61q70 0 122 -29v227h124zM394 107v263q0 22 -28.5 35.5t-71.5 13.5q-66 0 -90.5 -34t-24.5 -128q0 -101 24.5 -133t92.5 -32q55 0 98 15z" unicode="ď"/>
<glyph glyph-name="Dcroat" horiz-adv-x="736" unicode="Đ" d="M542 350q0 78 -9 123t-34.5 69.5t-60 32t-97.5 7.5h-121v-179h159v-92h-159v-197h121q81 0 122 18t60 68.5t19 149.5zM36 311v92h52v294h266q86 0 145 -16t101.5 -55t62.5 -106.5t20 -168.5q0 -196 -78.5 -273.5t-250.5 -77.5h-266v311h-52z"/>
<glyph glyph-name="dcroat" d="M394 107v263q0 22 -28.5 35.5t-71.5 13.5q-66 0 -90.5 -34t-24.5 -128q0 -101 24.5 -133t92.5 -32q55 0 98 15zM305 577v89h89v56h124v-56h49v-89h-49v-554q-92 -37 -222 -37q-131 0 -188 58.5t-57 210.5q0 147 56 208t165 61q70 0 122 -29v82h-89z" unicode="đ"/>
<glyph glyph-name="Emacron" horiz-adv-x="620" unicode="Ē" d="M203 753v92h278v-92h-278zM88 697h506v-114h-374v-161h267v-113h-267v-195h374v-114h-506v697z"/>
<glyph glyph-name="emacron" horiz-adv-x="552" unicode="ē" d="M156 576v90h278v-90h-278zM295 426q-59 0 -83 -23t-30 -86h214q-3 66 -24.5 87.5t-76.5 21.5zM456 112l20 -98q-84 -28 -178 -28q-119 0 -183 61.5t-64 209.5q0 146 59.5 206.5t177.5 60.5q80 0 126.5 -20.5t71.5 -78.5t25 -163q0 -26 -1 -40h-329q1 -78 31 -104.5 t101 -26.5q73 0 143 21z"/>
<glyph glyph-name="Ebreve" horiz-adv-x="620" unicode="Ĕ" d="M202 871h85q0 -34 15.5 -46t50.5 -12t51 12.5t16 45.5h80q0 -137 -150 -137q-148 0 -148 137zM88 697h506v-114h-374v-161h267v-113h-267v-195h374v-114h-506v697z"/>
<glyph glyph-name="ebreve" horiz-adv-x="552" unicode="ĕ" d="M141 697h85q0 -34 15.5 -46t50.5 -12t51 12.5t16 45.5h80q0 -137 -150 -137q-148 0 -148 137zM295 426q-59 0 -83 -23t-30 -86h214q-3 66 -24.5 87.5t-76.5 21.5zM456 112l20 -98q-84 -28 -178 -28q-119 0 -183 61.5t-64 209.5q0 146 59.5 206.5t177.5 60.5 q80 0 126.5 -20.5t71.5 -78.5t25 -163q0 -26 -1 -40h-329q1 -78 31 -104.5t101 -26.5q73 0 143 21z"/>
<glyph glyph-name="Edotaccent" horiz-adv-x="620" unicode="Ė" d="M362 867q35 0 47.5 -10.5t12.5 -45.5q0 -38 -12.5 -49.5t-47.5 -11.5t-47 11.5t-12 49.5q0 35 12 45.5t47 10.5zM88 697h506v-114h-374v-161h267v-113h-267v-195h374v-114h-506v697z"/>
<glyph glyph-name="edotaccent" horiz-adv-x="552" unicode="ė" d="M291 681q35 0 47.5 -10t12.5 -45q0 -38 -12.5 -50t-47.5 -12t-47 11.5t-12 50.5q0 35 12 45t47 10zM295 426q-59 0 -83 -23t-30 -86h214q-3 66 -24.5 87.5t-76.5 21.5zM456 112l20 -98q-84 -28 -178 -28q-119 0 -183 61.5t-64 209.5q0 146 59.5 206.5t177.5 60.5 q80 0 126.5 -20.5t71.5 -78.5t25 -163q0 -26 -1 -40h-329q1 -78 31 -104.5t101 -26.5q73 0 143 21z"/>
<glyph glyph-name="Eogonek" horiz-adv-x="620" unicode="Ę" d="M88 697h506v-114h-374v-161h267v-113h-267v-195h374v-114h-48q-38 -25 -51 -45t-13 -47q0 -22 12.5 -31t47.5 -9q51 0 83 27l35 -63q-47 -35 -131 -35q-74 0 -103 21.5t-29 67.5q0 76 94 114h-403v697z"/>
<glyph glyph-name="eogonek" horiz-adv-x="552" unicode="ę" d="M295 426q-59 0 -83 -23t-30 -86h214q-3 66 -24.5 87.5t-76.5 21.5zM456 112l20 -98q-18 -7 -43 -12q-40 -26 -54 -46t-14 -48q0 -22 12.5 -31t47.5 -9q51 0 83 27l35 -63q-47 -35 -131 -35q-74 0 -103 21.5t-29 67.5q0 65 71 103q-29 -3 -53 -3q-119 0 -183 61.5 t-64 209.5q0 146 59.5 206.5t177.5 60.5q80 0 126.5 -20.5t71.5 -78.5t25 -163q0 -26 -1 -40h-329q1 -78 31 -104.5t101 -26.5q73 0 143 21z"/>
<glyph glyph-name="Ecaron" horiz-adv-x="620" unicode="Ě" d="M280 876l73 -78l70 78h112l-122 -129h-122l-126 129h115zM88 697h506v-114h-374v-161h267v-113h-267v-195h374v-114h-506v697z"/>
<glyph glyph-name="ecaron" horiz-adv-x="552" unicode="ě" d="M105 697h117l71 -76l69 76h113l-122 -129h-122zM295 426q-59 0 -83 -23t-30 -86h214q-3 66 -24.5 87.5t-76.5 21.5zM456 112l20 -98q-84 -28 -178 -28q-119 0 -183 61.5t-64 209.5q0 146 59.5 206.5t177.5 60.5q80 0 126.5 -20.5t71.5 -78.5t25 -163q0 -26 -1 -40h-329 q1 -78 31 -104.5t101 -26.5q73 0 143 21z"/>
<glyph glyph-name="Gcircumflex" horiz-adv-x="700" unicode="Ĝ" d="M453 747l-72 78l-70 -78h-112l122 129h122l126 -129h-116zM493 116v180h-152v111h287v-391q-95 -30 -248 -30q-115 0 -184 32.5t-106 114.5t-37 222q0 106 21.5 176.5t67 110.5t107 56t150.5 16q116 0 210 -26l-27 -115q-60 21 -173 21q-52 0 -83.5 -4.5t-59.5 -18 t-42 -40.5t-22 -69.5t-8 -107.5q0 -80 10.5 -129t37.5 -75.5t63.5 -35t97.5 -8.5q48 0 90 10z"/>
<glyph glyph-name="gcircumflex" d="M487 568h-117l-71 76l-69 -76h-113l122 129h122zM394 21q-54 -33 -129 -33q-111 0 -162.5 58t-51.5 207q0 152 57.5 211.5t187.5 59.5q131 0 222 -38v-447q0 -73 -19 -122t-57 -74.5t-84.5 -36t-111.5 -10.5q-101 0 -179 30l25 100q78 -25 153 -25t112 26.5t37 93.5z M394 143v262q-45 17 -98 17q-69 0 -93 -31.5t-24 -136.5q0 -94 24 -126.5t90 -32.5q43 0 72 13t29 35z" unicode="ĝ"/>
<glyph glyph-name="Gbreve" horiz-adv-x="700" unicode="Ğ" d="M231 871h85q0 -34 15.5 -46t50.5 -12t51 12.5t16 45.5h80q0 -137 -150 -137q-148 0 -148 137zM493 116v180h-152v111h287v-391q-95 -30 -248 -30q-115 0 -184 32.5t-106 114.5t-37 222q0 106 21.5 176.5t67 110.5t107 56t150.5 16q116 0 210 -26l-27 -115q-60 21 -173 21 q-52 0 -83.5 -4.5t-59.5 -18t-42 -40.5t-22 -69.5t-8 -107.5q0 -80 10.5 -129t37.5 -75.5t63.5 -35t97.5 -8.5q48 0 90 10z"/>
<glyph glyph-name="gbreve" d="M151 697h85q0 -34 15.5 -46t50.5 -12t51 12.5t16 45.5h80q0 -137 -150 -137q-148 0 -148 137zM394 21q-54 -33 -129 -33q-111 0 -162.5 58t-51.5 207q0 152 57.5 211.5t187.5 59.5q131 0 222 -38v-447q0 -73 -19 -122t-57 -74.5t-84.5 -36t-111.5 -10.5q-101 0 -179 30 l25 100q78 -25 153 -25t112 26.5t37 93.5zM394 143v262q-45 17 -98 17q-69 0 -93 -31.5t-24 -136.5q0 -94 24 -126.5t90 -32.5q43 0 72 13t29 35z" unicode="ğ"/>
<glyph glyph-name="Gdotaccent" horiz-adv-x="700" unicode="Ġ" d="M391 867q35 0 47.5 -10.5t12.5 -45.5q0 -38 -12.5 -49.5t-47.5 -11.5t-47 11.5t-12 49.5q0 35 12 45.5t47 10.5zM493 116v180h-152v111h287v-391q-95 -30 -248 -30q-115 0 -184 32.5t-106 114.5t-37 222q0 106 21.5 176.5t67 110.5t107 56t150.5 16q116 0 210 -26 l-27 -115q-60 21 -173 21q-52 0 -83.5 -4.5t-59.5 -18t-42 -40.5t-22 -69.5t-8 -107.5q0 -80 10.5 -129t37.5 -75.5t63.5 -35t97.5 -8.5q48 0 90 10z"/>
<glyph glyph-name="gdotaccent" d="M294 681q35 0 47.5 -10t12.5 -45q0 -38 -12.5 -50t-47.5 -12t-47 11.5t-12 50.5q0 35 12 45t47 10zM394 21q-54 -33 -129 -33q-111 0 -162.5 58t-51.5 207q0 152 57.5 211.5t187.5 59.5q131 0 222 -38v-447q0 -73 -19 -122t-57 -74.5t-84.5 -36t-111.5 -10.5 q-101 0 -179 30l25 100q78 -25 153 -25t112 26.5t37 93.5zM394 143v262q-45 17 -98 17q-69 0 -93 -31.5t-24 -136.5q0 -94 24 -126.5t90 -32.5q43 0 72 13t29 35z" unicode="ġ"/>
<glyph glyph-name="Gcommaaccent" horiz-adv-x="700" unicode="Ģ" d="M473 -51l-108 -167h-97l71 167h134zM493 116v180h-152v111h287v-391q-95 -30 -248 -30q-115 0 -184 32.5t-106 114.5t-37 222q0 106 21.5 176.5t67 110.5t107 56t150.5 16q116 0 210 -26l-27 -115q-60 21 -173 21q-52 0 -83.5 -4.5t-59.5 -18t-42 -40.5t-22 -69.5 t-8 -107.5q0 -80 10.5 -129t37.5 -75.5t63.5 -35t97.5 -8.5q48 0 90 10z"/>
<glyph glyph-name="gcommaaccent" d="M427 751l-108 -167h-97l71 167h134zM394 21q-54 -33 -129 -33q-111 0 -162.5 58t-51.5 207q0 152 57.5 211.5t187.5 59.5q131 0 222 -38v-447q0 -73 -19 -122t-57 -74.5t-84.5 -36t-111.5 -10.5q-101 0 -179 30l25 100q78 -25 153 -25t112 26.5t37 93.5zM394 143v262 q-45 17 -98 17q-69 0 -93 -31.5t-24 -136.5q0 -94 24 -126.5t90 -32.5q43 0 72 13t29 35z" unicode="ģ"/>
<glyph glyph-name="Hcircumflex" horiz-adv-x="736" unicode="Ĥ" d="M434 747l-72 78l-70 -78h-112l122 129h122l126 -129h-116zM220 309v-309h-132v697h132v-266h298v266h130v-697h-130v309h-298z"/>
<glyph glyph-name="hcircumflex" horiz-adv-x="583" unicode="ĥ" d="M274 747l-72 78l-70 -78h-112l122 129h122l126 -129h-116zM333 524q64 0 101.5 -17.5t60 -69t22.5 -144.5v-293h-124v283q0 67 -22.5 98t-79.5 31q-41 0 -69.5 -12t-28.5 -33v-367h-124v722h124v-233q68 35 140 35z"/>
<glyph glyph-name="Hbar" horiz-adv-x="736" unicode="Ħ" d="M220 431h298v89h-298v-89zM29 520v105h59v72h132v-72h298v72h130v-72h60v-105h-60v-520h-130v309h-298v-309h-132v520h-59z"/>
<glyph glyph-name="hbar" horiz-adv-x="583" unicode="ħ" d="M18 581v87h51v54h124v-54h103v-87h-103v-92q68 35 140 35q64 0 101.5 -17.5t60 -69t22.5 -144.5v-293h-124v283q0 77 -24 103t-78 26q-41 0 -69.5 -12t-28.5 -33v-367h-124v581h-51z"/>
<glyph glyph-name="Itilde" horiz-adv-x="308" unicode="Ĩ" d="M278 879l61 -50q-15 -41 -46.5 -67t-73.5 -26q-31 0 -76 27t-67 27q-31 0 -51 -50l-56 55q45 79 107 79q37 0 82.5 -26t65.5 -26q18 0 30 12.5t24 44.5zM88 697h132v-697h-132v697z"/>
<glyph glyph-name="itilde" horiz-adv-x="262" unicode="ĩ" d="M252 702l62 -50q-33 -93 -117 -93q-31 0 -74.5 26.5t-66.5 26.5q-31 0 -52 -51l-56 55q46 81 109 81q37 0 79 -26.5t63 -26.5q18 0 29.5 12.5t23.5 45.5zM193 509v-509h-124v509h124z"/>
<glyph glyph-name="Imacron" horiz-adv-x="308" unicode="Ī" d="M16 753v92h278v-92h-278zM88 697h132v-697h-132v697z"/>
<glyph glyph-name="imacron" horiz-adv-x="262" unicode="ī" d="M-7 576v90h278v-90h-278zM193 509v-509h-124v509h124z"/>
<glyph glyph-name="Ibreve" horiz-adv-x="308" unicode="Ĭ" d="M7 871h85q0 -34 15.5 -46t50.5 -12t51 12.5t16 45.5h80q0 -137 -150 -137q-148 0 -148 137zM88 697h132v-697h-132v697z"/>
<glyph glyph-name="ibreve" horiz-adv-x="262" unicode="ĭ" d="M-17 697h85q0 -34 15.5 -46t50.5 -12t51 12.5t16 45.5h80q0 -137 -150 -137q-148 0 -148 137zM193 509v-509h-124v509h124z"/>
<glyph glyph-name="Iogonek" horiz-adv-x="308" unicode="Į" d="M88 697h132v-697h-48q-38 -25 -51 -45t-13 -47q0 -22 12.5 -31t47.5 -9q51 0 83 27l35 -63q-47 -35 -131 -35q-74 0 -103 21.5t-29 67.5q0 76 94 114h-29v697z"/>
<glyph glyph-name="iogonek" horiz-adv-x="262" unicode="į" d="M132 721q42 0 56.5 -11.5t14.5 -49.5q0 -43 -14.5 -56t-56.5 -13q-43 0 -57.5 13t-14.5 56q0 38 14.5 49.5t57.5 11.5zM193 509v-509h-35q-38 -25 -51 -45t-13 -47q0 -22 12.5 -31t47.5 -9q51 0 83 27l35 -63q-47 -35 -131 -35q-74 0 -103 21.5t-29 67.5q0 76 94 114h-34 v509h124z"/>
<glyph glyph-name="Idotaccent" horiz-adv-x="308" unicode="İ" d="M153 867q35 0 47.5 -10.5t12.5 -45.5q0 -38 -12.5 -49.5t-47.5 -11.5t-47 11.5t-12 49.5q0 35 12 45.5t47 10.5zM88 697h132v-697h-132v697z"/>
<glyph glyph-name="dotlessi" horiz-adv-x="262" unicode="ı" d="M193 509v-509h-124v509h124z"/>
<glyph glyph-name="IJ" horiz-adv-x="768" unicode="Ĳ" d="M682 697v-505q0 -206 -211 -206q-85 0 -158 27l26 118q52 -21 119 -21q91 0 91 99v488h133zM88 697h132v-697h-132v697z"/>
<glyph glyph-name="ij" horiz-adv-x="524" unicode="ĳ" d="M244 -203v103q45 0 65.5 18.5t20.5 67.5v523h124v-520q0 -109 -50 -150.5t-160 -41.5zM392 721q42 0 57 -11.5t15 -49.5q0 -43 -15 -56t-57 -13t-57 13t-15 56q0 38 15 49.5t57 11.5zM132 721q42 0 56.5 -11.5t14.5 -49.5q0 -43 -14.5 -56t-56.5 -13q-43 0 -57.5 13 t-14.5 56q0 38 14.5 49.5t57.5 11.5zM193 509v-509h-124v509h124z"/>
<glyph glyph-name="Jcircumflex" horiz-adv-x="461" unicode="Ĵ" d="M376 747l-72 78l-70 -78h-112l122 129h122l126 -129h-116zM375 697l1 -505q0 -206 -212 -206q-84 0 -158 27l26 118q53 -21 119 -21q91 0 91 99v488h133z"/>
<glyph glyph-name="jcircumflex" horiz-adv-x="262" unicode="ĵ" d="M193 509v-519q0 -109 -50 -151t-159 -42v103q44 0 64.5 19t20.5 68v522h124zM316 568h-117l-71 76l-69 -76h-113l122 129h122z"/>
<glyph glyph-name="Kcommaaccent" horiz-adv-x="662" unicode="Ķ" d="M418 -51l-108 -167h-97l71 167h134zM675 0h-162q-97 160 -177.5 257t-114.5 111q37 26 112 115t160 214h160q-87 -123 -159 -208.5t-104 -111.5q33 -22 112.5 -122t172.5 -255zM220 697v-697h-132v697h132z"/>
<glyph glyph-name="kcommaaccent" horiz-adv-x="551" unicode="ķ" d="M364 -51l-108 -167h-97l71 167h134zM552 0h-146q-174 252 -213 269v-269h-124v722h124v-453q49 40 197 240h147q-139 -188 -195 -231q22 -13 78 -86t132 -192z"/>
<glyph glyph-name="Lacute" horiz-adv-x="551" unicode="Ĺ" d="M207 747h-108l129 129h137zM88 697h132v-582h329v-115h-461v697z"/>
<glyph glyph-name="lacute" horiz-adv-x="268" unicode="ĺ" d="M166 747h-108l129 129h137zM193 722v-579q0 -68 39 -120l-109 -47q-54 62 -54 162v584h124z"/>
<glyph glyph-name="Lcommaaccent" horiz-adv-x="551" unicode="Ļ" d="M395 -51l-108 -167h-97l71 167h134zM88 697h132v-582h329v-115h-461v697z"/>
<glyph glyph-name="lcommaaccent" horiz-adv-x="268" unicode="ļ" d="M242 -51l-108 -167h-97l71 167h134zM193 722v-579q0 -68 39 -120l-109 -47q-54 62 -54 162v584h124z"/>
<glyph glyph-name="Lcaron" horiz-adv-x="551" unicode="Ľ" d="M317 722h110l-57 -192h-73zM88 697h132v-582h329v-115h-461v697z"/>
<glyph glyph-name="lcaron" horiz-adv-x="268" unicode="ľ" d="M256 722h110l-57 -192h-73zM193 722v-579q0 -68 39 -120l-109 -47q-54 62 -54 162v584h124z"/>
<glyph glyph-name="Ldot" horiz-adv-x="551" unicode="Ŀ" d="M354 463q35 0 47.5 -10.5t12.5 -45.5q0 -38 -12.5 -49.5t-47.5 -11.5t-47 11.5t-12 49.5q0 35 12 45.5t47 10.5zM88 697h132v-582h329v-115h-461v697z"/>
<glyph glyph-name="ldot" horiz-adv-x="268" unicode="ŀ" d="M282 460q35 0 47.5 -10t12.5 -45q0 -38 -12.5 -50t-47.5 -12t-47 11.5t-12 50.5q0 35 12 45t47 10zM193 722v-579q0 -68 39 -120l-109 -47q-54 62 -54 162v584h124z"/>
<glyph glyph-name="Lslash" horiz-adv-x="551" unicode="Ł" d="M376 557v-124l-156 -135v-183h329v-115h-461v189l-67 -58v123l67 58v385h132v-276z"/>
<glyph glyph-name="lslash" horiz-adv-x="288" unicode="ł" d="M203 722v-228l69 75v-124l-69 -75v-227q0 -8 2 -24q3 -54 37 -96q-13 -5 -50.5 -21.5t-58.5 -24.5q-48 51 -52 135q-2 38 -2 58v67q-11 -11 -32 -34t-32 -35v123q10 12 31.5 35t32.5 34v362h124z"/>
<glyph glyph-name="Nacute" horiz-adv-x="774" unicode="Ń" d="M406 747h-108l129 129h137zM685 697v-697h-161q-143 265 -307 525v-525h-129v697h173q151 -238 293 -503v503h131z"/>
<glyph glyph-name="nacute" horiz-adv-x="583" unicode="ń" d="M291 568h-109l121 129h133zM193 400v-400h-124v480q114 44 241 44q110 0 158.5 -53t48.5 -187v-284h-124v271q0 85 -21.5 113t-87.5 28q-46 0 -91 -12z"/>
<glyph glyph-name="Ncommaaccent" horiz-adv-x="774" unicode="Ņ" d="M460 -51l-108 -167h-97l71 167h134zM685 697v-697h-161q-143 265 -307 525v-525h-129v697h173q151 -238 293 -503v503h131z"/>
<glyph glyph-name="ncommaaccent" horiz-adv-x="583" unicode="ņ" d="M364 -51l-108 -167h-97l71 167h134zM193 400v-400h-124v480q114 44 241 44q110 0 158.5 -53t48.5 -187v-284h-124v271q0 85 -21.5 113t-87.5 28q-46 0 -91 -12z"/>
<glyph glyph-name="Ncaron" horiz-adv-x="774" unicode="Ň" d="M328 876l73 -78l70 78h112l-122 -129h-122l-126 129h115zM685 697v-697h-161q-143 265 -307 525v-525h-129v697h173q151 -238 293 -503v503h131z"/>
<glyph glyph-name="ncaron" horiz-adv-x="583" unicode="ň" d="M104 697h117l71 -76l69 76h113l-122 -129h-122zM193 400v-400h-124v480q114 44 241 44q110 0 158.5 -53t48.5 -187v-284h-124v271q0 85 -21.5 113t-87.5 28q-46 0 -91 -12z"/>
<glyph glyph-name="Omacron" horiz-adv-x="770" unicode="Ō" d="M246 753v92h278v-92h-278zM385 105q48 0 78.5 6t54 20.5t35.5 43.5t17.5 71t5.5 107q0 81 -7.5 127t-31 72.5t-57.5 34.5t-95 8t-95 -8t-57.5 -34.5t-31 -72.5t-7.5 -127q0 -65 5.5 -107t17.5 -71t35.5 -43.5t54 -20.5t78.5 -6zM385 714q87 0 146 -16.5t102 -56.5 t63 -110.5t20 -175.5q0 -107 -20 -179t-63 -113.5t-102.5 -59t-145.5 -17.5q-87 0 -146.5 17.5t-102.5 59t-63 113.5t-20 179q0 105 20 175.5t63.5 110.5t102.5 56.5t146 16.5z"/>
<glyph glyph-name="omacron" d="M154 576v90h278v-90h-278zM293 424q-68 0 -91 -31.5t-23 -137.5q0 -103 23.5 -136t90.5 -33q68 0 92 33t24 136q0 73 -11 109t-34.5 48t-70.5 12zM293 -14q-127 0 -184.5 59.5t-57.5 211.5q0 150 58 208.5t184 58.5q128 0 186 -58.5t58 -208.5q0 -152 -58 -211.5 t-186 -59.5z" unicode="ō"/>
<glyph glyph-name="Obreve" horiz-adv-x="770" unicode="Ŏ" d="M236 871h85q0 -34 15.5 -46t50.5 -12t51 12.5t16 45.5h80q0 -137 -150 -137q-148 0 -148 137zM385 105q48 0 78.5 6t54 20.5t35.5 43.5t17.5 71t5.5 107q0 81 -7.5 127t-31 72.5t-57.5 34.5t-95 8t-95 -8t-57.5 -34.5t-31 -72.5t-7.5 -127q0 -65 5.5 -107t17.5 -71 t35.5 -43.5t54 -20.5t78.5 -6zM385 714q87 0 146 -16.5t102 -56.5t63 -110.5t20 -175.5q0 -107 -20 -179t-63 -113.5t-102.5 -59t-145.5 -17.5q-87 0 -146.5 17.5t-102.5 59t-63 113.5t-20 179q0 105 20 175.5t63.5 110.5t102.5 56.5t146 16.5z"/>
<glyph glyph-name="obreve" d="M144 697h85q0 -34 15.5 -46t50.5 -12t51 12.5t16 45.5h80q0 -137 -150 -137q-148 0 -148 137zM293 424q-68 0 -91 -31.5t-23 -137.5q0 -103 23.5 -136t90.5 -33q68 0 92 33t24 136q0 73 -11 109t-34.5 48t-70.5 12zM293 -14q-127 0 -184.5 59.5t-57.5 211.5 q0 150 58 208.5t184 58.5q128 0 186 -58.5t58 -208.5q0 -152 -58 -211.5t-186 -59.5z" unicode="ŏ"/>
<glyph glyph-name="Ohungarumlaut" horiz-adv-x="770" unicode="Ő" d="M475 747h-86l91 129h109zM310 747h-85l91 129h109zM385 105q48 0 78.5 6t54 20.5t35.5 43.5t17.5 71t5.5 107q0 81 -7.5 127t-31 72.5t-57.5 34.5t-95 8t-95 -8t-57.5 -34.5t-31 -72.5t-7.5 -127q0 -65 5.5 -107t17.5 -71t35.5 -43.5t54 -20.5t78.5 -6zM385 714 q87 0 146 -16.5t102 -56.5t63 -110.5t20 -175.5q0 -107 -20 -179t-63 -113.5t-102.5 -59t-145.5 -17.5q-87 0 -146.5 17.5t-102.5 59t-63 113.5t-20 179q0 105 20 175.5t63.5 110.5t102.5 56.5t146 16.5z"/>
<glyph glyph-name="ohungarumlaut" d="M386 568h-86l91 129h109zM221 568h-85l91 129h109zM293 424q-68 0 -91 -31.5t-23 -137.5q0 -103 23.5 -136t90.5 -33q68 0 92 33t24 136q0 73 -11 109t-34.5 48t-70.5 12zM293 -14q-127 0 -184.5 59.5t-57.5 211.5q0 150 58 208.5t184 58.5q128 0 186 -58.5t58 -208.5 q0 -152 -58 -211.5t-186 -59.5z" unicode="ő"/>
<glyph glyph-name="OE" horiz-adv-x="1098" unicode="Œ" d="M385 105q48 0 78.5 6t54 20.5t35.5 43.5t17.5 71t5.5 107q0 81 -7.5 127t-31 72.5t-57.5 34.5t-95 8t-95 -8t-57.5 -34.5t-31 -72.5t-7.5 -127q0 -65 5.5 -107t17.5 -71t35.5 -43.5t54 -20.5t78.5 -6zM532 697h540v-114h-403q38 -56 45 -161h206v-112h-206 q-3 -132 -50 -196h408v-114h-554q-53 -14 -133 -14q-87 0 -146.5 17.5t-102.5 59t-63 113.5t-20 179q0 105 20 175.5t63.5 110.5t102.5 56.5t146 16.5t147 -17z"/>
<glyph glyph-name="oe" horiz-adv-x="907" unicode="œ" d="M650 426q-58 0 -82.5 -22.5t-31.5 -86.5h214q-2 66 -23.5 87.5t-76.5 21.5zM293 424q-68 0 -91 -31.5t-23 -137.5q0 -103 23.5 -136t90.5 -33q68 0 92 33t24 136q0 73 -11 109t-34.5 48t-70.5 12zM810 112l21 -98q-86 -28 -179 -28q-127 0 -178 69q-47 -69 -181 -69 q-127 0 -184.5 59.5t-57.5 211.5q0 150 58 208.5t184 58.5q130 0 179 -65q51 65 170 65q120 0 171.5 -54t51.5 -205q0 -28 -1 -43h-329q1 -78 31.5 -104.5t100.5 -26.5q75 0 143 21z"/>
<glyph glyph-name="Racute" horiz-adv-x="706" unicode="Ŕ" d="M343 747h-108l129 129h137zM462 303q36 -13 88.5 -81.5t144.5 -221.5h-163q-80 141 -132.5 203.5t-86.5 62.5h-93v-266h-132v697h363q194 0 194 -203q0 -184 -183 -191zM220 585v-210h197q81 0 81 102q0 108 -78 108h-200z"/>
<glyph glyph-name="racute" horiz-adv-x="379" unicode="ŕ" d="M255 568h-109l121 129h133zM69 0v509h124v-38q34 53 130 53q25 0 52 -3v-118q-31 7 -65 7q-49 0 -83 -15t-34 -42v-353h-124z"/>
<glyph glyph-name="Rcommaaccent" horiz-adv-x="706" unicode="Ŗ" d="M437 -51l-108 -167h-97l71 167h134zM462 303q36 -13 88.5 -81.5t144.5 -221.5h-163q-80 141 -132.5 203.5t-86.5 62.5h-93v-266h-132v697h363q194 0 194 -203q0 -184 -183 -191zM220 585v-210h197q81 0 81 102q0 108 -78 108h-200z"/>
<glyph glyph-name="rcommaaccent" horiz-adv-x="379" unicode="ŗ" d="M224 -51l-108 -167h-97l71 167h134zM69 0v509h124v-38q34 53 130 53q25 0 52 -3v-118q-31 7 -65 7q-49 0 -83 -15t-34 -42v-353h-124z"/>
<glyph glyph-name="Rcaron" horiz-adv-x="706" unicode="Ř" d="M275 876l73 -78l70 78h112l-122 -129h-122l-126 129h115zM462 303q36 -13 88.5 -81.5t144.5 -221.5h-163q-80 141 -132.5 203.5t-86.5 62.5h-93v-266h-132v697h363q194 0 194 -203q0 -184 -183 -191zM220 585v-210h197q81 0 81 102q0 108 -78 108h-200z"/>
<glyph glyph-name="rcaron" horiz-adv-x="379" unicode="ř" d="M45 697h117l71 -76l69 76h113l-122 -129h-122zM69 0v509h124v-38q34 53 130 53q25 0 52 -3v-118q-31 7 -65 7q-49 0 -83 -15t-34 -42v-353h-124z"/>
<glyph glyph-name="Sacute" horiz-adv-x="622" unicode="Ś" d="M321 747h-108l129 129h137zM559 683l-29 -114q-70 25 -184 25q-85 0 -121 -20.5t-36 -70.5q0 -42 30.5 -61t122.5 -28q123 -13 178.5 -62t55.5 -147q0 -120 -72.5 -169.5t-228.5 -49.5q-126 0 -217 31l29 114q79 -25 186 -25q86 0 123.5 20t37.5 72q0 43 -32.5 66 t-126.5 31q-119 12 -172.5 55t-53.5 137q0 120 73.5 173.5t223.5 53.5q118 0 213 -31z"/>
<glyph glyph-name="sacute" horiz-adv-x="491" unicode="ś" d="M257 568h-109l121 129h133zM434 496l-27 -97q-74 24 -148 24q-51 0 -71.5 -11t-20.5 -48q0 -26 21.5 -37.5t83.5 -17.5q95 -10 136 -44t41 -109q0 -94 -56 -132t-162 -38t-182 27l26 98q68 -24 151 -24q55 0 77.5 12t22.5 50q0 28 -22.5 41.5t-86.5 19.5 q-89 7 -130.5 38.5t-41.5 106.5q0 93 56.5 131t161.5 38q87 0 171 -28z"/>
<glyph glyph-name="Scircumflex" horiz-adv-x="622" unicode="Ŝ" d="M398 747l-72 78l-70 -78h-112l122 129h122l126 -129h-116zM559 683l-29 -114q-70 25 -184 25q-85 0 -121 -20.5t-36 -70.5q0 -42 30.5 -61t122.5 -28q123 -13 178.5 -62t55.5 -147q0 -120 -72.5 -169.5t-228.5 -49.5q-126 0 -217 31l29 114q79 -25 186 -25q86 0 123.5 20 t37.5 72q0 43 -32.5 66t-126.5 31q-119 12 -172.5 55t-53.5 137q0 120 73.5 173.5t223.5 53.5q118 0 213 -31z"/>
<glyph glyph-name="scircumflex" horiz-adv-x="491" unicode="ŝ" d="M443 568h-117l-71 76l-69 -76h-113l122 129h122zM434 496l-27 -97q-74 24 -148 24q-51 0 -71.5 -11t-20.5 -48q0 -26 21.5 -37.5t83.5 -17.5q95 -10 136 -44t41 -109q0 -94 -56 -132t-162 -38t-182 27l26 98q68 -24 151 -24q55 0 77.5 12t22.5 50q0 28 -22.5 41.5 t-86.5 19.5q-89 7 -130.5 38.5t-41.5 106.5q0 93 56.5 131t161.5 38q87 0 171 -28z"/>
<glyph glyph-name="Scedilla" horiz-adv-x="622" unicode="Ş" d="M559 683l-29 -114q-70 25 -184 25q-85 0 -121 -20.5t-36 -70.5q0 -42 30.5 -61t122.5 -28q123 -13 178.5 -62t55.5 -147q0 -109 -60 -159t-187 -58v-30q60 0 85 -17t25 -61q0 -47 -30.5 -65t-106.5 -18q-62 0 -98 16l22 54q24 -12 71 -12q23 0 32 5.5t9 20.5t-12.5 21 t-44.5 6q-23 0 -37 -1l30 79q-125 0 -216 31l29 114q79 -25 186 -25q86 0 123.5 20t37.5 72q0 43 -32.5 66t-126.5 31q-119 12 -172.5 55t-53.5 137q0 120 73.5 173.5t223.5 53.5q118 0 213 -31z"/>
<glyph glyph-name="Scedilla" horiz-adv-x="622" unicode="" d="M559 683l-29 -114q-70 25 -184 25q-85 0 -121 -20.5t-36 -70.5q0 -42 30.5 -61t122.5 -28q123 -13 178.5 -62t55.5 -147q0 -109 -60 -159t-187 -58v-30q60 0 85 -17t25 -61q0 -47 -30.5 -65t-106.5 -18q-62 0 -98 16l22 54q24 -12 71 -12q23 0 32 5.5t9 20.5t-12.5 21 t-44.5 6q-23 0 -37 -1l30 79q-125 0 -216 31l29 114q79 -25 186 -25q86 0 123.5 20t37.5 72q0 43 -32.5 66t-126.5 31q-119 12 -172.5 55t-53.5 137q0 120 73.5 173.5t223.5 53.5q118 0 213 -31z"/>
<glyph glyph-name="scedilla" horiz-adv-x="491" unicode="ş" d="M434 496l-27 -97q-74 24 -148 24q-51 0 -71.5 -11t-20.5 -48q0 -26 21.5 -37.5t83.5 -17.5q95 -10 136 -44t41 -109q0 -87 -48.5 -125.5t-139.5 -43.5v-29q60 0 85 -17t25 -61q0 -47 -30.5 -65t-106.5 -18q-62 0 -98 16l22 54q24 -12 71 -12q23 0 32 5.5t9 20.5t-12.5 21 t-44.5 6q-23 0 -37 -1l30 80q-91 4 -157 26l26 98q68 -24 151 -24q55 0 77.5 12t22.5 50q0 28 -22.5 41.5t-86.5 19.5q-89 7 -130.5 38.5t-41.5 106.5q0 93 56.5 131t161.5 38q87 0 171 -28z"/>
<glyph glyph-name="scedilla" horiz-adv-x="491" unicode="" d="M434 496l-27 -97q-74 24 -148 24q-51 0 -71.5 -11t-20.5 -48q0 -26 21.5 -37.5t83.5 -17.5q95 -10 136 -44t41 -109q0 -87 -48.5 -125.5t-139.5 -43.5v-29q60 0 85 -17t25 -61q0 -47 -30.5 -65t-106.5 -18q-62 0 -98 16l22 54q24 -12 71 -12q23 0 32 5.5t9 20.5t-12.5 21 t-44.5 6q-23 0 -37 -1l30 80q-91 4 -157 26l26 98q68 -24 151 -24q55 0 77.5 12t22.5 50q0 28 -22.5 41.5t-86.5 19.5q-89 7 -130.5 38.5t-41.5 106.5q0 93 56.5 131t161.5 38q87 0 171 -28z"/>
<glyph glyph-name="Scaron" horiz-adv-x="622" unicode="Š" d="M250 876l73 -78l70 78h112l-122 -129h-122l-126 129h115zM559 683l-29 -114q-70 25 -184 25q-85 0 -121 -20.5t-36 -70.5q0 -42 30.5 -61t122.5 -28q123 -13 178.5 -62t55.5 -147q0 -120 -72.5 -169.5t-228.5 -49.5q-126 0 -217 31l29 114q79 -25 186 -25q86 0 123.5 20 t37.5 72q0 43 -32.5 66t-126.5 31q-119 12 -172.5 55t-53.5 137q0 120 73.5 173.5t223.5 53.5q118 0 213 -31z"/>
<glyph glyph-name="scaron" horiz-adv-x="491" unicode="š" d="M66 697h117l71 -76l69 76h113l-122 -129h-122zM434 496l-27 -97q-74 24 -148 24q-51 0 -71.5 -11t-20.5 -48q0 -26 21.5 -37.5t83.5 -17.5q95 -10 136 -44t41 -109q0 -94 -56 -132t-162 -38t-182 27l26 98q68 -24 151 -24q55 0 77.5 12t22.5 50q0 28 -22.5 41.5 t-86.5 19.5q-89 7 -130.5 38.5t-41.5 106.5q0 93 56.5 131t161.5 38q87 0 171 -28z"/>
<glyph glyph-name="Tcommaaccent" horiz-adv-x="609" unicode="Ţ" d="M397 -51l-108 -167h-97l71 167h134zM371 0h-133v583h-235v114h603v-114h-235v-583z"/>
<glyph glyph-name="Tcommaaccent" horiz-adv-x="609" unicode="Ț" d="M397 -51l-108 -167h-97l71 167h134zM371 0h-133v583h-235v114h603v-114h-235v-583z"/>
<glyph glyph-name="tcommaaccent" horiz-adv-x="415" unicode="ţ" d="M301 -51l-108 -167h-97l71 167h134zM388 401h-169v-219q0 -49 16.5 -69t60.5 -20q43 0 87 14l22 -98q-64 -23 -140 -23q-91 0 -130.5 38.5t-39.5 146.5v230h-85v108h85v86l124 51v-137h169v-108z"/>
<glyph glyph-name="tcommaaccent" horiz-adv-x="415" unicode="ț" d="M301 -51l-108 -167h-97l71 167h134zM388 401h-169v-219q0 -49 16.5 -69t60.5 -20q43 0 87 14l22 -98q-64 -23 -140 -23q-91 0 -130.5 38.5t-39.5 146.5v230h-85v108h85v86l124 51v-137h169v-108z"/>
<glyph glyph-name="Tcaron" horiz-adv-x="609" unicode="Ť" d="M238 876l73 -78l70 78h112l-122 -129h-122l-126 129h115zM371 0h-133v583h-235v114h603v-114h-235v-583z"/>
<glyph glyph-name="tcaron" horiz-adv-x="415" unicode="ť" d="M311 770h110l-57 -192h-73zM388 401h-169v-219q0 -49 16.5 -69t60.5 -20q43 0 87 14l22 -98q-64 -23 -140 -23q-91 0 -130.5 38.5t-39.5 146.5v230h-85v108h85v86l124 51v-137h169v-108z"/>
<glyph glyph-name="Tbar" horiz-adv-x="609" unicode="Ŧ" d="M161 235v92h77v254h-235v116h603v-116h-235v-254h69v-92h-69v-235h-133v235h-77z"/>
<glyph glyph-name="tbar" horiz-adv-x="415" unicode="ŧ" d="M38 217v82h57v103h-85v107h85v86l124 51v-137h169v-107h-169v-103h97v-82h-97v-35q0 -48 17.5 -68.5t61.5 -20.5q41 0 85 14l22 -98q-64 -23 -139 -23q-90 0 -130.5 38.5t-40.5 146.5v46h-57z"/>
<glyph glyph-name="Utilde" horiz-adv-x="742" unicode="Ũ" d="M496 879l61 -50q-15 -41 -46.5 -67t-73.5 -26q-31 0 -76 27t-67 27q-31 0 -51 -50l-56 55q45 79 107 79q37 0 82.5 -26t65.5 -26q18 0 30 12.5t24 44.5zM663 697l1 -486q0 -129 -72.5 -177t-220.5 -48t-220.5 48t-72.5 177v486h133v-466q0 -70 35.5 -97t124.5 -27 q88 0 124.5 26.5t36.5 97.5v466h131z"/>
<glyph glyph-name="utilde" horiz-adv-x="583" unicode="ũ" d="M413 702l62 -50q-33 -93 -117 -93q-31 0 -74.5 26.5t-66.5 26.5q-31 0 -52 -51l-56 55q46 81 109 81q37 0 79 -26.5t63 -26.5q18 0 29.5 12.5t23.5 45.5zM390 110v399h124v-480q-116 -44 -241 -44q-110 0 -158.5 53t-48.5 187v284h124v-271q0 -85 21.5 -113t86.5 -28 q49 0 92 13z"/>
<glyph glyph-name="Umacron" horiz-adv-x="742" unicode="Ū" d="M229 753v92h278v-92h-278zM663 697l1 -486q0 -129 -72.5 -177t-220.5 -48t-220.5 48t-72.5 177v486h133v-466q0 -70 35.5 -97t124.5 -27q88 0 124.5 26.5t36.5 97.5v466h131z"/>
<glyph glyph-name="umacron" horiz-adv-x="583" unicode="ū" d="M149 576v90h278v-90h-278zM390 110v399h124v-480q-116 -44 -241 -44q-110 0 -158.5 53t-48.5 187v284h124v-271q0 -85 21.5 -113t86.5 -28q49 0 92 13z"/>
<glyph glyph-name="Ubreve" horiz-adv-x="742" unicode="Ŭ" d="M222 871h85q0 -34 15.5 -46t50.5 -12t51 12.5t16 45.5h80q0 -137 -150 -137q-148 0 -148 137zM663 697l1 -486q0 -129 -72.5 -177t-220.5 -48t-220.5 48t-72.5 177v486h133v-466q0 -70 35.5 -97t124.5 -27q88 0 124.5 26.5t36.5 97.5v466h131z"/>
<glyph glyph-name="ubreve" horiz-adv-x="583" unicode="ŭ" d="M140 697h85q0 -34 15.5 -46t50.5 -12t51 12.5t16 45.5h80q0 -137 -150 -137q-148 0 -148 137zM390 110v399h124v-480q-116 -44 -241 -44q-110 0 -158.5 53t-48.5 187v284h124v-271q0 -85 21.5 -113t86.5 -28q49 0 92 13z"/>
<glyph glyph-name="Uring" horiz-adv-x="742" unicode="Ů" d="M369 834q-29 0 -39.5 -10t-10.5 -33t10.5 -33t39.5 -10t39.5 10t10.5 33q0 24 -10 33.5t-40 9.5zM369 890q61 0 90 -22.5t29 -75.5t-29 -75.5t-90 -22.5q-62 0 -91 22.5t-29 75.5q0 54 28 76t92 22zM663 697l1 -486q0 -129 -72.5 -177t-220.5 -48t-220.5 48t-72.5 177 v486h133v-466q0 -70 35.5 -97t124.5 -27q88 0 124.5 26.5t36.5 97.5v466h131z"/>
<glyph glyph-name="uring" horiz-adv-x="583" unicode="ů" d="M293 684q-30 0 -40 -9.5t-10 -33.5q0 -23 10.5 -33t39.5 -10t39.5 10t10.5 33q0 24 -10 33.5t-40 9.5zM293 741q61 0 90 -22.5t29 -75.5t-28.5 -75.5t-90.5 -22.5t-91 22.5t-29 75.5t28 75.5t92 22.5zM390 110v399h124v-480q-116 -44 -241 -44q-110 0 -158.5 53 t-48.5 187v284h124v-271q0 -85 21.5 -113t86.5 -28q49 0 92 13z"/>
<glyph glyph-name="Uhungarumlaut" horiz-adv-x="742" unicode="Ű" d="M460 747h-86l91 129h109zM295 747h-85l91 129h109zM663 697l1 -486q0 -129 -72.5 -177t-220.5 -48t-220.5 48t-72.5 177v486h133v-466q0 -70 35.5 -97t124.5 -27q88 0 124.5 26.5t36.5 97.5v466h131z"/>
<glyph glyph-name="uhungarumlaut" horiz-adv-x="583" unicode="ű" d="M378 568h-86l91 129h109zM213 568h-85l91 129h109zM390 110v399h124v-480q-116 -44 -241 -44q-110 0 -158.5 53t-48.5 187v284h124v-271q0 -85 21.5 -113t86.5 -28q49 0 92 13z"/>
<glyph glyph-name="Uogonek" horiz-adv-x="742" unicode="Ų" d="M663 697l1 -486q0 -117 -59 -166.5t-178 -56.5q-27 -20 -37 -38t-10 -42q0 -22 12.5 -31t47.5 -9q51 0 83 27l35 -63q-47 -35 -131 -35q-74 0 -103 21.5t-29 67.5q0 62 66 100q-70 1 -119 11t-87.5 34.5t-57.5 69t-19 110.5v486h133v-466q0 -70 35.5 -97t124.5 -27 q88 0 124.5 26.5t36.5 97.5v466h131z"/>
<glyph glyph-name="uogonek" horiz-adv-x="583" unicode="ų" d="M390 110v399h124v-480q-26 -10 -71 -22q-45 -27 -60.5 -48.5t-15.5 -50.5q0 -22 12.5 -31t47.5 -9q51 0 83 27l35 -63q-47 -35 -131 -35q-74 0 -103 21.5t-29 67.5q0 67 74 105q-42 -6 -83 -6q-110 0 -158.5 53t-48.5 187v284h124v-271q0 -85 21.5 -113t86.5 -28 q49 0 92 13z"/>
<glyph glyph-name="Wcircumflex" horiz-adv-x="975" unicode="Ŵ" d="M562 747l-72 78l-70 -78h-112l122 129h122l126 -129h-116zM493 478q-38 -185 -128 -478h-167q-111 447 -200 697h144q81 -243 150 -533q102 337 140 533h122q106 -380 137 -533q83 258 145 533h136q-87 -357 -202 -697h-168q-39 207 -109 478z"/>
<glyph glyph-name="wcircumflex" horiz-adv-x="830" unicode="ŵ" d="M602 568h-117l-71 76l-69 -76h-113l122 129h122zM415 341q-38 -170 -98 -341h-153q-78 281 -164 509h131q65 -174 116 -382q26 75 60 193.5t50 188.5h121q56 -167 103 -382q80 220 118 382h126q-74 -264 -174 -509h-154q-37 192 -82 341z"/>
<glyph glyph-name="Ycircumflex" horiz-adv-x="638" unicode="Ŷ" d="M396 747l-72 78l-70 -78h-112l122 129h122l126 -129h-116zM134 697q89 -111 194 -266q112 150 184 266h160q-131 -197 -281 -396v-301h-132v300q-177 251 -297 397h172z"/>
<glyph glyph-name="ycircumflex" horiz-adv-x="511" unicode="ŷ" d="M442 568h-117l-71 76l-69 -76h-113l122 129h122zM180 -25q-83 299 -180 534h129q68 -170 126 -386q85 226 126 386h126q-72 -245 -193 -530q-42 -100 -79 -171h-138q37 66 83 167z"/>
<glyph glyph-name="Ydieresis" horiz-adv-x="638" unicode="Ÿ" d="M434 864q35 0 47 -10.5t12 -45.5q0 -38 -12 -49.5t-47 -11.5q-36 0 -48 11.5t-12 49.5q0 35 12 45.5t48 10.5zM221 864q35 0 47 -10.5t12 -45.5q0 -38 -12 -49.5t-47 -11.5t-47.5 11.5t-12.5 49.5q0 35 12.5 45.5t47.5 10.5zM134 697q89 -111 194 -266q112 150 184 266 h160q-131 -197 -281 -396v-301h-132v300q-177 251 -297 397h172z"/>
<glyph glyph-name="Zacute" horiz-adv-x="621" unicode="Ź" d="M325 747h-108l129 129h137zM17 0v32q184 250 382 551h-360v114h565v-30q-80 -129 -193 -293t-189 -260h375v-114h-580z"/>
<glyph glyph-name="zacute" horiz-adv-x="497" unicode="ź" d="M285 568h-109l121 129h133zM35 509h439v-25q-53 -85 -131.5 -197.5t-130.5 -178.5h255v-108h-449v25q70 88 148 199.5t118 176.5h-249v108z"/>
<glyph glyph-name="Zdotaccent" horiz-adv-x="621" unicode="Ż" d="M317 867q35 0 47.5 -10.5t12.5 -45.5q0 -38 -12.5 -49.5t-47.5 -11.5t-47 11.5t-12 49.5q0 35 12 45.5t47 10.5zM17 0v32q184 250 382 551h-360v114h565v-30q-80 -129 -193 -293t-189 -260h375v-114h-580z"/>
<glyph glyph-name="zdotaccent" horiz-adv-x="497" unicode="ż" d="M253 681q35 0 47.5 -10t12.5 -45q0 -38 -12.5 -50t-47.5 -12t-47 11.5t-12 50.5q0 35 12 45t47 10zM35 509h439v-25q-53 -85 -131.5 -197.5t-130.5 -178.5h255v-108h-449v25q70 88 148 199.5t118 176.5h-249v108z"/>
<glyph glyph-name="Zcaron" horiz-adv-x="621" unicode="Ž" d="M256 876l73 -78l70 78h112l-122 -129h-122l-126 129h115zM17 0v32q184 250 382 551h-360v114h565v-30q-80 -129 -193 -293t-189 -260h375v-114h-580z"/>
<glyph glyph-name="zcaron" horiz-adv-x="497" unicode="ž" d="M67 697h117l71 -76l69 76h113l-122 -129h-122zM35 509h439v-25q-53 -85 -131.5 -197.5t-130.5 -178.5h255v-108h-449v25q70 88 148 199.5t118 176.5h-249v108z"/>
<glyph glyph-name="florin" horiz-adv-x="376" unicode="ƒ" d="M251 536v-27h170l-14 -107h-170l-32 -416q-19 -189 -215 -189q-80 0 -146 24l36 96q48 -20 103 -20q92 0 98 89l32 416h-90l14 107h90l2 34q3 54 21 91t47.5 56t61 26.5t71.5 7.5q82 0 143 -22l-40 -98q-40 14 -95 14q-40 0 -62 -18t-25 -64z"/>
<glyph glyph-name="Scommaaccent" horiz-adv-x="622" unicode="Ș" d="M398 -51l-108 -167h-97l71 167h134zM559 683l-29 -114q-70 25 -184 25q-85 0 -121 -20.5t-36 -70.5q0 -42 30.5 -61t122.5 -28q123 -13 178.5 -62t55.5 -147q0 -120 -72.5 -169.5t-228.5 -49.5q-126 0 -217 31l29 114q79 -25 186 -25q86 0 123.5 20t37.5 72 q0 43 -32.5 66t-126.5 31q-119 12 -172.5 55t-53.5 137q0 120 73.5 173.5t223.5 53.5q118 0 213 -31z"/>
<glyph glyph-name="scommaaccent" horiz-adv-x="491" unicode="ș" d="M330 -51l-108 -167h-97l71 167h134zM434 496l-27 -97q-74 24 -148 24q-51 0 -71.5 -11t-20.5 -48q0 -26 21.5 -37.5t83.5 -17.5q95 -10 136 -44t41 -109q0 -94 -56 -132t-162 -38t-182 27l26 98q68 -24 151 -24q55 0 77.5 12t22.5 50q0 28 -22.5 41.5t-86.5 19.5 q-89 7 -130.5 38.5t-41.5 106.5q0 93 56.5 131t161.5 38q87 0 171 -28z"/>
<glyph glyph-name="circumflex" horiz-adv-x="660" unicode="ˆ" d="M527 568h-117l-71 76l-69 -76h-113l122 129h122z"/>
<glyph glyph-name="caron" horiz-adv-x="654" unicode="ˇ" d="M157 697h117l71 -76l69 76h113l-122 -129h-122z"/>
<glyph glyph-name="breve" horiz-adv-x="524" unicode="˘" d="M94 697h85q0 -34 15.5 -46t50.5 -12t51 12.5t16 45.5h80q0 -137 -150 -137q-148 0 -148 137z"/>
<glyph glyph-name="dotaccent" horiz-adv-x="462" unicode="˙" d="M186 681q35 0 47.5 -10t12.5 -45q0 -38 -12.5 -50t-47.5 -12t-47 11.5t-12 50.5q0 35 12 45t47 10z"/>
<glyph glyph-name="ring" horiz-adv-x="714" unicode="˚" d="M360 684q-30 0 -40 -9.5t-10 -33.5q0 -23 10.5 -33t39.5 -10t39.5 10t10.5 33q0 24 -10 33.5t-40 9.5zM360 741q61 0 90 -22.5t29 -75.5t-28.5 -75.5t-90.5 -22.5t-91 22.5t-29 75.5t28 75.5t92 22.5z"/>
<glyph glyph-name="ogonek" horiz-adv-x="641" unicode="˛" d="M443 12h39q-50 -30 -67 -52t-17 -52q0 -22 12.5 -31t47.5 -9q51 0 83 27l35 -63q-47 -35 -131 -35q-74 0 -103 21.5t-29 67.5q0 42 33 75.5t97 50.5z"/>
<glyph glyph-name="tilde" horiz-adv-x="715" unicode="˜" d="M446 702l62 -50q-33 -93 -117 -93q-31 0 -74.5 26.5t-66.5 26.5q-31 0 -52 -51l-56 55q46 81 109 81q37 0 79 -26.5t63 -26.5q18 0 29.5 12.5t23.5 45.5z"/>
<glyph glyph-name="hungarumlaut" horiz-adv-x="550" unicode="˝" d="M413 568h-86l91 129h109zM248 568h-85l91 129h109z"/>
<glyph glyph-name="Delta" horiz-adv-x="648" unicode="Δ" d="M313 563q-78 -188 -159 -449h313q-94 245 -154 449zM658 0h-676q106 346 255 697h169q126 -411 252 -697z"/>
<glyph glyph-name="Delta" horiz-adv-x="648" unicode="∆" d="M313 563q-78 -188 -159 -449h313q-94 245 -154 449zM658 0h-676q106 346 255 697h169q126 -411 252 -697z"/>
<glyph glyph-name="Omega" horiz-adv-x="798" unicode="Ω" d="M15 0v118h158q-44 30 -70 105.5t-26 171.5q0 177 78 248t244 71q165 0 243 -71t78 -248q0 -96 -26 -171.5t-70 -105.5h159v-118h-321v112q69 20 94 87.5t25 193.5q0 123 -36.5 162.5t-145.5 39.5t-146 -39.5t-37 -162.5q0 -125 25 -192.5t93 -87.5v-113h-319z"/>
<glyph glyph-name="Omega" horiz-adv-x="798" unicode="Ω" d="M15 0v118h158q-44 30 -70 105.5t-26 171.5q0 177 78 248t244 71q165 0 243 -71t78 -248q0 -96 -26 -171.5t-70 -105.5h159v-118h-321v112q69 20 94 87.5t25 193.5q0 123 -36.5 162.5t-145.5 39.5t-146 -39.5t-37 -162.5q0 -125 25 -192.5t93 -87.5v-113h-319z"/>
<glyph glyph-name="pi" horiz-adv-x="635" unicode="π" d="M25 391v118h585v-118h-82v-391h-124v391h-176v-269q0 -121 -80 -162l-79 84q35 19 35 76v271h-79z"/>
<glyph glyph-name="afii10023" horiz-adv-x="620" unicode="Ё" d="M442 864q35 0 47 -10.5t12 -45.5q0 -38 -12 -49.5t-47 -11.5q-36 0 -48 11.5t-12 49.5q0 35 12 45.5t48 10.5zM229 864q35 0 47 -10.5t12 -45.5q0 -38 -12 -49.5t-47 -11.5t-47.5 11.5t-12.5 49.5q0 35 12.5 45.5t47.5 10.5zM88 697h506v-114h-374v-161h267v-113h-267 v-195h374v-114h-506v697z"/>
<glyph glyph-name="afii10051" horiz-adv-x="754" unicode="Ђ" d="M606 583h-235v-134q66 35 140 35q50 0 83 -11t59 -41.5t37.5 -87.5t11.5 -146q0 -297 -159 -381l-87 85q27 15 44 31t35 47.5t27 84.5t9 129q0 78 -10.5 116t-31 50t-61.5 12q-39 0 -67.5 -11.5t-29.5 -30.5v-330h-133v583h-235v114h603v-114z"/>
<glyph glyph-name="afii10052" horiz-adv-x="551" unicode="Ѓ" d="M338 747h-109l129 129h137zM220 0h-132v697h471v-114h-339v-583z"/>
<glyph glyph-name="afii10053" horiz-adv-x="616" unicode="Є" d="M495 310h-298q3 -64 16 -104.5t41 -62t63 -29t91 -7.5q92 0 153 22l29 -118q-90 -25 -205 -25q-173 0 -252.5 81.5t-79.5 287.5q0 106 20 176.5t63.5 110.5t102.5 56t146 16q111 0 205 -26l-29 -116q-61 22 -153 22q-55 0 -88 -5.5t-61 -23.5t-42 -52.5t-19 -90.5h297 v-112z"/>
<glyph glyph-name="afii10054" horiz-adv-x="622" unicode="Ѕ" d="M559 683l-29 -114q-70 25 -184 25q-85 0 -121 -20.5t-36 -70.5q0 -42 30.5 -61t122.5 -28q123 -13 178.5 -62t55.5 -147q0 -120 -72.5 -169.5t-228.5 -49.5q-126 0 -217 31l29 114q79 -25 186 -25q86 0 123.5 20t37.5 72q0 43 -32.5 66t-126.5 31q-119 12 -172.5 55 t-53.5 137q0 120 73.5 173.5t223.5 53.5q118 0 213 -31z"/>
<glyph glyph-name="afii10055" horiz-adv-x="308" unicode="І" d="M88 697h132v-697h-132v697z"/>
<glyph glyph-name="afii10056" horiz-adv-x="308" unicode="Ї" d="M260 864q35 0 47 -10.5t12 -45.5q0 -38 -12 -49.5t-47 -11.5q-36 0 -48 11.5t-12 49.5q0 35 12 45.5t48 10.5zM47 864q35 0 47 -10.5t12 -45.5q0 -38 -12 -49.5t-47 -11.5t-47.5 11.5t-12.5 49.5q0 35 12.5 45.5t47.5 10.5zM88 697h132v-697h-132v697z"/>
<glyph glyph-name="afii10057" horiz-adv-x="461" unicode="Ј" d="M375 697l1 -505q0 -206 -212 -206q-84 0 -158 27l26 118q53 -21 119 -21q91 0 91 99v488h133z"/>
<glyph glyph-name="afii10058" horiz-adv-x="1068" unicode="Љ" d="M810 340h-189v-229h192q75 0 75 113q0 116 -78 116zM489 578h-196q-23 -291 -123 -578h-139q128 389 141 697h449v-250h223q97 0 142 -60.5t45 -162.5q0 -224 -181 -224h-361v578z"/>
<glyph glyph-name="afii10059" horiz-adv-x="1076" unicode="Њ" d="M818 333h-189v-222h192q39 0 57 27t18 83q0 112 -78 112zM220 333v-333h-132v697h132v-253h278v253h131v-254h223q97 0 142 -60t45 -162q0 -221 -181 -221h-360v333h-278z"/>
<glyph glyph-name="afii10060" horiz-adv-x="760" unicode="Ћ" d="M695 253v-253h-124v243q0 77 -24 103t-79 26q-39 0 -67.5 -11.5t-29.5 -30.5v-330h-133v583h-235v114h603v-114h-235v-134q66 35 140 35q64 0 101.5 -17.5t60 -69t22.5 -144.5z"/>
<glyph glyph-name="afii10061" horiz-adv-x="664" unicode="Ќ" d="M385 747h-108l129 129h137zM670 0h-157q-49 131 -94 202t-89 97t-110 32v-331h-132v697h132v-336q51 49 126.5 140.5t146.5 195.5h160q-88 -124 -156 -206t-99 -107q29 -10 49 -21t47.5 -37t52.5 -65t56.5 -104.5t66.5 -156.5z"/>
<glyph glyph-name="afii10062" horiz-adv-x="584" unicode="Ў" d="M169 871h85q0 -34 15.5 -46t51.5 -12q31 0 49 13t17 45h80q0 -137 -149 -137t-149 137zM232 176q-42 114 -113.5 266t-133.5 255h157q102 -185 173 -377q113 230 164 377h149q-67 -171 -162.5 -363.5t-182.5 -333.5q-111 0 -166 -1q58 78 115 177z"/>
<glyph glyph-name="afii10145" horiz-adv-x="736" unicode="Џ" d="M649 0h-213l-21 -188h-88l-21 188h-217v697h132v-578h298v578h130v-697z"/>
<glyph glyph-name="afii10017" horiz-adv-x="682" unicode="А" d="M353 585h-27q-49 -127 -108 -298h232q-54 153 -97 298zM555 0q-44 110 -67 174h-305q-23 -71 -54 -174h-138q107 341 252 697h207q128 -403 251 -697h-146z"/>
<glyph glyph-name="afii10018" horiz-adv-x="711" unicode="Б" d="M590 697v-114h-370v-164h243q186 0 186 -212q0 -110 -46 -158.5t-134 -48.5h-381v697h502zM220 111h220q67 0 67 98q0 103 -71 103h-216v-201z"/>
<glyph glyph-name="afii10019" horiz-adv-x="712" unicode="В" d="M489 369q93 -4 126.5 -48t33.5 -130q0 -191 -180 -191h-381v697h375q98 0 134.5 -41.5t36.5 -125.5q0 -77 -29 -115t-116 -46zM220 585v-166h214q60 0 60 84q0 43 -13.5 62.5t-46.5 19.5h-214zM220 111h220q67 0 67 98q0 103 -71 103h-216v-201z"/>
<glyph glyph-name="afii10020" horiz-adv-x="544" unicode="Г" d="M220 0h-132v697h471v-114h-339v-583z"/>
<glyph glyph-name="afii10021" horiz-adv-x="802" unicode="Д" d="M547 119v464h-208q-19 -271 -82 -464h290zM678 697v-578h124l-21 -273h-116v154h-523v-154h-116l-22 273h110q91 256 104 578h460z"/>
<glyph glyph-name="afii10022" horiz-adv-x="620" unicode="Е" d="M88 697h506v-114h-374v-161h267v-113h-267v-195h374v-114h-506v697z"/>
<glyph glyph-name="afii10024" horiz-adv-x="955" unicode="Ж" d="M146 0h-152q39 113 73 186.5t65 112.5t54.5 56t57.5 29q-64 56 -235 313h156q130 -207 246 -332v332h132v-332q120 131 247 332h155q-166 -252 -234 -313q45 -17 75.5 -43t76.5 -109.5t98 -231.5h-153q-46 132 -86 202t-80 97t-99 33v-332h-132v332q-89 -9 -144 -75 t-121 -257z"/>
<glyph glyph-name="afii10025" horiz-adv-x="642" unicode="З" d="M193 310v112h111q67 0 93 19t26 70q0 49 -32.5 67t-127.5 18q-110 0 -183 -22l-26 114q122 26 235 26q151 0 212.5 -41t61.5 -137q0 -77 -30 -118t-117 -49q93 -4 128 -49.5t35 -131.5q0 -111 -69 -156.5t-221 -45.5q-127 0 -239 25l25 115q74 -21 188 -21q99 0 136 22 t37 79q0 58 -30 81t-99 23h-114z"/>
<glyph glyph-name="afii10026" horiz-adv-x="774" unicode="И" d="M685 697v-697h-129v504q-153 -282 -295 -504h-173v697h130v-526q184 296 308 526h159z"/>
<glyph glyph-name="afii10027" horiz-adv-x="774" unicode="Й" d="M238 871h85q0 -34 15.5 -46t50.5 -12t51 12.5t16 45.5h80q0 -137 -150 -137q-148 0 -148 137zM685 697v-697h-129v504q-153 -282 -295 -504h-173v697h130v-526q184 296 308 526h159z"/>
<glyph glyph-name="afii10028" horiz-adv-x="664" unicode="К" d="M670 0h-157q-49 131 -94 202t-89 97t-110 32v-331h-132v697h132v-336q51 49 126.5 140.5t146.5 195.5h160q-88 -124 -156 -206t-99 -107q29 -10 49 -21t47.5 -37t52.5 -65t56.5 -104.5t66.5 -156.5z"/>
<glyph glyph-name="afii10029" horiz-adv-x="728" unicode="Л" d="M510 583h-217q-23 -297 -123 -583h-139q128 389 141 697h468v-697h-130v583z"/>
<glyph glyph-name="afii10030" horiz-adv-x="916" unicode="М" d="M464 251q81 215 193 446h171v-697h-129v519q-82 -180 -194 -455h-103q-130 330 -187 455v-519h-127v697h180q100 -206 196 -446z"/>
<glyph glyph-name="afii10031" horiz-adv-x="736" unicode="Н" d="M220 309v-309h-132v697h132v-266h298v266h130v-697h-130v309h-298z"/>
<glyph glyph-name="afii10032" horiz-adv-x="770" unicode="О" d="M385 105q48 0 78.5 6t54 20.5t35.5 43.5t17.5 71t5.5 107q0 81 -7.5 127t-31 72.5t-57.5 34.5t-95 8t-95 -8t-57.5 -34.5t-31 -72.5t-7.5 -127q0 -65 5.5 -107t17.5 -71t35.5 -43.5t54 -20.5t78.5 -6zM385 714q87 0 146 -16.5t102 -56.5t63 -110.5t20 -175.5 q0 -107 -20 -179t-63 -113.5t-102.5 -59t-145.5 -17.5q-87 0 -146.5 17.5t-102.5 59t-63 113.5t-20 179q0 105 20 175.5t63.5 110.5t102.5 56.5t146 16.5z"/>
<glyph glyph-name="afii10033" horiz-adv-x="736" unicode="П" d="M220 583v-583h-132v697h560v-697h-130v583h-298z"/>
<glyph glyph-name="afii10034" horiz-adv-x="673" unicode="Р" d="M220 0h-132v697h363q194 0 194 -239q0 -98 -48 -163t-143 -65h-234v-230zM220 340h194q86 0 86 119q0 126 -83 126h-197v-245z"/>
<glyph glyph-name="afii10035" horiz-adv-x="592" unicode="С" d="M53 355q0 106 19.5 176t62 110.5t100.5 56.5t145 16q106 0 200 -26l-29 -116q-61 22 -148 22q-63 0 -98 -7.5t-62.5 -32.5t-38 -72.5t-10.5 -127.5t10.5 -128.5t37.5 -75t63 -35t98 -8.5q87 0 148 22l29 -118q-90 -25 -200 -25q-115 0 -184 32.5t-106 114.5t-37 222z"/>
<glyph glyph-name="afii10036" horiz-adv-x="609" unicode="Т" d="M371 0h-133v583h-235v114h603v-114h-235v-583z"/>
<glyph glyph-name="afii10037" horiz-adv-x="613" unicode="У" d="M315 320q113 230 164 377h149q-67 -171 -162.5 -363.5t-182.5 -333.5h-166q66 88 116 177q-37 102 -112 261t-136 259h157q102 -185 173 -377z"/>
<glyph glyph-name="afii10038" horiz-adv-x="799" unicode="Ф" d="M168 349q0 -84 30 -116t128 -36v304q-99 -4 -128.5 -35.5t-29.5 -116.5zM622 349q0 87 -30.5 118.5t-134.5 34.5v-305q54 2 86.5 10t50 28t23 45.5t5.5 68.5zM326 697h131v-87q170 -8 234.5 -67.5t64.5 -192.5q0 -134 -64.5 -193.5t-234.5 -67.5v-89h-131v89 q-167 8 -228.5 67.5t-61.5 193.5t61.5 193t228.5 67v87z"/>
<glyph glyph-name="afii10039" horiz-adv-x="674" unicode="Х" d="M169 697q74 -95 175 -230q97 135 160 230h162q-105 -154 -241 -342q179 -248 252 -355h-164q-98 141 -170 241q-127 -167 -185 -241h-162q102 127 266 352q-162 218 -262 345h169z"/>
<glyph glyph-name="afii10040" horiz-adv-x="773" unicode="Ц" d="M220 697v-578h298v578h130v-578h125l-22 -273h-115v154h-548v697h132z"/>
<glyph glyph-name="afii10041" horiz-adv-x="667" unicode="Ч" d="M447 379v318h132v-697h-132v224q-56 -32 -170 -32q-60 0 -102.5 10t-78 36t-53.5 75.5t-18 123.5v260h132v-251q0 -79 31.5 -105t114.5 -26q67 0 105.5 16.5t38.5 47.5z"/>
<glyph glyph-name="afii10042" horiz-adv-x="974" unicode="Ш" d="M886 697v-697h-798v697h132v-578h202v578h131v-578h202v578h131z"/>
<glyph glyph-name="afii10043" horiz-adv-x="1010" unicode="Щ" d="M220 697v-578h202v578h131v-578h202v578h131v-578h124l-21 -273h-116v154h-785v697h132z"/>
<glyph glyph-name="afii10044" horiz-adv-x="721" unicode="Ъ" d="M254 111h212q75 0 75 113q0 115 -78 115h-209v-228zM17 697h237v-248h243q97 0 142 -61.5t45 -163.5t-44 -163t-137 -61h-381v583h-105v114z"/>
<glyph glyph-name="afii10045" horiz-adv-x="935" unicode="Ы" d="M715 697h132v-697h-132v697zM88 697h132v-248h243q97 0 142 -61.5t45 -163.5q0 -224 -181 -224h-381v697zM220 111h212q75 0 75 113q0 115 -78 115h-209v-228z"/>
<glyph glyph-name="afii10046" horiz-adv-x="687" unicode="Ь" d="M88 697h132v-248h243q97 0 142 -61.5t45 -163.5q0 -224 -181 -224h-381v697zM220 111h212q75 0 75 113q0 115 -78 115h-209v-228z"/>
<glyph glyph-name="afii10047" horiz-adv-x="616" unicode="Э" d="M419 310h-298v112h297q-5 56 -19 90.5t-42 52.5t-61 23.5t-88 5.5q-92 0 -153 -22l-29 116q94 26 205 26q87 0 146 -16t102.5 -56t63.5 -110.5t20 -176.5q0 -206 -79.5 -287.5t-252.5 -81.5q-115 0 -205 25l29 118q61 -22 153 -22q56 0 91 7.5t63 29t41 62t16 104.5z"/>
<glyph glyph-name="afii10048" horiz-adv-x="966" unicode="Ю" d="M643 105q80 0 107 49t27 204q0 65 -4.5 106.5t-12.5 68.5t-25 40.5t-37.5 18.5t-54.5 5q-33 0 -53 -5t-37.5 -18.5t-26.5 -40.5t-13.5 -69t-4.5 -106q0 -105 13.5 -159.5t41 -74t80.5 -19.5zM643 714q92 0 148.5 -29.5t89 -109t32.5 -217.5q0 -106 -17.5 -178.5t-53 -115 t-83.5 -60.5t-116 -18q-128 0 -195.5 73t-74.5 250h-153v-309h-132v697h132v-266h154q11 158 77.5 220.5t191.5 62.5z"/>
<glyph glyph-name="afii10049" horiz-adv-x="706" unicode="Я" d="M244 305q-183 7 -183 189q0 203 194 203h363v-697h-132v266h-111q-44 0 -72 -18t-59 -76.5t-65 -171.5h-152q44 125 79 189.5t64 86.5t74 29zM486 375v210h-200q-78 0 -78 -108q0 -102 81 -102h197z"/>
<glyph glyph-name="afii10065" horiz-adv-x="560" unicode="а" d="M375 98v127q-42 9 -101 9q-56 0 -75.5 -13t-19.5 -60q0 -51 18 -65.5t76 -14.5q53 0 102 17zM494 326v-300q-102 -40 -230 -40q-122 0 -168.5 35.5t-46.5 134.5q0 100 49.5 133.5t150.5 33.5q59 0 126 -14q0 67 -24 88t-103 21q-90 0 -154 -23l-23 102q102 27 203 27 q117 0 168.5 -43.5t51.5 -154.5z"/>
<glyph glyph-name="afii10066" horiz-adv-x="575" unicode="б" d="M179 442q44 60 138 60q105 0 155.5 -55.5t50.5 -199.5q0 -148 -57 -204.5t-187 -56.5q-57 0 -96 13t-69.5 46.5t-45 95t-14.5 153.5q0 100 9 168t26 112t49.5 69t69.5 35.5t96 15.5q122 10 191 39v-110q-51 -23 -185 -35q-72 -6 -96.5 -38t-34.5 -108zM180 245 q0 -89 24 -123t78 -34q46 0 68.5 10t34 44t11.5 103q0 90 -23 120t-84 30q-66 0 -87.5 -30.5t-21.5 -119.5z"/>
<glyph glyph-name="afii10067" horiz-adv-x="580" unicode="в" d="M402 270q72 -2 100 -35.5t28 -95.5q0 -139 -150 -139h-311v509h307q81 0 111.5 -30.5t30.5 -91.5q0 -55 -24 -83.5t-92 -33.5zM193 413v-102h147q26 0 37.5 12.5t11.5 39.5q0 29 -11 39.5t-38 10.5h-147zM193 96h152q29 0 42 13.5t13 44.5q0 66 -58 66h-149v-124z"/>
<glyph glyph-name="afii10068" horiz-adv-x="424" unicode="г" d="M193 401v-401h-124v509h354v-108h-230z"/>
<glyph glyph-name="afii10069" horiz-adv-x="649" unicode="д" d="M422 401h-143q-10 -128 -54 -293h197v293zM166 509h380v-401h98l-29 -249h-99v141h-384v-141h-100l-28 249h91q60 209 71 401z"/>
<glyph glyph-name="afii10070" horiz-adv-x="552" unicode="е" d="M295 426q-59 0 -83 -23t-30 -86h214q-3 66 -24.5 87.5t-76.5 21.5zM456 112l20 -98q-84 -28 -178 -28q-119 0 -183 61.5t-64 209.5q0 146 59.5 206.5t177.5 60.5q80 0 126.5 -20.5t71.5 -78.5t25 -163q0 -26 -1 -40h-329q1 -78 31 -104.5t101 -26.5q73 0 143 21z"/>
<glyph glyph-name="afii10072" horiz-adv-x="799" unicode="ж" d="M144 0h-142q46 105 85 166t60.5 79t51.5 30q-23 19 -74 81.5t-111 152.5h143q108 -156 180 -242v242h124v-242q70 82 181 242h143q-62 -90 -112.5 -152.5t-72.5 -81.5q22 -9 38 -20.5t40.5 -39.5t53.5 -81.5t64 -133.5h-141q-55 121 -101 172t-93 64v-236h-124v236 q-47 -13 -93 -64t-100 -172z"/>
<glyph glyph-name="afii10073" horiz-adv-x="516" unicode="з" d="M148 222v93h78q56 0 77.5 10.5t21.5 40.5q0 29 -22.5 40.5t-85.5 11.5q-87 0 -156 -22l-26 108q87 20 184 20q133 0 184.5 -29t51.5 -102q0 -57 -26.5 -87.5t-95.5 -36.5q73 -4 104 -38t31 -96q0 -85 -56.5 -117t-192.5 -32q-104 0 -188 19l26 111q69 -24 160 -24 q71 0 95 14.5t24 52.5q0 35 -25.5 49t-84.5 14h-78z"/>
<glyph glyph-name="afii10074" horiz-adv-x="593" unicode="и" d="M400 0v311q-84 -152 -207 -311h-124v509h124v-324q87 110 207 324h124v-509h-124z"/>
<glyph glyph-name="afii10075" horiz-adv-x="593" unicode="й" d="M147 697h85q0 -34 15.5 -46t51.5 -12q31 0 49 13t17 45h80q0 -137 -149 -137t-149 137zM400 0v311q-84 -152 -207 -311h-124v509h124v-324q87 110 207 324h124v-509h-124z"/>
<glyph glyph-name="afii10076" horiz-adv-x="551" unicode="к" d="M549 0h-145q-60 126 -108 175t-103 61v-236h-124v509h124v-245q74 81 197 245h147q-146 -196 -193 -233q30 -12 52.5 -30.5t62 -79t90.5 -166.5z"/>
<glyph glyph-name="afii10077" horiz-adv-x="572" unicode="л" d="M378 401h-138q-17 -210 -77 -401h-130q74 238 89 509h380v-509h-124v401z"/>
<glyph glyph-name="afii10078" horiz-adv-x="753" unicode="м" d="M382 206q59 155 129 303h173v-509h-123v371q-67 -145 -140 -341h-93q-85 231 -136 341v-371h-123v509h181q59 -123 132 -303z"/>
<glyph glyph-name="afii10079" horiz-adv-x="587" unicode="н" d="M393 216h-200v-216h-124v509h124v-187h200v187h124v-509h-124v216z"/>
<glyph glyph-name="afii10080" d="M293 423q-68 0 -91 -31t-23 -137q0 -103 23.5 -135.5t90.5 -32.5q69 0 92.5 32.5t23.5 135.5q0 73 -11 109t-34 47.5t-71 11.5zM293 -14q-127 0 -184.5 59.5t-57.5 211.5q0 150 58 208.5t184 58.5q128 0 186 -58.5t58 -208.5q0 -152 -58 -211.5t-186 -59.5z" unicode="о"/>
<glyph glyph-name="afii10081" horiz-adv-x="587" unicode="п" d="M193 401v-401h-124v509h448v-509h-124v401h-200z"/>
<glyph glyph-name="afii10082" d="M69 -192v678q91 38 223 38q130 0 187 -58.5t57 -210.5q0 -148 -56 -208.5t-165 -60.5q-64 0 -122 29v-207h-124zM193 402v-262q0 -22 29 -35.5t71 -13.5q66 0 91 34t25 127q0 102 -24.5 133.5t-92.5 31.5q-60 0 -99 -15z" unicode="р"/>
<glyph glyph-name="afii10083" horiz-adv-x="470" unicode="с" d="M430 118l28 -106q-65 -26 -155 -26q-124 0 -188 61t-64 210q0 148 64 207.5t188 59.5q90 0 155 -24l-28 -106q-59 22 -118 22q-49 0 -75.5 -10.5t-42 -46t-15.5 -104.5q0 -96 30.5 -128.5t102.5 -32.5q59 0 118 24z"/>
<glyph glyph-name="afii10084" horiz-adv-x="485" unicode="т" d="M304 401v-401h-124v401h-175v108h475v-108h-176z"/>
<glyph glyph-name="afii10085" horiz-adv-x="511" unicode="у" d="M180 -25q-83 299 -180 534h129q68 -170 126 -386q85 226 126 386h126q-72 -245 -193 -530q-42 -100 -79 -171h-138q37 66 83 167z"/>
<glyph glyph-name="afii10086" horiz-adv-x="840" unicode="ф" d="M565 91q54 0 77.5 34.5t23.5 126.5q0 101 -22 133t-80 32q-46 0 -82 -13v-267q1 -22 23.5 -34t59.5 -12zM275 91q37 0 60 13t23 35v265q-38 13 -82 13q-58 0 -80 -32t-22 -133q0 -92 23 -126.5t78 -34.5zM358 514v195h124v-195q47 10 82 10q122 0 173 -58.5t51 -210.5 q0 -148 -50.5 -208.5t-150.5 -60.5q-61 0 -105 29v-207h-124v207q-46 -29 -105 -29q-101 0 -151 60.5t-50 208.5q0 152 51 210.5t173 58.5q34 0 82 -10z"/>
<glyph glyph-name="afii10087" horiz-adv-x="521" unicode="х" d="M516 0h-140q-37 61 -107 161q-64 -87 -125 -161h-138q77 90 198 254q-113 157 -197 255h148q53 -66 117 -156q40 55 105 156h138q-75 -113 -175 -251q98 -138 176 -258z"/>
<glyph glyph-name="afii10088" horiz-adv-x="636" unicode="ц" d="M517 108h114l-29 -249h-100v141h-433v509h124v-401h200v401h124v-401z"/>
<glyph glyph-name="afii10089" horiz-adv-x="556" unicode="ч" d="M38 385v124h124v-114q0 -77 24 -103t79 -26q40 0 68.5 12t28.5 33v198h124v-509h-124v189q-66 -35 -140 -35q-64 0 -101.5 17.5t-60 69t-22.5 144.5z"/>
<glyph glyph-name="afii10090" horiz-adv-x="858" unicode="ш" d="M788 509v-509h-719v509h124v-401h174v401h124v-401h173v401h124z"/>
<glyph glyph-name="afii10091" horiz-adv-x="907" unicode="щ" d="M773 -141v141h-704v509h124v-401h174v401h124v-401h173v401h124v-401h114q-5 -42 -14.5 -125t-14.5 -124h-100z"/>
<glyph glyph-name="afii10092" horiz-adv-x="611" unicode="ъ" d="M227 92h150q57 0 57 70q0 36 -14.5 51.5t-44.5 15.5h-148v-137zM227 325h179q158 0 158 -161q0 -88 -39 -126t-119 -38h-303v401h-98v108h222v-184z"/>
<glyph glyph-name="afii10093" horiz-adv-x="776" unicode="ы" d="M707 509v-509h-124v509h124zM193 325h179q158 0 158 -161q0 -88 -39 -126t-119 -38h-303v509h124v-184zM343 92q57 0 57 70q0 36 -14.5 51.5t-44.5 15.5h-148v-137h150z"/>
<glyph glyph-name="afii10094" horiz-adv-x="577" unicode="ь" d="M193 325h179q158 0 158 -161q0 -88 -39 -126t-119 -38h-303v509h124v-184zM343 92q57 0 57 70q0 36 -14.5 51.5t-44.5 15.5h-148v-137h150z"/>
<glyph glyph-name="afii10095" horiz-adv-x="481" unicode="э" d="M24 12l27 99q52 -21 120 -21q63 0 94 28t35 104h-203v95h201q-8 60 -38 81t-89 21q-73 0 -120 -19l-27 100q65 24 155 24q121 0 186 -60t65 -207q0 -148 -65 -209.5t-186 -61.5q-90 0 -155 26z"/>
<glyph glyph-name="afii10096" horiz-adv-x="848" unicode="ю" d="M558 424q-64 0 -87 -31.5t-23 -137.5q0 -103 23 -136t87 -33q65 0 88.5 33t23.5 136q0 106 -23 137.5t-89 31.5zM558 -14q-114 0 -170.5 51t-64.5 179h-130v-216h-124v509h124v-187h131q12 112 68.5 157t165.5 45q124 0 181.5 -58.5t57.5 -208.5q0 -151 -57.5 -211 t-181.5 -60z"/>
<glyph glyph-name="afii10097" horiz-adv-x="593" unicode="я" d="M206 220q-76 3 -110.5 41.5t-34.5 98.5q0 149 161 149h302v-509h-124v181h-77q-52 0 -83.5 -34.5t-72.5 -146.5h-142q52 127 88.5 169.5t92.5 50.5zM400 279v130h-145q-30 0 -45 -14.5t-15 -49.5q0 -66 63 -66h142z"/>
<glyph glyph-name="afii10071" horiz-adv-x="552" unicode="ё" d="M396 681q35 0 47 -10t12 -45q0 -38 -12.5 -50t-46.5 -12q-36 0 -48 11.5t-12 50.5q0 35 12 45t48 10zM182 681q35 0 47.5 -10t12.5 -45q0 -38 -12.5 -50t-47.5 -12t-47 11.5t-12 50.5q0 35 12 45t47 10zM295 426q-59 0 -83 -23t-30 -86h214q-3 66 -24.5 87.5t-76.5 21.5z M456 112l20 -98q-84 -28 -178 -28q-119 0 -183 61.5t-64 209.5q0 146 59.5 206.5t177.5 60.5q80 0 126.5 -20.5t71.5 -78.5t25 -163q0 -26 -1 -40h-329q1 -78 31 -104.5t101 -26.5q73 0 143 21z"/>
<glyph glyph-name="afii10099" horiz-adv-x="576" unicode="ђ" d="M193 581v-104q61 35 140 35q51 0 84 -11.5t59 -43t37.5 -89.5t11.5 -147q0 -169 -47 -269.5t-112 -134.5l-88 85q53 29 84 99.5t31 215.5q0 78 -10.5 116.5t-30.5 50.5t-61 12q-39 0 -67.5 -11.5t-30.5 -31.5v-353h-124v581h-51v87h51v54h124v-54h103v-87h-103z"/>
<glyph glyph-name="afii10100" horiz-adv-x="424" unicode="ѓ" d="M270 568h-109l121 129h133zM193 402v-402h-124v509h354v-107h-230z"/>
<glyph glyph-name="afii10101" horiz-adv-x="481" unicode="є" d="M430 111l27 -99q-65 -26 -154 -26q-122 0 -187 61.5t-65 209.5q0 147 65 207t186 60q90 0 155 -24l-27 -100q-47 19 -120 19q-59 0 -89 -21t-38 -81h201v-95h-203q4 -76 35 -104t94 -28q68 0 120 21z"/>
<glyph glyph-name="afii10102" horiz-adv-x="491" unicode="ѕ" d="M434 496l-27 -97q-74 24 -148 24q-51 0 -71.5 -11t-20.5 -48q0 -26 21.5 -37.5t83.5 -17.5q95 -10 136 -44t41 -109q0 -94 -56 -132t-162 -38t-182 27l26 98q68 -24 151 -24q55 0 77.5 12t22.5 50q0 28 -22.5 41.5t-86.5 19.5q-89 7 -130.5 38.5t-41.5 106.5 q0 93 56.5 131t161.5 38q87 0 171 -28z"/>
<glyph glyph-name="afii10103" horiz-adv-x="262" unicode="і" d="M132 721q42 0 56.5 -11.5t14.5 -49.5q0 -43 -14.5 -56t-56.5 -13q-43 0 -57.5 13t-14.5 56q0 38 14.5 49.5t57.5 11.5zM193 509v-509h-124v509h124z"/>
<glyph glyph-name="afii10104" horiz-adv-x="262" unicode="ї" d="M238 681q35 0 47 -10t12 -45q0 -38 -12.5 -50t-46.5 -12q-36 0 -48 11.5t-12 50.5q0 35 12 45t48 10zM24 681q35 0 47.5 -10t12.5 -45q0 -38 -12.5 -50t-47.5 -12t-47 11.5t-12 50.5q0 35 12 45t47 10zM193 509v-509h-124v509h124z"/>
<glyph glyph-name="afii10105" horiz-adv-x="262" unicode="ј" d="M-16 -203v103q44 0 64.5 18.5t20.5 67.5v523h124v-520q0 -109 -50 -150.5t-159 -41.5zM132 721q42 0 56.5 -11.5t14.5 -49.5q0 -43 -14.5 -56t-56.5 -13q-43 0 -57.5 13t-14.5 56q0 38 14.5 49.5t57.5 11.5z"/>
<glyph glyph-name="afii10106" horiz-adv-x="886" unicode="љ" d="M502 92h150q57 0 57 70q0 36 -14.5 51.5t-44.5 15.5h-148v-137zM378 401h-138q-17 -210 -77 -401h-130q74 238 89 509h380v-184h179q158 0 158 -161q0 -88 -39 -126t-119 -38h-303v401z"/>
<glyph glyph-name="afii10107" horiz-adv-x="901" unicode="њ" d="M517 92h150q57 0 57 71q0 36 -14.5 51t-44.5 15h-148v-137zM517 325h179q158 0 158 -161q0 -88 -39 -126t-119 -38h-303v229h-200v-229h-124v509h124v-184h200v184h124v-184z"/>
<glyph glyph-name="afii10108" horiz-adv-x="583" unicode="ћ" d="M18 581v87h51v54h124v-54h103v-87h-103v-92q68 35 140 35q64 0 101.5 -17.5t60 -69t22.5 -144.5v-293h-124v283q0 77 -24 103t-78 26q-41 0 -69.5 -12t-28.5 -33v-367h-124v581h-51z"/>
<glyph glyph-name="afii10109" horiz-adv-x="551" unicode="ќ" d="M323 568h-109l121 129h133zM549 0h-145q-60 126 -108 175t-103 61v-236h-124v509h124v-245q74 81 197 245h147q-146 -196 -193 -233q30 -12 52.5 -30.5t62 -79t90.5 -166.5z"/>
<glyph glyph-name="afii10110" horiz-adv-x="511" unicode="ў" d="M107 699h85q0 -34 15.5 -46t50.5 -12t51 12.5t16 45.5h80q0 -137 -150 -137q-148 0 -148 137zM180 -25q-83 299 -180 534h129q68 -170 126 -386q85 226 126 386h126q-72 -245 -193 -530q-42 -100 -79 -171h-138q37 66 83 167z"/>
<glyph glyph-name="afii10193" horiz-adv-x="587" unicode="џ" d="M193 509v-401h200v401h124v-509h-156l-21 -178h-88l-21 178h-162v509h124z"/>
<glyph glyph-name="afii10050" horiz-adv-x="544" unicode="Ґ" d="M88 0v697h350l33 178h88v-292h-339v-583h-132z"/>
<glyph glyph-name="afii10098" horiz-adv-x="424" unicode="ґ" d="M423 401h-230v-401h-124v509h246l30 164h78v-272z"/>
<glyph glyph-name="endash" horiz-adv-x="578" unicode="–" d="M49 222v118h480v-118h-480z"/>
<glyph glyph-name="emdash" horiz-adv-x="865" unicode="—" d="M49 222v118h767v-118h-767z"/>
<glyph glyph-name="quoteleft" horiz-adv-x="255" unicode="‘" d="M24 505l109 262h100l-78 -262h-131z"/>
<glyph glyph-name="quoteright" horiz-adv-x="255" unicode="’" d="M232 762l-109 -262h-100l78 262h131z"/>
<glyph glyph-name="quotesinglbase" horiz-adv-x="245" unicode="‚" d="M227 103l-109 -262h-100l78 262h131z"/>
<glyph glyph-name="quotedblleft" horiz-adv-x="450" unicode="“" d="M218 505l109 262h100l-78 -262h-131zM24 505l109 262h100l-78 -262h-131z"/>
<glyph glyph-name="quotedblright" horiz-adv-x="450" unicode="”" d="M232 763l-109 -262h-100l78 262h131zM426 763l-109 -262h-100l78 262h131z"/>
<glyph glyph-name="quotedblbase" horiz-adv-x="450" unicode="„" d="M232 98l-109 -262h-100l78 262h131zM426 98l-109 -262h-100l78 262h131z"/>
<glyph glyph-name="dagger" horiz-adv-x="446" unicode="†" d="M30 479v100h141v143h103v-143h142v-100h-142v-228h-103v228h-141z"/>
<glyph glyph-name="daggerdbl" horiz-adv-x="446" unicode="‡" d="M30 479v100h141v143h103v-143h142v-100h-142v-96h142v-101h-142v-143h-103v143h-141v101h141v96h-141z"/>
<glyph glyph-name="bullet" d="M293 56q-127 0 -184.5 59.5t-57.5 211.5q0 150 58 208.5t184 58.5q128 0 186 -58.5t58 -208.5q0 -152 -58 -211.5t-186 -59.5z" unicode="•"/>
<glyph glyph-name="ellipsis" horiz-adv-x="1141" unicode="…" d="M920 143q48 0 64 -13t16 -57q0 -48 -16.5 -63t-63.5 -15q-45 0 -61 15t-16 63q0 44 16 57t61 13zM569 143q47 0 63 -13t16 -57q0 -48 -16.5 -63t-62.5 -15q-45 0 -61.5 15t-16.5 63q0 44 16 57t62 13zM218 143q48 0 64 -13t16 -57q0 -48 -16.5 -63t-63.5 -15 q-45 0 -61 15t-16 63q0 44 15.5 57t61.5 13z"/>
<glyph glyph-name="perthousand" horiz-adv-x="1354" unicode="‰" d="M1137 74q43 0 57.5 28t14.5 114q0 85 -14.5 110t-57.5 25t-58 -25t-15 -110q0 -86 15.5 -114t57.5 -28zM1137 439q100 0 141 -47t41 -175q0 -131 -41.5 -181t-140.5 -50t-140.5 50t-41.5 181q0 128 41 175t141 47zM742 74q43 0 57.5 28t14.5 114q0 85 -14.5 110t-57.5 25 t-58 -25t-15 -110q0 -86 15.5 -114t57.5 -28zM742 439q100 0 141 -47t41 -175q0 -131 -41.5 -181t-140.5 -50t-140.5 50t-41.5 181q0 128 41 175t141 47zM217 349q43 0 57.5 27.5t14.5 113.5q0 85 -14.5 110.5t-57.5 25.5t-58 -25.5t-15 -110.5t15.5 -113t57.5 -28zM217 714 q100 0 141 -47t41 -176q0 -131 -41.5 -181t-140.5 -50t-140.5 50t-41.5 181q0 129 41 176t141 47zM633 697h117l-429 -697h-116z"/>
<glyph glyph-name="guilsinglleft" horiz-adv-x="395" unicode="‹" d="M368 518l-176 -204l176 -208l-70 -75l-271 281l270 279z"/>
<glyph glyph-name="guilsinglright" horiz-adv-x="395" unicode="›" d="M27 105l177 204l-177 209l70 74l272 -280l-270 -280z"/>
<glyph glyph-name="fraction" horiz-adv-x="593" unicode="⁄" d="M460 697h117l-439 -697h-116z"/>
<glyph glyph-name="fraction" horiz-adv-x="593" unicode="∕" d="M460 697h117l-439 -697h-116z"/>
<glyph glyph-name="franc" horiz-adv-x="570" unicode="₣" d="M48 117v88h40v492h496v-114h-364v-197h222v-112h-222v-69h90v-88h-90v-117h-132v117h-40z"/>
<glyph glyph-name="Euro" horiz-adv-x="592" unicode="€" d="M53 355q0 106 19.5 176t62 110.5t100.5 56.5t145 16q106 0 200 -26l-29 -116q-61 22 -148 22q-90 0 -133.5 -21.5t-60.5 -88.5h239v-85h-253q-1 -11 -1 -45q0 -35 1 -45h253v-85h-239q16 -70 60 -93.5t134 -23.5q87 0 148 22l29 -118q-90 -25 -200 -25q-115 0 -184 32.5 t-106 114.5t-37 222z"/>
<glyph glyph-name="afii61352" horiz-adv-x="1174" unicode="№" d="M937 381q47 0 62 23.5t15 101.5q0 77 -14.5 98.5t-62.5 21.5q-47 0 -61.5 -21.5t-14.5 -98.5q0 -79 14.5 -102t61.5 -23zM937 714q103 0 144.5 -44t41.5 -164q0 -122 -42 -168t-144 -46t-143.5 46t-41.5 168q0 120 41.5 164t143.5 44zM776 123v98h326v-98h-326zM685 697 v-697h-161q-143 265 -307 525v-525h-129v697h173q151 -238 293 -503v503h131z"/>
<glyph glyph-name="trademark" horiz-adv-x="824" unicode="™" d="M478 697l91 -243l88 243h112v-359h-84v250l-87 -236h-69l-84 236v-250h-84v359h117zM210 338h-89v281h-114v78h316v-78h-113v-281z"/>
<glyph glyph-name="estimated" horiz-adv-x="711" unicode="℮" d="M365 595q-88 0 -125.5 -34t-43.5 -140h333q-4 105 -41 139.5t-123 34.5zM669 303h-474q4 -119 46 -158t151 -39q37 0 91 7t80 16l28 -118q-90 -25 -200 -25q-173 0 -255.5 82t-82.5 287q0 104 20.5 175t62.5 111t97 56.5t132 16.5q156 0 230 -88t74 -291v-32z"/>
<glyph glyph-name="arrowleft" horiz-adv-x="757" unicode="←" d="M390 26l-375 341l374 341l88 -89l-217 -194h482v-117h-482l217 -193z"/>
<glyph glyph-name="arrowup" horiz-adv-x="759" unicode="↑" d="M38 355l342 375l340 -375l-88 -88l-194 218v-482h-117v482l-193 -218z"/>
<glyph glyph-name="arrowright" horiz-adv-x="757" unicode="→" d="M367 707l375 -340l-375 -342l-88 90l218 193h-482v117h482l-218 194z"/>
<glyph glyph-name="arrowdown" horiz-adv-x="759" unicode="↓" d="M720 378l-341 -375l-341 374l89 88l194 -217v482h117v-482l193 217z"/>
<glyph glyph-name="partialdiff" horiz-adv-x="626" unicode="∂" d="M440 238q0 38 -9 72q-46 7 -108 7q-84 0 -109 -20t-25 -85q0 -62 25 -86.5t99 -24.5q76 0 101.5 24.5t25.5 112.5zM309 428q35 0 87 -5q-57 114 -225 274h164q114 -111 179 -223.5t65 -249.5q0 -141 -54.5 -191t-211.5 -50q-145 0 -203.5 52t-58.5 183q0 118 56 164 t202 46z"/>
<glyph glyph-name="product" horiz-adv-x="736" unicode="∏" d="M220 578v-578h-132v697h560v-697h-130v578h-298z"/>
<glyph glyph-name="summation" horiz-adv-x="622" unicode="∑" d="M394 345q-93 -139 -167 -232h371v-113h-594q67 90 236 346q-117 178 -221 351h576v-114h-357q80 -124 156 -238z"/>
<glyph glyph-name="minus" horiz-adv-x="582" unicode="−" d="M48 303v118h486v-118h-486z"/>
<glyph glyph-name="radical" horiz-adv-x="578" unicode="√" d="M0 509h165q69 -172 126 -384q40 105 102.5 293.5t85.5 278.5h126q-38 -128 -116.5 -352.5t-127.5 -344.5h-153q-67 231 -126 387h-82v122z"/>
<glyph glyph-name="infinity" horiz-adv-x="773" unicode="∞" d="M436 351q0 -53 23.5 -76t78.5 -23q53 0 73.5 22t20.5 77t-20.5 77t-73.5 22q-55 0 -78.5 -23t-23.5 -76zM387 264q-8 -77 -51 -103.5t-123 -26.5q-99 0 -142.5 47t-43.5 170t43.5 169.5t142.5 46.5q80 0 123 -26.5t51 -102.5q7 76 49.5 102.5t123.5 26.5 q99 0 142.5 -46.5t43.5 -169.5t-43.5 -170t-142.5 -47q-80 0 -123 27t-50 103zM337 351q0 53 -23.5 76t-78.5 23q-53 0 -73.5 -22t-20.5 -77q0 -56 20 -78t74 -22q55 0 78.5 23.5t23.5 76.5z"/>
<glyph glyph-name="integral" horiz-adv-x="339" unicode="∫" d="M406 702l-28 -98q-42 14 -97 14q-41 0 -61.5 -16.5t-20.5 -65.5v-550q0 -189 -198 -189q-83 0 -148 24l25 96q52 -20 111 -20q40 0 63 22t23 67v557q0 95 50.5 138t134.5 43q80 0 146 -22z"/>
<glyph glyph-name="approxequal" horiz-adv-x="582" unicode="≈" d="M466 533l80 -63q-19 -51 -59 -82.5t-94 -31.5q-40 0 -115 42.5t-104 42.5q-38 0 -64 -60l-72 69q57 98 137 98q47 0 122 -41.5t101 -41.5q23 0 38.5 14.5t29.5 53.5zM466 320l80 -63q-19 -51 -59 -82.5t-94 -31.5q-40 0 -115 42.5t-104 42.5q-38 0 -64 -60l-72 69 q57 98 137 98q47 0 122 -41.5t101 -41.5q23 0 38.5 14.5t29.5 53.5z"/>
<glyph glyph-name="notequal" horiz-adv-x="582" unicode="≠" d="M380 648h124l-52 -95h82v-118h-143l-79 -149h222v-118h-282l-52 -96h-123l51 96h-80v118h141l79 149h-220v118h280z"/>
<glyph glyph-name="lessequal" horiz-adv-x="582" unicode="≤" d="M499 629l-261 -193l261 -195l-63 -82l-360 250v52l359 249zM48 19v118h486v-118h-486z"/>
<glyph glyph-name="greaterequal" horiz-adv-x="582" unicode="≥" d="M344 436l-260 193l64 81l359 -249v-52l-361 -250l-62 82zM535 137v-118h-486v118h486z"/>
<glyph glyph-name="lozenge" horiz-adv-x="600" unicode="◊" d="M443 266q-10 26 -40.5 104t-53.5 138t-35 97h-27q-109 -261 -138 -339q40 -106 138 -339h27q12 37 34.5 97t53.5 138t41 104zM582 265q-106 -245 -171 -433h-207q-113 248 -185 433q76 196 185 434h207q64 -184 171 -434z"/>
<glyph glyph-name="caron.alt" horiz-adv-x="327" unicode="" d="M282 722h110l-57 -192h-73z"/>
<glyph glyph-name="commaaccent" horiz-adv-x="267" unicode="" d="M266 -51l-108 -167h-97l71 167h134z"/>
<glyph glyph-name="Acute" horiz-adv-x="408" unicode="" d="M207 747h-108l129 129h137z"/>
<glyph glyph-name="Caron" horiz-adv-x="654" unicode="" d="M280 876l73 -78l70 78h112l-122 -129h-122l-126 129h115z"/>
<glyph glyph-name="Dieresis" horiz-adv-x="431" unicode="" d="M359 864q35 0 47 -10.5t12 -45.5q0 -38 -12 -49.5t-47 -11.5q-36 0 -48 11.5t-12 49.5q0 35 12 45.5t48 10.5zM146 864q35 0 47 -10.5t12 -45.5q0 -38 -12 -49.5t-47 -11.5t-47.5 11.5t-12.5 49.5q0 35 12.5 45.5t47.5 10.5z"/>
<glyph glyph-name="Grave" horiz-adv-x="408" unicode="" d="M409 747h-114l-158 129h137z"/>
<glyph glyph-name="Hungarumlaut" horiz-adv-x="618" unicode="" d="M413 747h-86l91 129h109zM248 747h-85l91 129h109z"/>
<glyph glyph-name="Macron" horiz-adv-x="326" unicode="" d="M123 753v92h278v-92h-278z"/>
<glyph glyph-name="Lslashsmall" horiz-adv-x="432" unicode="" d="M193 232v-121h240v-111h-364v128l-42 -37v107l42 37v274h124v-170l94 83v-108z"/>
<glyph glyph-name="OEsmall" horiz-adv-x="825" unicode="" d="M293 424q-68 0 -91 -31.5t-23 -137.5q0 -103 23.5 -136t90.5 -33q68 0 92 33t24 136q0 73 -11 109t-34.5 48t-70.5 12zM787 509v-101h-278q22 -37 26 -95h188v-95h-188q-1 -74 -27 -117h279v-101h-384q-43 -14 -110 -14q-127 0 -184.5 59.5t-57.5 211.5q0 150 58 208.5 t184 58.5q65 0 113 -15h381z"/>
<glyph glyph-name="Scaronsmall" horiz-adv-x="491" unicode="" d="M66 697h117l71 -76l69 76h113l-122 -129h-122zM434 496l-27 -97q-74 24 -148 24q-51 0 -71.5 -11t-20.5 -48q0 -26 21.5 -37.5t83.5 -17.5q95 -10 136 -44t41 -109q0 -94 -56 -132t-162 -38t-182 27l26 98q68 -24 151 -24q55 0 77.5 12t22.5 50q0 28 -22.5 41.5 t-86.5 19.5q-89 7 -130.5 38.5t-41.5 106.5q0 93 56.5 131t161.5 38q87 0 171 -28z"/>
<glyph glyph-name="Zcaronsmall" horiz-adv-x="497" unicode="" d="M67 697h117l71 -76l69 76h113l-122 -129h-122zM35 509h439v-25q-53 -85 -131.5 -197.5t-130.5 -178.5h255v-108h-449v25q70 88 148 199.5t118 176.5h-249v108z"/>
<glyph glyph-name="exclamsmall" horiz-adv-x="327" unicode="" d="M163 141q47 0 63 -13.5t16 -57.5q0 -48 -16 -62.5t-63 -14.5q-45 0 -61.5 14.5t-16.5 62.5q0 44 16.5 57.5t61.5 13.5zM91 509h143l-27 -302h-90z"/>
<glyph glyph-name="ampersandsmall" horiz-adv-x="698" unicode="" d="M282 317q53 0 76.5 12t23.5 45q0 32 -20 44t-76 12q-57 0 -77.5 -12.5t-20.5 -43.5q0 -33 20.5 -45t73.5 -12zM261 82q105 0 176 61q-74 78 -164 78q-53 0 -81.5 -13t-28.5 -56q0 -40 21.5 -55t76.5 -15zM684 0h-137q-21 31 -45 64q-118 -78 -245 -78q-126 0 -175.5 31.5 t-49.5 117.5q0 129 143 136q-68 5 -90 34t-22 88q0 74 45 102.5t176 28.5q130 0 174.5 -28.5t44.5 -102.5q0 -56 -28.5 -87t-98.5 -37q62 -7 131 -69q37 46 49 99h134q-16 -88 -100 -172q46 -52 94 -127z"/>
<glyph glyph-name="zerooldstyle" horiz-adv-x="626" unicode="" d="M315 424q-42 0 -63 -12t-31.5 -48t-10.5 -109q0 -103 22 -136t83 -33t80.5 32t19.5 137q0 107 -20 138t-80 31zM315 -14q-117 0 -174.5 60.5t-57.5 210.5q0 149 57.5 208t174.5 59t172.5 -58.5t55.5 -208.5q0 -151 -55.5 -211t-172.5 -60z"/>
<glyph glyph-name="oneoldstyle" horiz-adv-x="626" unicode="" d="M441 0h-125v362l-156 -71l-36 104l317 129v-524z"/>
<glyph glyph-name="twooldstyle" horiz-adv-x="626" unicode="" d="M122 386l-29 115q98 23 209 23q130 0 180 -36.5t50 -123.5q0 -75 -58.5 -137t-203.5 -126h273v-101h-455v91q135 75 201 119t87 71t21 59q0 39 -24 55t-92 16q-35 0 -85.5 -7.5t-73.5 -17.5z"/>
<glyph glyph-name="threeoldstyle" horiz-adv-x="626" unicode="" d="M192 121v112h97q64 0 90 19t26 69q0 49 -30 67t-120 18q-102 0 -175 -22l-26 114q122 26 227 26q147 0 205.5 -41t58.5 -137q0 -77 -31 -117.5t-119 -47.5q93 -4 128.5 -49t35.5 -131q0 -112 -65 -157t-216 -45q-116 0 -229 25l26 114q69 -20 178 -20q97 0 130 21.5 t33 79.5t-28 80t-97 22h-99z"/>
<glyph glyph-name="fouroldstyle" horiz-adv-x="626" unicode="" d="M369 103v296q-73 -93 -186 -296h186zM369 0h-346v40q174 305 297 469h175v-406h93v-103h-93v-192h-126v192z"/>
<glyph glyph-name="fiveoldstyle" horiz-adv-x="626" unicode="" d="M96 509h432v-114h-308v-153q54 4 84 4q144 0 199.5 -49.5t55.5 -167.5q0 -131 -61 -181.5t-212 -50.5q-120 0 -222 25l26 114q66 -20 170 -20q95 0 125.5 22t30.5 84q0 67 -28 89.5t-121 22.5q-99 0 -171 -14v389z"/>
<glyph glyph-name="sixoldstyle" horiz-adv-x="626" unicode="" d="M324 105q74 0 99 22t25 81q0 62 -23.5 87t-90.5 25q-82 0 -140 -10q2 -124 31 -164.5t99 -40.5zM563 687l-29 -116q-61 23 -164 23q-90 0 -130.5 -34.5t-43.5 -138.5q63 11 132 11q145 0 201.5 -49t56.5 -168q0 -131 -58 -180t-204 -49q-151 0 -210 78.5t-59 289.5 q0 107 17 176.5t56.5 110.5t96.5 57t145 16q102 0 193 -27z"/>
<glyph glyph-name="sevenoldstyle" horiz-adv-x="626" unicode="" d="M597 509v-39q-70 -113 -165 -315.5t-143 -346.5h-149q57 158 138.5 329t143.5 258h-360v114h535z"/>
<glyph glyph-name="eightoldstyle" horiz-adv-x="626" unicode="" d="M313 -14q-143 0 -202.5 45.5t-59.5 156.5q0 86 34.5 131.5t128.5 49.5q-87 8 -117.5 49t-30.5 118q0 95 53 136.5t194 41.5t194 -41.5t53 -136.5q0 -77 -30.5 -118t-117.5 -49q94 -4 128.5 -49.5t34.5 -131.5q0 -111 -59 -156.5t-203 -45.5zM313 417q60 0 86.5 22.5 t26.5 75.5q0 51 -25 70t-88 19q-64 0 -89 -19t-25 -70q0 -53 26.5 -75.5t87.5 -22.5zM313 94q71 0 98 23.5t27 83.5q0 61 -28 87t-97 26t-96.5 -26t-27.5 -87t26.5 -84t97.5 -23z"/>
<glyph glyph-name="nineoldstyle" horiz-adv-x="626" unicode="" d="M323 190q62 0 108 7q9 35 9 72q0 87 -25.5 112t-101.5 25q-74 0 -99 -25t-25 -87q0 -65 25 -84.5t109 -19.5zM169 -192q169 160 227 275q-40 -5 -87 -5q-146 0 -202 46t-56 164q0 132 58.5 184t203.5 52q157 0 211.5 -50t54.5 -191q0 -137 -65.5 -250.5t-180.5 -224.5 h-164z"/>
<glyph glyph-name="questionsmall" horiz-adv-x="482" unicode="" d="M283 202h-123q71 54 100.5 90t29.5 81q0 28 -19 39.5t-69 11.5q-77 0 -139 -18l-19 103q93 19 168 19q118 0 168 -31t50 -102q0 -59 -33 -101.5t-114 -91.5zM225 143q48 0 64 -13t16 -57q0 -48 -16.5 -62.5t-63.5 -14.5q-45 0 -61 14.5t-16 62.5q0 44 15.5 57t61.5 13z "/>
<glyph glyph-name="Asmall" horiz-adv-x="563" unicode="" d="M288 409h-21q-33 -82 -71 -195h153q-33 96 -61 195zM427 0q-20 45 -47 123h-213q-18 -58 -36 -123h-128q60 208 183 509h193q93 -317 178 -509h-130z"/>
<glyph glyph-name="Bsmall" horiz-adv-x="580" unicode="" d="M402 270q72 -2 100 -35.5t28 -95.5q0 -139 -150 -139h-311v509h307q81 0 111.5 -30.5t30.5 -91.5q0 -55 -24 -83.5t-92 -33.5zM193 413v-102h147q26 0 37.5 12.5t11.5 39.5q0 29 -11 39.5t-38 10.5h-147zM193 96h152q29 0 42 13.5t13 44.5q0 66 -58 66h-149v-124z"/>
<glyph glyph-name="Csmall" horiz-adv-x="470" unicode="" d="M430 118l28 -106q-65 -26 -155 -26q-124 0 -188 61t-64 210q0 148 64 207.5t188 59.5q90 0 155 -24l-28 -106q-59 22 -118 22q-49 0 -75.5 -10.5t-42 -46t-15.5 -104.5q0 -96 30.5 -128.5t102.5 -32.5q59 0 118 24z"/>
<glyph glyph-name="Dsmall" horiz-adv-x="584" unicode="" d="M276 413h-83v-317h83q70 0 99 31.5t29 127.5q0 98 -28.5 128t-99.5 30zM69 509h216q129 0 188 -54.5t59 -197.5q0 -144 -59 -200.5t-188 -56.5h-216v509z"/>
<glyph glyph-name="Esmall" horiz-adv-x="505" unicode="" d="M467 509v-101h-274v-95h210v-95h-210v-117h274v-101h-398v509h398z"/>
<glyph glyph-name="Fsmall" horiz-adv-x="474" unicode="" d="M69 0v509h398v-101h-274v-120h210v-97h-210v-191h-124z"/>
<glyph glyph-name="Gsmall" horiz-adv-x="569" unicode="" d="M505 297v-276q-98 -35 -202 -35q-123 0 -187.5 61t-64.5 210q0 147 68 207t194 60q100 0 170 -24l-32 -102q-62 22 -134 22q-74 0 -106 -32.5t-32 -132.5q0 -96 32 -130.5t101 -34.5q49 0 82 14v96h-108v97h219z"/>
<glyph glyph-name="Hsmall" horiz-adv-x="587" unicode="" d="M393 216h-200v-216h-124v509h124v-187h200v187h124v-509h-124v216z"/>
<glyph glyph-name="Ismall" horiz-adv-x="262" unicode="" d="M193 509v-509h-124v509h124z"/>
<glyph glyph-name="Jsmall" horiz-adv-x="414" unicode="" d="M346 509v-333q0 -190 -198 -190q-84 0 -148 23l24 106q52 -20 112 -20q86 0 86 90v324h124z"/>
<glyph glyph-name="Ksmall" horiz-adv-x="551" unicode="" d="M552 0h-146q-174 252 -213 269v-269h-124v509h124v-240q49 40 197 240h147q-139 -188 -195 -231q22 -13 78 -86t132 -192z"/>
<glyph glyph-name="Lsmall" horiz-adv-x="432" unicode="" d="M193 509v-398h240v-111h-364v509h124z"/>
<glyph glyph-name="Msmall" horiz-adv-x="753" unicode="" d="M382 206q59 155 129 303h173v-509h-123v371q-67 -145 -140 -341h-93q-85 231 -136 341v-371h-123v509h181q59 -123 132 -303z"/>
<glyph glyph-name="Nsmall" horiz-adv-x="593" unicode="" d="M400 198v311h124v-509h-124q-117 208 -207 321v-321h-124v509h122q130 -168 209 -311z"/>
<glyph glyph-name="Osmall" d="M293 423q-68 0 -91 -31t-23 -137q0 -103 23.5 -135.5t90.5 -32.5q69 0 92.5 32.5t23.5 135.5q0 73 -11 109t-34 47.5t-71 11.5zM293 -14q-127 0 -184.5 59.5t-57.5 211.5q0 150 58 208.5t184 58.5q128 0 186 -58.5t58 -208.5q0 -152 -58 -211.5t-186 -59.5z" unicode=""/>
<glyph glyph-name="Psmall" horiz-adv-x="563" unicode="" d="M375 185h-182v-185h-124v509h296q84 0 122 -40.5t38 -123.5q0 -160 -150 -160zM340 413h-147v-137h147q55 0 55 67q0 70 -55 70z"/>
<glyph glyph-name="Qsmall" d="M293 424q-68 0 -91 -31.5t-23 -137.5q0 -103 23.5 -136t90.5 -33q68 0 92 33t24 136q0 73 -11 109t-34.5 48t-70.5 12zM283 -14q-117 0 -174.5 60.5t-57.5 210.5t58 208.5t184 58.5q128 0 186 -58.5t58 -208.5q0 -107 -29.5 -166t-90.5 -83q34 -8 77 -52t108 -138h-139 q-109 168 -180 168z" unicode=""/>
<glyph glyph-name="Rsmall" horiz-adv-x="574" unicode="" d="M193 279h141q63 0 63 66q0 64 -61 64h-143v-130zM369 509q157 0 157 -149q0 -135 -140 -140q41 -10 75.5 -50.5t107.5 -169.5h-144q-58 109 -92 145t-69 36h-71v-181h-124v509h300z"/>
<glyph glyph-name="Ssmall" horiz-adv-x="491" unicode="" d="M434 496l-27 -97q-74 24 -148 24q-51 0 -71.5 -11t-20.5 -48q0 -26 21.5 -37.5t83.5 -17.5q95 -10 136 -44t41 -109q0 -94 -56 -132t-162 -38t-182 27l26 98q68 -24 151 -24q55 0 77.5 12t22.5 50q0 28 -22.5 41.5t-86.5 19.5q-89 7 -130.5 38.5t-41.5 106.5 q0 93 56.5 131t161.5 38q87 0 171 -28z"/>
<glyph glyph-name="Tsmall" horiz-adv-x="485" unicode="" d="M304 401v-401h-124v401h-175v108h475v-108h-176z"/>
<glyph glyph-name="Usmall" horiz-adv-x="578" unicode="" d="M289 97q58 0 78.5 23t20.5 79v310h123v-303q0 -124 -49.5 -172t-172.5 -48t-173 48.5t-50 171.5v303h124v-310q0 -56 20.5 -79t78.5 -23z"/>
<glyph glyph-name="Vsmall" horiz-adv-x="522" unicode="" d="M264 125q84 222 126 384h126q-69 -232 -183 -509h-153q-84 298 -171 509h129q67 -171 126 -384z"/>
<glyph glyph-name="Wsmall" horiz-adv-x="830" unicode="" d="M415 341q-38 -170 -98 -341h-153q-78 281 -164 509h131q65 -174 116 -382q26 75 60 193.5t50 188.5h121q56 -167 103 -382q80 220 118 382h126q-74 -264 -174 -509h-154q-37 192 -82 341z"/>
<glyph glyph-name="Xsmall" horiz-adv-x="521" unicode="" d="M516 0h-140q-37 61 -107 161q-64 -87 -125 -161h-138q77 90 198 254q-113 157 -197 255h148q53 -66 117 -156q40 55 105 156h138q-75 -113 -175 -251q98 -138 176 -258z"/>
<glyph glyph-name="Ysmall" horiz-adv-x="487" unicode="" d="M250 332q60 72 126 177h136q-100 -153 -202 -278v-231h-124v231q-129 181 -211 278h144q55 -66 131 -177z"/>
<glyph glyph-name="Zsmall" horiz-adv-x="497" unicode="" d="M35 509h439v-25q-53 -85 -131.5 -197.5t-130.5 -178.5h255v-108h-449v25q70 88 148 199.5t118 176.5h-249v108z"/>
<glyph glyph-name="exclamdownsmall" horiz-adv-x="327" unicode="" d="M164 369q-47 0 -63.5 13t-16.5 57q0 48 16.5 63t63.5 15q45 0 61.5 -15t16.5 -63q0 -44 -16 -57t-62 -13zM235 0h-143l27 302h91z"/>
<glyph glyph-name="questiondownsmall" horiz-adv-x="482" unicode="" d="M193 317h123q-72 -55 -101.5 -91t-29.5 -82q0 -27 19.5 -38t68.5 -11q77 0 139 18l20 -103q-83 -17 -168 -17q-117 0 -168 29.5t-51 98.5q0 60 33 103.5t115 92.5zM250 376q-47 0 -63 13t-16 57q0 48 16.5 63t62.5 15q45 0 61.5 -15t16.5 -63q0 -44 -16 -57t-62 -13z"/>
<glyph glyph-name="Agravesmall" horiz-adv-x="563" unicode="" d="M385 568h-110l-144 129h132zM288 409h-21q-33 -82 -71 -195h153q-33 96 -61 195zM427 0q-20 45 -47 123h-213q-18 -58 -36 -123h-128q60 208 183 509h193q93 -317 178 -509h-130z"/>
<glyph glyph-name="Aacutesmall" horiz-adv-x="563" unicode="" d="M291 568h-109l121 129h133zM288 409h-21q-33 -82 -71 -195h153q-33 96 -61 195zM427 0q-20 45 -47 123h-213q-18 -58 -36 -123h-128q60 208 183 509h193q93 -317 178 -509h-130z"/>
<glyph glyph-name="Acircumflexsmall" horiz-adv-x="563" unicode="" d="M466 568h-117l-71 76l-69 -76h-113l122 129h122zM288 409h-21q-33 -82 -71 -195h153q-33 96 -61 195zM427 0q-20 45 -47 123h-213q-18 -58 -36 -123h-128q60 208 183 509h193q93 -317 178 -509h-130z"/>
<glyph glyph-name="Atildesmall" horiz-adv-x="563" unicode="" d="M400 702l62 -50q-33 -93 -117 -93q-31 0 -74.5 26.5t-66.5 26.5q-31 0 -52 -51l-56 55q46 81 109 81q37 0 79 -26.5t63 -26.5q18 0 29.5 12.5t23.5 45.5zM288 409h-21q-33 -82 -71 -195h153q-33 96 -61 195zM427 0q-20 45 -47 123h-213q-18 -58 -36 -123h-128 q60 208 183 509h193q93 -317 178 -509h-130z"/>
<glyph glyph-name="Adieresissmall" horiz-adv-x="563" unicode="" d="M386 681q35 0 47 -10t12 -45q0 -38 -12.5 -50t-46.5 -12q-36 0 -48 11.5t-12 50.5q0 35 12 45t48 10zM172 681q35 0 47.5 -10t12.5 -45q0 -38 -12.5 -50t-47.5 -12t-47 11.5t-12 50.5q0 35 12 45t47 10zM288 409h-21q-33 -82 -71 -195h153q-33 96 -61 195zM427 0 q-20 45 -47 123h-213q-18 -58 -36 -123h-128q60 208 183 509h193q93 -317 178 -509h-130z"/>
<glyph glyph-name="Aringsmall" horiz-adv-x="563" unicode="" d="M277 684q-30 0 -40 -9.5t-10 -33.5q0 -23 10.5 -33t39.5 -10t39.5 10t10.5 33q0 24 -10 33.5t-40 9.5zM277 741q61 0 90 -22.5t29 -75.5t-28.5 -75.5t-90.5 -22.5t-91 22.5t-29 75.5t28 75.5t92 22.5zM288 409h-21q-33 -82 -71 -195h153q-33 96 -61 195zM427 0 q-20 45 -47 123h-213q-18 -58 -36 -123h-128q60 208 183 509h193q93 -317 178 -509h-130z"/>
<glyph glyph-name="AEsmall" horiz-adv-x="808" unicode="" d="M349 417q-67 -91 -141 -200h164v200h-23zM706 313v-95h-210v-117h274v-101h-398v125h-224q-34 -51 -80 -125h-135q142 225 357 509h480v-101h-274v-95h210z"/>
<glyph glyph-name="Ccedillasmall" horiz-adv-x="470" unicode="" d="M430 118l28 -106q-63 -24 -149 -26v-28q60 0 85 -17t25 -61q0 -47 -30.5 -65t-106.5 -18q-62 0 -98 16l22 54q24 -12 71 -12q23 0 32 5.5t9 20.5t-12.5 21t-44.5 6q-23 0 -37 -1l31 82q-101 9 -152.5 71.5t-51.5 196.5q0 148 64 207.5t188 59.5q90 0 155 -24l-28 -106 q-59 22 -118 22q-49 0 -75.5 -10.5t-42 -46t-15.5 -104.5q0 -96 30.5 -128.5t102.5 -32.5q59 0 118 24z"/>
<glyph glyph-name="Egravesmall" horiz-adv-x="505" unicode="" d="M385 568h-110l-144 129h132zM467 509v-101h-274v-95h210v-95h-210v-117h274v-101h-398v509h398z"/>
<glyph glyph-name="Eacutesmall" horiz-adv-x="505" unicode="" d="M287 568h-109l121 129h133zM467 509v-101h-274v-95h210v-95h-210v-117h274v-101h-398v509h398z"/>
<glyph glyph-name="Ecircumflexsmall" horiz-adv-x="505" unicode="" d="M467 568h-117l-71 76l-69 -76h-113l122 129h122zM467 509v-101h-274v-95h210v-95h-210v-117h274v-101h-398v509h398z"/>
<glyph glyph-name="Edieresissmall" horiz-adv-x="505" unicode="" d="M388 681q35 0 47 -10t12 -45q0 -38 -12.5 -50t-46.5 -12q-36 0 -48 11.5t-12 50.5q0 35 12 45t48 10zM174 681q35 0 47.5 -10t12.5 -45q0 -38 -12.5 -50t-47.5 -12t-47 11.5t-12 50.5q0 35 12 45t47 10zM467 509v-101h-274v-95h210v-95h-210v-117h274v-101h-398v509h398z "/>
<glyph glyph-name="Igravesmall" horiz-adv-x="262" unicode="" d="M214 568h-110l-144 129h132zM193 509v-509h-124v509h124z"/>
<glyph glyph-name="Iacutesmall" horiz-adv-x="262" unicode="" d="M153 568h-109l121 129h133zM193 509v-509h-124v509h124z"/>
<glyph glyph-name="Icircumflexsmall" horiz-adv-x="262" unicode="" d="M317 568h-117l-71 76l-69 -76h-113l122 129h122zM193 509v-509h-124v509h124z"/>
<glyph glyph-name="Idieresissmall" horiz-adv-x="262" unicode="" d="M239 681q35 0 47 -10t12 -45q0 -38 -12.5 -50t-46.5 -12q-36 0 -48 11.5t-12 50.5q0 35 12 45t48 10zM25 681q35 0 47.5 -10t12.5 -45q0 -38 -12.5 -50t-47.5 -12t-47 11.5t-12 50.5q0 35 12 45t47 10zM193 509v-509h-124v509h124z"/>
<glyph glyph-name="Ethsmall" horiz-adv-x="584" unicode="" d="M276 413h-83v-103h89v-90h-89v-124h83q70 0 99 31.5t29 127.5q0 98 -28.5 128t-99.5 30zM22 220v90h47v199h216q129 0 188 -54.5t59 -197.5q0 -144 -59 -200.5t-188 -56.5h-216v220h-47z"/>
<glyph glyph-name="Ntildesmall" horiz-adv-x="593" unicode="" d="M424 702l62 -50q-33 -93 -117 -93q-31 0 -74.5 26.5t-66.5 26.5q-31 0 -52 -51l-56 55q46 81 109 81q37 0 79 -26.5t63 -26.5q18 0 29.5 12.5t23.5 45.5zM400 198v311h124v-509h-124q-117 208 -207 321v-321h-124v509h122q130 -168 209 -311z"/>
<glyph glyph-name="Ogravesmall" d="M397 568h-110l-144 129h132zM293 424q-68 0 -91 -31.5t-23 -137.5q0 -103 23.5 -136t90.5 -33q68 0 92 33t24 136q0 73 -11 109t-34.5 48t-70.5 12zM293 -14q-127 0 -184.5 59.5t-57.5 211.5q0 150 58 208.5t184 58.5q128 0 186 -58.5t58 -208.5q0 -152 -58 -211.5 t-186 -59.5z" unicode=""/>
<glyph glyph-name="Oacutesmall" d="M307 568h-109l121 129h133zM293 424q-68 0 -91 -31.5t-23 -137.5q0 -103 23.5 -136t90.5 -33q68 0 92 33t24 136q0 73 -11 109t-34.5 48t-70.5 12zM293 -14q-127 0 -184.5 59.5t-57.5 211.5q0 150 58 208.5t184 58.5q128 0 186 -58.5t58 -208.5q0 -152 -58 -211.5 t-186 -59.5z" unicode=""/>
<glyph glyph-name="Ocircumflexsmall" d="M477 568h-117l-71 76l-69 -76h-113l122 129h122zM293 424q-68 0 -91 -31.5t-23 -137.5q0 -103 23.5 -136t90.5 -33q68 0 92 33t24 136q0 73 -11 109t-34.5 48t-70.5 12zM293 -14q-127 0 -184.5 59.5t-57.5 211.5q0 150 58 208.5t184 58.5q128 0 186 -58.5t58 -208.5 q0 -152 -58 -211.5t-186 -59.5z" unicode=""/>
<glyph glyph-name="Otildesmall" d="M413 702l62 -50q-33 -93 -117 -93q-31 0 -74.5 26.5t-66.5 26.5q-31 0 -52 -51l-56 55q46 81 109 81q37 0 79 -26.5t63 -26.5q18 0 29.5 12.5t23.5 45.5zM293 424q-68 0 -91 -31.5t-23 -137.5q0 -103 23.5 -136t90.5 -33q68 0 92 33t24 136q0 73 -11 109t-34.5 48 t-70.5 12zM293 -14q-127 0 -184.5 59.5t-57.5 211.5q0 150 58 208.5t184 58.5q128 0 186 -58.5t58 -208.5q0 -152 -58 -211.5t-186 -59.5z" unicode=""/>
<glyph glyph-name="Odieresissmall" d="M400 681q35 0 47 -10t12 -45q0 -38 -12.5 -50t-46.5 -12q-36 0 -48 11.5t-12 50.5q0 35 12 45t48 10zM186 681q35 0 47.5 -10t12.5 -45q0 -38 -12.5 -50t-47.5 -12t-47 11.5t-12 50.5q0 35 12 45t47 10zM293 424q-68 0 -91 -31.5t-23 -137.5q0 -103 23.5 -136t90.5 -33 q68 0 92 33t24 136q0 73 -11 109t-34.5 48t-70.5 12zM293 -14q-127 0 -184.5 59.5t-57.5 211.5q0 150 58 208.5t184 58.5q128 0 186 -58.5t58 -208.5q0 -152 -58 -211.5t-186 -59.5z" unicode=""/>
<glyph glyph-name="Oslashsmall" d="M293 87q69 0 92.5 35t23.5 131q0 42 -6 68l-186 -217q22 -17 76 -17zM293 423q-66 0 -91 -28.5t-25 -119.5q0 -51 7 -89l187 220q-24 17 -78 17zM462 509h107l-67 -76q35 -62 35 -176q0 -152 -58 -211.5t-186 -59.5q-96 0 -151 33l-17 -19h-105l66 76q-35 64 -35 181 q0 150 58 208.5t184 58.5q101 0 153 -33z" unicode=""/>
<glyph glyph-name="Ugravesmall" horiz-adv-x="578" unicode="" d="M390 568h-110l-144 129h132zM289 97q58 0 78.5 23t20.5 79v310h123v-303q0 -124 -49.5 -172t-172.5 -48t-173 48.5t-50 171.5v303h124v-310q0 -56 20.5 -79t78.5 -23z"/>
<glyph glyph-name="Uacutesmall" horiz-adv-x="578" unicode="" d="M294 568h-109l121 129h133zM289 97q58 0 78.5 23t20.5 79v310h123v-303q0 -124 -49.5 -172t-172.5 -48t-173 48.5t-50 171.5v303h124v-310q0 -56 20.5 -79t78.5 -23z"/>
<glyph glyph-name="Ucircumflexsmall" horiz-adv-x="578" unicode="" d="M473 568h-117l-71 76l-69 -76h-113l122 129h122zM289 97q58 0 78.5 23t20.5 79v310h123v-303q0 -124 -49.5 -172t-172.5 -48t-173 48.5t-50 171.5v303h124v-310q0 -56 20.5 -79t78.5 -23z"/>
<glyph glyph-name="Udieresissmall" horiz-adv-x="578" unicode="" d="M397 681q35 0 47 -10t12 -45q0 -38 -12.5 -50t-46.5 -12q-36 0 -48 11.5t-12 50.5q0 35 12 45t48 10zM183 681q35 0 47.5 -10t12.5 -45q0 -38 -12.5 -50t-47.5 -12t-47 11.5t-12 50.5q0 35 12 45t47 10zM289 97q58 0 78.5 23t20.5 79v310h123v-303q0 -124 -49.5 -172 t-172.5 -48t-173 48.5t-50 171.5v303h124v-310q0 -56 20.5 -79t78.5 -23z"/>
<glyph glyph-name="Yacutesmall" horiz-adv-x="487" unicode="" d="M265 568h-109l121 129h133zM250 332q60 72 126 177h136q-100 -153 -202 -278v-231h-124v231q-129 181 -211 278h144q55 -66 131 -177z"/>
<glyph glyph-name="Thornsmall" horiz-adv-x="563" unicode="" d="M340 325h-147v-137h147q55 0 55 67q0 70 -55 70zM193 97v-97h-124v509h124v-88h172q84 0 122 -40.5t38 -123.5q0 -160 -150 -160h-182z"/>
<glyph glyph-name="Ydieresissmall" horiz-adv-x="487" unicode="" d="M359 681q35 0 47 -10t12 -45q0 -38 -12.5 -50t-46.5 -12q-36 0 -48 11.5t-12 50.5q0 35 12 45t48 10zM145 681q35 0 47.5 -10t12.5 -45q0 -38 -12.5 -50t-47.5 -12t-47 11.5t-12 50.5q0 35 12 45t47 10zM250 332q60 72 126 177h136q-100 -153 -202 -278v-231h-124v231 q-129 181 -211 278h144q55 -66 131 -177z"/>
<glyph glyph-name="Gcedilla" d="M493 116v180h-152v111h287v-391q-81 -25 -221 -29v-29q60 0 85 -17t25 -61q0 -47 -30.5 -65t-106.5 -18q-62 0 -98 16l22 54q24 -12 71 -12q23 0 32 5.5t9 20.5t-12.5 21t-44.5 6q-23 0 -37 -1l30 80q-157 5 -228 87.5t-71 280.5q0 106 21.5 176.5t67 110.5t107 56 t150.5 16q116 0 210 -26l-27 -115q-60 21 -173 21q-52 0 -83.5 -4.5t-59.5 -18t-42 -40.5t-22 -69.5t-8 -107.5q0 -80 10.5 -129t37.5 -75.5t63.5 -35t97.5 -8.5q48 0 90 10z" horiz-adv-x="700"/>
<glyph glyph-name="Idot" d="M154 867q35 0 47.5 -10.5t12.5 -45.5q0 -38 -12.5 -49.5t-47.5 -11.5t-47 11.5t-12 49.5q0 35 12 45.5t47 10.5zM88 697h132v-697h-132v697z" horiz-adv-x="308"/>
<glyph glyph-name="Breve" d="M117 871h85q0 -34 15.5 -46t50.5 -12t51 12.5t16 45.5h80q0 -137 -150 -137q-148 0 -148 137z" horiz-adv-x="323"/>
<glyph glyph-name="Circumflex" d="M419 747l-72 78l-70 -78h-112l122 129h122l126 -129h-116z" horiz-adv-x="660"/>
<glyph glyph-name="Dotaccent" d="M153 867q35 0 47.5 -10.5t12.5 -45.5q0 -38 -12.5 -49.5t-47.5 -11.5t-47 11.5t-12 49.5q0 35 12 45.5t47 10.5z" horiz-adv-x="302"/>
<glyph glyph-name="gacute" d="M309 568h-109l121 129h133zM394 21q-54 -33 -129 -33q-111 0 -162.5 58t-51.5 207q0 152 57.5 211.5t187.5 59.5q131 0 222 -38v-447q0 -73 -19 -122t-57 -74.5t-84.5 -36t-111.5 -10.5q-101 0 -179 30l25 100q78 -25 153 -25t112 26.5t37 93.5zM394 143v262 q-45 17 -98 17q-69 0 -93 -31.5t-24 -136.5q0 -94 24 -126.5t90 -32.5q43 0 72 13t29 35z"/>
<glyph glyph-name="ldotaccent" d="M289 450q35 0 47.5 -10t12.5 -45q0 -38 -12.5 -50t-47.5 -12t-47 11.5t-12 50.5q0 35 12 45t47 10zM193 722v-579q0 -68 39 -120l-109 -47q-54 62 -54 162v584h124z" horiz-adv-x="268"/>
<glyph glyph-name="Ring" d="M360 834q-29 0 -39.5 -10t-10.5 -33t10.5 -33t39.5 -10t39.5 10t10.5 33q0 24 -10 33.5t-40 9.5zM360 890q61 0 90 -22.5t29 -75.5t-29 -75.5t-90 -22.5q-62 0 -91 22.5t-29 75.5q0 54 28 76t92 22z" horiz-adv-x="714"/>
<glyph glyph-name="Tilde" d="M525 879l61 -50q-15 -41 -46.5 -67t-73.5 -26q-31 0 -76 27t-67 27q-31 0 -51 -50l-56 55q45 79 107 79q37 0 82.5 -26t65.5 -26q18 0 30 12.5t24 44.5z" horiz-adv-x="708"/>
<glyph glyph-name="Dmacron" d="M212 753v92h278v-92h-278zM542 350q0 78 -9 123t-34.5 70t-60.5 32.5t-97 7.5h-121v-469h121q81 0 122 18t60 68.5t19 149.5zM88 697h266q86 0 145 -16t101.5 -55t62.5 -106.5t20 -168.5q0 -196 -78.5 -273.5t-250.5 -77.5h-266v697z" horiz-adv-x="736"/>
<glyph glyph-name="zerop" d="M316 105q54 0 80.5 20t38.5 73t12 160q0 106 -12 156.5t-38 66.5t-81 16t-80.5 -16t-37.5 -66.5t-12 -156.5q0 -107 12 -160t38.5 -73t79.5 -20zM316 714q91 0 146 -29.5t85.5 -109t30.5 -217.5q0 -141 -30 -223.5t-85.5 -115.5t-146.5 -33q-136 0 -199 82.5t-63 289.5 q0 138 30.5 217.5t85.5 109t146 29.5z" horiz-adv-x="632"/>
<glyph glyph-name="onep" d="M309 0h-130v556l-156 -67l-36 108l322 129v-726z" horiz-adv-x="397"/>
<glyph glyph-name="twop" d="M97 568l-29 114q105 32 223 32q136 0 196.5 -44.5t60.5 -160.5q0 -75 -24 -125t-90 -109t-213 -161h327v-114h-506v106q95 72 148 113.5t100 82t66 61t33.5 46.5t17 43t2.5 46q0 56 -28.5 76.5t-101.5 20.5q-110 0 -182 -27z" horiz-adv-x="609"/>
<glyph glyph-name="threep" d="M182 310v112h96q65 0 91 19.5t26 69.5q0 49 -30 67t-120 18q-104 0 -175 -22l-26 114q120 26 226 26q147 0 205.5 -41t58.5 -137q0 -77 -31 -118t-118 -49q93 -4 128 -49.5t35 -131.5q0 -112 -64.5 -157t-215.5 -45q-116 0 -229 25l25 114q71 -20 178 -20 q98 0 130.5 21.5t32.5 79.5q0 59 -28 81.5t-96 22.5h-99z" horiz-adv-x="599"/>
<glyph glyph-name="fourp" d="M364 288v295q-92 -121 -188 -295h188zM364 179h-348v41q164 294 298 477h176v-409h93v-109h-93v-179h-126v179z" horiz-adv-x="606"/>
<glyph glyph-name="fivep" d="M92 697h432v-114h-308v-155q54 4 84 4q144 0 199.5 -49t55.5 -168q0 -131 -61 -180t-212 -49q-120 0 -222 25l26 114q66 -20 170 -20q95 0 125.5 20.5t30.5 82.5q0 67 -28 89.5t-121 22.5q-99 0 -171 -14v391z" horiz-adv-x="608"/>
<glyph glyph-name="sixp" d="M323 105q74 0 99 22t25 81q0 62 -23.5 87t-90.5 25q-75 0 -140 -10q2 -124 31 -164.5t99 -40.5zM562 687l-29 -116q-61 23 -164 23q-88 0 -129.5 -35t-44.5 -138q63 11 132 11q145 0 201.5 -49t56.5 -168q0 -131 -58 -180t-204 -49q-151 0 -210 78.5t-59 289.5 q0 107 17 176.5t56.5 110.5t96.5 57t145 16q102 0 193 -27z" horiz-adv-x="629"/>
<glyph glyph-name="sevenp" d="M547 697v-40q-69 -110 -161 -310.5t-141 -346.5h-149q59 161 137 328.5t139 254.5h-360v114h535z" horiz-adv-x="528"/>
<glyph glyph-name="eightp" d="M316 -14h-1q-143 0 -202.5 45.5t-59.5 156.5q0 86 34.5 131.5t128.5 49.5q-87 8 -117.5 49t-30.5 118q0 95 53 136.5t194 41.5t194.5 -41.5t53.5 -136.5q0 -77 -30.5 -118t-117.5 -49q93 -4 127.5 -49.5t34.5 -131.5q0 -111 -59 -156.5t-202 -45.5zM316 417 q60 0 86.5 22.5t26.5 75.5q0 51 -25 70t-88 19q-64 0 -89 -19t-25 -70q0 -53 26.5 -75.5t87.5 -22.5zM316 94q71 0 97.5 23t26.5 84t-28 87t-96 26q-69 0 -97 -26t-28 -87t26.5 -84t98.5 -23z" horiz-adv-x="631"/>
<glyph glyph-name="ninep" d="M321 380q60 0 108 7q8 31 8 72q0 87 -25.5 112t-100.5 25q-74 0 -99.5 -25t-25.5 -87q0 -65 25.5 -84.5t109.5 -19.5zM168 0q169 160 225 273q-40 -5 -86 -5q-146 0 -202 46t-56 164q0 132 58.5 184t203.5 52q156 0 210.5 -50t54.5 -191q0 -137 -64.5 -250t-178.5 -223 h-165z" horiz-adv-x="626"/>
<glyph glyph-name="g.2" d="M402 361v49q-44 12 -108 12q-63 0 -87.5 -15.5t-24.5 -59.5q0 -42 24 -57t84 -15q112 0 112 86zM526 492v-122q0 -96 -64 -146t-176 -50q-43 0 -80 10q-5 -13 -5 -29q0 -25 29.5 -35.5t110.5 -13.5q109 -3 157.5 -35.5t48.5 -101.5q0 -94 -69 -133.5t-204 -39.5 q-124 0 -210 27l25 109q76 -29 181 -29q80 0 114 13t34 43q0 27 -23 35.5t-109 11.5q-120 4 -161.5 28.5t-41.5 86.5q0 47 29 88q-58 39 -58 137q0 88 58 133t187 45q134 0 227 -32z"/>
<glyph glyph-name="ct" d="M534 171v230q-54 0 -135.5 8t-92.5 8q-72 0 -99.5 -31t-27.5 -131q0 -97 28.5 -129.5t98.5 -32.5q62 0 112 21l28 -102q-65 -26 -148 -26q-121 0 -184 61t-63 210q0 147 63.5 207t183.5 60q21 0 103.5 -7.5t132.5 -7.5v86l124 51v-137h169v-108h-169v-219 q0 -48 17.5 -68.5t61.5 -20.5q41 0 85 14l22 -98q-62 -23 -138 -23q-91 0 -131.5 38.5t-40.5 146.5z" horiz-adv-x="855"/>
<glyph glyph-name="arrowupleft" d="M109 119l-24 507l506 -24v-125l-291 16l341 -341l-83 -83l-341 341l17 -290z" horiz-adv-x="695"/>
<glyph glyph-name="arrowupright" d="M115 601l505 25l-23 -507l-125 1l16 290l-340 -341l-83 83l341 341l-291 -17v125z" horiz-adv-x="695"/>
<glyph glyph-name="arrowdownleft" d="M85 69l24 506l125 -1l-17 -290l341 341l83 -83l-341 -340l291 16v-125z" horiz-adv-x="695"/>
<glyph glyph-name="arrowdownright" d="M620 68l-505 24v125l291 -16l-341 340l83 84l340 -341l-16 290l125 1z" horiz-adv-x="695"/>
<glyph glyph-name="dmacron" d="M394 107v263q0 22 -28.5 35.5t-71.5 13.5q-66 0 -90.5 -34t-24.5 -128q0 -101 24.5 -133t92.5 -32q55 0 98 15zM305 577v89h89v56h124v-56h49v-89h-49v-554q-92 -37 -222 -37q-131 0 -188 58.5t-57 210.5q0 147 56 208t165 61q70 0 122 -29v82h-89z"/>
<glyph glyph-name="Ldotaccent" d="M354 463q35 0 47.5 -10.5t12.5 -45.5q0 -38 -12.5 -49.5t-47.5 -11.5t-47 11.5t-12 49.5q0 35 12 45.5t47 10.5zM88 697h132v-582h329v-115h-461v697z" horiz-adv-x="551"/>
<glyph glyph-name="st" d="M573 171v230q-76 1 -186.5 11.5t-127.5 10.5q-51 0 -71.5 -11t-20.5 -48q0 -26 21.5 -37.5t83.5 -17.5q95 -10 136 -44t41 -109q0 -94 -56 -132t-162 -38t-182 27l26 98q68 -24 151 -24q55 0 77.5 12t22.5 50q0 28 -22.5 41.5t-86.5 19.5q-89 7 -130.5 38.5t-41.5 106.5 q0 93 56.5 131t161.5 38q19 0 133 -7.5t177 -7.5v86l124 51v-137h169v-108h-169v-219q0 -48 17.5 -68.5t61.5 -20.5q41 0 85 14l22 -98q-62 -23 -138 -23q-91 0 -131.5 38.5t-40.5 146.5z" horiz-adv-x="894"/>
<glyph glyph-name="orn1" d="M303 408q8 24 8 53q0 46 -26.5 74t-73.5 28h-211v101h603v-101h-245q15 -18 15 -46q0 -31 -18 -61.5t-52 -47.5zM303 294q-47 29 -74 29q-56 0 -56 -112q0 -46 9.5 -73.5t25.5 -39t32.5 -18t34.5 -17.5t28 -29q9 18 26.5 29t34.5 17t33 17.5t26 40t10 74.5q0 110 -50 110 q-26 0 -80 -28zM303 -97q-12 26 -38 43t-53.5 25t-57.5 24t-53.5 37t-39 67t-15.5 112q0 106 36.5 160t104.5 54q50 0 116 -30q66 29 117 29q141 0 141 -211q0 -66 -16 -112t-40.5 -67.5t-55.5 -37.5t-58.5 -24t-52.5 -25.5t-35 -43.5z" horiz-adv-x="603"/>
<glyph glyph-name="orn2" d="M300 408q-35 17 -53 47.5t-18 61.5q0 27 16 46h-245v101h603v-101h-211q-47 0 -74 -28t-27 -74q0 -26 9 -53zM300 -97q-11 26 -35.5 43.5t-52.5 25.5t-59 24t-55.5 37.5t-40.5 67.5t-16 112q0 211 142 211q50 0 117 -29q64 30 115 30q68 0 105 -54t37 -160 q0 -66 -15.5 -112t-39 -67t-54 -37t-58 -24t-53 -25t-37.5 -43z" horiz-adv-x="603"/>
<glyph glyph-name="orn3" d="M303 160q34 -18 52 -48t18 -61q0 -30 -15 -46h245v-101h-603v101h211q47 0 73.5 28t26.5 74q0 28 -8 53zM303 273q52 -27 80 -27q26 0 38 25.5t12 84.5q0 46 -10 74t-26 39.5t-33 18t-34.5 17.5t-26.5 29q-10 -18 -28 -29t-34.5 -17.5t-32.5 -18t-25.5 -39t-9.5 -73.5 q0 -112 56 -112q26 0 74 28zM303 664q10 -26 35 -43.5t52.5 -25.5t58.5 -24t55.5 -37t40.5 -67t16 -112q0 -212 -141 -212q-51 0 -117 29q-67 -29 -116 -29q-141 0 -141 214q0 66 15.5 112t39 67t53.5 37t57.5 23.5t53.5 24.5t38 43z" horiz-adv-x="603"/>
<glyph glyph-name="orn4" d="M300 160q-9 -29 -9 -53q0 -46 27 -74t74 -28h211v-101h-603v101h245q-16 18 -16 46q0 31 18 61t53 48zM300 664q12 -26 37.5 -43t53 -24.5t58 -23.5t54 -37t39 -67t15.5 -112q0 -106 -36.5 -160t-105.5 -54q-49 0 -115 29q-67 -29 -117 -29q-142 0 -142 212q0 66 16 112 t40.5 67t55.5 37t59 24t52.5 25.5t35.5 43.5z" horiz-adv-x="603"/>
<glyph glyph-name="orn5" d="M519 282q25 -8 53 -8q46 0 74 26.5t28 73.5v211h101v-603h-101v245q-16 -15 -46 -15q-31 0 -61 18t-48 52zM406 282q28 48 28 74q0 56 -112 56q-46 0 -73.5 -9.5t-39 -25.5t-18 -32.5t-17.5 -34.5t-29 -28q18 -9 29 -26.5t17.5 -34.5t18 -33t39.5 -26t74 -10 q59 0 84.5 12t25.5 38q0 28 -27 80zM15 282q26 12 43 38t24.5 53.5t23.5 57.5t37 53.5t67 39t112 15.5q214 0 214 -141q0 -49 -29 -116q29 -66 29 -117q0 -141 -212 -141q-66 0 -112 16t-67 40.5t-37 55.5t-24 58.5t-25.5 52.5t-43.5 35z" horiz-adv-x="843"/>
<glyph glyph-name="orn6" d="M519 285q18 35 48 53t61 18q28 0 46 -16v245h101v-603h-101v211q0 47 -28 74t-74 27q-24 0 -53 -9zM15 285q26 11 43.5 35.5t25.5 52.5t24 59t37 55.5t67 40.5t112 16q212 0 212 -142q0 -50 -29 -117q29 -66 29 -115q0 -69 -54 -105.5t-160 -36.5q-66 0 -112 15.5t-67 39 t-37 54t-23.5 58t-24.5 53t-43 37.5z" horiz-adv-x="843"/>
<glyph glyph-name="orn7" d="M323 283q-17 -35 -47.5 -53t-61.5 -18q-27 0 -46 16v-245h-101v603h101v-211q0 -47 28 -74t74 -27q26 0 53 9zM437 283q-28 -54 -28 -80q0 -27 25.5 -39t84.5 -12q46 0 74.5 10t40 26t17.5 33t17 35t29 27q-18 10 -29 28t-17.5 34.5t-18 32t-39 25t-73.5 9.5 q-112 0 -112 -55q0 -27 29 -74zM828 283q-26 -11 -43.5 -35.5t-25.5 -52.5t-24 -59t-37.5 -55.5t-67.5 -40.5t-112 -16q-211 0 -211 142q0 50 29 117q-30 65 -30 115q0 68 54 105t160 37q66 0 112 -15.5t67 -39t37 -54t24 -58t25 -53t43 -37.5z" horiz-adv-x="843"/>
<glyph glyph-name="orn8" d="M323 286q-24 8 -53 8q-46 0 -74 -26.5t-28 -73.5v-211h-101v603h101v-245q18 15 46 15q31 0 61.5 -18t47.5 -52zM828 286q-26 -12 -43 -38t-25 -53.5t-24 -57.5t-37 -53.5t-67 -39t-112 -15.5q-106 0 -160 36.5t-54 104.5q0 50 30 116q-29 66 -29 117q0 141 211 141 q66 0 112 -16t67.5 -40.5t37.5 -55.5t24 -58.5t25.5 -52.5t43.5 -35z" horiz-adv-x="843"/>
<glyph glyph-name="publish" d="M418 622q-74 0 -117 -9t-75 -38t-44 -81t-12 -140t12 -141.5t43.5 -84t75.5 -40.5t117 -10q74 0 118 10t75.5 40.5t43.5 84t12 141.5t-12 140t-44 81t-75 38t-118 9zM611 410q0 -69 -29.5 -107.5t-88.5 -38.5h-127v-122h-105v417h231q119 0 119 -149zM505 411 q0 60 -44 60h-95v-117h93q25 0 35.5 14t10.5 43zM777 355q0 -208 -86 -288.5t-273 -80.5q-93 0 -157 17.5t-110.5 59t-68.5 113.5t-22 179q0 105 22 175.5t69 110.5t110.5 56.5t156.5 16.5t157 -16.5t111 -56.5t69 -110.5t22 -175.5z" horiz-adv-x="837"/>
<glyph glyph-name="zerob" d="M385 714q87 0 146 -16.5t102 -56.5t63 -110.5t20 -175.5q0 -107 -20 -179t-63 -113.5t-102.5 -59t-145.5 -17.5q-87 0 -146.5 17.5t-102.5 59t-63 113.5t-20 179q0 105 20 175.5t63.5 110.5t102.5 56.5t146 16.5zM384 171q-56 0 -75.5 36t-19.5 149q0 112 18.5 143.5 t76.5 31.5q41 0 60 -12t28 -48.5t9 -114.5q0 -113 -19.5 -149t-77.5 -36zM384 614q-99 0 -144 -55.5t-45 -202.5q0 -151 45.5 -210.5t143.5 -59.5q99 0 144.5 59.5t45.5 210.5q0 147 -45 202.5t-145 55.5z" horiz-adv-x="770"/>
<glyph glyph-name="oneb" d="M385 714q87 0 146 -16.5t102 -56.5t63 -110.5t20 -175.5q0 -107 -20 -179t-63 -113.5t-102.5 -59t-145.5 -17.5q-87 0 -146.5 17.5t-102.5 59t-63 113.5t-20 179q0 105 20 175.5t63.5 110.5t102.5 56.5t146 16.5zM354 100h92v526l-232 -93l26 -77l114 49v-405z" horiz-adv-x="770"/>
<glyph glyph-name="twob" d="M211 592l20 -80q57 19 133 19q53 0 74 -15.5t21 -56.5q0 -40 -16.5 -67.5t-67 -71.5t-183.5 -147v-75h366v81h-239q154 107 196.5 159t42.5 129q0 84 -44 116.5t-143 32.5q-88 0 -160 -24zM385 714q87 0 146 -16.5t102 -56.5t63 -110.5t20 -175.5q0 -107 -20 -179 t-63 -113.5t-102.5 -59t-145.5 -17.5q-87 0 -146.5 17.5t-102.5 59t-63 113.5t-20 179q0 105 20 175.5t63.5 110.5t102.5 56.5t146 16.5z" horiz-adv-x="770"/>
<glyph glyph-name="threeb" d="M385 714q87 0 146 -16.5t102 -56.5t63 -110.5t20 -175.5q0 -107 -20 -179t-63 -113.5t-102.5 -59t-145.5 -17.5q-87 0 -146.5 17.5t-102.5 59t-63 113.5t-20 179q0 105 20 175.5t63.5 110.5t102.5 56.5t146 16.5zM305 402v-81h71q52 0 72.5 -16.5t20.5 -59.5 q0 -42 -24 -58t-96 -16q-79 0 -129 15l-18 -81q78 -19 165 -19q110 0 156.5 33t46.5 114q0 62 -25.5 95t-92.5 36q63 6 84.5 35.5t21.5 85.5q0 70 -42 99.5t-149 29.5q-78 0 -162 -19l18 -81q52 15 126 15q66 0 88 -13t22 -48q0 -37 -18.5 -51.5t-65.5 -14.5h-70z" horiz-adv-x="770"/>
<glyph glyph-name="fourb" d="M385 714q87 0 146 -16.5t102 -56.5t63 -110.5t20 -175.5q0 -107 -20 -179t-63 -113.5t-102.5 -59t-145.5 -17.5q-87 0 -146.5 17.5t-102.5 59t-63 113.5t-20 179q0 105 20 175.5t63.5 110.5t102.5 56.5t146 16.5zM414 520v-216h-138q69 126 138 216zM162 226h252v-130h91 v130h67v78h-67v297h-127q-103 -140 -216 -346v-29z" horiz-adv-x="770"/>
<glyph glyph-name="fiveb" d="M385 714q87 0 146 -16.5t102 -56.5t63 -110.5t20 -175.5q0 -107 -20 -179t-63 -113.5t-102.5 -59t-145.5 -17.5q-87 0 -146.5 17.5t-102.5 59t-63 113.5t-20 179q0 105 20 175.5t63.5 110.5t102.5 56.5t146 16.5zM539 599h-312v-282q57 10 124 10q68 0 89 -16.5t21 -65.5 q0 -46 -22.5 -61t-92.5 -15q-76 0 -124 15l-18 -82q74 -18 160 -18q110 0 154 35.5t44 129.5q0 86 -40 122t-145 36q-33 0 -61 -3v112h223v83z" horiz-adv-x="770"/>
<glyph glyph-name="sixb" d="M385 714q87 0 146 -16.5t102 -56.5t63 -110.5t20 -175.5q0 -107 -20 -179t-63 -113.5t-102.5 -59t-145.5 -17.5q-87 0 -146.5 17.5t-102.5 59t-63 113.5t-20 179q0 105 20 175.5t63.5 110.5t102.5 56.5t146 16.5zM477 247q0 -43 -18.5 -59.5t-72.5 -16.5 q-52 0 -73.5 29.5t-22.5 121.5q44 7 88 7q60 0 79.5 -17t19.5 -65zM538 511l21 83q-65 20 -140 20q-126 0 -177 -55t-51 -206q0 -153 43 -210t152 -57q105 0 147 35.5t42 130.5q0 86 -41 121.5t-146 35.5q-57 0 -97 -8q4 79 32 103t96 24q73 0 119 -17z" horiz-adv-x="770"/>
<glyph glyph-name="sevenb" d="M385 714q87 0 146 -16.5t102 -56.5t63 -110.5t20 -175.5q0 -107 -20 -179t-63 -113.5t-102.5 -59t-145.5 -17.5q-87 0 -146.5 17.5t-102.5 59t-63 113.5t-20 179q0 105 20 175.5t63.5 110.5t102.5 56.5t146 16.5zM274 96h101q96 266 221 505h-392v-83h254 q-110 -212 -184 -422z" horiz-adv-x="770"/>
<glyph glyph-name="eightb" d="M385 714q87 0 146 -16.5t102 -56.5t63 -110.5t20 -175.5q0 -107 -20 -179t-63 -113.5t-102.5 -59t-145.5 -17.5q-87 0 -146.5 17.5t-102.5 59t-63 113.5t-20 179q0 105 20 175.5t63.5 110.5t102.5 56.5t146 16.5zM384 86h1q103 0 146 33t43 114q0 62 -25.5 95t-92.5 36 q63 6 85.5 35.5t22.5 85.5q0 69 -39 99t-141 30t-140.5 -30t-38.5 -99q0 -56 22.5 -85.5t85.5 -35.5q-68 -3 -93 -36t-25 -95q0 -81 43 -114t146 -33zM385 398q-45 0 -64.5 16.5t-19.5 55.5q0 37 18.5 51t65.5 14q46 0 64 -14t18 -51q0 -39 -19 -55.5t-63 -16.5zM385 163 q-53 0 -72.5 17t-19.5 62t20.5 63.5t71.5 18.5t71 -18.5t20 -63.5t-19.5 -62t-71.5 -17z" horiz-adv-x="770"/>
<glyph glyph-name="nineb" d="M385 -14q-87 0 -146.5 17.5t-102.5 59t-63 113.5t-20 179q0 105 20 175.5t63.5 110.5t102.5 56.5t146 16.5t146 -16.5t102 -56.5t63 -110.5t20 -175.5q0 -107 -20 -179t-63 -113.5t-102.5 -59t-145.5 -17.5zM479 431q0 -29 -7 -53q-38 -6 -80 -6q-61 0 -79.5 15t-18.5 63 q0 45 18 63.5t73 18.5t74.5 -18.5t19.5 -82.5zM382 293q19 0 65 4q-42 -84 -165 -199h118q83 80 130.5 161.5t47.5 181.5q0 103 -39.5 139t-153.5 36q-104 0 -146.5 -38t-42.5 -133q0 -85 40 -118.5t146 -33.5z" horiz-adv-x="770"/>
<glyph glyph-name="apple" d="M394 140v334q-24 -20 -57.5 -35t-59 -24.5t-49 -26t-36.5 -50t-13 -86.5q0 -94 24.5 -127.5t91.5 -33.5q42 0 70.5 13.5t28.5 35.5zM517 474v-334q0 -22 29 -35.5t71 -13.5q66 0 91 34t25 127q0 53 -13 86.5t-36.5 50t-49 26t-59.5 24.5t-58 35zM273 -14 q-109 0 -165 60.5t-56 208.5q0 68 17 116.5t45.5 76t64 45.5t75.5 31.5t76.5 28.5t70.5 42t55 66q21 -39 55 -66t70.5 -42t76.5 -28.5t75.5 -31.5t64 -45.5t45.5 -76t17 -116.5q0 -148 -56 -208.5t-165 -60.5q-64 0 -122 29v-207h-123v207q-56 -29 -121 -29z" horiz-adv-x="912"/>
<glyph glyph-name="sp" d="M681 402v-262q0 -22 29 -35.5t71 -13.5q66 0 91 34t25 127q0 102 -24.5 133.5t-92.5 31.5q-60 0 -99 -15zM557 -192v570q-172 45 -298 45q-51 0 -71.5 -11t-20.5 -48q0 -26 21.5 -37.5t83.5 -17.5q95 -10 136 -44t41 -109q0 -94 -56 -132t-162 -38t-182 27l26 98 q68 -24 151 -24q55 0 77.5 12t22.5 50q0 28 -22.5 41.5t-86.5 19.5q-89 7 -130.5 38.5t-41.5 106.5q0 93 56.5 131t161.5 38q149 0 294 -38q91 38 223 38q130 0 187 -58.5t57 -210.5q0 -148 -56 -208.5t-165 -60.5q-64 0 -122 29v-207h-124z" horiz-adv-x="1076"/>
<glyph glyph-name="at.2" d="M564 207v126q-43 9 -94 9q-52 0 -74 -14t-22 -59t19 -62t73 -17q50 0 98 17zM682 438v-303q-99 -40 -225 -40q-117 0 -161.5 35t-44.5 134q0 100 46.5 133t141.5 33q61 0 125 -14q0 69 -23.5 90.5t-104.5 21.5q-66 0 -107 -6t-73.5 -21t-48.5 -45.5t-24 -74.5t-8 -113 q0 -86 12.5 -137t48 -82t90 -41.5t147.5 -10.5q124 0 188 24.5t89.5 81t25.5 165.5q0 110 -20 167h109q20 -69 20 -169q0 -112 -22 -184t-73.5 -114t-125.5 -58.5t-190 -16.5q-114 0 -189 17t-128 59.5t-76 114.5t-23 182q0 108 24 180t75 112.5t119.5 56.5t169.5 16 q129 0 182.5 -41.5t53.5 -151.5z" horiz-adv-x="943"/>
<glyph glyph-name="ampersand.2" d="M496 121v190h-173q-64 0 -91 -23.5t-27 -81.5q0 -57 31.5 -79t115.5 -22q85 0 144 16zM622 311v-277q-54 -22 -134 -35t-152 -13q-134 0 -204 46.5t-70 155.5q0 86 35.5 131.5t128.5 49.5q-84 8 -113.5 48.5t-29.5 117.5q0 93 60 136t182 43q77 0 164 -24l-36 -114 q-54 20 -110 20q-68 0 -94 -18.5t-26 -66.5q0 -49 24.5 -69.5t83.5 -20.5h165v85l126 50v-135h134v-110h-134z" horiz-adv-x="757"/>
<glyph glyph-name="Abrevesmall" d="M130 697h85q0 -34 15.5 -46t50.5 -12t51 12.5t16 45.5h80q0 -137 -150 -137q-148 0 -148 137zM288 409h-21q-33 -82 -71 -195h153q-33 96 -61 195zM427 0q-20 45 -47 123h-213q-18 -58 -36 -123h-128q60 208 183 509h193q93 -317 178 -509h-130z" horiz-adv-x="563"/>
<glyph glyph-name="Amacronsmall" d="M138 576v90h278v-90h-278zM288 409h-21q-33 -82 -71 -195h153q-33 96 -61 195zM427 0q-20 45 -47 123h-213q-18 -58 -36 -123h-128q60 208 183 509h193q93 -317 178 -509h-130z" horiz-adv-x="563"/>
<glyph glyph-name="Aogoneksmall" d="M288 409h-21q-33 -82 -71 -195h153q-33 96 -61 195zM427 0q-20 45 -47 123h-213q-18 -58 -36 -123h-128q60 208 183 509h193q93 -317 178 -509h-56q-38 -25 -51 -45t-13 -47q0 -22 12.5 -31t47.5 -9q51 0 83 27l35 -63q-47 -35 -131 -35q-74 0 -103 21.5t-29 67.5 q0 76 94 114h-19z" horiz-adv-x="563"/>
<glyph glyph-name="bracketleftsmall" d="M90 657h270v-108h-141v-593h141v-107h-270v808z" horiz-adv-x="378"/>
<glyph glyph-name="braceleftsmall" d="M37 201v98q48 0 75 32t27 120q0 175 154 213l51 -90q-50 -15 -71.5 -48t-21.5 -117q0 -141 -93 -159q93 -18 93 -161q0 -83 21 -115.5t72 -48.5q-8 -15 -25 -44.5t-26 -44.5q-154 38 -154 213q0 88 -27 120t-75 32z" horiz-adv-x="356"/>
<glyph glyph-name="Dcaronsmall" d="M94 697h117l71 -76l69 76h113l-122 -129h-122zM276 413h-83v-317h83q70 0 99 31.5t29 127.5q0 98 -28.5 128t-99.5 30zM69 509h216q129 0 188 -54.5t59 -197.5q0 -144 -59 -200.5t-188 -56.5h-216v509z" horiz-adv-x="584"/>
<glyph glyph-name="Dcroatsmall" d="M276 413h-83v-103h89v-90h-89v-124h83q70 0 99 31.5t29 127.5q0 98 -28.5 128t-99.5 30zM22 220v90h47v199h216q129 0 188 -54.5t59 -197.5q0 -144 -59 -200.5t-188 -56.5h-216v220h-47z" horiz-adv-x="584"/>
<glyph glyph-name="Dmacronsmall" d="M137 576v90h278v-90h-278zM276 413h-83v-317h83q70 0 99 31.5t29 127.5q0 98 -28.5 128t-99.5 30zM69 509h216q129 0 188 -54.5t59 -197.5q0 -144 -59 -200.5t-188 -56.5h-216v509z" horiz-adv-x="584"/>
<glyph glyph-name="Emacronsmall" d="M134 576v90h278v-90h-278zM467 509v-101h-274v-95h210v-95h-210v-117h274v-101h-398v509h398z" horiz-adv-x="505"/>
<glyph glyph-name="Eurosmall" d="M421 104l27 -92q-65 -26 -150 -26q-121 0 -184 61t-63 210q0 148 63 207.5t184 59.5q85 0 150 -24l-27 -92q-51 19 -114 19q-47 0 -74 -14.5t-40 -52.5h187v-69h-200q-1 -10 -1 -36q0 -22 1 -32h200v-68h-188q22 -72 115 -72q62 0 114 21z" horiz-adv-x="469"/>
<glyph glyph-name="Eogoneksmall" d="M467 509v-101h-274v-95h210v-95h-210v-117h274v-101h-61q-38 -25 -51 -45t-13 -47q0 -22 12.5 -31t47.5 -9q51 0 83 27l35 -63q-47 -35 -131 -35q-74 0 -103 21.5t-29 67.5q0 76 94 114h-282v509h398z" horiz-adv-x="505"/>
<glyph glyph-name="Ecaronsmall" d="M103 697h117l71 -76l69 76h113l-122 -129h-122zM467 509v-101h-274v-95h210v-95h-210v-117h274v-101h-398v509h398z" horiz-adv-x="505"/>
<glyph glyph-name="Edotaccentsmall" d="M281 681q35 0 47.5 -10t12.5 -45q0 -38 -12.5 -50t-47.5 -12t-47 11.5t-12 50.5q0 35 12 45t47 10zM467 509v-101h-274v-95h210v-95h-210v-117h274v-101h-398v509h398z" horiz-adv-x="505"/>
<glyph glyph-name="Ebrevesmall" d="M131 697h85q0 -34 15.5 -46t50.5 -12t51 12.5t16 45.5h80q0 -137 -150 -137q-148 0 -148 137zM467 509v-101h-274v-95h210v-95h-210v-117h274v-101h-398v509h398z" horiz-adv-x="505"/>
<glyph glyph-name="Gacutesmall" d="M308 568h-109l121 129h133zM505 297v-276q-98 -35 -202 -35q-123 0 -187.5 61t-64.5 210q0 147 68 207t194 60q100 0 170 -24l-32 -102q-62 22 -134 22q-74 0 -106 -32.5t-32 -132.5q0 -96 32 -130.5t101 -34.5q49 0 82 14v96h-108v97h219z" horiz-adv-x="569"/>
<glyph glyph-name="Gbrevesmall" d="M161 697h85q0 -34 15.5 -46t50.5 -12t51 12.5t16 45.5h80q0 -137 -150 -137q-148 0 -148 137zM505 297v-276q-98 -35 -202 -35q-123 0 -187.5 61t-64.5 210q0 147 68 207t194 60q100 0 170 -24l-32 -102q-62 22 -134 22q-74 0 -106 -32.5t-32 -132.5q0 -96 32 -130.5 t101 -34.5q49 0 82 14v96h-108v97h219z" horiz-adv-x="569"/>
<glyph glyph-name="Gcircumflexsmall" d="M494 568h-117l-71 76l-69 -76h-113l122 129h122zM505 297v-276q-98 -35 -202 -35q-123 0 -187.5 61t-64.5 210q0 147 68 207t194 60q100 0 170 -24l-32 -102q-62 22 -134 22q-74 0 -106 -32.5t-32 -132.5q0 -96 32 -130.5t101 -34.5q49 0 82 14v96h-108v97h219z" horiz-adv-x="569"/>
<glyph glyph-name="Gcommaaccentsmall" d="M381 -51l-108 -167h-97l71 167h134zM505 297v-276q-98 -35 -202 -35q-123 0 -187.5 61t-64.5 210q0 147 68 207t194 60q100 0 170 -24l-32 -102q-62 22 -134 22q-74 0 -106 -32.5t-32 -132.5q0 -96 32 -130.5t101 -34.5q49 0 82 14v96h-108v97h219z" horiz-adv-x="569"/>
<glyph glyph-name="Gdotaccentsmall" d="M306 681q35 0 47.5 -10t12.5 -45q0 -38 -12.5 -50t-47.5 -12t-47 11.5t-12 50.5q0 35 12 45t47 10zM505 297v-276q-98 -35 -202 -35q-123 0 -187.5 61t-64.5 210q0 147 68 207t194 60q100 0 170 -24l-32 -102q-62 22 -134 22q-74 0 -106 -32.5t-32 -132.5 q0 -96 32 -130.5t101 -34.5q49 0 82 14v96h-108v97h219z" horiz-adv-x="569"/>
<glyph glyph-name="Germandblssmall" d="M434 496l-27 -97q-74 24 -148 24q-51 0 -71.5 -11t-20.5 -48q0 -26 21.5 -37.5t83.5 -17.5q95 -10 136 -44t41 -109q0 -94 -56 -132t-162 -38t-182 27l26 98q68 -24 151 -24q55 0 77.5 12t22.5 50q0 28 -22.5 41.5t-86.5 19.5q-89 7 -130.5 38.5t-41.5 106.5 q0 93 56.5 131t161.5 38q87 0 171 -28zM924 496l-27 -97q-74 24 -148 24q-51 0 -71.5 -11t-20.5 -48q0 -26 21.5 -37.5t83.5 -17.5q95 -10 136 -44t41 -109q0 -94 -56 -132t-162 -38t-182 27l26 98q68 -24 151 -24q55 0 77.5 12t22.5 50q0 28 -22.5 41.5t-86.5 19.5 q-89 7 -130.5 38.5t-41.5 106.5q0 93 56.5 131t161.5 38q87 0 171 -28z" horiz-adv-x="981"/>
<glyph glyph-name="Hbarsmall" d="M193 322h200v59h-200v-59zM13 381v79h56v49h124v-49h200v49h124v-49h57v-79h-57v-381h-124v216h-200v-216h-124v381h-56z" horiz-adv-x="587"/>
<glyph glyph-name="Hcircumflexsmall" d="M480 568h-117l-71 76l-69 -76h-113l122 129h122zM393 216h-200v-216h-124v509h124v-187h200v187h124v-509h-124v216z" horiz-adv-x="587"/>
<glyph glyph-name="IJsmall" d="M607 509v-333q0 -190 -198 -190q-84 0 -148 23l24 106q52 -20 112 -20q86 0 86 90v324h124zM193 509v-509h-124v509h124z" horiz-adv-x="675"/>
<glyph glyph-name="Imacronsmall" d="M-7 576v90h278v-90h-278zM193 509v-509h-124v509h124z" horiz-adv-x="262"/>
<glyph glyph-name="Iogoneksmall" d="M193 509v-509h-42q-38 -25 -51 -45t-13 -47q0 -22 12.5 -31t47.5 -9q51 0 83 27l35 -63q-47 -35 -131 -35q-74 0 -103 21.5t-29 67.5q0 76 94 114h-27v509h124z" horiz-adv-x="262"/>
<glyph glyph-name="Itildesmall" d="M255 702l62 -50q-33 -93 -117 -93q-31 0 -74.5 26.5t-66.5 26.5q-31 0 -52 -51l-56 55q46 81 109 81q37 0 79 -26.5t63 -26.5q18 0 29.5 12.5t23.5 45.5zM193 509v-509h-124v509h124z" horiz-adv-x="262"/>
<glyph glyph-name="Jcircumflexsmall" d="M466 568h-117l-71 76l-69 -76h-113l122 129h122zM346 509v-333q0 -190 -198 -190q-84 0 -148 23l24 106q52 -20 112 -20q86 0 86 90v324h124z" horiz-adv-x="414"/>
<glyph glyph-name="Kcommaaccentsmall" d="M377 -51l-108 -167h-97l71 167h134zM552 0h-146q-174 252 -213 269v-269h-124v509h124v-240q49 40 197 240h147q-139 -188 -195 -231q22 -13 78 -86t132 -192z" horiz-adv-x="551"/>
<glyph glyph-name="Lacutesmall" d="M200 568h-109l121 129h133zM193 509v-398h240v-111h-364v509h124z" horiz-adv-x="432"/>
<glyph glyph-name="Lcaronsmall" d="M271 540h110l-57 -192h-73zM193 509v-398h240v-111h-364v509h124z" horiz-adv-x="432"/>
<glyph glyph-name="Lcommaaccentsmall" d="M319 -51l-108 -167h-97l71 167h134zM193 509v-398h240v-111h-364v509h124z" horiz-adv-x="432"/>
<glyph glyph-name="Ldotsmall" d="M309 382q35 0 47.5 -10t12.5 -45q0 -38 -12.5 -50t-47.5 -12t-47 11.5t-12 50.5q0 35 12 45t47 10zM193 509v-398h240v-111h-364v509h124z" horiz-adv-x="432"/>
<glyph glyph-name="Nacutesmall" d="M320 568h-109l121 129h133zM400 198v311h124v-509h-124q-117 208 -207 321v-321h-124v509h122q130 -168 209 -311z" horiz-adv-x="593"/>
<glyph glyph-name="Ncaronsmall" d="M114 697h117l71 -76l69 76h113l-122 -129h-122zM400 198v311h124v-509h-124q-117 208 -207 321v-321h-124v509h122q130 -168 209 -311z" horiz-adv-x="593"/>
<glyph glyph-name="Ncommaaccentsmall" d="M373 -51l-108 -167h-97l71 167h134zM400 198v311h124v-509h-124q-117 208 -207 321v-321h-124v509h122q130 -168 209 -311z" horiz-adv-x="593"/>
<glyph glyph-name="Obrevesmall" d="M144 697h85q0 -34 15.5 -46t51.5 -12q34 0 50 12t16 46h80q0 -137 -149 -137t-149 137zM293 423q-68 0 -91 -31t-23 -137q0 -103 23.5 -135.5t90.5 -32.5q69 0 92.5 32.5t23.5 135.5q0 73 -11 109t-34 47.5t-71 11.5zM293 -14q-127 0 -184.5 59.5t-57.5 211.5 q0 150 58 208.5t184 58.5q128 0 186 -58.5t58 -208.5q0 -152 -58 -211.5t-186 -59.5z"/>
<glyph glyph-name="Ohungarumlautsmall" d="M391 568h-86l91 129h109zM226 568h-85l91 129h109zM293 423q-68 0 -91 -31t-23 -137q0 -103 23.5 -135.5t90.5 -32.5q69 0 92.5 32.5t23.5 135.5q0 73 -11 109t-34 47.5t-71 11.5zM293 -14q-127 0 -184.5 59.5t-57.5 211.5q0 150 58 208.5t184 58.5q128 0 186 -58.5 t58 -208.5q0 -152 -58 -211.5t-186 -59.5z"/>
<glyph glyph-name="Omacronsmall" d="M156 576v90h278v-90h-278zM293 423q-68 0 -91 -31t-23 -137q0 -103 23.5 -135.5t90.5 -32.5q69 0 92.5 32.5t23.5 135.5q0 73 -11 109t-34 47.5t-71 11.5zM293 -14q-127 0 -184.5 59.5t-57.5 211.5q0 150 58 208.5t184 58.5q128 0 186 -58.5t58 -208.5q0 -152 -58 -211.5 t-186 -59.5z"/>
<glyph glyph-name="parenleftsmall" d="M68 250q0 175 58.5 274.5t156.5 134.5l57 -92q-32 -12 -56 -31.5t-44.5 -54.5t-31 -93t-10.5 -138q0 -105 20 -173t49 -97.5t73 -46.5l-57 -92q-98 35 -156.5 134.5t-58.5 274.5z" horiz-adv-x="345"/>
<glyph glyph-name="Racutesmall" d="M282 568h-109l121 129h133zM193 279h141q63 0 63 66q0 64 -61 64h-143v-130zM369 509q157 0 157 -149q0 -135 -140 -140q41 -10 75.5 -50.5t107.5 -169.5h-144q-58 109 -92 145t-69 36h-71v-181h-124v509h300z" horiz-adv-x="574"/>
<glyph glyph-name="Rcaronsmall" d="M106 697h117l71 -76l69 76h113l-122 -129h-122zM193 279h141q63 0 63 66q0 64 -61 64h-143v-130zM369 509q157 0 157 -149q0 -135 -140 -140q41 -10 75.5 -50.5t107.5 -169.5h-144q-58 109 -92 145t-69 36h-71v-181h-124v509h300z" horiz-adv-x="574"/>
<glyph glyph-name="Rcommaaccentsmall" d="M371 -51l-108 -167h-97l71 167h134zM193 279h141q63 0 63 66q0 64 -61 64h-143v-130zM369 509q157 0 157 -149q0 -135 -140 -140q41 -10 75.5 -50.5t107.5 -169.5h-144q-58 109 -92 145t-69 36h-71v-181h-124v509h300z" horiz-adv-x="574"/>
<glyph glyph-name="sterlingsmall" d="M32 203v90h50v50q0 181 234 181q89 0 170 -24l-26 -101q-59 19 -144 19q-64 0 -89 -20t-25 -62v-43h154v-90h-154v-99h266v-104h-386v203h-50z" horiz-adv-x="513"/>
<glyph glyph-name="summationsmall" d="M473 401h-248q33 -54 96 -143q-78 -112 -109 -150h255v-108h-449v25q55 71 166 232q-88 128 -150 227v25h439v-108z" horiz-adv-x="497"/>
<glyph glyph-name="Tbarsmall" d="M104 178v90h76v133h-175v108h475v-108h-176v-133h78v-90h-78v-178h-124v178h-76z" horiz-adv-x="485"/>
<glyph glyph-name="Tcommaaccentsmall" d="M323 -51l-108 -167h-97l71 167h134zM304 401v-401h-124v401h-175v108h475v-108h-176z" horiz-adv-x="485"/>
<glyph glyph-name="Tcaronsmall" d="M59 697h117l71 -76l69 76h113l-122 -129h-122zM304 401v-401h-124v401h-175v108h475v-108h-176z" horiz-adv-x="485"/>
<glyph glyph-name="Utildesmall" d="M410 702l62 -50q-33 -93 -117 -93q-31 0 -74.5 26.5t-66.5 26.5q-31 0 -52 -51l-56 55q46 81 109 81q37 0 79 -26.5t63 -26.5q18 0 29.5 12.5t23.5 45.5zM289 97q58 0 78.5 23t20.5 79v310h123v-303q0 -124 -49.5 -172t-172.5 -48t-173 48.5t-50 171.5v303h124v-310 q0 -56 20.5 -79t78.5 -23z" horiz-adv-x="578"/>
<glyph glyph-name="Uringsmall" d="M290 684q-30 0 -40 -9.5t-10 -33.5q0 -23 10.5 -33t39.5 -10t39.5 10t10.5 33q0 24 -10 33.5t-40 9.5zM290 741q61 0 90 -22.5t29 -75.5t-28.5 -75.5t-90.5 -22.5t-91 22.5t-29 75.5t28 75.5t92 22.5zM289 97q58 0 78.5 23t20.5 79v310h123v-303q0 -124 -49.5 -172 t-172.5 -48t-173 48.5t-50 171.5v303h124v-310q0 -56 20.5 -79t78.5 -23z" horiz-adv-x="578"/>
<glyph glyph-name="Uogoneksmall" d="M289 97q58 0 78.5 23t20.5 79v310h123v-303q0 -107 -36.5 -156.5t-122.5 -59.5q-29 -21 -39 -39t-10 -43q0 -22 12.5 -31t47.5 -9q51 0 83 27l35 -63q-47 -35 -131 -35q-74 0 -103 21.5t-29 67.5q0 62 66 100q-120 1 -169 49t-49 171v303h124v-310q0 -56 20.5 -79 t78.5 -23z" horiz-adv-x="578"/>
<glyph glyph-name="Umacronsmall" d="M153 576v90h278v-90h-278zM289 97q58 0 78.5 23t20.5 79v310h123v-303q0 -124 -49.5 -172t-172.5 -48t-173 48.5t-50 171.5v303h124v-310q0 -56 20.5 -79t78.5 -23z" horiz-adv-x="578"/>
<glyph glyph-name="Ubrevesmall" d="M143 697h85q0 -34 15.5 -46t50.5 -12t51 12.5t16 45.5h80q0 -137 -150 -137q-148 0 -148 137zM289 97q58 0 78.5 23t20.5 79v310h123v-303q0 -124 -49.5 -172t-172.5 -48t-173 48.5t-50 171.5v303h124v-310q0 -56 20.5 -79t78.5 -23z" horiz-adv-x="578"/>
<glyph glyph-name="Uhungarumlautsmall" d="M387 568h-86l91 129h109zM222 568h-85l91 129h109zM289 97q58 0 78.5 23t20.5 79v310h123v-303q0 -124 -49.5 -172t-172.5 -48t-173 48.5t-50 171.5v303h124v-310q0 -56 20.5 -79t78.5 -23z" horiz-adv-x="578"/>
<glyph glyph-name="yensmall" d="M50 220v61h101q-104 144 -175 228h142q54 -64 132 -177q60 72 126 177h135q-77 -116 -164 -228h90v-61h-127v-62h127v-62h-127v-96h-124v96h-136v62h136v62h-136z" horiz-adv-x="487"/>
<glyph glyph-name="Ycircumflexsmall" d="M436 568h-117l-71 76l-69 -76h-113l122 129h122zM250 332q60 72 126 177h136q-100 -153 -202 -278v-231h-124v231q-129 181 -211 278h144q55 -66 131 -177z" horiz-adv-x="487"/>
<glyph glyph-name="zerosmall" d="M280 424q-54 0 -74.5 -32t-20.5 -137q0 -102 21 -135.5t74 -33.5q54 0 74.5 33.5t20.5 135.5q0 105 -20.5 137t-74.5 32zM280 -14q-113 0 -167.5 60.5t-54.5 210.5q0 149 55 208t167 59q114 0 168.5 -59t54.5 -208q0 -150 -54.5 -210.5t-168.5 -60.5z" horiz-adv-x="561"/>
<glyph glyph-name="onesmall" d="M394 0h-124v362l-156 -71l-37 104l317 129v-524z" horiz-adv-x="561"/>
<glyph glyph-name="twosmall" d="M92 386l-30 115q98 23 202 23q123 0 173 -37t50 -123q0 -74 -50.5 -131t-196.5 -132h256v-101h-438v91q138 84 198 127t77.5 67t17.5 56q0 39 -23.5 54.5t-84.5 15.5q-34 0 -81 -7.5t-70 -17.5z" horiz-adv-x="561"/>
<glyph glyph-name="foursmall" d="M323 219v196q-91 -115 -145 -196h145zM323 121h-295v47q104 163 250 341h164v-290h90v-98h-90v-121h-119v121z" horiz-adv-x="561"/>
<glyph glyph-name="fivesmall" d="M92 509h387v-103h-263v-92q60 3 73 3q115 0 161.5 -36t46.5 -124q0 -96 -58.5 -133.5t-189.5 -37.5q-119 0 -188 19l24 102q57 -18 155 -18q73 0 102.5 14t29.5 51q0 41 -27 56.5t-97 15.5q-78 0 -156 -10v293z" horiz-adv-x="561"/>
<glyph glyph-name="sixsmall" d="M395 153q0 45 -21.5 60t-82.5 15q-56 0 -110 -9q1 -83 27.5 -110.5t81.5 -27.5q61 0 83 15.5t22 56.5zM522 151q0 -93 -54 -129t-174 -36q-61 0 -101 10.5t-72 39t-46.5 82.5t-14.5 137q0 148 67 208.5t202 60.5q90 0 179 -25l-28 -102q-79 23 -148 23q-83 0 -116 -24.5 t-35 -92.5q70 12 132 12q112 0 160.5 -35.5t48.5 -128.5z" horiz-adv-x="561"/>
<glyph glyph-name="sevensmall" d="M50 509h484v-24q-142 -209 -255 -485h-144q102 225 222 401h-307v108z" horiz-adv-x="561"/>
<glyph glyph-name="eightsmall" d="M280 317q56 0 78.5 12.5t22.5 44.5t-21 44t-80 12q-58 0 -79 -12t-21 -44t22.5 -44.5t77.5 -12.5zM280 -14q-134 0 -185 31.5t-51 117.5q0 62 31 96t104 38q-69 6 -95.5 36.5t-26.5 87.5q0 74 46 102.5t177 28.5t177 -28.5t46 -102.5q0 -57 -26 -87.5t-95 -36.5 q73 -4 103.5 -38t30.5 -96q0 -86 -51 -117.5t-185 -31.5zM280 83q65 0 87.5 15t22.5 54t-25 54t-85 15q-59 0 -84 -15t-25 -54t22.5 -54t86.5 -15z" horiz-adv-x="561"/>
<glyph glyph-name="ninesmall" d="M387 324q0 61 -23.5 83t-83.5 22q-63 0 -85 -18t-22 -61q0 -44 19.5 -57t82.5 -13q51 0 100 7q12 21 12 37zM243 183q-106 0 -152.5 37t-46.5 130q0 94 55.5 134t175.5 40q133 0 187.5 -44.5t54.5 -162.5q0 -48 -15.5 -91t-47.5 -83t-64 -71t-82 -72h-165 q81 62 139.5 115.5t70.5 77.5q-78 -10 -110 -10z" horiz-adv-x="561"/>
<glyph glyph-name="threesmall" d="M177 222v93h78q55 0 77.5 11t22.5 40t-22 40.5t-85 11.5q-90 0 -159 -22l-25 108q85 20 186 20q132 0 183.5 -29t51.5 -102q0 -57 -27 -87.5t-96 -36.5q73 -4 103.5 -38t30.5 -96q0 -85 -56.5 -117t-191.5 -32q-104 0 -188 19l26 111q67 -24 159 -24q71 0 95 14.5 t24 52.5q0 35 -25 49t-84 14h-78z" horiz-adv-x="561"/>
<glyph glyph-name="atsmall" d="M364 309q-38 0 -50.5 -9t-12.5 -40t12.5 -41t50.5 -10q35 0 48.5 13.5t13.5 52.5v30q-36 4 -62 4zM333 444q-109 0 -146.5 -34.5t-37.5 -149.5q0 -117 43.5 -154.5t170.5 -37.5q126 0 171 44t45 172q0 90 -18 142h98q18 -56 18 -145q0 -168 -73.5 -233t-240.5 -65 q-169 0 -240.5 58.5t-71.5 217.5q0 80 18.5 133.5t56.5 83t86.5 41.5t118.5 12q56 0 89 -7.5t57.5 -29.5t34.5 -62.5t10 -107.5q0 -83 -16 -124t-49.5 -54.5t-101.5 -13.5q-90 0 -122.5 25.5t-32.5 100.5t31.5 100.5t110.5 25.5q47 0 84 -5q-2 38 -22 52.5t-71 14.5z" horiz-adv-x="728"/>
<glyph glyph-name="backslashsmall" d="M-8 509h136l308 -509h-135z" horiz-adv-x="427"/>
<glyph glyph-name="slashsmall" d="M300 509h136l-309 -509h-135z" horiz-adv-x="427"/>
<glyph glyph-name="barsmall" d="M120 659h131v-813h-131v813z" horiz-adv-x="371"/>
<glyph glyph-name="bracketrightsmall" d="M18 657h270v-808h-270v107h141v593h-141v108z" horiz-adv-x="378"/>
<glyph glyph-name="bracerightsmall" d="M319 299v-99q-49 0 -76 -32t-27 -120q0 -174 -154 -213l-51 90q34 10 52.5 24.5t30 49t11.5 92.5q0 141 92 159q-92 15 -92 160q0 58 -11 91.5t-29.5 48.5t-53.5 25l51 89q154 -38 154 -213q0 -88 27 -120t76 -32z" horiz-adv-x="356"/>
<glyph glyph-name="Cdotaccentsmall" d="M294 681q35 0 47.5 -10t12.5 -45q0 -38 -12.5 -50t-47.5 -12t-47 11.5t-12 50.5q0 35 12 45t47 10zM430 118l28 -106q-65 -26 -155 -26q-124 0 -188 61t-64 210q0 148 64 207.5t188 59.5q90 0 155 -24l-28 -106q-59 22 -118 22q-49 0 -75.5 -10.5t-42 -46t-15.5 -104.5 q0 -96 30.5 -128.5t102.5 -32.5q59 0 118 24z" horiz-adv-x="470"/>
<glyph glyph-name="Cacutesmall" d="M305 568h-109l121 129h133zM430 118l28 -106q-65 -26 -155 -26q-124 0 -188 61t-64 210q0 148 64 207.5t188 59.5q90 0 155 -24l-28 -106q-59 22 -118 22q-49 0 -75.5 -10.5t-42 -46t-15.5 -104.5q0 -96 30.5 -128.5t102.5 -32.5q59 0 118 24z" horiz-adv-x="470"/>
<glyph glyph-name="Ccaronsmall" d="M106 697h117l71 -76l69 76h113l-122 -129h-122zM430 118l28 -106q-65 -26 -155 -26q-124 0 -188 61t-64 210q0 148 64 207.5t188 59.5q90 0 155 -24l-28 -106q-59 22 -118 22q-49 0 -75.5 -10.5t-42 -46t-15.5 -104.5q0 -96 30.5 -128.5t102.5 -32.5q59 0 118 24z" horiz-adv-x="470"/>
<glyph glyph-name="centsmall" d="M149 259q0 -95 55 -103v207q-55 -8 -55 -104zM204 524h67v-76q52 -4 87 -15l-23 -74q-24 10 -64 12v-224q38 4 64 14l23 -73q-29 -13 -87 -19v-83h-67v85q-74 9 -113.5 53.5t-39.5 136.5q0 170 153 186v77z" horiz-adv-x="423"/>
<glyph glyph-name="daggersmall" d="M30 409v100h141v143h103v-143h142v-100h-142v-228h-103v228h-141z" horiz-adv-x="446"/>
<glyph glyph-name="degreesmall" d="M172 270q33 0 43.5 19t10.5 76t-10 74.5t-44 17.5q-33 0 -44 -18t-11 -74t11.5 -75.5t43.5 -19.5zM172 524q79 0 112.5 -33.5t33.5 -124.5q0 -93 -33.5 -128.5t-112.5 -35.5q-78 0 -112 35.5t-34 128.5q0 91 33.5 124.5t112.5 33.5z" horiz-adv-x="345"/>
<glyph glyph-name="dollarsmall" d="M351 149q0 22 -12.5 34.5t-44.5 18.5v-110q57 8 57 57zM169 362q0 -21 12 -32t44 -16v104q-56 -8 -56 -56zM225 620h69v-102q86 -2 153 -24l-26 -94q-42 14 -127 18v-114q85 -12 126 -47t41 -104q0 -141 -167 -161v-110h-69v108q-96 2 -162 23l27 97q53 -16 135 -20v122 q-85 9 -126 41t-41 103q0 141 167 160v104z" horiz-adv-x="520"/>
<glyph glyph-name="numbersignsmall" d="M248 314l-7 -108h99l7 108h-99zM41 314l6 85h102l7 110h105l-7 -110h99l7 110h105l-7 -110h109l-6 -85h-109l-7 -108h111l-6 -85h-110l-9 -121h-105l9 121h-100l-8 -121h-105l8 121h-100l6 85h100l7 108h-102z" horiz-adv-x="597"/>
<glyph glyph-name="parenrightsmall" d="M277 250q0 -175 -58.5 -275t-156.5 -135l-57 93q32 12 56 31.5t44.5 54.5t31 93t10.5 138q0 104 -20 172t-49 97.5t-73 46.5l57 93q98 -35 156.5 -134.5t58.5 -274.5z" horiz-adv-x="345"/>
<glyph glyph-name="percentsmall" d="M590 54q33 0 43.5 18.5t10.5 76.5q0 57 -10 74t-44 17q-33 0 -44 -17.5t-11 -73.5q0 -57 11.5 -76t43.5 -19zM590 307q79 0 112.5 -33t33.5 -124q0 -93 -33.5 -128.5t-112.5 -35.5q-78 0 -112 35.5t-34 128.5q0 91 33.5 124t112.5 33zM172 270q33 0 43.5 19t10.5 76 t-10 74.5t-44 17.5q-33 0 -44 -18t-11 -74t11.5 -75.5t43.5 -19.5zM172 524q79 0 112.5 -33.5t33.5 -124.5q0 -93 -33.5 -128.5t-112.5 -35.5q-78 0 -112 35.5t-34 128.5q0 91 33.5 124.5t112.5 33.5zM514 509h106l-375 -509h-104z" horiz-adv-x="763"/>
<glyph glyph-name="sectionsmall" d="M158 298q-10 -13 -10 -28q0 -19 22 -28.5t69 -14.5q40 -4 79 -14q9 13 9 29q0 18 -21.5 27t-73.5 15q-45 5 -74 14zM413 504l-24 -78q-58 18 -128 18q-99 0 -99 -41q0 -20 19 -28t78 -12q87 -7 130 -33t43 -81q0 -39 -31 -73q23 -23 23 -63q0 -67 -53.5 -97t-158.5 -30 q-84 0 -151 19l24 79q50 -19 128 -19q37 0 68 10t31 32q0 19 -19 27.5t-78 12.5q-87 7 -130 33t-43 81q0 42 29 74q-21 24 -21 62q0 67 53.5 97t158.5 30q83 0 151 -20z" horiz-adv-x="474"/>
<glyph glyph-name="Sacutesmall" d="M257 568h-109l121 129h133zM434 496l-27 -97q-74 24 -148 24q-51 0 -71.5 -11t-20.5 -48q0 -26 21.5 -37.5t83.5 -17.5q95 -10 136 -44t41 -109q0 -94 -56 -132t-162 -38t-182 27l26 98q68 -24 151 -24q55 0 77.5 12t22.5 50q0 28 -22.5 41.5t-86.5 19.5 q-89 7 -130.5 38.5t-41.5 106.5q0 93 56.5 131t161.5 38q87 0 171 -28z" horiz-adv-x="491"/>
<glyph glyph-name="Scedillasmall" d="M434 496l-27 -97q-74 24 -148 24q-51 0 -71.5 -11t-20.5 -48q0 -26 21.5 -37.5t83.5 -17.5q95 -10 136 -44t41 -109q0 -87 -48.5 -125.5t-139.5 -43.5v-29q60 0 85 -17t25 -61q0 -47 -30.5 -65t-106.5 -18q-62 0 -98 16l22 54q24 -12 71 -12q23 0 32 5.5t9 20.5t-12.5 21 t-44.5 6q-23 0 -37 -1l30 80q-91 4 -157 26l26 98q68 -24 151 -24q55 0 77.5 12t22.5 50q0 28 -22.5 41.5t-86.5 19.5q-89 7 -130.5 38.5t-41.5 106.5q0 93 56.5 131t161.5 38q87 0 171 -28z" horiz-adv-x="491"/>
<glyph glyph-name="Scircumflexsmall" d="M443 568h-117l-71 76l-69 -76h-113l122 129h122zM434 496l-27 -97q-74 24 -148 24q-51 0 -71.5 -11t-20.5 -48q0 -26 21.5 -37.5t83.5 -17.5q95 -10 136 -44t41 -109q0 -94 -56 -132t-162 -38t-182 27l26 98q68 -24 151 -24q55 0 77.5 12t22.5 50q0 28 -22.5 41.5 t-86.5 19.5q-89 7 -130.5 38.5t-41.5 106.5q0 93 56.5 131t161.5 38q87 0 171 -28z" horiz-adv-x="491"/>
<glyph glyph-name="Scommaaccentsmall" d="M330 -51l-108 -167h-97l71 167h134zM434 496l-27 -97q-74 24 -148 24q-51 0 -71.5 -11t-20.5 -48q0 -26 21.5 -37.5t83.5 -17.5q95 -10 136 -44t41 -109q0 -94 -56 -132t-162 -38t-182 27l26 98q68 -24 151 -24q55 0 77.5 12t22.5 50q0 28 -22.5 41.5t-86.5 19.5 q-89 7 -130.5 38.5t-41.5 106.5q0 93 56.5 131t161.5 38q87 0 171 -28z" horiz-adv-x="491"/>
<glyph glyph-name="Wcircumflexsmall" d="M602 568h-117l-71 76l-69 -76h-113l122 129h122zM415 341q-38 -170 -98 -341h-153q-78 281 -164 509h131q65 -174 116 -382q26 75 60 193.5t50 188.5h121q56 -167 103 -382q80 220 118 382h126q-74 -264 -174 -509h-154q-37 192 -82 341z" horiz-adv-x="830"/>
<glyph glyph-name="Zacutesmall" d="M285 568h-109l121 129h133zM35 509h439v-25q-53 -85 -131.5 -197.5t-130.5 -178.5h255v-108h-449v25q70 88 148 199.5t118 176.5h-249v108z" horiz-adv-x="497"/>
<glyph glyph-name="Zdotaccentsmall" d="M253 681q35 0 47.5 -10t12.5 -45q0 -38 -12.5 -50t-47.5 -12t-47 11.5t-12 50.5q0 35 12 45t47 10zM35 509h439v-25q-53 -85 -131.5 -197.5t-130.5 -178.5h255v-108h-449v25q70 88 148 199.5t118 176.5h-249v108z" horiz-adv-x="497"/>
<glyph glyph-name="zeroop" d="M283 424q-61 0 -82.5 -32t-21.5 -137q0 -103 22 -136t82 -33q61 0 81 32.5t20 136.5q0 107 -20 138t-81 31zM283 -14q-117 0 -174.5 60.5t-57.5 210.5q0 149 57.5 208t174.5 59t173 -59t56 -208q0 -151 -56 -211t-173 -60z" horiz-adv-x="563"/>
<glyph glyph-name="oneop" d="M311 0h-125v362l-156 -71l-36 104l317 129v-524z" horiz-adv-x="380"/>
<glyph glyph-name="twoop" d="M91 386l-29 115q98 23 209 23q130 0 180 -36.5t50 -123.5q0 -75 -58.5 -137t-203.5 -126h273v-101h-455v91q135 75 201 119t87 71t21 59q0 39 -24 55t-92 16q-35 0 -85.5 -7.5t-73.5 -17.5z" horiz-adv-x="565"/>
<glyph glyph-name="threeop" d="M164 121v112h96q65 0 91 19t26 69q0 49 -30 67t-120 18q-104 0 -175 -22l-26 114q120 26 226 26q147 0 205.5 -41t58.5 -137q0 -77 -31 -117.5t-118 -47.5q93 -4 128 -49t35 -131q0 -112 -64.5 -157t-215.5 -45q-116 0 -229 25l25 114q71 -20 178 -20q98 0 130.5 21.5 t32.5 79.5t-27.5 80t-96.5 22h-99z" horiz-adv-x="582"/>
<glyph glyph-name="fourop" d="M358 103v296q-73 -93 -186 -296h186zM358 0h-346v40q174 305 297 469h175v-406h93v-103h-93v-192h-126v192z" horiz-adv-x="590"/>
<glyph glyph-name="fiveop" d="M83 509h432v-114h-307v-153q52 4 83 4q144 0 200 -49t56 -168q0 -131 -61.5 -181.5t-212.5 -50.5q-118 0 -222 25l26 114q66 -20 171 -20q95 0 125.5 22t30.5 84q0 67 -28.5 89.5t-121.5 22.5q-98 0 -171 -14v389z" horiz-adv-x="598"/>
<glyph glyph-name="sixop" d="M321 105q74 0 99 22t25 81q0 62 -25 87t-100 25q-63 0 -129 -10q2 -124 31 -164.5t99 -40.5zM560 687l-29 -116q-61 23 -164 23q-88 0 -129.5 -35t-44.5 -138q63 11 132 11q145 0 201.5 -49t56.5 -168q0 -131 -58 -180t-204 -49q-151 0 -210 78.5t-59 289.5 q0 107 17 176.5t56.5 110.5t96.5 57t145 16q102 0 193 -27z" horiz-adv-x="634"/>
<glyph glyph-name="sevenop" d="M530 509v-39q-70 -113 -165 -315.5t-143 -346.5h-149q57 158 138.5 329t143.5 258h-360v114h535z" horiz-adv-x="524"/>
<glyph glyph-name="eightop" d="M314 -14h-1q-143 0 -202.5 45.5t-59.5 156.5q0 86 34.5 131.5t128.5 49.5q-87 8 -117.5 49t-30.5 118q0 95 53 136.5t194 41.5t194.5 -41.5t53.5 -136.5q0 -77 -30.5 -118t-117.5 -49q93 -4 127.5 -49.5t34.5 -131.5q0 -111 -59 -156.5t-202 -45.5zM314 417 q60 0 86.5 22.5t26.5 75.5q0 51 -25 70t-88 19q-64 0 -89 -19t-25 -70q0 -53 26.5 -75.5t87.5 -22.5zM314 94q71 0 97.5 23t26.5 84t-28 87t-96 26q-69 0 -97 -26t-28 -87t26.5 -84t98.5 -23z" horiz-adv-x="627"/>
<glyph glyph-name="nineop" d="M323 190q62 0 108 7q9 35 9 72q0 87 -25.5 112t-101.5 25q-74 0 -99 -25t-25 -87q0 -65 25 -84.5t109 -19.5zM169 -192q169 160 227 275q-40 -5 -87 -5q-146 0 -202 46t-56 164q0 132 58.5 184t203.5 52q157 0 211.5 -50t54.5 -191q0 -137 -65.5 -250.5t-180.5 -224.5 h-164z" horiz-adv-x="630"/>
<glyph glyph-name="two.alt" d="M93 568l-29 114q105 32 226 32q136 0 197 -43.5t61 -159.5q0 -76 -36.5 -128t-124.5 -93q-86 -40 -125 -76.5t-49 -99.5h332v-114h-503q5 64 20.5 115.5t35.5 86t53 65.5t61 49.5t73 43.5q65 35 94 63t29 76q0 57 -28 76.5t-101 19.5q-114 0 -186 -27z" horiz-adv-x="609"/>
<glyph glyph-name="Ccircumflexsmall" d="M477 568h-117l-71 76l-69 -76h-113l122 129h122zM430 118l28 -106q-65 -26 -155 -26q-124 0 -188 61t-64 210q0 148 64 207.5t188 59.5q90 0 155 -24l-28 -106q-59 22 -118 22q-49 0 -75.5 -10.5t-42 -46t-15.5 -104.5q0 -96 30.5 -128.5t102.5 -32.5q59 0 118 24z" horiz-adv-x="470"/>
<glyph glyph-name="ccaront" d="M111 697h117l71 -76l69 76h113l-122 -129h-122zM534 171v230q-54 0 -135.5 8t-92.5 8q-72 0 -99.5 -31t-27.5 -131q0 -97 28.5 -129.5t98.5 -32.5q62 0 112 21l28 -102q-65 -26 -148 -26q-121 0 -184 61t-63 210q0 147 63.5 207t183.5 60q21 0 103.5 -7.5t132.5 -7.5v86 l124 51v-137h169v-108h-169v-219q0 -48 17.5 -68.5t61.5 -20.5q41 0 85 14l22 -98q-62 -23 -138 -23q-91 0 -131.5 38.5t-40.5 146.5z" horiz-adv-x="855"/>
<glyph glyph-name="scaront" d="M74 697h117l71 -76l69 76h113l-122 -129h-122zM573 171v230q-76 1 -186.5 11.5t-127.5 10.5q-51 0 -71.5 -11t-20.5 -48q0 -26 21.5 -37.5t83.5 -17.5q95 -10 136 -44t41 -109q0 -94 -56 -132t-162 -38t-182 27l26 98q68 -24 151 -24q55 0 77.5 12t22.5 50 q0 28 -22.5 41.5t-86.5 19.5q-89 7 -130.5 38.5t-41.5 106.5q0 93 56.5 131t161.5 38q19 0 133 -7.5t177 -7.5v86l124 51v-137h169v-108h-169v-219q0 -48 17.5 -68.5t61.5 -20.5q41 0 85 14l22 -98q-62 -23 -138 -23q-91 0 -131.5 38.5t-40.5 146.5z" horiz-adv-x="894"/>
<glyph glyph-name="ampersandsmall.2" d="M181 160q0 -39 24.5 -53.5t94.5 -14.5q69 0 122 13v118h-135q-57 0 -81.5 -14.5t-24.5 -48.5zM659 223h-123v-206q-134 -31 -239 -31q-135 0 -191.5 32t-56.5 117q0 62 30.5 96.5t103.5 38.5q-70 6 -97 34t-27 84q0 74 52 105t184 31q101 0 186 -20l-25 -108 q-69 22 -159 22q-63 0 -85 -11t-22 -40t22.5 -40t77.5 -11h369v-93z" horiz-adv-x="671"/>
<glyph glyph-name="man" d="M262 721q61 0 82 -16.5t21 -72.5q0 -63 -21 -82t-82 -19q-63 0 -84.5 19t-21.5 82q0 56 21.5 72.5t84.5 16.5zM345 419v-611h-76v372h-13v-372h-76v611q-22 -1 -29 -10.5t-7 -37.5v-191h-94v194q0 83 41 109t171 26q129 0 170.5 -26t41.5 -109v-194h-94v191 q0 28 -6.5 37.5t-28.5 10.5z" horiz-adv-x="524"/>
<glyph glyph-name="woman" d="M262 721q61 0 82 -16.5t21 -72.5q0 -63 -21 -82t-82 -19q-63 0 -84.5 19t-21.5 82q0 56 21.5 72.5t84.5 16.5zM324 419v-239q104 -241 180 -372h-484q130 284 180 372v239q-36 -1 -46 -10t-10 -38v-191h-74v194q0 83 38 109t154 26q115 0 153.5 -26.5t38.5 -108.5v-194 h-74v191q0 29 -10 38t-46 10z" horiz-adv-x="524"/>
<glyph glyph-name="escaperight" d="M530 531h-74q-63 0 -84.5 19t-21.5 82q0 56 21.5 72.5t84.5 16.5q52 0 76 -12t24 -45q0 -16 -4 -32zM1245 293l-273 -256l-54 57l163 159h-388l13 80h375l-163 159l54 57zM446 509q13 -60 73 -118t137 -58l-14 -80q-73 0 -133.5 36.5t-88.5 99.5l-49 -229 q84 -2 132.5 -45.5t48.5 -135.5q0 -48 -15 -111h-84q16 66 16 105q0 62 -39 89t-129 27q-37 -128 -102 -182.5t-177 -54.5l18 77q68 0 111.5 41t66.5 149l65 308q-39 0 -74.5 -41.5t-52.5 -132.5h-82q31 127 80.5 191.5t144.5 64.5h147z" horiz-adv-x="1267"/>
<glyph glyph-name="noentry" d="M544 371q0 22 -4 31l-41 -41v-16l45 -46v72zM308 371v-73l46 47v16l-42 41q-4 -7 -4 -31zM426 721q61 0 82 -16.5t21 -72.5q0 -63 -21 -82t-82 -19q-63 0 -84.5 19t-21.5 82q0 56 21.5 72.5t84.5 16.5zM838 0h-124l-215 215v-407h-66v372h-13v-372h-66v407l-215 -215 h-124l199 202v172q0 71 28 99l-223 224h133l187 -191q37 3 87 3q54 0 86 -4l189 192h133l-224 -225q28 -27 28 -98v-171z" horiz-adv-x="853"/>
<glyph glyph-name="escapeleft" d="M737 531l-22 101q-4 16 -4 32q0 33 24 45t76 12q63 0 84.5 -16.5t21.5 -72.5q0 -63 -21.5 -82t-84.5 -19h-74zM22 293l273 256l54 -57l-163 -159h375l13 -80h-388l163 -159l-54 -57zM821 509h147q95 0 144.5 -64.5t80.5 -191.5h-82q-17 91 -52.5 132.5t-74.5 41.5 l65 -308q23 -108 66.5 -149t111.5 -41l18 -77q-112 0 -177 54.5t-102 182.5q-90 0 -129 -27t-39 -89q0 -39 16 -105h-84q-15 63 -15 111q0 92 48.5 135.5t132.5 45.5l-49 229q-28 -63 -88.5 -99.5t-133.5 -36.5l-14 80q77 0 137 58t73 118z" horiz-adv-x="1267"/>
<glyph glyph-name="manneg" d="M551 -232h-418q-61 0 -82 19t-21 82v803q0 56 21 72.5t82 16.5h418q61 0 82 -16.5t21 -72.5v-803q0 -63 -21 -82t-82 -19zM343 721q-63 0 -84.5 -16.5t-21.5 -72.5q0 -63 21.5 -82t84.5 -19q61 0 82 19t21 82q0 56 -21 72.5t-82 16.5zM426 -192v611q22 -1 28.5 -10.5 t6.5 -37.5v-191h94v194q0 83 -41.5 109t-170.5 26q-130 0 -171 -26t-41 -109v-194h94v191q0 28 7 37.5t29 10.5v-611h76v372h13v-372h76z" horiz-adv-x="684"/>
<glyph glyph-name="womanneg" d="M551 -232h-418q-61 0 -82 19t-21 82v803q0 56 21 72.5t82 16.5h418q61 0 82 -16.5t21 -72.5v-803q0 -63 -21 -82t-82 -19zM343 721q-63 0 -84.5 -16.5t-21.5 -72.5q0 -63 21.5 -82t84.5 -19q61 0 82 19t21 82q0 56 -21 72.5t-82 16.5zM405 180v239q36 -1 46 -10t10 -38 v-191h74v194q0 82 -38.5 108.5t-153.5 26.5q-116 0 -154 -26t-38 -109v-194h74v191q0 29 10 38t46 10v-239q-50 -88 -180 -372h484q-76 131 -180 372z" horiz-adv-x="684"/>
<glyph glyph-name="escaperightneg" d="M515 531h74l22 101q4 16 4 32q0 33 -24 45t-76 12q-63 0 -84.5 -16.5t-21.5 -72.5q0 -63 21.5 -82t84.5 -19zM1031 37l273 256l-273 256l-54 -57l163 -159h-375l-13 -80h388l-163 -159zM505 509h-147q-95 0 -144.5 -64.5t-80.5 -191.5h82q17 91 52.5 132.5t74.5 41.5 l-65 -308q-23 -108 -66.5 -149t-111.5 -41l-18 -77q112 0 177 54.5t102 182.5q90 0 129 -27t39 -89q0 -39 -16 -105h84q15 63 15 111q0 92 -48.5 135.5t-132.5 45.5l49 229q28 -63 88.5 -99.5t133.5 -36.5l14 80q-77 0 -137 58t-73 118zM1240 -232h-1107q-61 0 -82 19 t-21 82v803q0 56 21 72.5t82 16.5h1107q61 0 82 -16.5t21 -72.5v-803q0 -63 -21 -82t-82 -19z" horiz-adv-x="1373"/>
<glyph glyph-name="escapeleftneg" d="M858 531q63 0 84.5 19t21.5 82q0 56 -21.5 72.5t-84.5 16.5q-52 0 -76 -12t-24 -45q0 -16 4 -32l22 -101h74zM342 37l54 57l-163 159h388l-13 80h-375l163 159l-54 57l-273 -256zM868 509q-13 -60 -73 -118t-137 -58l14 -80q73 0 133.5 36.5t88.5 99.5l49 -229 q-84 -2 -132.5 -45.5t-48.5 -135.5q0 -48 15 -111h84q-16 66 -16 105q0 62 39 89t129 27q37 -128 102 -182.5t177 -54.5l-18 77q-68 0 -111.5 41t-66.5 149l-65 308q39 0 74.5 -41.5t52.5 -132.5h82q-31 127 -80.5 191.5t-144.5 64.5h-147zM133 -232q-61 0 -82 19t-21 82 v803q0 56 21 72.5t82 16.5h1107q61 0 82 -16.5t21 -72.5v-803q0 -63 -21 -82t-82 -19h-1107z" horiz-adv-x="1373"/>
<glyph glyph-name="noentryneg" d="M597 371v-72l-45 46v16l41 41q4 -9 4 -31zM361 298v73q0 24 4 31l42 -41v-16zM479 721q-63 0 -84.5 -16.5t-21.5 -72.5q0 -63 21.5 -82t84.5 -19q61 0 82 19t21 82q0 56 -21 72.5t-82 16.5zM767 0h124l-200 203v171q0 71 -28 98l224 225h-133l-189 -192q-32 4 -86 4 q-49 0 -87 -3l-187 191h-133l223 -224q-28 -28 -28 -99v-172l-199 -202h124l215 215v-407h66v372h13v-372h66v407zM827 -232h-694q-61 0 -82 19t-21 82v803q0 56 21 72.5t82 16.5h694q61 0 82 -16.5t21 -72.5v-803q0 -63 -21 -82t-82 -19z" horiz-adv-x="960"/>
<glyph glyph-name="trash" d="M407 -5v-142h67l23 142h-90zM272 -5l23 -142h67v142h-90zM407 162v-122h97l20 122h-117zM245 162l19 -122h98v122h-117zM343 412q42 -46 160 -46l-83 -122q-44 3 -83.5 40t-39.5 62q0 9 7 21t15.5 21t16.5 16zM610 531l-22 101q-4 16 -4 32q0 33 24 45t76 12 q63 0 84.5 -16.5t21.5 -72.5q0 -63 -21.5 -82t-84.5 -19h-74zM879 180v-372h-66v372h-13l-60 -372h-66l60 372l-58 249h-363l-14 80h504zM171 334h46l20 -127h294l21 127h46l-85 -526h-257z" horiz-adv-x="1068"/>
<glyph glyph-name="material" d="M277 452l130 225q43 72 126 72q40 0 77 -19.5t57 -55.5l120 -206l105 60l-48 -240l-231 78l106 62l-119 207q-21 35 -65 35q-39 0 -58 -32l-131 -226zM425 -192h-260q-64 0 -106 45.5t-42 106.5q0 41 20 75l119 207l-105 61l232 78l48 -239l-106 61l-120 -207 q-9 -16 -9 -35q0 -29 19 -51t49 -22h261v-80zM904 258l130 -226q18 -31 18 -73q0 -64 -44 -107.5t-107 -43.5h-239v-122l-183 162l183 161v-122h239q29 0 50.5 21t21.5 51q0 20 -8 33l-130 227z" horiz-adv-x="1068"/>
<glyph glyph-name="recycling" d="M533 -228q-21 0 -63 4q42 -4 63 -4zM30 256q0 208 148 356t356 148t356 -148t148 -356t-148 -356t-356 -148t-356 148t-148 356zM534 739q-131 0 -242.5 -64.5t-177 -176t-65.5 -242.5q0 -96 36 -182.5t100 -152.5q-117 126 -117 287q0 71 27 133.5t81.5 115t146 85.5 t211.5 38v159zM534 739q95 -61 165 -126.5t137 -155.5q-140 -179 -302 -282v161q-162 -103 -302 -282q67 -90 137 -155.5t165 -126.5v159q232 11 348.5 116t116.5 255q0 108 -56.5 207t-165 164.5t-243.5 65.5z" horiz-adv-x="1068"/>
<glyph glyph-name="flammable" d="M472 41q9 -7 9 -21q0 -16 -12 -33.5t-31 -26.5h185q-26 16 -26 49q0 40 43 83q-14 -4 -21 -4q-44 0 -58 47q-2 8 -2 14q0 18 14 58q-14 -8 -31 -8q-33 0 -55 30q-1 1 -3 4q15 -53 33 -77q6 -9 6 -20q0 -21 -17.5 -39t-41.5 -18q-18 0 -37 13q25 -36 45 -51zM225 -79v39 h158q-26 11 -42.5 42t-24.5 66t-16.5 68.5t-26.5 55.5t-47 22q-8 0 -13 -1q35 15 61 15q40 0 68.5 -25.5t59.5 -72.5q-12 33 -23.5 122.5t-30 151t-54.5 67.5q18 2 24 2q29 0 52 -12.5t37.5 -29t28 -46.5t20 -51.5t16.5 -57.5q-1 7 -1 23q0 31 8.5 108t8.5 113q0 93 -44 110 q54 -4 85.5 -31t41.5 -69.5t12.5 -85.5t5.5 -92t13 -76q2 5 10.5 23t11 24t9.5 22.5t10 24.5t8.5 22t8 23t5.5 20t4 20.5t1 17.5q0 28 -15 43q75 -38 75 -123q0 -47 -28.5 -139t-28.5 -123q0 -4 -2 -12q9 8 28.5 23t29.5 23.5t22 20.5t17.5 23t5.5 21q0 12 -7 22 q48 -33 48 -73q0 -32 -41 -96t-47 -94q-1 -17 -18 -29h143v-39h-627zM195 -161h678q54 0 66.5 12t12.5 65v700q0 47 -12.5 57.5t-66.5 10.5h-678q-54 0 -67 -10.5t-13 -57.5v-700q0 -53 13 -65t67 -12zM881 -192h-694q-61 0 -82 17.5t-21 74.5v733q0 51 21 66t82 15h694 q61 0 82 -15t21 -66v-733q0 -57 -21 -74.5t-82 -17.5z" horiz-adv-x="1068"/>
<glyph glyph-name="poison" d="M280 -104l-118 117l253 254l-253 255l115 113l253 -252l255 257l119 -118l-256 -256l254 -253l-116 -117l-254 255zM195 -161h678q54 0 66.5 12t12.5 65v700q0 47 -12.5 57.5t-66.5 10.5h-678q-54 0 -67 -10.5t-13 -57.5v-700q0 -53 13 -65t67 -12zM881 -192h-694 q-61 0 -82 17.5t-21 74.5v733q0 51 21 66t82 15h694q61 0 82 -15t21 -66v-733q0 -57 -21 -74.5t-82 -17.5z" horiz-adv-x="1068"/>
<glyph glyph-name="Pct" d="M936 347v-240h-100v240h-96v73h292v-73h-96zM242 1v361q0 65 18.5 86.5t77.5 21.5q44 0 63.5 -24t19.5 -82t-22.5 -82t-78.5 -24q-40 0 -63 18v-66q31 -17 70 -17q176 0 176 172q0 86 -44.5 128.5t-127.5 42.5q-75 0 -122 -37.5t-47 -121.5v-315zM532 266q0 -100 88 -154 t223 -54q55 0 93 5v-92q-65 -45 -166.5 -68.5t-211.5 -23.5q-134 0 -248.5 52t-181.5 141t-67 193q0 160 146.5 274t350.5 114q111 0 212.5 -23.5t165.5 -68.5v-91q-38 5 -93 5q-135 0 -223 -54.5t-88 -154.5z" horiz-adv-x="1068"/>
<glyph glyph-name="warning" d="M534 66q-34 0 -46.5 -10t-12.5 -44q0 -36 12.5 -47t46.5 -11q35 0 47 11t12 47q0 34 -12 44t-47 10zM589 583h-112l25 -438h63zM53 4l398 689q35 57 85 57q52 0 85 -57l394 -689q18 -29 18 -61q0 -38 -27.5 -61.5t-75.5 -23.5h-791q-48 0 -76 24t-28 61q0 30 18 61z" horiz-adv-x="1068"/>
<glyph glyph-name="deadly" d="M53 4l398 689q35 57 85 57q52 0 85 -57l394 -689q18 -29 18 -61q0 -38 -27.5 -61.5t-75.5 -23.5h-791q-48 0 -76 24t-28 61q0 30 18 61zM640 281q35 0 55 -18.5t20 -53.5q0 -32 -9 -44t-29 -12q-14 0 -32 3q-33 6 -55.5 30t-22.5 49q0 29 14.5 37.5t58.5 8.5zM534 -98 q5 0 11.5 -4t14.5 -4h5q16 2 59 35t50 52q6 14 7 56.5t6 66.5l-24 3v-9q0 -38 -17 -82q-6 -8 -7 -2v2q-13 -13 -17 -12q-7 -12 -12 -9q-2 -1 -5 -4t-5.5 -4t-4.5 0q-2 -1 -5 -3l-4.5 -3t-4.5 -1.5t-4 1.5q-15 -8 -21 -4q-13 -10 -22 1q-10 -10 -23 -1q-6 -4 -20 4 q-5 -3 -18 6q-2 -1 -4.5 0t-5.5 4t-5 4q-5 -3 -12 9q-3 0 -6 1.5t-7 5.5l-5 5q1 -3 0 -4q-3 -2 -6 4q-17 44 -17 82v9q-1 0 -9.5 -1t-15.5 -2q5 -25 6.5 -67t7.5 -56q7 -19 50 -52t59 -35h5q8 0 14.5 4t11.5 4zM534 90q-11 -13 -24 -13q-14 0 -14 21q0 7 1 12q14 95 37 95 q21 0 37 -95q1 -4 1 -12q0 -21 -14 -21q-15 0 -24 13zM427 281q44 0 58.5 -8.5t14.5 -37.5q0 -25 -22.5 -49.5t-54.5 -29.5q-24 -4 -32 -4q-20 0 -29.5 12.5t-9.5 44.5q0 35 20.5 53.5t54.5 18.5zM534 15q7 10 16 10q6 0 13 -6q10 12 24 5q10 10 21 6q9 9 15 6q4 5 9 8t7 5 q3 6 3 15q0 10 -4 25.5t-4 18.5t1 3q14 2 20 2q12 0 31.5 -3t26.5 -3q23 0 34 20q8 16 8 29q0 6 -3 6q-1 0 -5 -2q2 24 2 39q0 38 -10 58q24 42 24 77q0 85 -65.5 141t-163.5 56t-163.5 -56t-65.5 -141q0 -37 23 -77q-9 -17 -9 -56q0 -15 2 -41q-4 2 -5 2q-3 0 -3 -6 q0 -13 8 -29q11 -20 34 -20q7 0 26 3t31 3q6 0 20 -2q1 0 1 -4q0 -3 -4 -19.5t-4 -25.5q0 -7 3 -13q2 -2 7 -5t9 -8q7 4 15 -6q12 3 21 -6q14 7 24 -5q8 6 14 6q9 0 16 -10z" horiz-adv-x="1068"/>
<glyph glyph-name="Ractive" d="M90 6q-19 -32 -19 -52q0 -33 15.5 -48.5t54.5 -15.5h787q39 0 54.5 15.5t15.5 48.5q0 21 -20 52l-379 662q-14 21 -20 29t-17 14.5t-26 6.5t-26.5 -6.5t-17 -14t-19.5 -29.5zM451 693q35 57 85 57q52 0 85 -57l394 -689q18 -29 18 -61q0 -38 -27.5 -61.5t-75.5 -23.5 h-791q-48 0 -76 24t-28 61q0 30 18 61zM799 189q0 -71 -36 -132t-96 -96l-94 163q37 23 37 65h189zM534 453q73 0 132 -36l-93 -163q-16 10 -39 10q-21 0 -37 -10l-94 164q60 35 131 35zM269 189h189q0 -43 39 -67l-94 -163q-61 34 -97.5 95.5t-36.5 134.5z" horiz-adv-x="1068"/>
<glyph glyph-name="CE" d="M470 -67q-134 0 -227.5 93.5t-93.5 226.5q0 134 94 228t227 94v-101q-92 0 -156 -64.5t-64 -156.5t64 -156t156 -64v-100zM914 -67q-134 0 -227.5 93.5t-93.5 226.5q0 134 94 228t227 94v-101q-78 0 -138 -49t-77 -124h185v-95h-185q15 -75 75 -124t140 -49v-100z" horiz-adv-x="1068"/>
<glyph glyph-name="FCC" d="M575 253q0 -67 44 -112t111 -45q51 0 88.5 26.5t47.5 73.5h87q-18 -80 -78.5 -131t-144.5 -51q-102 0 -167 68t-65 171q0 104 65 172t167 68q84 0 145 -51.5t79 -132.5h-88q-10 48 -47.5 75t-88.5 27q-66 0 -110.5 -45.5t-44.5 -112.5zM40 -93v569q0 63 29.5 95.5 t100.5 32.5h238v-87h-233q-40 0 -40 -41v-185h234q14 140 116 233.5t245 93.5q113 0 206 -63.5t130 -162.5h-93q-32 68 -96.5 108.5t-146.5 40.5q-118 0 -197.5 -85t-79.5 -203q0 -119 79 -203t198 -84q81 0 145.5 39.5t96.5 106.5h94q-38 -98 -131 -160t-205 -62 q-144 0 -246 92t-116 233h-233v-308h-95z" horiz-adv-x="1068"/>
<glyph glyph-name="VCI" d="M15 252q0 293 39 337q46 40 480 40q438 0 483 -42q15 -15 25.5 -111.5t10.5 -223.5q0 -132 -10 -224.5t-28 -111.5q-21 -19 -149 -30.5t-332 -11.5q-436 0 -482 41q-15 15 -26 113t-11 224zM55 252q0 -117 8 -207.5t19 -101.5q40 -33 452 -33q411 0 451 34q28 29 28 308 q0 115 -7.5 205.5t-17.5 101.5q-41 34 -454 34q-408 0 -450 -32q-29 -32 -29 -309zM125 252q0 216 31 247q18 15 119.5 25t258.5 10q159 0 262 -10.5t118 -26.5q12 -10 20.5 -81.5t8.5 -163.5q0 -218 -31 -246q-15 -15 -119 -26t-259 -11q-156 0 -259.5 10.5t-119.5 25.5 q-12 11 -21 83t-9 164zM163 252q0 -85 7 -148t18 -71q33 -26 346 -26t345 27q25 17 25 218q0 200 -23 218q-31 26 -347 26q-314 0 -344 -26q-27 -17 -27 -218zM786 364v-223h-37v223h37zM587 253q0 -29 11.5 -40.5t35.5 -11.5q16 0 22 2l13 -31q-15 -7 -35 -7 q-39 0 -62.5 25t-23.5 63q0 37 23.5 63t62.5 26q15 0 35 -9l-12 -30q-9 3 -23 3q-47 0 -47 -53zM456 364l-136 -223h-52v223h39v-177l103 177h46zM509 253q0 -53 34 -90t86 -37q33 0 58 13l14 -31q-38 -19 -72 -19q-73 0 -116.5 47t-43.5 117q0 69 43.5 116t116.5 47 q40 0 72 -19l-14 -32q-24 14 -58 14q-51 0 -85.5 -37.5t-34.5 -88.5z" horiz-adv-x="1068"/>
<glyph glyph-name="checked" d="M516 419q-26 0 -57 -29.5t-31 -60.5q0 -41 9 -114.5t21 -97.5q13 -26 37 -40t48 -14q31 0 134 109t177 200q21 -60 21 -119q0 -142 -100 -241.5t-242 -99.5t-241.5 99.5t-99.5 241.5t99.5 242t241.5 100q80 0 149.5 -34t116.5 -94q-25 -43 -107.5 -130.5t-108.5 -87.5 q-9 0 -21.5 43.5t-12.5 80.5q0 4 0.5 11t0.5 10q0 10 -9 17.5t-25 7.5z" horiz-adv-x="1068"/>
</font>
</defs>
</svg>
